<svg width="40" height="40" viewBox="0 0 40 40" fill="none" xmlns="http://www.w3.org/2000/svg">
<path fill-rule="evenodd" clip-rule="evenodd" d="M18.2907 10.4237C19.2673 11.5062 18.9577 12.7327 18.0942 13.8963C17.8895 14.1722 17.6535 14.4441 17.3685 14.7436C17.2317 14.8874 17.125 14.9955 16.9019 15.2189C16.3951 15.7261 15.9692 16.1523 15.6239 16.4975C15.4565 16.6649 16.5995 18.9491 18.8179 21.1696C21.035 23.3889 23.319 24.5327 23.4872 24.3644L24.7642 23.0866C25.4675 22.3826 25.84 22.043 26.3517 21.7072C27.4157 21.0092 28.5761 20.8196 29.5549 21.6947C32.7505 23.9806 34.5589 25.3833 35.4449 26.3039C37.1729 28.0994 36.9464 30.8631 35.4547 32.4398C34.9374 32.9865 34.2815 33.6428 33.5069 34.3896C28.8209 39.0781 18.9315 36.2248 11.3523 28.6382C3.77141 21.0498 0.919693 11.1594 5.59578 6.48085C6.43527 5.62817 6.71206 5.35152 7.52965 4.54592C9.05186 3.04603 11.9431 2.81118 13.7007 4.5474C14.6252 5.46066 16.0991 7.35706 18.2907 10.4237ZM27.1202 25.4434L25.8429 26.7214C23.6717 28.8938 19.9741 27.0421 16.4616 23.5261C12.9467 20.0077 11.097 16.3115 13.2689 14.1398C13.6137 13.7951 14.0393 13.3692 14.5456 12.8624C14.7499 12.6579 14.8434 12.5632 14.9556 12.4453C15.1084 12.2847 15.234 12.1436 15.3345 12.0188C13.3922 9.31319 12.0719 7.6226 11.3601 6.91948C10.9925 6.55636 10.1694 6.62322 9.86726 6.92096C9.06134 7.71507 8.79644 7.97984 7.96033 8.82901C4.95314 11.8379 7.25525 19.8221 13.7086 26.2817C20.1598 32.7393 28.1428 35.0425 31.1729 32.0112C31.9355 31.2756 32.557 30.6538 33.0353 30.1483C33.3809 29.783 33.4427 29.0291 33.0451 28.616C32.3829 27.9279 30.7616 26.6639 27.9622 24.6535C27.7581 24.8178 27.5073 25.056 27.1202 25.4434ZM33.3333 18.333V14.9997H27.357L36.1784 6.17816L33.8214 3.82114L24.9999 12.6426V6.66632H21.6666V18.333H33.3333Z" fill="#E30613"/>
</svg>
