<svg width="40" height="40" viewBox="0 0 40 40" fill="none" xmlns="http://www.w3.org/2000/svg">
<path fill-rule="evenodd" clip-rule="evenodd" d="M18.0942 13.8968C18.9577 12.7331 19.2673 11.5067 18.2907 10.4242C16.0991 7.35754 14.6252 5.46115 13.7007 4.54789C11.9431 2.81167 9.05186 3.04652 7.52965 4.5464C6.71206 5.35201 6.43527 5.62866 5.59578 6.48134C0.919693 11.1599 3.77141 21.0503 11.3523 28.6387C18.9315 36.2253 28.8209 39.0786 33.5069 34.3901C34.2815 33.6433 34.9374 32.987 35.4547 32.4403C36.9464 30.8636 37.1729 28.0998 35.4449 26.3044C34.5589 25.3838 32.7505 23.9811 29.5549 21.6952C28.5761 20.82 27.4157 21.0097 26.3517 21.7077C25.84 22.0435 25.4675 22.3831 24.7642 23.0871L23.4872 24.3649C23.319 24.5332 21.035 23.3893 18.8179 21.17C16.5995 18.9495 15.4565 16.6654 15.6239 16.498C15.9692 16.1528 16.3951 15.7266 16.9019 15.2194C17.125 14.996 17.2317 14.8879 17.3685 14.7441C17.6535 14.4446 17.8895 14.1727 18.0942 13.8968ZM25.8429 26.7219L27.1202 25.4439C27.5073 25.0564 27.7581 24.8182 27.9622 24.654C30.7616 26.6643 32.3829 27.9284 33.0451 28.6165C33.4427 29.0296 33.3809 29.7834 33.0353 30.1487C32.557 30.6543 31.9355 31.2761 31.1729 32.0116C28.1428 35.043 20.1598 32.7398 13.7086 26.2822C7.25525 19.8225 4.95314 11.8383 7.96033 8.82946C8.79644 7.98028 9.06134 7.71551 9.86726 6.92141C10.1694 6.62367 10.9925 6.55681 11.3601 6.91993C12.0719 7.62305 13.3922 9.31364 15.3345 12.0192C15.234 12.144 15.1084 12.2851 14.9556 12.4457C14.8434 12.5636 14.7499 12.6583 14.5456 12.8628C14.0393 13.3697 13.6137 13.7955 13.2689 14.1402C11.097 16.312 12.9467 20.0082 16.4616 23.5266C19.9741 27.0425 23.6717 28.8943 25.8429 26.7219ZM22.7583 3.44939C29.9638 4.32279 35.6772 10.0362 36.5506 17.2417L33.2582 17.7905C32.6225 11.9865 28.0135 7.3775 22.2096 6.74179L22.7583 3.44939ZM21.6605 10.037C26.063 10.4308 29.5693 13.9371 29.9631 18.3397L26.6602 18.8902C26.52 15.8887 24.1115 13.4801 21.11 13.34L21.6605 10.037Z" fill="white"/>
</svg>
