<svg width="40" height="40" viewBox="0 0 40 40" fill="none" xmlns="http://www.w3.org/2000/svg">
<path fill-rule="evenodd" clip-rule="evenodd" d="M20 40C8.9543 40 0 31.0457 0 20C0 8.9543 8.9543 0 20 0C31.0457 0 40 8.9543 40 20C40 31.0457 31.0457 40 20 40ZM20 35C28.2843 35 35 28.2843 35 20C35 11.7157 28.2843 5 20 5C11.7157 5 5 11.7157 5 20C5 28.2843 11.7157 35 20 35ZM14.2679 29.2678L20.0001 23.5355L25.7323 29.2678L29.2679 25.7322L23.5356 20L29.2679 14.2678L25.7323 10.7322L20.0001 16.4645L14.2679 10.7322L10.7323 14.2678L16.4646 20L10.7323 25.7322L14.2679 29.2678Z" fill="#E30613"/>
</svg>
