<svg width="40" height="40" viewBox="0 0 40 40" fill="none" xmlns="http://www.w3.org/2000/svg">
<path fill-rule="evenodd" clip-rule="evenodd" d="M27.0997 4C28.1472 4 29.1514 4.41827 29.8848 5.15747L34.8463 10.1189C35.5849 10.8576 35.9999 11.8594 35.9999 12.9041C35.9999 13.9487 35.5849 14.9506 34.8463 15.6893L16.732 33.7979C15.6144 35.087 14.0302 35.8791 12.2153 36.0036H4V34.4036L4.0052 27.6596C4.1415 25.9724 4.92586 24.4036 6.12238 23.3494L24.3125 5.1594C25.0501 4.41733 26.0533 4 27.0997 4ZM12.1024 32.8073C12.9572 32.7467 13.7528 32.3489 14.3917 31.6181L26.4905 19.5193L20.4835 13.5121L8.31381 25.6789C7.66557 26.2522 7.26454 27.0543 7.20005 27.7881V32.8042L12.1024 32.8073ZM22.7465 11.2497L28.7532 17.2566L32.5836 13.4262C32.7222 13.2877 32.8 13.0997 32.8 12.9038C32.8 12.7078 32.7222 12.5199 32.5836 12.3813L27.6178 7.41542C27.4807 7.27733 27.2943 7.19965 27.0997 7.19965C26.9052 7.19965 26.7187 7.27733 26.5817 7.41542L22.7465 11.2497Z" fill="white"/>
</svg>
