<svg width="40" height="40" viewBox="0 0 40 40" fill="none" xmlns="http://www.w3.org/2000/svg">
<path fill-rule="evenodd" clip-rule="evenodd" d="M20.0003 1.6665C30.1255 1.6665 38.3337 9.87462 38.3337 19.9998C38.3337 30.1251 30.1255 38.3332 20.0003 38.3332C9.8751 38.3332 1.66699 30.1251 1.66699 19.9998C1.66699 9.87462 9.8751 1.6665 20.0003 1.6665ZM34.869 21.9938C33.1021 22.9129 30.7749 23.6814 28.1324 24.2113C27.7567 28.048 26.8683 31.4348 25.5761 33.9293C30.508 31.9534 34.1464 27.4341 34.869 21.9938ZM24.9775 21.3406C24.9926 20.8993 25.0004 20.452 25.0004 19.9998C25.0004 11.6398 22.3444 4.99981 20.0004 4.99981C17.6564 4.99981 15.0004 11.6398 15.0004 19.9998C15.0004 20.4781 15.0091 20.9508 15.0259 21.4169C16.5893 21.5803 18.2599 21.6665 20.0002 21.6665C21.7137 21.6665 23.3949 21.5456 24.9775 21.3406ZM28.3274 20.7567C28.3315 20.5056 28.3337 20.2533 28.3337 19.9998C28.3337 14.4537 27.3244 9.44528 25.576 6.07029C30.5364 8.05759 34.1883 12.6177 34.8812 18.0999C34.0971 18.9802 31.6233 20.026 28.3274 20.7567ZM15.2986 24.7954C16.7937 24.9301 18.3684 24.9998 20.0002 24.9998C21.6058 24.9998 23.1877 24.9088 24.7092 24.74C23.9574 30.736 21.8787 34.9998 20.0004 34.9998C18.1278 34.9998 16.0562 30.7622 15.2986 24.7954ZM11.6762 20.9169C10.7196 20.726 9.82805 20.5013 9.01399 20.2457C6.94676 19.5965 5.59577 18.8008 5.10977 18.179C5.77743 12.6616 9.4405 8.06722 14.4246 6.07034C12.6763 9.44533 11.667 14.4538 11.667 19.9998C11.667 20.3072 11.6701 20.613 11.6762 20.9169ZM11.8822 24.3512C12.2656 28.1303 13.1481 31.4651 14.4245 33.9293C9.57831 31.9876 5.98102 27.5901 5.17199 22.2762C6.91112 23.182 9.20592 23.886 11.8822 24.3512Z" fill="#E30613"/>
</svg>
