<svg width="40" height="40" viewBox="0 0 40 40" fill="none" xmlns="http://www.w3.org/2000/svg">
<path fill-rule="evenodd" clip-rule="evenodd" d="M11.6663 3.3335H28.333C30.174 3.3335 31.6663 4.82588 31.6663 6.66683V33.3335C31.6663 35.1744 30.174 36.6668 28.333 36.6668H11.6663C9.82539 36.6668 8.33301 35.1744 8.33301 33.3335V6.66683C8.33301 4.82588 9.82539 3.3335 11.6663 3.3335ZM11.6663 6.66683V33.3335H28.333V6.66683H11.6663ZM21.6663 30.0002C21.6663 30.9206 20.9202 31.6668 19.9997 31.6668C19.0792 31.6668 18.333 30.9206 18.333 30.0002C18.333 29.0797 19.0792 28.3335 19.9997 28.3335C20.9202 28.3335 21.6663 29.0797 21.6663 30.0002Z" fill="white"/>
</svg>
