<svg width="40" height="40" viewBox="0 0 40 40" fill="none" xmlns="http://www.w3.org/2000/svg">
<path fill-rule="evenodd" clip-rule="evenodd" d="M20 38.8791L21.0962 37.9219C30.3145 29.8727 35 22.8444 35 16.6665C35 7.91761 28.1716 1.6665 20 1.6665C11.8284 1.6665 5 7.91761 5 16.6665C5 22.8444 9.68551 29.8727 18.9038 37.9219L20 38.8791ZM20 34.4388C12.1777 27.3891 8.33333 21.4152 8.33333 16.6665C8.33333 9.82751 13.6069 4.99984 20 4.99984C26.3931 4.99984 31.6667 9.82751 31.6667 16.6665C31.6667 21.4152 27.8223 27.3891 20 34.4388ZM20 8.33317C24.6024 8.33317 28.3333 12.0641 28.3333 16.6665C28.3333 21.2689 24.6024 24.9998 20 24.9998C15.3976 24.9998 11.6667 21.2689 11.6667 16.6665C11.6667 12.0641 15.3976 8.33317 20 8.33317ZM15 16.6665C15 13.9051 17.2386 11.6665 20 11.6665C22.7614 11.6665 25 13.9051 25 16.6665C25 19.4279 22.7614 21.6665 20 21.6665C17.2386 21.6665 15 19.4279 15 16.6665Z" fill="white"/>
</svg>
