<svg width="40" height="40" viewBox="0 0 40 40" fill="none" xmlns="http://www.w3.org/2000/svg">
<path fill-rule="evenodd" clip-rule="evenodd" d="M11.6667 13.3332V19.1665L5 24.1665V33.3332H11.6667C11.6667 35.1741 13.159 36.6665 15 36.6665H18.3333V38.3332H21.6667V36.6665H25C26.8409 36.6665 28.3333 35.1741 28.3333 33.3332H35V24.1665L28.3333 19.1665V13.3332C28.3333 8.07304 25.1441 1.6665 20 1.6665C14.8559 1.6665 11.6667 8.07304 11.6667 13.3332ZM21.6667 33.3332H25V16.6665V13.3332C25 9.67856 22.6709 4.99984 20 4.99984C17.3291 4.99984 15 9.67856 15 13.3332V16.6665V33.3332H18.3333V23.3332H21.6667V33.3332ZM8.33333 25.8332L11.6667 23.3332V29.9998H8.33333V25.8332ZM28.3333 29.9998V23.3332L31.6667 25.8332V29.9998H28.3333ZM20 18.3332C18.159 18.3332 16.6667 16.8408 16.6667 14.9998C16.6667 13.1589 18.159 11.6665 20 11.6665C21.8409 11.6665 23.3333 13.1589 23.3333 14.9998C23.3333 16.8408 21.8409 18.3332 20 18.3332Z" fill="#E30613"/>
</svg>
