<svg width="40" height="40" viewBox="0 0 40 40" fill="none" xmlns="http://www.w3.org/2000/svg">
<path fill-rule="evenodd" clip-rule="evenodd" d="M20 40C8.9543 40 0 31.0457 0 20C0 8.9543 8.9543 0 20 0C31.0457 0 40 8.9543 40 20C40 31.0457 31.0457 40 20 40ZM20.0004 36.3633C29.0377 36.3633 36.364 29.0371 36.364 19.9997C36.364 10.9623 29.0377 3.63607 20.0004 3.63607C10.963 3.63607 3.63672 10.9623 3.63672 19.9997C3.63672 29.0371 10.963 36.3633 20.0004 36.3633ZM28.928 26.2697L25.9536 24.1777C24.5984 26.1046 22.3988 27.2726 19.9997 27.2726C17.6006 27.2726 15.4009 26.1046 14.0457 24.1777L11.0714 26.2697C13.1005 29.1547 16.4041 30.909 19.9997 30.909C23.5952 30.909 26.8988 29.1547 28.928 26.2697ZM23.6367 18.1818V14.5455H27.2731V18.1818H23.6367ZM12.7276 14.5455V18.1818H16.364V14.5455H12.7276Z" fill="white"/>
</svg>
