<svg width="40" height="40" viewBox="0 0 40 40" fill="none" xmlns="http://www.w3.org/2000/svg">
<path fill-rule="evenodd" clip-rule="evenodd" d="M3.33301 16.6668C3.33301 24.0306 9.30254 30.0002 16.6663 30.0002C19.7475 30.0002 22.5846 28.955 24.8424 27.1999L33.8212 36.1787L36.1782 33.8217L27.1994 24.8429C28.9545 22.5851 29.9997 19.748 29.9997 16.6668C29.9997 9.30303 24.0301 3.3335 16.6663 3.3335C9.30254 3.3335 3.33301 9.30303 3.33301 16.6668ZM16.6663 26.6668C22.1892 26.6668 26.6663 22.1897 26.6663 16.6668C26.6663 11.144 22.1892 6.66683 16.6663 6.66683C11.1435 6.66683 6.66634 11.144 6.66634 16.6668C6.66634 22.1897 11.1435 26.6668 16.6663 26.6668ZM14.9997 10.0002V15.0002H9.99967V18.3335H14.9997V23.3335H18.333V18.3335H23.333V15.0002H18.333V10.0002H14.9997Z" fill="#E30613"/>
</svg>
