<svg width="72" height="72" viewBox="0 0 72 72" fill="none" xmlns="http://www.w3.org/2000/svg">
<circle cx="36" cy="36" r="36" fill="black"/>
<path fill-rule="evenodd" clip-rule="evenodd" d="M17.2544 55.1997C17.3168 54.358 17.7538 53.5752 18.0224 52.7684C18.8312 50.3531 19.6373 47.6832 20.56 45.2465C19.0049 42.4372 17.8895 39.451 17.8705 35.7464C17.8515 32.0471 18.8991 28.7017 20.408 26.0961C23.2496 21.1932 28.9163 17.1884 35.8722 16.8238C39.4031 16.6389 42.4238 17.5235 44.9505 18.7244C51.6974 21.9304 57.6329 29.8999 55.0302 40.1533C53.6488 45.595 49.9442 49.8572 45.2599 52.2349C42.9747 53.3956 39.5768 54.3499 36.2576 54.2105C32.9384 54.0711 30.1023 53.2428 27.6408 51.8543C24.213 53.0016 20.6496 54.0175 17.2544 55.1997ZM38.1031 51.1707C40.2553 51.0152 42.3315 50.3236 43.949 49.498C48.7039 47.072 52.6419 42.0592 52.6419 35.5158C52.6419 31.2215 50.7882 27.3748 48.3348 24.7263C46.0578 22.2709 42.3342 20.1478 38.0244 19.8636C33.4188 19.5581 30.1213 20.9386 27.5621 22.7507C25.3963 24.284 23.8222 26.1712 22.6389 28.4497C21.3932 30.8489 20.5953 33.7466 20.9454 37.1885C21.1924 39.6172 21.9224 41.4829 22.8696 43.1905C23.1247 43.6515 23.8548 44.4021 23.8711 44.8632C23.8819 45.1741 23.559 45.7907 23.4097 46.2303C22.8913 47.7529 22.4245 49.1093 21.9469 50.4845C24.0339 49.9108 26.0205 49.2407 28.0262 48.5839C30.9084 50.3317 33.6766 51.4897 38.1031 51.1707Z" fill="#50B848"/>
<path fill-rule="evenodd" clip-rule="evenodd" d="M28.0262 48.5866C26.0233 49.2406 24.034 49.9135 21.9469 50.4871C22.4246 49.1093 22.8914 47.7556 23.4098 46.233C23.559 45.7934 23.882 45.1768 23.8711 44.8659C23.8549 44.4048 23.1248 43.6542 22.8697 43.1931C21.9252 41.4829 21.1952 39.6172 20.9455 37.1912C20.5954 33.7493 21.3906 30.8515 22.639 28.4524C23.825 26.1738 25.3991 24.2867 27.5621 22.7534C30.1214 20.9386 33.4189 19.5607 38.0245 19.8663C42.3343 20.1505 46.0579 22.2735 48.3349 24.729C50.7883 27.3774 52.642 31.2241 52.642 35.5185C52.642 42.0619 48.704 47.0747 43.9491 49.5007C42.3316 50.3263 40.2554 51.0179 38.1032 51.1734C33.6767 51.4897 30.9085 50.3317 28.0262 48.5866ZM30.1024 27.0826C28.9001 27.356 27.7358 28.9912 27.5621 30.6532C27.2907 33.2748 28.5907 35.0306 29.717 36.58C31.5734 39.1347 33.883 41.4052 36.8711 42.8098C38.4289 43.5416 40.4698 44.3726 42.1036 44.3297C44.2612 44.2734 46.6576 42.8045 46.3347 39.8477C45.6481 39.3491 45.0103 39.0355 44.1798 38.6307C43.5664 38.3332 42.3614 37.6201 41.7182 37.7193C40.6408 37.8828 40.3884 39.8692 39.3326 39.9978C38.5646 40.0917 37.5984 39.4135 37.0258 39.0864C35.4869 38.2099 34.632 37.4673 33.5627 36.1217C33.1448 35.5936 32.3007 34.658 32.3306 34.071C32.374 33.248 33.7934 32.6395 33.8694 31.7924C33.94 30.9882 33.2208 30.0232 32.9467 29.3611C32.5857 28.4872 32.4283 27.6589 31.8692 27.0826C31.283 26.9593 30.5719 26.9753 30.1024 27.0826Z" fill="white"/>
<path fill-rule="evenodd" clip-rule="evenodd" d="M31.8718 27.0828C32.4309 27.6619 32.5883 28.4902 32.9492 29.3614C33.2234 30.0235 33.9426 30.9885 33.872 31.7927C33.796 32.6425 32.3766 33.2483 32.3332 34.0712C32.3033 34.6583 33.1446 35.5965 33.5653 36.1219C34.6346 37.4676 35.4868 38.2074 37.0283 39.0867C37.6037 39.4137 38.5672 40.0919 39.3352 39.9981C40.391 39.8694 40.6434 37.8831 41.7208 37.7196C42.364 37.6204 43.569 38.3334 44.1824 38.631C45.0129 39.0331 45.6506 39.3494 46.3373 39.848C46.6602 42.8047 44.2638 44.2737 42.1062 44.33C40.4751 44.3729 38.4315 43.5419 36.8736 42.8101C33.8828 41.4081 31.5733 39.1349 29.7169 36.583C28.5906 35.0336 27.2906 33.2778 27.562 30.6561C27.7357 28.9914 28.8973 27.3589 30.1023 27.0855C30.5718 26.9756 31.2829 26.9595 31.8718 27.0828Z" fill="#50B848"/>
</svg>
