<svg width="72" height="72" viewBox="0 0 72 72" fill="none" xmlns="http://www.w3.org/2000/svg">
<circle cx="36" cy="36" r="36" fill="black"/>
<g clip-path="url(#clip0)">
<path fill-rule="evenodd" clip-rule="evenodd" d="M45.6566 51.6481C46.1633 52.0161 46.8283 52.0961 47.4141 51.8881C48 51.6641 48.4275 51.1521 48.5541 50.5441C49.9316 44.0001 53.2725 27.4561 54.5233 21.5201C54.6183 21.0721 54.46 20.6081 54.1116 20.3041C53.7633 20.0001 53.2883 19.9201 52.8608 20.0801C46.2108 22.5601 25.77 30.3201 17.41 33.4401C16.8875 33.6321 16.5391 34.1601 16.555 34.7201C16.5708 35.2801 16.9508 35.7761 17.4891 35.9361C21.2416 37.0721 26.15 38.6401 26.15 38.6401C26.15 38.6401 28.4458 45.6641 29.6491 49.2321C29.8075 49.6801 30.14 50.0321 30.5991 50.1601C31.0583 50.2881 31.5491 50.1601 31.8816 49.8241C33.8133 47.9841 36.79 45.1521 36.79 45.1521C36.79 45.1521 42.4583 49.3441 45.6566 51.6481ZM28.2241 37.7601L30.8841 46.6241L31.47 41.0081C31.47 41.0081 41.7458 31.6481 47.6041 26.3041C47.7783 26.1441 47.7941 25.8881 47.6516 25.6961C47.5091 25.5201 47.2558 25.4721 47.05 25.6001C40.2733 29.9841 28.2241 37.7601 28.2241 37.7601Z" fill="white"/>
</g>
<defs>
<clipPath id="clip0">
<rect x="16.5547" y="20" width="38" height="32" fill="white"/>
</clipPath>
</defs>
</svg>
