<svg width="72" height="72" viewBox="0 0 72 72" fill="none" xmlns="http://www.w3.org/2000/svg">
<circle cx="36" cy="36" r="36" fill="black"/>
<path fill-rule="evenodd" clip-rule="evenodd" d="M28 20H44C45.7674 20 47.2001 21.4327 47.2001 23.2V48.8C47.2001 50.5673 45.7674 52 44 52H28C26.2327 52 24.8 50.5673 24.8 48.8V23.2C24.8 21.4327 26.2327 20 28 20ZM28 23.2V48.8H44V23.2H28ZM37.6 45.6C37.6 46.4837 36.8837 47.2 36 47.2C35.1164 47.2 34.4 46.4837 34.4 45.6C34.4 44.7164 35.1164 44 36 44C36.8837 44 37.6 44.7164 37.6 45.6Z" fill="white"/>
</svg>
