<svg width="30" height="30" viewBox="0 0 30 30" fill="none" xmlns="http://www.w3.org/2000/svg">
<path fill-rule="evenodd" clip-rule="evenodd" d="M7.90932 1.20508H21.3183C22.7994 1.20508 24 2.40575 24 3.88686V25.3411C24 26.8223 22.7994 28.0229 21.3183 28.0229H7.90932C6.42822 28.0229 5.22754 26.8223 5.22754 25.3411V3.88686C5.22754 2.40575 6.42822 1.20508 7.90932 1.20508ZM7.9094 3.88702V25.3413H21.3183V3.88702H7.9094ZM15.9546 22.6594C15.9546 23.3999 15.3543 24.0003 14.6137 24.0003C13.8731 24.0003 13.2728 23.3999 13.2728 22.6594C13.2728 21.9188 13.8731 21.3185 14.6137 21.3185C15.3543 21.3185 15.9546 21.9188 15.9546 22.6594Z" fill="white"/>
</svg>
