<svg width="30" height="30" viewBox="0 0 30 30" fill="none" xmlns="http://www.w3.org/2000/svg">
<path fill-rule="evenodd" clip-rule="evenodd" d="M15 29.1595L15.8222 28.4416C22.7359 22.4047 26.25 17.1335 26.25 12.5C26.25 5.93833 21.1287 1.25 15 1.25C8.87132 1.25 3.75 5.93833 3.75 12.5C3.75 17.1335 7.26413 22.4047 14.1778 28.4416L15 29.1595ZM15 25.8293C9.13325 20.5419 6.24999 16.0615 6.24999 12.5C6.24999 7.37075 10.2051 3.75 15 3.75C19.7948 3.75 23.75 7.37075 23.75 12.5C23.75 16.0615 20.8667 20.5419 15 25.8293ZM15 6.25C18.4518 6.25 21.25 9.04822 21.25 12.5C21.25 15.9518 18.4518 18.75 15 18.75C11.5482 18.75 8.74998 15.9518 8.74998 12.5C8.74998 9.04822 11.5482 6.25 15 6.25ZM11.25 12.5C11.25 10.4289 12.9289 8.75 15 8.75C17.071 8.75 18.75 10.4289 18.75 12.5C18.75 14.5711 17.071 16.25 15 16.25C12.9289 16.25 11.25 14.5711 11.25 12.5Z" fill="white"/>
</svg>
