<?xml version="1.0" encoding="utf-8"?>
<!-- Generator: Adobe Illustrator 23.0.3, SVG Export Plug-In . SVG Version: 6.00 Build 0)  -->
<svg version="1.1" id="Layer_1" xmlns="http://www.w3.org/2000/svg" xmlns:xlink="http://www.w3.org/1999/xlink" x="0px" y="0px"
	 viewBox="-49 141 512 512" style="enable-background:new -49 141 512 512;" xml:space="preserve">
<style type="text/css">
	.st0{fill:#282828;}
	.st1{fill:#04AACA;}
</style>
<path class="st0" d="M195.8,641.79c-0.05,0-0.09,0-0.14,0C130.27,641.76,68.81,616.26,22.6,570S-49.04,462.25-49,396.86
	c0.04-65.39,25.54-126.85,71.8-173.06c46.23-46.17,107.66-71.6,172.99-71.6c0.05,0,0.09,0,0.14,0c34.5,0.02,67.98,7.15,99.49,21.19
	c10.43,4.65,15.12,16.88,10.47,27.31c-4.65,10.43-16.87,15.12-27.31,10.47c-26.19-11.67-54.01-17.6-82.68-17.61
	c-0.04,0-0.08,0-0.12,0c-54.29,0-105.34,21.13-143.76,59.5C13.59,291.47-7.6,342.55-7.64,396.88
	C-7.7,509.06,83.51,600.37,195.68,600.43c0.04,0,0.08,0,0.12,0c54.29,0,105.34-21.13,143.76-59.5
	c38.45-38.4,59.63-89.47,59.67-143.81v-20.83c0-11.42,9.26-20.68,20.68-20.68c11.42,0,20.68,9.26,20.68,20.68v20.84
	c-0.04,65.4-25.54,126.86-71.8,173.07C322.57,616.37,261.13,641.79,195.8,641.79z"/>
<path class="st1" d="M195.79,462.63c-5.29,0-10.59-2.02-14.62-6.06l-67.23-67.23c-8.08-8.08-8.08-21.17,0-29.25
	c8.08-8.08,21.17-8.08,29.25,0l52.61,52.61l231.9-231.9c8.08-8.08,21.17-8.08,29.25,0c8.08,8.08,8.08,21.17,0,29.25L210.42,456.57
	C206.38,460.61,201.09,462.63,195.79,462.63z"/>
</svg>
