<svg width="200" height="200" viewBox="0 0 200 200" fill="none" xmlns="http://www.w3.org/2000/svg">
<path d="M99.9706 147.77C126.37 147.77 147.77 126.37 147.77 99.9709C147.77 73.572 126.37 52.1714 99.9706 52.1714C73.5717 52.1714 52.1711 73.572 52.1711 99.9709C52.1711 126.37 73.5717 147.77 99.9706 147.77Z" stroke="white" stroke-width="7" stroke-miterlimit="10" stroke-linecap="round" stroke-linejoin="round"/>
<path d="M53.6869 88.1959C38.8224 86.0974 27.3972 73.3314 27.3972 57.9423C27.3972 41.0959 41.0958 27.3973 57.9422 27.3973H168.93V4.3719H57.9422C28.3881 4.3719 4.37183 28.3882 4.37183 57.9423C4.37183 85.9808 26.0565 109.064 53.5703 111.338" stroke="white" stroke-width="7" stroke-miterlimit="10" stroke-linecap="round" stroke-linejoin="round"/>
<path d="M146.313 111.804C161.12 113.903 172.603 126.669 172.603 142.058C172.603 158.904 158.905 172.603 142.058 172.603H31.0701V195.628H142.058C171.612 195.628 195.628 171.612 195.628 142.058C195.628 114.019 173.944 90.9355 146.43 88.6621" stroke="white" stroke-width="7" stroke-miterlimit="10" stroke-linecap="round" stroke-linejoin="round"/>
<path d="M168.93 15.8554H195.628" stroke="white" stroke-width="7" stroke-miterlimit="10" stroke-linecap="round" stroke-linejoin="round"/>
<path d="M4.37183 184.086H31.0696" stroke="white" stroke-width="7" stroke-miterlimit="10" stroke-linecap="round" stroke-linejoin="round"/>
<path d="M99.9706 122.297L110.055 99.9708H89.9443L99.9706 77.7032" stroke="white" stroke-width="7" stroke-miterlimit="10" stroke-linecap="round" stroke-linejoin="round"/>
</svg>
