<svg width="265" height="133" viewBox="0 0 265 133" fill="none" xmlns="http://www.w3.org/2000/svg">
<g clip-path="url(#clip0)">
<path d="M112.304 98.809H147.532V81.5678H1.69702V98.809H33.3128" stroke="white" stroke-width="5" stroke-miterlimit="10" stroke-linecap="round" stroke-linejoin="round"/>
<path d="M60.8066 98.809H84.8094" stroke="white" stroke-width="5" stroke-miterlimit="10" stroke-linecap="round" stroke-linejoin="round"/>
<path d="M175.05 66.4393V36.765H166.734C163.049 36.765 160.091 39.7519 160.091 43.4187V66.415H175.05V66.4393Z" stroke="white" stroke-width="5" stroke-miterlimit="10" stroke-linecap="round" stroke-linejoin="round"/>
<path d="M246.234 116.05H263.303V102.524L254.986 98.8819V75.0841L213.43 66.4393V99.149" stroke="white" stroke-width="5" stroke-miterlimit="10" stroke-linecap="round" stroke-linejoin="round"/>
<path d="M208.775 116.05H175.39V98.8819H213.43" stroke="white" stroke-width="5" stroke-miterlimit="10" stroke-linecap="round" stroke-linejoin="round"/>
<path d="M201.405 36.765H175.39V66.4393H213.43L201.405 36.765Z" stroke="white" stroke-width="5" stroke-miterlimit="10" stroke-linecap="round" stroke-linejoin="round"/>
<path d="M246.647 112.141C246.647 122.728 238.088 131.3 227.517 131.3C216.946 131.3 208.388 122.728 208.388 112.141C208.388 101.553 216.946 92.981 227.517 92.981C238.088 92.981 246.647 101.553 246.647 112.141Z" stroke="white" stroke-width="5" stroke-miterlimit="10"/>
<path d="M227.517 119.596C223.42 119.596 220.074 116.244 220.074 112.141C220.074 108.037 223.42 104.686 227.517 104.686C231.614 104.686 234.96 108.037 234.96 112.141C234.96 116.244 231.614 119.596 227.517 119.596Z" stroke="white" stroke-width="5" stroke-miterlimit="10"/>
<path d="M66.1893 112.141C66.1893 122.728 57.6308 131.3 47.0599 131.3C36.489 131.3 27.9304 122.728 27.9304 112.141C27.9304 101.553 36.489 92.981 47.0599 92.981C57.6308 92.981 66.1893 101.553 66.1893 112.141Z" stroke="white" stroke-width="5" stroke-miterlimit="10"/>
<path d="M47.0597 119.596C42.9623 119.596 39.6165 116.244 39.6165 112.141C39.6165 108.037 42.9623 104.686 47.0597 104.686C51.1572 104.686 54.503 108.037 54.503 112.141C54.5273 116.244 51.1814 119.596 47.0597 119.596Z" stroke="white" stroke-width="5" stroke-miterlimit="10"/>
<path d="M117.686 112.141C117.686 122.728 109.128 131.3 98.5567 131.3C87.9858 131.3 79.4272 122.728 79.4272 112.141C79.4272 101.553 87.9858 92.981 98.5567 92.981C109.128 92.981 117.686 101.553 117.686 112.141Z" stroke="white" stroke-width="5" stroke-miterlimit="10"/>
<path d="M98.5563 119.596C94.4589 119.596 91.113 116.244 91.113 112.141C91.113 108.037 94.4589 104.686 98.5563 104.686C102.654 104.686 106 108.037 106 112.141C106 116.244 102.654 119.596 98.5563 119.596Z" stroke="white" stroke-width="5" stroke-miterlimit="10"/>
<path d="M186.833 78.1924H193.598" stroke="white" stroke-width="5" stroke-miterlimit="10" stroke-linecap="round" stroke-linejoin="round"/>
<path d="M175.39 66.4393H160.091V98.8818H175.39V66.4393Z" stroke="white" stroke-width="5" stroke-miterlimit="10" stroke-linecap="round" stroke-linejoin="round"/>
<path d="M160.406 117.653C160.406 113.209 156.818 109.615 152.381 109.615H139.919C135.482 109.615 131.894 113.209 131.894 117.653C131.894 122.097 135.482 125.691 139.919 125.691H152.381C156.818 125.666 160.406 122.072 160.406 117.653Z" stroke="white" stroke-width="5" stroke-miterlimit="10"/>
<path d="M18.305 98.8819L11.1042 117.507H1.69702V98.809" stroke="white" stroke-width="5" stroke-miterlimit="10" stroke-linecap="round" stroke-linejoin="round"/>
<path d="M112.886 82.0778V76.2498C112.886 73.4329 110.607 71.1503 107.794 71.1503H37.8224C35.01 71.1503 32.731 73.4329 32.731 76.2498V82.0778H112.886Z" stroke="white" stroke-width="5" stroke-miterlimit="10" stroke-linecap="round" stroke-linejoin="round"/>
<path d="M34.5251 7.06647H111.091" stroke="white" stroke-width="5" stroke-miterlimit="10" stroke-linecap="round" stroke-linejoin="round"/>
<path d="M50.7207 1.82126V7.06647" stroke="white" stroke-width="5" stroke-miterlimit="10" stroke-linecap="round" stroke-linejoin="round"/>
<path d="M60.9763 1.82126V7.06647" stroke="white" stroke-width="5" stroke-miterlimit="10" stroke-linecap="round" stroke-linejoin="round"/>
<path d="M84.6396 1.82126V7.06647" stroke="white" stroke-width="5" stroke-miterlimit="10" stroke-linecap="round" stroke-linejoin="round"/>
<path d="M94.8953 1.82126V7.06647" stroke="white" stroke-width="5" stroke-miterlimit="10" stroke-linecap="round" stroke-linejoin="round"/>
<path d="M106.727 7.06647H38.8892V71.1503H106.727V7.06647Z" stroke="white" stroke-width="5" stroke-miterlimit="10" stroke-linecap="round" stroke-linejoin="round"/>
<path d="M72.8083 7.06647V71.1503" stroke="white" stroke-width="5" stroke-miterlimit="10" stroke-linecap="round" stroke-linejoin="round"/>
<path d="M50.7207 21.7094H60.9764" stroke="white" stroke-width="5" stroke-miterlimit="10" stroke-linecap="round" stroke-linejoin="round"/>
<path d="M50.7207 30.1599H60.9764" stroke="white" stroke-width="5" stroke-miterlimit="10" stroke-linecap="round" stroke-linejoin="round"/>
<path d="M50.7207 38.5863H60.9764" stroke="white" stroke-width="5" stroke-miterlimit="10" stroke-linecap="round" stroke-linejoin="round"/>
<path d="M89.7558 39.8976L94.3866 30.1599H85.1492L89.7558 20.398" stroke="white" stroke-width="5" stroke-miterlimit="10" stroke-linecap="round" stroke-linejoin="round"/>
</g>
<defs>
<clipPath id="clip0">
<rect width="265" height="133" fill="white"/>
</clipPath>
</defs>
</svg>
