<svg width="137" height="253" viewBox="0 0 137 253" fill="none" xmlns="http://www.w3.org/2000/svg">
<g clip-path="url(#clip0)">
<path d="M9.39526 170.128V144.119H28.9761" stroke="white" stroke-width="5" stroke-miterlimit="10" stroke-linecap="round" stroke-linejoin="round"/>
<path d="M43.8431 223.596H9.39526V183.973" stroke="white" stroke-width="5" stroke-miterlimit="10" stroke-linecap="round" stroke-linejoin="round"/>
<path d="M38.7004 130.934L48.9194 144.119H68.5002" stroke="white" stroke-width="5" stroke-miterlimit="10" stroke-linecap="round" stroke-linejoin="round"/>
<path d="M127.605 170.128V144.119H108.025" stroke="white" stroke-width="5" stroke-miterlimit="10" stroke-linecap="round" stroke-linejoin="round"/>
<path d="M93.1577 223.596H127.606V183.973" stroke="white" stroke-width="5" stroke-miterlimit="10" stroke-linecap="round" stroke-linejoin="round"/>
<path d="M98.3 130.934L88.0811 144.119H68.5002V201.213" stroke="white" stroke-width="5" stroke-miterlimit="10" stroke-linecap="round" stroke-linejoin="round"/>
<path d="M68.5001 250.528C82.118 250.528 93.1575 239.488 93.1575 225.87C93.1575 212.253 82.118 201.213 68.5001 201.213C54.8823 201.213 43.8428 212.253 43.8428 225.87C43.8428 239.488 54.8823 250.528 68.5001 250.528Z" stroke="white" stroke-width="5" stroke-miterlimit="10" stroke-linecap="round" stroke-linejoin="round"/>
<path d="M68.5 238.628L74.2687 225.87H62.7312L68.5 213.08" stroke="white" stroke-width="5" stroke-miterlimit="10" stroke-linecap="round" stroke-linejoin="round"/>
<path d="M16.3175 177.05C16.3175 180.874 13.2188 183.973 9.39493 183.973C5.57106 183.973 2.47241 180.874 2.47241 177.05C2.47241 173.227 5.57106 170.128 9.39493 170.128C13.2188 170.128 16.3175 173.227 16.3175 177.05Z" stroke="white" stroke-width="5" stroke-miterlimit="10" stroke-linecap="round" stroke-linejoin="round"/>
<path d="M127.605 183.973C131.429 183.973 134.528 180.874 134.528 177.05C134.528 173.227 131.429 170.128 127.605 170.128C123.782 170.128 120.683 173.227 120.683 177.05C120.683 180.874 123.782 183.973 127.605 183.973Z" stroke="white" stroke-width="5" stroke-miterlimit="10" stroke-linecap="round" stroke-linejoin="round"/>
<path d="M49.1171 183.973C52.9403 183.973 56.0396 180.874 56.0396 177.05C56.0396 173.227 52.9403 170.128 49.1171 170.128C45.2939 170.128 42.1946 173.227 42.1946 177.05C42.1946 180.874 45.2939 183.973 49.1171 183.973Z" stroke="white" stroke-width="5" stroke-miterlimit="10" stroke-linecap="round" stroke-linejoin="round"/>
<path d="M87.9162 183.973C91.7394 183.973 94.8387 180.874 94.8387 177.05C94.8387 173.227 91.7394 170.128 87.9162 170.128C84.093 170.128 80.9937 173.227 80.9937 177.05C80.9937 180.874 84.093 183.973 87.9162 183.973Z" stroke="white" stroke-width="5" stroke-miterlimit="10" stroke-linecap="round" stroke-linejoin="round"/>
<path d="M56.0396 177.051H68.5001" stroke="white" stroke-width="5" stroke-miterlimit="10" stroke-linecap="round" stroke-linejoin="round"/>
<path d="M68.5 177.051H80.9935" stroke="white" stroke-width="5" stroke-miterlimit="10" stroke-linecap="round" stroke-linejoin="round"/>
<path d="M85.2462 65.0054C89.5645 60.6871 92.2347 54.7206 92.2347 48.0948C92.2347 34.9092 81.5212 24.1958 68.3355 24.1958C55.1497 24.1958 44.4363 34.9092 44.4363 48.0948C44.4363 54.6877 47.1064 60.6542 51.4247 65.0054" stroke="white" stroke-width="5" stroke-miterlimit="10" stroke-linecap="round" stroke-linejoin="round"/>
<path d="M59.6658 51.3254L21.9875 114.254C20.3393 116.99 21.2294 120.55 23.9654 122.198C26.7015 123.847 30.2616 122.957 31.9098 120.221L68.3684 59.3357" stroke="white" stroke-width="5" stroke-miterlimit="10" stroke-linecap="round" stroke-linejoin="round"/>
<path d="M23.9982 122.166L18.4932 131.363" stroke="white" stroke-width="5" stroke-miterlimit="10" stroke-linecap="round" stroke-linejoin="round"/>
<path d="M77.071 51.3254L114.716 114.254C116.365 116.99 115.474 120.55 112.738 122.198C110.002 123.847 106.442 122.957 104.794 120.221L67.1487 57.292" stroke="white" stroke-width="5" stroke-miterlimit="10" stroke-linecap="round" stroke-linejoin="round"/>
<path d="M112.739 122.166L118.244 131.363" stroke="white" stroke-width="5" stroke-miterlimit="10" stroke-linecap="round" stroke-linejoin="round"/>
<path d="M68.3679 101.563V90.8494" stroke="white" stroke-width="5" stroke-miterlimit="10" stroke-linecap="round" stroke-linejoin="round"/>
<path d="M90.4543 96.2224H46.282" stroke="white" stroke-width="5" stroke-miterlimit="10" stroke-linecap="round" stroke-linejoin="round"/>
<path d="M77.6315 48.1277C77.6315 53.2371 73.4779 57.3906 68.3685 57.3906C63.259 57.3906 59.1055 53.2371 59.1055 48.1277C59.1055 43.0182 63.259 38.8647 68.3685 38.8647C73.4779 38.8647 77.6315 43.0182 77.6315 48.1277Z" stroke="white" stroke-width="5" stroke-miterlimit="10" stroke-linecap="round" stroke-linejoin="round"/>
<path d="M62.5994 2.47241V24.921C64.4454 24.4595 66.3903 24.2288 68.3681 24.2288C70.346 24.2288 72.2909 24.4925 74.1369 24.921V2.47241H62.5994Z" stroke="white" stroke-width="5" stroke-miterlimit="10" stroke-linecap="round" stroke-linejoin="round"/>
</g>
<defs>
<clipPath id="clip0">
<rect width="137" height="253" fill="white"/>
</clipPath>
</defs>
</svg>
