<svg width="196" height="74" viewBox="0 0 196 74" fill="none" xmlns="http://www.w3.org/2000/svg">
<path d="M42.4128 0.934341H87.6322V12.7444H59.3262V43.7086H88.4631V56.2288H42.4128V0.934341Z" fill="white"/>
<path d="M97.4738 0.934341H125.54C131.651 0.934341 136.231 2.4106 139.277 5.34444C142.324 8.27828 143.838 12.4641 143.838 17.902C143.838 23.4894 142.176 27.8434 138.853 30.9828C135.547 34.1222 130.47 35.6919 123.675 35.6919H114.443V56.2101H97.4922V0.934341H97.4738ZM114.424 24.5172H118.56C121.81 24.5172 124.099 23.9379 125.41 22.798C126.74 21.6394 127.405 20.1818 127.405 18.4066C127.405 16.6687 126.832 15.1924 125.687 13.9965C124.543 12.8005 122.401 12.1838 119.243 12.1838H114.443V24.5172H114.424Z" fill="white"/>
<path d="M146.441 37.9343L162.506 36.9253C162.856 39.5601 163.558 41.5783 164.629 42.9611C166.365 45.2035 168.857 46.3248 172.07 46.3248C174.489 46.3248 176.335 45.7455 177.646 44.6056C178.939 43.4657 179.604 42.1389 179.604 40.6253C179.604 39.1864 178.976 37.9157 177.739 36.7758C176.502 35.6545 173.621 34.5707 169.097 33.5803C161.693 31.8985 156.412 29.6561 153.255 26.8717C150.079 24.0874 148.491 20.5182 148.491 16.2015C148.491 13.3611 149.303 10.6702 150.928 8.14748C152.553 5.62475 154.99 3.64394 158.259 2.18636C161.545 0.728788 166.014 0 171.701 0C178.68 0 183.998 1.30808 187.673 3.94293C191.328 6.57778 193.526 10.745 194.209 16.4818L178.293 17.4162C177.868 14.9308 176.982 13.1182 175.634 11.9783C174.286 10.8384 172.402 10.2778 170.021 10.2778C168.063 10.2778 166.586 10.7076 165.589 11.5485C164.592 12.3894 164.093 13.4172 164.093 14.6318C164.093 15.5101 164.5 16.3136 165.331 17.0051C166.125 17.7338 168.008 18.4066 170.999 19.0419C178.366 20.649 183.666 22.2747 186.86 23.9192C190.054 25.5636 192.381 27.6192 193.821 30.0485C195.28 32.4965 196 35.2061 196 38.2333C196 41.7838 195.04 45.054 193.101 48.0439C191.162 51.0338 188.448 53.295 184.977 54.846C181.487 56.397 177.111 57.1631 171.83 57.1631C162.542 57.1631 156.098 55.3505 152.535 51.7253C148.934 48.1187 146.922 43.5217 146.441 37.9343Z" fill="white"/>
<path d="M0 71.4773V62.8813H6.29637V64.3389H1.71719V66.2449H5.98248V67.6838H1.71719V70.0197H6.46255V71.4773H0Z" fill="white"/>
<path d="M13.4975 71.4773H11.8726V68.3005C11.8726 67.6278 11.8357 67.198 11.7618 66.9924C11.688 66.7869 11.5772 66.6374 11.4295 66.5253C11.2818 66.4131 11.0787 66.3571 10.8756 66.3571C10.5986 66.3571 10.3401 66.4318 10.1185 66.6C9.89694 66.7495 9.74922 66.9551 9.6569 67.2167C9.56458 67.4783 9.52765 67.9455 9.52765 68.6556V71.4773H7.88432V65.2545H9.3984V66.1702C9.93387 65.4601 10.6171 65.1237 11.4295 65.1237C11.7803 65.1237 12.1127 65.1985 12.4081 65.3106C12.7035 65.4414 12.9251 65.6096 13.0913 65.8152C13.2575 66.0207 13.3498 66.245 13.4052 66.5066C13.4606 66.7682 13.4975 67.1419 13.4975 67.6091V71.4773Z" fill="white"/>
<path d="M15.0116 71.8884L16.8765 72.1126C16.9134 72.3369 16.9873 72.4864 17.0981 72.5611C17.2458 72.6732 17.5043 72.7293 17.8366 72.7293C18.2613 72.7293 18.5752 72.6732 18.7968 72.5424C18.9445 72.449 19.0553 72.3182 19.1292 72.1313C19.1845 72.0005 19.203 71.7389 19.203 71.3838V70.4682C18.7229 71.1409 18.0951 71.4773 17.3566 71.4773C16.5257 71.4773 15.8794 71.1222 15.3993 70.4121C15.0116 69.8515 14.8269 69.1601 14.8269 68.3192C14.8269 67.2727 15.067 66.4692 15.5655 65.9273C16.0641 65.3854 16.6734 65.1051 17.412 65.1051C18.169 65.1051 18.7968 65.4414 19.2953 66.1141V65.2359H20.8279V70.8232C20.8279 71.552 20.7725 72.1126 20.6432 72.4677C20.5325 72.8227 20.3478 73.1217 20.1447 73.3273C19.9416 73.5328 19.6462 73.701 19.2769 73.8131C18.9076 73.9253 18.4644 73.9813 17.9105 73.9813C16.8765 73.9813 16.1195 73.7944 15.6948 73.4394C15.2516 73.0843 15.0485 72.6172 15.0485 72.0566C14.9931 72.0192 14.9931 71.9631 15.0116 71.8884ZM16.4518 68.2258C16.4518 68.8798 16.5811 69.3657 16.8396 69.6833C17.0981 69.9823 17.412 70.1505 17.7813 70.1505C18.1875 70.1505 18.5198 70.001 18.7968 69.6833C19.0738 69.3657 19.203 68.8985 19.203 68.2818C19.203 67.6278 19.0738 67.1606 18.8153 66.8429C18.5568 66.5253 18.2244 66.3758 17.8182 66.3758C17.4304 66.3758 17.0981 66.5253 16.858 66.8429C16.5811 67.1232 16.4518 67.5904 16.4518 68.2258Z" fill="white"/>
<path d="M22.3974 64.395V62.8626H24.0222V64.395H22.3974ZM22.3974 71.4773V65.2545H24.0222V71.4773H22.3974Z" fill="white"/>
<path d="M31.2972 71.4773H29.6723V68.3005C29.6723 67.6278 29.6354 67.198 29.5616 66.9924C29.4877 66.7869 29.3769 66.6374 29.2292 66.5253C29.0815 66.4131 28.8784 66.3571 28.6568 66.3571C28.3798 66.3571 28.1213 66.4318 27.8998 66.6C27.6782 66.7495 27.5305 66.9551 27.4381 67.2167C27.3458 67.4783 27.3089 67.9455 27.3089 68.6556V71.4773H25.684V65.2545H27.1981V66.1702C27.7336 65.4601 28.4168 65.1237 29.2292 65.1237C29.58 65.1237 29.9124 65.1985 30.2078 65.3106C30.5032 65.4414 30.7248 65.6096 30.891 65.8152C31.0572 66.0207 31.1495 66.245 31.2049 66.5066C31.2603 66.7682 31.2972 67.1419 31.2972 67.6091V71.4773Z" fill="white"/>
<path d="M36.5227 69.4778L38.1475 69.7581C37.9444 70.3561 37.6121 70.8233 37.1504 71.1409C36.6888 71.4586 36.1349 71.6081 35.4517 71.6081C34.3808 71.6081 33.5868 71.2531 33.0698 70.543C32.6636 69.9823 32.4605 69.2535 32.4605 68.3939C32.4605 67.3662 32.719 66.5626 33.2545 65.9646C33.7899 65.3854 34.4546 65.0864 35.2855 65.0864C36.2088 65.0864 36.9289 65.3854 37.4459 66.002C37.9629 66.6187 38.2214 67.553 38.2029 68.8051H34.1223C34.1407 69.2909 34.27 69.6834 34.51 69.945C34.7685 70.2253 35.0824 70.3561 35.4517 70.3561C35.7102 70.3561 35.9133 70.2813 36.098 70.1505C36.2826 70.0197 36.4303 69.7955 36.5227 69.4778ZM36.615 67.8147C36.5965 67.3288 36.4857 66.9737 36.2457 66.7308C36.0057 66.4879 35.7287 66.3571 35.3963 66.3571C35.0455 66.3571 34.7501 66.4879 34.51 66.7495C34.27 67.0111 34.1592 67.3662 34.1592 67.8147H36.615Z" fill="white"/>
<path d="M43.1145 69.4778L44.7393 69.7581C44.5362 70.3561 44.2039 70.8233 43.7423 71.1409C43.2807 71.4586 42.7267 71.6081 42.0435 71.6081C40.9726 71.6081 40.1786 71.2531 39.6616 70.543C39.2554 69.9823 39.0523 69.2535 39.0523 68.3939C39.0523 67.3662 39.3108 66.5626 39.8463 65.9646C40.3817 65.3854 41.0465 65.0864 41.8774 65.0864C42.8006 65.0864 43.5207 65.3854 44.0377 66.002C44.5547 66.6187 44.8132 67.553 44.7947 68.8051H40.7141C40.7326 69.2909 40.8618 69.6834 41.1018 69.945C41.3603 70.2253 41.6742 70.3561 42.0435 70.3561C42.302 70.3561 42.5051 70.2813 42.6898 70.1505C42.8744 70.0197 43.0221 69.7955 43.1145 69.4778ZM43.2068 67.8147C43.1883 67.3288 43.0775 66.9737 42.8375 66.7308C42.5975 66.4879 42.3205 66.3571 41.9881 66.3571C41.6373 66.3571 41.3419 66.4879 41.1018 66.7495C40.8618 67.0111 40.751 67.3662 40.751 67.8147H43.2068Z" fill="white"/>
<path d="M47.7121 71.4773H46.0872V65.2545H47.6013V66.1328C47.8598 65.7217 48.0999 65.4414 48.303 65.3106C48.5061 65.1798 48.7461 65.1051 49.0046 65.1051C49.3739 65.1051 49.7247 65.2172 50.0756 65.4227L49.577 66.8616C49.3001 66.6747 49.0416 66.6 48.82 66.6C48.5984 66.6 48.3953 66.6561 48.2476 66.7869C48.0814 66.9177 47.9706 67.1419 47.8783 67.4783C47.786 67.8147 47.749 68.5061 47.749 69.5712V71.4773H47.7121Z" fill="white"/>
<path d="M50.7772 64.395V62.8626H52.4021V64.395H50.7772ZM50.7772 71.4773V65.2545H52.4021V71.4773H50.7772Z" fill="white"/>
<path d="M59.6771 71.4773H58.0522V68.3005C58.0522 67.6278 58.0153 67.198 57.9414 66.9924C57.8676 66.7869 57.7568 66.6374 57.6091 66.5253C57.4613 66.4131 57.2582 66.3571 57.0367 66.3571C56.7597 66.3571 56.5012 66.4318 56.2796 66.6C56.058 66.7495 55.9103 66.9551 55.818 67.2167C55.7257 67.4783 55.6888 67.9455 55.6888 68.6556V71.4773H54.0639V65.2545H55.578V66.1702C56.1134 65.4601 56.7966 65.1237 57.6091 65.1237C57.9599 65.1237 58.2922 65.1985 58.5877 65.3106C58.8831 65.4414 59.1047 65.6096 59.2709 65.8152C59.437 66.0207 59.5294 66.245 59.5848 66.5066C59.6401 66.7682 59.6771 67.1419 59.6771 67.6091V71.4773Z" fill="white"/>
<path d="M61.1727 71.8884L63.0376 72.1126C63.0745 72.3369 63.1484 72.4864 63.2591 72.5611C63.4069 72.6732 63.6654 72.7293 63.9977 72.7293C64.4224 72.7293 64.7363 72.6732 64.9579 72.5424C65.1056 72.449 65.2164 72.3182 65.2902 72.1313C65.3456 72.0005 65.3641 71.7389 65.3641 71.3838V70.4682C64.884 71.1409 64.2562 71.4773 63.5177 71.4773C62.6868 71.4773 62.0405 71.1222 61.5604 70.4121C61.1727 69.8515 60.988 69.1601 60.988 68.3192C60.988 67.2727 61.2281 66.4692 61.7266 65.9273C62.2251 65.3854 62.8345 65.1051 63.573 65.1051C64.3301 65.1051 64.9579 65.4414 65.4564 66.1141V65.2359H66.989V70.8232C66.989 71.552 66.9336 72.1126 66.8043 72.4677C66.6935 72.8227 66.5089 73.1217 66.3058 73.3273C66.1027 73.5328 65.8072 73.701 65.438 73.8131C65.0687 73.9253 64.6255 73.9813 64.0716 73.9813C63.0376 73.9813 62.2805 73.7944 61.8559 73.4394C61.4127 73.0843 61.2096 72.6172 61.2096 72.0566C61.1727 72.0192 61.1727 71.9631 61.1727 71.8884ZM62.6314 68.2258C62.6314 68.8798 62.7606 69.3657 63.0191 69.6833C63.2776 69.9823 63.5915 70.1505 63.9608 70.1505C64.367 70.1505 64.6994 70.001 64.9763 69.6833C65.2533 69.3657 65.3826 68.8985 65.3826 68.2818C65.3826 67.6278 65.2533 67.1606 64.9948 66.8429C64.7363 66.5253 64.4039 66.3758 63.9977 66.3758C63.61 66.3758 63.2776 66.5253 63.0376 66.8429C62.7606 67.1232 62.6314 67.5904 62.6314 68.2258Z" fill="white"/>
<path d="M71.882 71.4773V62.8813H74.6332C75.6673 62.8813 76.3504 62.9187 76.6643 63.0121C77.1444 63.1429 77.5506 63.4232 77.883 63.853C78.2153 64.2828 78.3815 64.8434 78.3815 65.5348C78.3815 66.0581 78.2892 66.5066 78.1046 66.8616C77.9199 67.2167 77.6799 67.497 77.3844 67.7025C77.089 67.9081 76.7936 68.0389 76.4982 68.1136C76.0919 68.1884 75.5011 68.2444 74.7256 68.2444H73.5992V71.496H71.882V71.4773ZM73.5992 64.3202V66.7682H74.5409C75.2241 66.7682 75.6673 66.7308 75.8888 66.6374C76.1104 66.5439 76.295 66.4131 76.4243 66.2076C76.5535 66.0207 76.6089 65.7965 76.6089 65.5348C76.6089 65.2172 76.5166 64.9556 76.332 64.7687C76.1473 64.5631 75.9258 64.4323 75.6488 64.3949C75.4457 64.3576 75.0395 64.3389 74.4117 64.3389H73.5992V64.3202Z" fill="white"/>
<path d="M81.3358 71.4773H79.711V65.2545H81.2251V66.1328C81.4836 65.7217 81.7236 65.4414 81.9267 65.3106C82.1298 65.1798 82.3698 65.1051 82.6283 65.1051C82.9976 65.1051 83.3485 65.2172 83.6993 65.4227L83.2007 66.8616C82.9238 66.6747 82.6653 66.6 82.4437 66.6C82.2221 66.6 82.019 66.6561 81.8713 66.7869C81.7051 66.9177 81.5943 67.1419 81.502 67.4783C81.4097 67.8147 81.3728 68.5061 81.3728 69.5712V71.4773H81.3358Z" fill="white"/>
<path d="M84.0317 68.2631C84.0317 67.7212 84.1609 67.1793 84.4379 66.6747C84.6964 66.1702 85.0841 65.7778 85.5642 65.4975C86.0443 65.2359 86.5982 65.0864 87.2075 65.0864C88.1308 65.0864 88.9063 65.3854 89.4971 66.002C90.088 66.6187 90.3834 67.3849 90.3834 68.3192C90.3834 69.2535 90.088 70.0384 89.4787 70.6551C88.8693 71.2717 88.1123 71.5894 87.2075 71.5894C86.6351 71.5894 86.0997 71.4586 85.6011 71.197C85.1026 70.9354 84.6964 70.5616 84.4379 70.0571C84.1609 69.5899 84.0317 68.9732 84.0317 68.2631ZM85.6935 68.3566C85.6935 68.9732 85.8412 69.4404 86.1366 69.7768C86.432 70.1131 86.7829 70.2626 87.2075 70.2626C87.6322 70.2626 87.983 70.0944 88.2785 69.7768C88.5739 69.4404 88.7032 68.9732 88.7032 68.3379C88.7032 67.7212 88.5554 67.254 88.2785 66.9364C87.983 66.6 87.6322 66.4505 87.2075 66.4505C86.7829 66.4505 86.432 66.6187 86.1366 66.9364C85.8412 67.254 85.6935 67.7399 85.6935 68.3566Z" fill="white"/>
<path d="M97.0121 67.0859L95.4057 67.3849C95.3503 67.0672 95.2211 66.8242 95.0364 66.6561C94.8518 66.4879 94.5933 66.4131 94.2979 66.4131C93.8916 66.4131 93.5593 66.5626 93.3193 66.8429C93.0792 67.1232 92.95 67.6091 92.95 68.2631C92.95 69.0106 93.0792 69.5151 93.3193 69.8328C93.5593 70.1505 93.8917 70.2813 94.3163 70.2813C94.6302 70.2813 94.8703 70.1879 95.0734 70.0197C95.2765 69.8328 95.4057 69.5338 95.4981 69.104L97.1045 69.3843C96.9383 70.1318 96.6244 70.6924 96.1443 71.0662C95.6642 71.4399 95.0364 71.6268 94.2425 71.6268C93.3377 71.6268 92.6176 71.3465 92.0821 70.7672C91.5467 70.1879 91.2697 69.403 91.2697 68.3753C91.2697 67.3475 91.5467 66.5439 92.0821 65.9646C92.6176 65.3854 93.3377 65.1051 94.2609 65.1051C95.018 65.1051 95.6088 65.2732 96.052 65.5909C96.4951 65.9086 96.8275 66.4131 97.0121 67.0859Z" fill="white"/>
<path d="M102.311 71.4773V70.543C102.09 70.8793 101.794 71.1409 101.425 71.3278C101.056 71.5147 100.668 71.6081 100.262 71.6081C99.8557 71.6081 99.4864 71.5147 99.154 71.3278C98.8217 71.1409 98.5816 70.8793 98.4339 70.5616C98.2862 70.2253 98.2123 69.7768 98.2123 69.1788V65.2359H99.8372V68.095C99.8372 68.9732 99.8741 69.5152 99.9295 69.702C99.9849 69.9076 100.096 70.0571 100.262 70.1692C100.428 70.2813 100.613 70.3374 100.871 70.3374C101.148 70.3374 101.407 70.2627 101.61 70.1132C101.813 69.9637 101.979 69.7581 102.071 69.5339C102.164 69.3096 102.201 68.749 102.201 67.852V65.2172H103.826V71.4399H102.311V71.4773Z" fill="white"/>
<path d="M107.057 71.4773H105.432V65.2545H106.946V66.1328C107.205 65.7217 107.445 65.4414 107.648 65.3106C107.851 65.1798 108.091 65.1051 108.349 65.1051C108.719 65.1051 109.069 65.2172 109.42 65.4227L108.922 66.8616C108.645 66.6747 108.386 66.6 108.165 66.6C107.943 66.6 107.74 66.6561 107.592 66.7869C107.426 66.9177 107.315 67.1419 107.223 67.4783C107.131 67.8147 107.094 68.5061 107.094 69.5712V71.4773H107.057Z" fill="white"/>
<path d="M113.686 69.4778L115.31 69.7581C115.107 70.3561 114.775 70.8233 114.313 71.1409C113.852 71.4586 113.298 71.6081 112.615 71.6081C111.544 71.6081 110.75 71.2531 110.233 70.543C109.826 69.9823 109.623 69.2535 109.623 68.3939C109.623 67.3662 109.882 66.5626 110.417 65.9646C110.953 65.3854 111.618 65.0864 112.448 65.0864C113.372 65.0864 114.092 65.3854 114.609 66.002C115.126 66.6187 115.384 67.553 115.366 68.8051H111.285C111.304 69.2909 111.433 69.6834 111.673 69.945C111.931 70.2253 112.245 70.3561 112.615 70.3561C112.873 70.3561 113.076 70.2813 113.261 70.1505C113.445 70.0197 113.593 69.7955 113.686 69.4778ZM113.778 67.8147C113.759 67.3288 113.649 66.9737 113.409 66.7308C113.169 66.4879 112.892 66.3571 112.559 66.3571C112.208 66.3571 111.913 66.4879 111.673 66.7495C111.433 67.0111 111.322 67.3662 111.322 67.8147H113.778Z" fill="white"/>
<path d="M116.603 65.2359H118.099V66.0955C118.634 65.4414 119.28 65.1051 120.019 65.1051C120.407 65.1051 120.757 65.1798 121.053 65.348C121.348 65.5162 121.588 65.7591 121.773 66.0955C122.05 65.7591 122.327 65.5162 122.641 65.348C122.955 65.1798 123.287 65.1051 123.638 65.1051C124.081 65.1051 124.469 65.1985 124.783 65.3854C125.097 65.5722 125.337 65.8525 125.484 66.2076C125.595 66.4692 125.65 66.899 125.65 67.497V71.4773H124.026V67.9081C124.026 67.2914 123.97 66.899 123.859 66.7121C123.712 66.4692 123.472 66.3571 123.158 66.3571C122.936 66.3571 122.715 66.4318 122.512 66.5626C122.308 66.7121 122.161 66.9177 122.068 67.1793C121.976 67.4596 121.939 67.8894 121.939 68.4687V71.4586H120.314V68.0389C120.314 67.4409 120.277 67.0485 120.222 66.8616C120.167 66.6934 120.074 66.5626 119.945 66.4692C119.816 66.3758 119.65 66.3384 119.446 66.3384C119.188 66.3384 118.966 66.4131 118.763 66.5439C118.56 66.6748 118.412 66.8803 118.339 67.1419C118.246 67.4035 118.209 67.8333 118.209 68.4313V71.4586H116.584V65.2359H116.603Z" fill="white"/>
<path d="M130.839 69.4778L132.464 69.7581C132.261 70.3561 131.928 70.8233 131.467 71.1409C131.005 71.4586 130.451 71.6081 129.768 71.6081C128.697 71.6081 127.903 71.2531 127.386 70.543C126.98 69.9823 126.777 69.2535 126.777 68.3939C126.777 67.3662 127.035 66.5626 127.571 65.9646C128.106 65.3854 128.771 65.0864 129.602 65.0864C130.525 65.0864 131.245 65.3854 131.762 66.002C132.279 66.6187 132.538 67.553 132.519 68.8051H128.439C128.457 69.2909 128.586 69.6834 128.826 69.945C129.085 70.2253 129.399 70.3561 129.768 70.3561C130.027 70.3561 130.23 70.2813 130.414 70.1505C130.599 70.0197 130.747 69.7955 130.839 69.4778ZM130.931 67.8147C130.913 67.3288 130.802 66.9737 130.562 66.7308C130.322 66.4879 130.045 66.3571 129.713 66.3571C129.362 66.3571 129.066 66.4879 128.826 66.7495C128.586 67.0111 128.476 67.3662 128.476 67.8147H130.931Z" fill="white"/>
<path d="M139.48 71.4773H137.855V68.3005C137.855 67.6278 137.819 67.198 137.745 66.9924C137.671 66.7869 137.56 66.6374 137.412 66.5253C137.265 66.4131 137.062 66.3571 136.84 66.3571C136.563 66.3571 136.304 66.4318 136.083 66.6C135.861 66.7495 135.714 66.9551 135.621 67.2167C135.529 67.4783 135.492 67.9455 135.492 68.6556V71.4773H133.867V65.2545H135.381V66.1702C135.917 65.4601 136.6 65.1237 137.412 65.1237C137.763 65.1237 138.096 65.1985 138.391 65.3106C138.686 65.4414 138.908 65.6096 139.074 65.8152C139.24 66.0207 139.333 66.245 139.388 66.5066C139.443 66.7682 139.48 67.1419 139.48 67.6091V71.4773Z" fill="white"/>
<path d="M143.949 65.2359V66.5439H142.841V69.048C142.841 69.5525 142.859 69.8515 142.878 69.9449C142.896 70.0384 142.952 70.0944 143.026 70.1505C143.099 70.2066 143.192 70.2252 143.302 70.2252C143.45 70.2252 143.672 70.1692 143.949 70.0757L144.096 71.3465C143.709 71.5146 143.284 71.5894 142.804 71.5894C142.509 71.5894 142.25 71.5333 142.01 71.4399C141.77 71.3465 141.604 71.2156 141.493 71.0475C141.382 70.898 141.308 70.6737 141.271 70.4121C141.234 70.2252 141.216 69.8328 141.216 69.2535V66.5439H140.477V65.2359H141.216V64.0025L142.859 63.0495V65.2545H143.949V65.2359Z" fill="white"/>
<path d="M147.956 68.6742L149.617 68.5061C149.71 69.0667 149.913 69.4965 150.227 69.7581C150.541 70.0197 150.947 70.1505 151.464 70.1505C152.018 70.1505 152.424 70.0384 152.719 69.7954C152.996 69.5525 153.144 69.2909 153.144 68.9732C153.144 68.7677 153.089 68.5995 152.959 68.45C152.849 68.3005 152.627 68.1884 152.35 68.0763C152.147 68.0015 151.685 67.8894 150.984 67.7025C150.06 67.4783 149.414 67.198 149.045 66.8429C148.528 66.3758 148.269 65.7965 148.269 65.105C148.269 64.6752 148.399 64.2641 148.639 63.8717C148.879 63.498 149.23 63.199 149.691 62.9934C150.153 62.7879 150.707 62.6944 151.371 62.6944C152.442 62.6944 153.236 62.9374 153.772 63.4045C154.307 63.8717 154.603 64.5071 154.621 65.2919L152.904 65.404C152.83 64.9556 152.682 64.6379 152.424 64.451C152.165 64.2641 151.815 64.152 151.335 64.152C150.836 64.152 150.448 64.2641 150.171 64.4697C149.987 64.6005 149.894 64.7874 149.894 65.0116C149.894 65.2172 149.987 65.3853 150.153 65.5348C150.374 65.7217 150.891 65.9086 151.722 66.1141C152.553 66.3197 153.181 66.5252 153.569 66.7308C153.975 66.9364 154.289 67.2353 154.51 67.6091C154.732 67.9828 154.843 68.4313 154.843 68.9732C154.843 69.4591 154.714 69.9263 154.437 70.3561C154.16 70.7859 153.79 71.1035 153.292 71.3091C152.793 71.5146 152.184 71.6268 151.445 71.6268C150.374 71.6268 149.543 71.3838 148.971 70.8793C148.417 70.3747 148.066 69.6273 147.956 68.6742Z" fill="white"/>
<path d="M159.865 69.4778L161.49 69.7581C161.287 70.3561 160.954 70.8233 160.493 71.1409C160.031 71.4586 159.477 71.6081 158.794 71.6081C157.723 71.6081 156.929 71.2531 156.412 70.543C156.006 69.9823 155.803 69.2535 155.803 68.3939C155.803 67.3662 156.061 66.5626 156.597 65.9646C157.132 65.3854 157.797 65.0864 158.628 65.0864C159.551 65.0864 160.271 65.3854 160.788 66.002C161.305 66.6187 161.564 67.553 161.545 68.8051H157.465C157.483 69.2909 157.612 69.6834 157.852 69.945C158.111 70.2253 158.425 70.3561 158.794 70.3561C159.053 70.3561 159.256 70.2813 159.44 70.1505C159.625 70.0197 159.773 69.7955 159.865 69.4778ZM159.957 67.8147C159.939 67.3288 159.828 66.9737 159.588 66.7308C159.348 66.4879 159.071 66.3571 158.739 66.3571C158.388 66.3571 158.092 66.4879 157.852 66.7495C157.612 67.0111 157.502 67.3662 157.502 67.8147H159.957Z" fill="white"/>
<path d="M164.463 71.4773H162.838V65.2545H164.333V66.1328C164.592 65.7217 164.832 65.4414 165.035 65.3106C165.238 65.1798 165.478 65.1051 165.737 65.1051C166.106 65.1051 166.457 65.2172 166.808 65.4227L166.309 66.8616C166.032 66.6747 165.774 66.6 165.552 66.6C165.331 66.6 165.127 66.6561 164.98 66.7869C164.814 66.9177 164.703 67.1419 164.61 67.4783C164.518 67.8147 164.481 68.5061 164.481 69.5712V71.4773H164.463Z" fill="white"/>
<path d="M169.208 71.4773L166.734 65.2545H168.451L169.614 68.4313L169.947 69.4965C170.039 69.2348 170.094 69.048 170.113 68.9545C170.168 68.7864 170.224 68.5995 170.279 68.4313L171.442 65.2545H173.123L170.685 71.4773H169.208Z" fill="white"/>
<path d="M174.12 64.395V62.8626H175.745V64.395H174.12ZM174.12 71.4773V65.2545H175.745V71.4773H174.12Z" fill="white"/>
<path d="M182.779 67.0859L181.173 67.3849C181.118 67.0672 180.988 66.8242 180.804 66.6561C180.619 66.4879 180.361 66.4131 180.065 66.4131C179.659 66.4131 179.327 66.5626 179.087 66.8429C178.847 67.1232 178.717 67.6091 178.717 68.2631C178.717 69.0106 178.847 69.5151 179.087 69.8328C179.327 70.1505 179.659 70.2813 180.084 70.2813C180.398 70.2813 180.638 70.1879 180.841 70.0197C181.044 69.8328 181.173 69.5338 181.265 69.104L182.872 69.3843C182.706 70.1318 182.392 70.6924 181.912 71.0662C181.432 71.4399 180.804 71.6268 180.01 71.6268C179.105 71.6268 178.385 71.3465 177.849 70.7672C177.314 70.1879 177.037 69.403 177.037 68.3753C177.037 67.3475 177.314 66.5439 177.849 65.9646C178.385 65.3854 179.105 65.1051 180.028 65.1051C180.785 65.1051 181.376 65.2732 181.819 65.5909C182.262 65.9086 182.595 66.4131 182.779 67.0859Z" fill="white"/>
<path d="M187.58 69.4778L189.205 69.7581C189.002 70.3561 188.67 70.8233 188.208 71.1409C187.746 71.4586 187.192 71.6081 186.509 71.6081C185.438 71.6081 184.644 71.2531 184.127 70.543C183.721 69.9823 183.518 69.2535 183.518 68.3939C183.518 67.3662 183.777 66.5626 184.312 65.9646C184.847 65.3854 185.512 65.0864 186.343 65.0864C187.266 65.0864 187.986 65.3854 188.503 66.002C189.02 66.6187 189.279 67.553 189.26 68.8051H185.18C185.198 69.2909 185.328 69.6834 185.568 69.945C185.826 70.2253 186.14 70.3561 186.509 70.3561C186.768 70.3561 186.971 70.2813 187.156 70.1505C187.34 70.0197 187.488 69.7955 187.58 69.4778ZM187.673 67.8147C187.654 67.3288 187.543 66.9737 187.303 66.7308C187.063 66.4879 186.786 66.3571 186.454 66.3571C186.103 66.3571 185.808 66.4879 185.568 66.7495C185.328 67.0111 185.217 67.3662 185.217 67.8147H187.673Z" fill="white"/>
<path d="M190.036 69.6833L191.661 69.4404C191.735 69.7581 191.864 70.001 192.086 70.1692C192.289 70.3374 192.603 70.4121 192.972 70.4121C193.397 70.4121 193.71 70.3374 193.932 70.1692C194.08 70.0571 194.154 69.9076 194.154 69.7207C194.154 69.5899 194.117 69.4965 194.043 69.403C193.969 69.3283 193.784 69.2535 193.507 69.1788C192.196 68.8798 191.365 68.6182 191.015 68.3752C190.535 68.0389 190.276 67.5717 190.276 66.9737C190.276 66.4318 190.479 65.9833 190.904 65.6096C191.329 65.2358 191.975 65.0677 192.861 65.0677C193.71 65.0677 194.32 65.1985 194.744 65.4788C195.151 65.7591 195.428 66.1702 195.594 66.7121L194.061 66.9924C193.987 66.7495 193.877 66.5626 193.692 66.4318C193.507 66.301 193.249 66.2449 192.898 66.2449C192.473 66.2449 192.159 66.301 191.975 66.4318C191.846 66.5252 191.79 66.6374 191.79 66.7682C191.79 66.8803 191.846 66.9924 191.956 67.0672C192.104 67.1793 192.603 67.3288 193.47 67.5343C194.338 67.7399 194.948 67.9828 195.28 68.2631C195.612 68.5621 195.797 68.9732 195.797 69.4964C195.797 70.0757 195.557 70.5616 195.095 70.9727C194.634 71.3838 193.932 71.5894 193.009 71.5894C192.178 71.5894 191.513 71.4212 191.015 71.0661C190.516 70.7111 190.202 70.2813 190.036 69.6833Z" fill="white"/>
<path d="M36.855 0.934341H25.1855V12.7444H36.855V0.934341Z" fill="white"/>
<path d="M20.1447 2.39191H11.3372V11.3056H20.1447V2.39191Z" fill="white"/>
<path d="M6.86876 3.49444H0.240028V10.203H6.86876V3.49444Z" fill="white"/>
<path d="M36.855 44.4187H25.1855V56.2101H36.855V44.4187Z" fill="white"/>
<path d="M20.1447 45.8763H11.3372V54.7899H20.1447V45.8763Z" fill="white"/>
<path d="M6.86876 46.9788H0.240028V53.6687H6.86876V46.9788Z" fill="white"/>
<path d="M36.855 22.6859H25.1855V34.496H36.855V22.6859Z" fill="#E30613"/>
<path d="M20.1447 24.1247H11.3372V33.0384H20.1447V24.1247Z" fill="#E30613"/>
<path d="M6.86876 25.2273H0.240028V31.9172H6.86876V25.2273Z" fill="#E30613"/>
<path d="M85.6011 22.9475H42.4128V34.2344H85.6011V22.9475Z" fill="#E30613"/>
</svg>
