<svg width="204" height="169" viewBox="0 0 204 169" fill="none" xmlns="http://www.w3.org/2000/svg">
<path d="M52.6387 91.4119C52.6387 92.45 51.765 93.3243 50.7275 93.3243C49.6901 93.3243 48.8164 92.45 48.8164 91.4119C48.8164 90.3737 49.6901 89.4995 50.7275 89.4995C51.8196 89.4995 52.6387 90.3737 52.6387 91.4119Z" stroke="white" stroke-width="7" stroke-miterlimit="10" stroke-linecap="round" stroke-linejoin="round"/>
<path d="M86.8203 91.4119C86.8203 92.45 85.9467 93.3243 84.9092 93.3243C83.8717 93.3243 82.998 92.45 82.998 91.4119C82.998 90.3737 83.8717 89.4995 84.9092 89.4995C86.0013 89.4995 86.8203 90.3737 86.8203 91.4119Z" stroke="white" stroke-width="7" stroke-miterlimit="10" stroke-linecap="round" stroke-linejoin="round"/>
<path d="M121.002 91.4119C121.002 92.45 120.128 93.3243 119.091 93.3243C118.053 93.3243 117.18 92.45 117.18 91.4119C117.18 90.3737 118.053 89.4995 119.091 89.4995C120.183 89.4995 121.002 90.3737 121.002 91.4119Z" stroke="white" stroke-width="7" stroke-miterlimit="10" stroke-linecap="round" stroke-linejoin="round"/>
<path d="M155.185 91.4119C155.185 92.45 154.311 93.3243 153.273 93.3243C152.236 93.3243 151.362 92.45 151.362 91.4119C151.362 90.3737 152.236 89.4995 153.273 89.4995C154.366 89.4995 155.185 90.3737 155.185 91.4119Z" stroke="white" stroke-width="7" stroke-miterlimit="10" stroke-linecap="round" stroke-linejoin="round"/>
<path d="M199.905 4.09814H4.0957V135.834H199.905V4.09814Z" stroke="white" stroke-width="7" stroke-miterlimit="10" stroke-linecap="round" stroke-linejoin="round"/>
<path d="M180.848 23.2222H23.207V116.71H180.848V23.2222Z" stroke="white" stroke-width="7" stroke-miterlimit="10" stroke-linecap="round" stroke-linejoin="round"/>
<path d="M50.7275 44.0942V68.081" stroke="white" stroke-width="7" stroke-miterlimit="10" stroke-linecap="round" stroke-linejoin="round"/>
<path d="M55.3686 68.0811H46.0859" stroke="white" stroke-width="7" stroke-miterlimit="10" stroke-linecap="round" stroke-linejoin="round"/>
<path d="M84.9092 44.0942V68.081" stroke="white" stroke-width="7" stroke-miterlimit="10" stroke-linecap="round" stroke-linejoin="round"/>
<path d="M89.5502 68.0811H80.2676" stroke="white" stroke-width="7" stroke-miterlimit="10" stroke-linecap="round" stroke-linejoin="round"/>
<path d="M119.092 44.0942V68.081" stroke="white" stroke-width="7" stroke-miterlimit="10" stroke-linecap="round" stroke-linejoin="round"/>
<path d="M123.733 68.0811H114.45" stroke="white" stroke-width="7" stroke-miterlimit="10" stroke-linecap="round" stroke-linejoin="round"/>
<path d="M153.273 44.0942V68.081" stroke="white" stroke-width="7" stroke-miterlimit="10" stroke-linecap="round" stroke-linejoin="round"/>
<path d="M157.914 68.0811H148.632" stroke="white" stroke-width="7" stroke-miterlimit="10" stroke-linecap="round" stroke-linejoin="round"/>
<path d="M102 135.834V164.902" stroke="white" stroke-width="7" stroke-miterlimit="10" stroke-linecap="round" stroke-linejoin="round"/>
<path d="M71.2584 135.834V164.902H4.0957" stroke="white" stroke-width="7" stroke-miterlimit="10" stroke-linecap="round" stroke-linejoin="round"/>
<path d="M132.742 135.834V164.902H199.905" stroke="white" stroke-width="7" stroke-miterlimit="10" stroke-linecap="round" stroke-linejoin="round"/>
</svg>
