<svg width="200" height="200" viewBox="0 0 200 200" fill="none" xmlns="http://www.w3.org/2000/svg">
<path d="M99.9704 147.77C126.369 147.77 147.77 126.37 147.77 99.9709C147.77 73.5719 126.369 52.1714 99.9704 52.1714C73.5714 52.1714 52.1709 73.5719 52.1709 99.9709C52.1709 126.37 73.5714 147.77 99.9704 147.77Z" stroke="white" stroke-width="7" stroke-miterlimit="10" stroke-linecap="round" stroke-linejoin="round"/>
<path d="M53.6871 88.196C38.8227 86.0975 27.3974 73.3316 27.3974 57.9425C27.3974 41.0961 41.0961 27.3974 57.9425 27.3974H168.93V4.37207H57.9425C28.3884 4.37207 4.37207 28.3884 4.37207 57.9425C4.37207 85.9809 26.0567 109.065 53.5706 111.338" stroke="white" stroke-width="7" stroke-miterlimit="10" stroke-linecap="round" stroke-linejoin="round"/>
<path d="M146.314 111.804C161.12 113.903 172.603 126.669 172.603 142.058C172.603 158.904 158.905 172.603 142.058 172.603H31.0703V195.628H142.058C171.612 195.628 195.629 171.612 195.629 142.058C195.629 114.019 173.944 90.9355 146.43 88.6621" stroke="white" stroke-width="7" stroke-miterlimit="10" stroke-linecap="round" stroke-linejoin="round"/>
<path d="M168.931 15.8555H195.628" stroke="white" stroke-width="7" stroke-miterlimit="10" stroke-linecap="round" stroke-linejoin="round"/>
<path d="M4.37207 184.086H31.0698" stroke="white" stroke-width="7" stroke-miterlimit="10" stroke-linecap="round" stroke-linejoin="round"/>
<path d="M99.9706 122.297L110.055 99.9712H89.9443L99.9706 77.7036" stroke="white" stroke-width="7" stroke-miterlimit="10" stroke-linecap="round" stroke-linejoin="round"/>
</svg>
