<svg width="170" height="198" viewBox="0 0 170 198" fill="none" xmlns="http://www.w3.org/2000/svg">
<path d="M33.6146 70.8013H20.1045" stroke="white" stroke-width="5" stroke-miterlimit="10" stroke-linecap="round" stroke-linejoin="round"/>
<path d="M49.6342 84.6826H18.6455" stroke="white" stroke-width="5" stroke-miterlimit="10" stroke-linecap="round" stroke-linejoin="round"/>
<path d="M33.6146 98.564H20.1045" stroke="white" stroke-width="5" stroke-miterlimit="10" stroke-linecap="round" stroke-linejoin="round"/>
<path d="M136.385 70.8013H149.895" stroke="white" stroke-width="5" stroke-miterlimit="10" stroke-linecap="round" stroke-linejoin="round"/>
<path d="M120.38 84.6826H151.369" stroke="white" stroke-width="5" stroke-miterlimit="10" stroke-linecap="round" stroke-linejoin="round"/>
<path d="M136.385 98.564H149.895" stroke="white" stroke-width="5" stroke-miterlimit="10" stroke-linecap="round" stroke-linejoin="round"/>
<path d="M114.967 164.51C114.967 180.993 101.544 194.366 84.9996 194.366C68.4548 194.366 55.0322 180.993 55.0322 164.51C55.0322 148.027 68.4548 134.655 84.9996 134.655C101.544 134.655 114.967 148.027 114.967 164.51Z" stroke="white" stroke-width="5" stroke-miterlimit="10" stroke-linecap="round" stroke-linejoin="round"/>
<path d="M114.646 160.179C144.92 148.376 166.353 119.015 166.353 84.6827C166.353 39.9139 129.922 3.63379 85 3.63379C40.0781 3.63379 3.64746 39.9285 3.64746 84.6827C3.64746 119.03 25.0798 148.376 55.3536 160.179" stroke="white" stroke-width="5" stroke-miterlimit="10" stroke-linecap="round" stroke-linejoin="round"/>
<path d="M108.81 146.4C133.671 136.85 151.369 112.779 151.369 84.6827C151.369 48.2281 121.591 18.5615 84.9997 18.5615C48.4086 18.5615 18.6309 48.2281 18.6309 84.6827C18.6309 112.779 36.3137 136.835 61.1892 146.4" stroke="white" stroke-width="5" stroke-miterlimit="10" stroke-linecap="round" stroke-linejoin="round"/>
<path d="M84.9998 178.116L90.398 164.511H79.6016L84.9998 150.906" stroke="white" stroke-width="5" stroke-miterlimit="10" stroke-linecap="round" stroke-linejoin="round"/>
<path d="M104.696 49.3184V67.8218L84.9999 84.6828L65.3037 67.8218V49.3184" stroke="white" stroke-width="5" stroke-miterlimit="10" stroke-linecap="round" stroke-linejoin="round"/>
<path d="M59.5264 49.3184H110.488" stroke="white" stroke-width="5" stroke-miterlimit="10" stroke-linecap="round" stroke-linejoin="round"/>
<path d="M67 68H103" stroke="white" stroke-width="5" stroke-miterlimit="10" stroke-linecap="round" stroke-linejoin="round"/>
<path d="M85 96L85 99" stroke="white" stroke-width="5" stroke-miterlimit="10" stroke-linecap="round" stroke-linejoin="round"/>
<path d="M65.3037 120.062V101.544L84.9999 84.6826L104.696 101.544V120.062" stroke="white" stroke-width="5" stroke-miterlimit="10" stroke-linecap="round" stroke-linejoin="round"/>
<path d="M110.488 120.062H59.5264" stroke="white" stroke-width="5" stroke-miterlimit="10" stroke-linecap="round" stroke-linejoin="round"/>
<path d="M73.2988 120.062L84.9998 107.329L96.7154 120.062" stroke="white" stroke-width="5" stroke-miterlimit="10" stroke-linecap="round" stroke-linejoin="round"/>
</svg>
