<svg width="319" height="96" viewBox="0 0 319 96" fill="none" xmlns="http://www.w3.org/2000/svg">
<g clip-path="url(#clip0)">
<path d="M0 48.0822C0.446687 48.0135 0.893374 47.8761 1.34006 47.8761C6.73467 47.8303 12.1293 47.8074 17.5239 47.7959C17.9018 47.7959 18.2684 47.899 18.8754 47.9906C18.4058 48.9413 18.0278 49.743 17.6155 50.5218C16.642 52.3773 15.5768 54.1984 14.6834 56.0997C14.1565 57.1992 13.5381 57.875 12.2438 57.6688C11.9804 57.623 11.694 57.7376 11.2588 57.8063C13.0685 64.4951 16.4473 70.1188 21.441 75.0324C28.1757 66.3162 36.949 61.5745 47.8413 61.4943C58.7451 61.4027 67.5758 66.0184 74.3562 74.5284C78.468 71.6421 83.4961 62.1472 84.1261 57.7032C78.8231 57.7032 73.5545 57.7032 67.9079 57.7032C68.9273 56.7526 69.6603 56.1455 70.3017 55.4583C71.9395 53.7174 72.8787 51.5985 73.314 49.2734C73.4629 48.4831 73.6576 47.8761 74.6655 47.8875C81.3085 47.9219 87.9516 47.9104 94.6061 47.9333C94.8237 47.9333 95.0298 48.0593 95.4765 48.1853C95.3391 50.0751 95.3047 51.9993 95.0527 53.8892C92.407 74.4368 77.1967 90.6779 56.8324 94.6752C55.4007 94.9615 53.9575 95.2135 52.5144 95.4769C49.3303 95.4769 46.1462 95.4769 42.9621 95.4769C42.5956 95.3624 42.2291 95.202 41.8512 95.1562C20.3414 92.4646 3.4246 75.628 0.607036 54.1182C0.38942 52.446 0.206163 50.7738 0 49.1016C0 48.758 0 48.4144 0 48.0822ZM52.6976 85.5123C57.8174 84.8137 62.4102 83.3018 66.7855 80.6675C63.0402 76.0861 58.4358 73.406 52.6976 72.2263C52.6976 76.7275 52.6976 80.9997 52.6976 85.5123ZM29.5844 81.1371C33.7993 83.5881 38.0944 84.974 42.8247 85.478C42.8247 81.0569 42.8247 76.7389 42.8247 72.2492C37.3614 73.7038 33.1121 76.59 29.5844 81.1371Z" fill="white"/>
<path d="M306.015 25.0835C306.015 23.7549 306.015 22.9188 306.015 22.0712C306.015 21.4298 306.187 20.9373 306.954 20.9373C310.803 20.9373 314.651 20.9373 318.66 20.9373C318.66 37.8885 318.66 54.645 318.66 71.516C314.514 71.516 310.448 71.516 306.164 71.516C306.072 70.1645 305.981 68.8016 305.878 67.1752C298.983 71.6191 291.756 72.9363 284.047 70.783C278.504 69.2368 274.014 66.0642 270.544 61.4942C263.66 52.4001 263.683 39.6065 270.635 30.5697C274.793 25.1637 280.245 21.8307 287.014 20.7311C293.737 19.6431 299.945 21.1435 306.015 25.0835ZM305.992 46.1236C306.027 37.9687 299.475 31.4287 291.378 31.2111C283.394 30.9935 276.293 37.6938 276.236 45.7685C276.179 54.1182 282.742 60.8986 290.942 60.9674C299.212 61.0361 305.946 54.3816 305.992 46.1236Z" fill="white"/>
<path d="M213.242 21.0401C217.342 21.0401 221.397 21.0401 225.669 21.0401C225.669 27.5457 225.669 33.9367 225.669 40.5111C226.459 40.5798 227.055 40.6714 227.65 40.6714C233.446 40.6829 239.241 40.6829 245.037 40.6714C246.995 40.6714 247.007 40.6485 247.007 38.6556C247.018 33.3755 247.007 28.084 247.018 22.8039C247.018 20.9255 247.041 20.9141 248.919 20.9026C251.817 20.8912 254.715 20.8912 257.613 20.9026C258.174 20.9026 258.724 20.9599 259.399 21.0057C259.399 37.8538 259.399 54.5874 259.399 71.4585C255.379 71.4585 251.37 71.4585 247.167 71.4585C247.121 70.8514 247.03 70.1986 247.018 69.5457C247.007 64.2084 247.018 58.8596 247.007 53.5223C247.007 51.7584 246.949 51.7011 245.186 51.7011C239.276 51.6897 233.366 51.6897 227.456 51.7011C226.963 51.7011 226.459 51.7813 225.772 51.85C225.772 58.39 225.772 64.8383 225.772 71.447C221.511 71.447 217.468 71.447 213.242 71.447C213.242 54.7134 213.242 37.9455 213.242 21.0401Z" fill="white"/>
<path d="M139.309 20.3873C153.489 20.4216 165.057 32.0126 165.011 46.1348C164.954 60.2455 153.317 71.9281 139.195 71.7907C124.156 71.6418 113.447 59.501 113.539 45.8485C113.642 31.795 125.175 20.3529 139.309 20.3873ZM124.374 46.1462C124.42 54.4157 131.166 61.0473 139.447 60.9786C147.636 60.9098 154.187 54.1179 154.13 45.7568C154.073 37.8424 147.315 31.1994 139.309 31.188C131.028 31.165 124.328 37.8883 124.374 46.1462Z" fill="white"/>
<path d="M163.19 71.4932C165.114 67.9082 166.855 64.5409 168.733 61.2537C168.962 60.8529 169.913 60.7154 170.52 60.7154C177.163 60.6811 183.817 60.704 190.461 60.6811C192.671 60.6811 194.378 59.5586 195.03 57.7719C196.13 54.7711 194.103 51.7931 190.816 51.7359C186.44 51.6672 182.065 51.713 177.69 51.713C176.968 51.713 176.235 51.713 175.353 51.713C175.353 48.0364 175.353 44.5545 175.353 40.8665C175.972 40.8092 176.613 40.7061 177.266 40.7061C181.641 40.6947 186.017 40.7176 190.392 40.6832C192.912 40.6603 194.401 39.6753 195.042 37.7168C196.015 34.7274 193.782 31.8182 190.38 31.7838C186.291 31.738 182.203 31.7724 178.114 31.7724C175.502 31.7724 172.891 31.738 170.279 31.7838C169.317 31.8067 168.733 31.5204 168.287 30.6156C166.717 27.4201 165.057 24.2703 163.316 20.8801C164.049 20.8114 164.53 20.7312 165.011 20.7312C173.418 20.7197 181.836 20.5594 190.231 20.777C196.737 20.9488 202.097 23.6175 204.938 29.7795C207.343 35.0023 206.69 40.1907 203.575 45.0356C203.334 45.4135 203.059 45.7686 202.739 46.2038C204.468 48.5862 205.636 51.209 206.14 54.1068C207.652 62.8229 200.769 71.4359 191.961 71.5734C182.764 71.7108 173.555 71.6077 164.358 71.5963C164.095 71.6077 163.82 71.5505 163.19 71.4932Z" fill="white"/>
<path d="M95.3277 44.2909C92.3154 44.2909 89.6811 44.0275 87.1155 44.3596C83.7367 44.7949 81.8354 43.6266 80.8504 40.3853C80.3121 38.6329 79.3042 37.0179 78.3994 35.0823C80.106 35.0823 81.5147 35.0823 82.9464 35.0823C80.713 26.0913 69.5458 12.1294 51.7241 10.3312C41.3472 9.28895 31.9897 12.0836 23.9264 18.7152C15.9319 25.2895 11.4421 33.8682 10.125 44.1649C6.83779 44.1649 3.68807 44.1649 0.286377 44.1649C2.1533 28.256 9.35757 15.68 22.9529 7.45638C39.4689 -2.54254 56.5003 -2.47382 72.959 7.58237C86.4054 15.806 93.5524 28.2903 95.3277 44.2909Z" fill="white"/>
<path d="M78.7429 44.2338C75.639 44.2338 72.8901 44.2338 70.1871 44.2338C69.8321 45.8946 69.6603 47.3721 69.1907 48.7465C67.6788 53.1561 64.8727 56.2944 60.1538 57.3939C59.501 57.5428 58.8023 57.5772 58.1266 57.5772C45.4017 57.5886 32.6654 57.5886 19.9405 57.5772C19.3908 57.5772 18.8525 57.5199 18.0164 57.4855C19.0701 55.4697 20.2383 53.7631 20.9026 51.8733C22.0938 48.5174 24.2013 47.5553 27.7289 47.75C33.7306 48.0936 39.7666 47.8417 45.7911 47.8417C49.7082 47.8417 53.6253 47.8989 57.5424 47.8417C59.7759 47.8073 60.9212 46.6047 60.9327 44.3369C60.2798 44.3025 59.6155 44.2338 58.9512 44.2338C54.7478 44.2224 50.5443 44.2453 46.3409 44.2224C36.2504 44.1765 30.0769 33.96 34.6812 25.0148C36.0098 22.4263 37.3155 19.8722 39.5375 17.8907C44.5885 13.3551 52.0906 13.4238 56.6147 18.1771C57.3821 18.9903 58.0006 19.9753 58.5847 20.9488C61.1159 25.1981 63.6472 29.4359 66.0982 33.7309C66.7282 34.8305 67.4497 35.2313 68.6753 35.1512C70.1986 35.0595 71.7448 35.0939 73.2796 35.1626C73.7377 35.1855 74.4135 35.3802 74.5853 35.7009C75.9597 38.404 77.2539 41.1643 78.7429 44.2338ZM56.4658 35.1626C54.576 31.8869 53.1214 28.7945 51.117 26.0914C48.8378 23.0104 45.3903 23.6175 43.6837 27.0993C43.237 28.0156 42.7674 28.9319 42.4009 29.8826C41.3815 32.5283 43.0423 35.0595 45.8713 35.1512C47.5779 35.2084 49.273 35.1626 50.9796 35.1626C52.6632 35.1626 54.3355 35.1626 56.4658 35.1626Z" fill="white"/>
</g>
<defs>
<clipPath id="clip0">
<path d="M0 0H318.648V95.4765H0V0Z" fill="white"/>
</clipPath>
</defs>
</svg>
