<svg width="373" height="96" viewBox="0 0 373 96" fill="none" xmlns="http://www.w3.org/2000/svg">
<g clip-path="url(#clip0)">
<path d="M267.177 49.3759C268.414 40.74 263.867 31.4283 257.304 28.8627C252.699 27.0645 248.175 27.683 243.663 29.6186C238.921 31.6573 238.348 36.6625 235.473 40.2589C234.225 36.5251 234.626 32.9172 235.45 29.1834C244.178 26.1253 252.814 24.1667 261.805 27.2706C271.128 30.4891 275.858 37.3726 277.221 46.8676C277.416 48.1962 277.496 49.5477 277.668 51.3345C302.431 55.5608 326.609 60.9783 346.721 77.1736C345.106 76.5208 343.491 75.8679 341.876 75.2036C335.508 72.6151 329.026 70.2901 322.806 67.3809C315.007 63.7387 306.726 61.8374 298.41 60.0964C290.599 58.4586 282.73 56.9467 274.805 56.0762C263.179 54.7934 251.508 53.6825 239.826 53.3159C220.549 52.6975 201.296 53.2472 182.054 55.3318C167.325 56.9238 152.825 59.329 138.863 64.1281C129.082 67.4954 119.644 71.8936 110 75.845C111.122 74.9287 112.222 73.8063 113.505 72.9931C125.164 65.617 137.362 59.3634 150.969 56.4542C161.999 54.0948 173.017 51.6323 184.162 49.9257C203.85 46.902 223.733 47.2799 243.571 47.8068C250.306 47.9901 257.017 48.8605 263.741 49.3874C264.806 49.4447 265.882 49.3759 267.177 49.3759Z" fill="white"/>
<path d="M284.288 27.9004C303.221 27.9004 321.844 27.9004 340.468 27.9004C340.536 28.1753 340.616 28.4502 340.685 28.7136C340.319 29.0114 339.998 29.4924 339.586 29.5726C335.142 30.4889 334.191 33.5813 334.26 37.5901C334.374 44.7485 334.283 51.9184 334.283 59.0883C334.283 60.5887 334.283 62.0891 334.283 64.5402C330.927 62.8451 328.224 61.4706 325.452 60.0733C325.452 50.2462 325.452 40.7627 325.452 31.3937C322.36 30.1338 306.565 29.6757 299.853 30.6378C298.96 37.1548 299.693 43.878 299.269 51.0479C296.291 50.3378 293.68 49.7193 290.782 49.0321C290.782 45.2181 290.633 41.6561 290.817 38.1169C291.046 33.5928 290.393 29.8131 285.01 28.8739C284.758 28.8281 284.574 28.2898 284.288 27.9004Z" fill="white"/>
<path d="M137.809 29.779C133.262 28.7138 129.563 29.6186 126.596 31.9093C123.882 34.0168 121.82 36.9718 119.14 39.4572C119.3 34.0168 121.786 29.1948 123.137 23.5024C124.363 24.6249 125.187 25.3808 126.665 26.7209C136.755 26.7209 147.487 26.8354 158.208 26.6178C160.178 26.5834 162.113 25.2548 164.61 24.3156C164.965 29.1261 164.908 34.3031 164.805 40.0871C162.205 36.8343 160.441 33.4326 157.67 31.4741C154.875 29.5041 151.072 28.9887 146.846 29.7332C146.846 37.785 146.846 45.7108 146.846 53.7855C143.685 54.8507 141.016 55.7555 137.821 56.8322C137.809 47.4746 137.809 38.7242 137.809 29.779Z" fill="white"/>
<path d="M219.427 42.504C216.186 42.504 213.746 42.504 210.722 42.504C210.722 38.2204 210.722 34.0513 210.722 29.5501C202.109 29.5501 194.057 29.5501 185.696 29.5501C183.669 34.5209 185.628 40.0186 184.299 45.5736C181.733 45.9401 179.11 46.3066 176.19 46.7304C176.19 43.7983 176.178 41.4961 176.19 39.194C176.201 37.8195 176.304 36.4451 176.304 35.0821C176.304 31.6117 175.411 28.8056 171.299 28.3246C170.818 28.2673 170.406 27.5916 169.638 26.9272C188.8 26.9272 207.401 26.9272 226.001 26.9272C226.093 27.2479 226.184 27.5686 226.276 27.8893C225.28 28.3475 224.318 28.9431 223.275 29.2179C220.412 29.9739 219.244 31.7492 219.404 34.6698C219.53 37.1094 219.427 39.5605 219.427 42.504Z" fill="white"/>
<path d="M266.73 61.2186C269.433 61.5393 271.953 61.8371 275.045 62.2036C271.873 69.2361 268.036 74.917 260.488 76.4976C251.417 78.3989 242.449 78.376 234.145 72.9356C232.977 68.8467 232.621 64.6547 232.564 60.4283C232.977 60.3138 233.389 60.2107 233.79 60.0962C234.328 61.4935 235.038 62.845 235.393 64.2767C237.489 72.8096 243.995 75.9708 251.176 75.8104C257.876 75.6615 262.229 72.2713 264.806 66.304C265.482 64.6891 266.054 63.0168 266.73 61.2186Z" fill="white"/>
<path d="M219.312 59.3864C219.312 62.2841 219.267 64.5977 219.324 66.8999C219.45 71.7447 219.69 72.0425 224.123 73.772C224.684 73.9896 225.165 74.4134 225.509 75.2953C218.545 75.2953 211.593 75.2953 203.69 75.2953C204.881 74.5279 205.328 74.024 205.843 73.9438C209.474 73.394 210.459 70.8743 210.539 67.7131C210.608 65.1246 210.55 62.5476 210.55 59.6269C212.257 59.5353 213.586 59.4322 214.914 59.3978C216.14 59.352 217.365 59.3864 219.312 59.3864Z" fill="white"/>
<path d="M176.087 62.1006C178.858 61.7112 181.413 61.3561 184.517 60.9209C184.608 62.8336 184.803 64.4257 184.734 65.9948C184.551 69.9005 185.765 72.7524 189.957 73.6458C190.323 73.7259 190.633 74.0581 190.953 74.3101C191.045 74.3788 191.056 74.5506 191.251 75.0545C187.54 76.3144 184.001 74.3444 180.439 74.6422C176.923 74.94 173.395 75.1347 169.879 75.3867C169.753 75.1004 169.615 74.8026 169.49 74.5162C170.257 74.0352 170.967 73.3709 171.815 73.1189C174.804 72.2255 175.961 70.2212 175.869 67.2203C175.835 65.5825 176.007 63.9446 176.087 62.1006Z" fill="white"/>
<path d="M306.714 76.177C298.685 76.177 291.573 76.177 284.048 76.177C286.27 74.4705 288.652 73.3938 289.763 71.5613C290.874 69.7287 290.702 67.1288 291.16 64.5288C293.783 65.0099 296.303 65.4795 298.846 65.9376C299.407 68.2283 299.407 70.6908 300.575 72.2828C301.732 73.8749 304.08 74.5965 306.714 76.177Z" fill="white"/>
<path d="M0.904888 30.6727C6.18496 29.0348 11.4307 27.4313 16.6649 25.782C21.3838 24.3045 26.1141 22.8499 30.7986 21.2464C33.1465 20.4332 35.2425 20.4332 37.5447 21.5442C40.4539 22.953 43.5463 23.9838 47.3489 25.4957C33.2382 33.7651 20.3071 42.046 7.92589 51.1974C22.93 44.8178 36.1245 35.2999 50.5444 27.2366C52.6748 28.5767 54.9769 30.0198 57.7143 31.7493C45.356 44.1306 33.2954 56.2026 21.2463 68.286C23.7432 69.1451 25.1978 68.0112 26.5149 66.7627C37.8997 55.859 49.2616 44.9323 60.7953 33.8568C62.5134 35.4832 64.2543 37.1325 66.3159 39.0796C61.3909 46.8107 56.6721 54.3586 51.8043 61.8148C47.0855 69.0534 42.3437 76.2577 38.1059 83.7483C38.587 84.0461 39.068 84.3439 39.5605 84.6531C49.7427 70.634 59.0544 56.0079 68.8242 41.1298C70.9546 43.4434 72.8673 45.505 74.6541 47.4635C68.9502 63.5672 63.3609 79.3387 57.6456 95.4767C54.0148 95.4767 50.0405 95.5225 46.0661 95.4652C35.8725 95.3278 25.6674 94.6864 15.4967 95.1445C7.98316 95.4652 -0.0572076 87.6539 5.99949e-05 79.9457C0.114595 63.9681 0.343665 47.9904 0.538375 32.0128C0.538375 31.7493 0.675817 31.4859 0.904888 30.6727Z" fill="white"/>
<path d="M80.6327 95.4079C73.4742 95.4079 66.9114 95.4079 60.0164 95.4079C65.7088 80.4954 71.2866 65.8578 77.1165 50.5674C79.4873 54.1867 81.8468 57.4395 83.7824 60.9214C84.4352 62.0896 84.2176 63.8649 84.0573 65.331C82.9806 75.2726 81.8124 85.1914 80.6327 95.4079Z" fill="white"/>
<path d="M0.836182 11.9001C0.836182 10.5257 0.836182 9.49489 0.836182 8.14337C24.9687 6.16191 48.9753 4.18045 72.9933 2.21045C73.0735 2.53115 73.1537 2.85185 73.2453 3.16109C70.6225 4.169 68.034 5.23418 65.3882 6.17337C59.1804 8.3839 52.984 10.6631 46.6961 12.6446C44.7032 13.2745 42.3208 13.538 40.305 13.1027C28.0612 10.4913 15.783 9.96448 3.40177 11.8887C2.73747 11.9918 2.0388 11.9001 0.836182 11.9001Z" fill="white"/>
<path d="M87.5278 68.0107C91.2617 76.6581 93.8502 85.6148 94.8352 95.4763C90.8035 95.4763 87.0811 95.4763 83.1526 95.4763C84.3208 86.1531 85.4662 77.1163 86.6001 68.0795C86.9093 68.0566 87.2186 68.0336 87.5278 68.0107Z" fill="white"/>
<path d="M0.744385 28.4274C0.744385 24.2927 0.744385 20.639 0.744385 16.4127C9.99883 16.2409 18.9784 15.6682 27.9923 19.1157C19.1273 22.1395 10.2623 25.1746 0.744385 28.4274Z" fill="white"/>
<path d="M0.859131 6.05891C0.859131 3.71094 0.859131 1.98146 0.859131 0C18.1081 0 35.1051 0 52.1136 0C52.1365 0.19471 52.148 0.400873 52.1709 0.595583C35.2197 2.40524 18.257 4.20344 0.859131 6.05891Z" fill="white"/>
<path d="M73.566 8.96821C68.412 12.221 63.2464 15.4624 58.2756 18.5892C55.3435 17.5011 52.8123 16.5619 49.3647 15.2906C57.806 12.5646 65.4455 10.0907 73.0964 7.6167C73.2568 8.07484 73.4171 8.52153 73.566 8.96821Z" fill="white"/>
<path d="M94.7778 23.6745C95.0985 30.4435 95.4307 37.224 95.7628 44.2106C91.0211 41.6794 90.4141 40.786 91.1013 36.1015C91.7083 31.9095 92.6475 27.7748 93.4492 23.6172C93.8845 23.6286 94.3312 23.6515 94.7778 23.6745Z" fill="white"/>
<path d="M66.7969 22.9643C65.2393 22.0022 64.1283 21.315 62.1926 20.1238C67.1749 17.4666 71.5158 15.153 75.8567 12.8394C75.9368 12.9539 76.017 13.0684 76.0857 13.1715C73.0735 16.3556 70.0612 19.5282 66.7969 22.9643Z" fill="white"/>
<path d="M87.8141 36.9491C83.6565 34.1544 83.5992 34.0972 84.9736 30.329C85.9472 27.6603 87.0582 25.0374 88.8564 22.5635C88.5242 27.1563 88.1921 31.7377 87.8141 36.9491Z" fill="white"/>
<path d="M84.2635 20.6622C83.0952 24.2013 81.9155 27.7405 80.6442 31.6003C79.3156 30.7069 78.3191 30.0312 76.876 29.0576C79.1667 26.0339 81.3428 23.1705 83.5076 20.3071C83.7595 20.4331 84.0115 20.5477 84.2635 20.6622Z" fill="white"/>
<path d="M74.2647 26.8127C72.9361 25.9881 72.0542 25.4383 70.8516 24.6938C73.7722 21.9335 76.4638 19.4023 79.1439 16.8711C79.3615 17.0429 79.5677 17.2262 79.7853 17.398C78.0329 20.3759 76.2805 23.3652 74.2647 26.8127Z" fill="white"/>
</g>
<defs>
<clipPath id="clip0">
<path d="M0 0H372.297V95.4765H0V0Z" fill="white"/>
</clipPath>
</defs>
</svg>
