<svg width="178" height="269" viewBox="0 0 178 269" fill="none" xmlns="http://www.w3.org/2000/svg">
<g clip-path="url(#clip0)">
<path d="M20.6339 0.0969238C66.5767 0.0969238 111.842 0.0969238 157.624 0.0969238C157.624 1.71041 157.624 3.098 157.624 4.4856C157.624 64.7654 157.688 125.045 157.592 185.325C157.559 199.717 152.272 212.496 143.47 223.661C131.412 238.989 115.615 247.767 96.109 249.961C60.6444 253.962 27.7913 228.598 21.6978 194.457C21.1175 191.23 20.6984 187.939 20.6984 184.679C20.6339 124.593 20.6339 64.4426 20.6339 4.29198C20.6339 3.03346 20.6339 1.77495 20.6339 0.0969238ZM25.341 5.06645C25.341 7.0349 25.341 8.58385 25.341 10.1328C25.341 67.8632 25.3088 125.594 25.3733 183.324C25.3733 186.874 25.7602 190.456 26.276 193.973C27.5979 202.75 31.3378 210.592 36.2383 217.853C40.3974 224.048 45.7493 229.212 51.7783 233.665C57.7105 238.021 64.1909 241.345 71.2193 243.313C81.5363 246.185 92.1112 246.508 102.622 244.378C111.842 242.507 120.16 238.505 127.672 232.794C135.41 226.888 141.471 219.595 146.017 211.012C150.144 203.202 152.949 194.909 152.981 186.067C153.11 127.046 153.046 68.0246 153.046 9.00335C153.046 7.74484 152.885 6.48632 152.788 5.06645C110.359 5.06645 68.1887 5.06645 25.341 5.06645Z" fill="white"/>
<path d="M168.038 155.637C170.939 155.475 173.035 155.379 175.066 155.282C176.291 157.992 176.291 157.992 175.969 161.8C173.422 161.8 170.81 161.8 168.038 161.8C168.038 159.799 168.038 157.831 168.038 155.637Z" fill="white"/>
<path d="M10.4137 90.9359C11.123 94.776 7.76994 93.5497 6.51256 95.0019C7.15737 96.9058 11.2197 95.3246 10.4459 98.9388C7.76994 99.7133 5.0295 99.3583 2.28905 99.1647C2.25681 98.8097 2.22457 98.487 2.19233 98.132C3.61091 97.9062 5.0295 97.6803 6.80273 97.3898C5.0295 96.6799 3.54643 96.0991 2.06337 95.5182C2.03113 95.2278 2.03113 94.9696 2.03113 94.6792C3.51419 94.1306 4.99726 93.5497 6.86721 92.8721C5.12622 92.5494 3.6754 92.2912 2.19233 92.0331C4.86829 90.5164 7.54426 90.9682 10.4137 90.9359Z" fill="white"/>
<path d="M167.747 44.3063C167.683 40.4984 170.971 41.7892 172.39 40.2725C170.842 39.6917 169.424 39.1431 167.844 38.5623C167.844 37.8846 167.844 37.2069 167.844 36.3679C170.617 36.3679 173.228 36.3679 176.71 36.3679C174.84 38.175 173.132 37.2392 171.423 37.9491C173.164 38.6591 174.615 39.2722 176.033 39.853C175.775 42.241 173.454 41.2729 172.293 42.5314C173.615 42.7896 174.776 43.0155 175.969 43.2736C173.422 44.9839 170.714 44.274 167.747 44.3063Z" fill="white"/>
<path d="M56.9046 257.641C57.775 256.415 58.5811 255.253 59.3871 254.092C60.451 254.64 61.0636 254.931 61.7729 255.286C60.5155 257.899 60.0641 260.707 57.4526 262.482C57.6138 261.514 57.8073 260.545 58.0652 259.126C56.6789 260.158 55.7761 260.836 54.4543 261.836C54.4543 259.803 54.4543 258.287 54.4543 255.834C53.7127 257.189 53.4226 257.803 53.0357 258.351C52.6166 258.932 52.133 259.481 51.6816 260.029C51.4237 259.9 51.198 259.739 50.9401 259.61C52.004 257.125 53.0679 254.672 54.1641 252.091C57.6138 253.091 55.228 255.802 56.9046 257.641Z" fill="white"/>
<path d="M174.163 199.814C171.358 200.427 168.844 199.169 166.2 198.459C168.521 196.684 171.036 199.266 173.519 197.781C173.583 197.394 173.647 196.878 173.744 196.135C171.455 195.555 169.231 194.974 166.974 194.425C169.263 192.715 171.552 194.748 174.034 193.651C174.131 193.296 174.325 192.683 174.615 191.811C172.229 191.263 170.069 190.746 167.715 190.198C167.973 189.714 168.199 189.101 168.36 189.101C171.455 189.326 174.55 189.617 178 189.907C174.099 192.328 176.227 196.781 174.163 199.814Z" fill="white"/>
<path d="M167.909 101.65C167.328 99.2617 169.779 99.4553 170.746 97.9709C169.714 97.7127 168.779 97.4868 166.812 97.0028C168.65 96.3251 169.553 96.0024 170.617 95.6152C170.166 94.1308 167.296 94.518 167.844 92.0332C169.102 92.7432 170.359 93.4208 171.487 94.034C173.003 93.2272 174.357 92.5173 176.001 91.646C176.356 94.3567 173.712 94.0017 172.745 95.6152C173.841 95.8411 174.937 96.0992 176.227 96.3896C175.904 96.8737 175.775 97.39 175.517 97.4546C174.615 97.6804 173.68 97.745 172.713 97.8741C173.422 99.6489 176.098 99.1971 176.13 101.94C174.454 101.133 173.132 100.488 171.423 99.6812C170.488 100.262 169.231 100.94 167.909 101.65Z" fill="white"/>
<path d="M10.5425 38.9494C9.6398 39.143 8.70483 39.3366 7.67313 39.5303C7.89881 41.3051 11.0584 40.7888 10.4136 43.3381C9.25291 42.6604 8.1245 42.015 7.02832 41.4019C5.48077 42.1118 3.99771 42.7895 2.54688 43.4672C2.38568 43.2413 2.22448 42.9831 2.06327 42.7572C3.09497 41.8537 4.12667 40.9179 5.48077 39.7239C4.28787 39.4335 3.28842 39.2076 2.3212 39.0139C2.25672 38.8203 2.19224 38.5944 2.16 38.4008C3.19169 38.0136 4.22339 37.6586 5.35181 37.2391C4.19115 36.3033 3.09497 35.3997 1.96655 34.4962C2.12776 34.238 2.28896 33.9476 2.45016 33.6895C3.8365 34.3348 5.25509 35.0125 6.9316 35.787C7.96329 35.1739 9.18843 34.4639 10.5103 33.6895C10.9294 36.0129 8.73707 36.0129 7.60865 37.3359C8.64034 37.6264 9.57532 37.9168 10.5103 38.1749C10.5103 38.4008 10.5103 38.659 10.5425 38.9494Z" fill="white"/>
<path d="M166.361 200.427C166.2 202.622 166.103 204.171 165.974 205.719C166.264 205.816 166.587 205.945 166.877 206.042C167.683 204.687 168.521 203.364 169.327 202.041C172.713 201.847 173.357 202.396 173.003 205.268C172.938 205.816 172.842 206.397 172.648 206.946C172.422 207.623 172.1 208.237 171.745 209.108C169.069 208.333 166.555 207.559 163.846 206.784C164.395 204.558 164.459 202.493 166.361 200.427Z" fill="white"/>
<path d="M10.4137 70.0255C8.76939 68.8638 10.6393 66.1854 7.60873 65.8305C7.44753 66.9922 7.31856 68.0248 7.12512 69.0574C6.83496 70.5418 5.86774 71.2195 4.38467 71.1227C3.09505 71.0259 2.28904 70.2192 2.16008 68.9606C2.03112 67.573 2.12784 66.1532 2.12784 64.4429C4.83604 64.4429 7.44753 64.4429 10.3814 64.4429C10.4137 66.1854 10.4137 67.928 10.4137 70.0255Z" fill="white"/>
<path d="M167.812 70.8644C167.812 68.8637 167.812 67.218 167.812 65.5399C167.973 65.5077 168.102 65.4754 168.263 65.4431C168.65 66.8307 169.037 68.2183 169.456 69.6059C169.779 69.6059 170.133 69.6059 170.456 69.6059C170.875 68.0892 171.262 66.5726 171.681 65.0559C175.582 63.5392 176.42 64.6041 176.001 70.8644C173.454 70.8644 170.843 70.8644 167.812 70.8644Z" fill="white"/>
<path d="M66.7702 265.289C65.0614 264.967 63.0625 264.579 60.8057 264.16C61.3538 261.094 61.9663 258.351 64.0297 255.996C64.0297 256.996 64.0297 257.996 64.0297 259.19C65.1904 259.803 66.609 260.223 67.5439 261.159C68.7691 262.288 68.3177 263.708 66.7702 265.289Z" fill="white"/>
<path d="M10.3814 17.1675C10.3814 19.3296 10.3814 21.0722 10.3814 23.331C8.86605 23.3956 7.60867 23.4601 6.22233 23.5247C5.77096 21.7498 5.41632 20.4268 5.06167 19.136C4.09445 18.781 3.15948 18.4261 2.19226 18.1034C4.86823 16.8126 7.41523 17.103 10.3814 17.1675Z" fill="white"/>
<path d="M11.4775 176.902C7.83432 178.128 5.12612 177.677 2.12775 177.483C3.06272 175.224 5.06164 176.838 6.44798 175.773C4.93268 174.514 3.41737 173.256 1.41846 171.578C4.90044 170.384 7.60864 170.965 10.3491 170.965C10.3813 171.319 10.4458 171.674 10.478 172.029C8.99498 172.255 7.51192 172.513 5.67421 172.804C7.54416 174.095 9.12395 175.224 11.4775 176.902Z" fill="white"/>
<path d="M1.74109 14.8764C4.7717 12.4562 4.67498 10.1328 2.16022 7.61572C5.41651 8.13204 8.22144 9.06786 10.7684 10.8427C8.86625 13.2629 6.51269 14.3278 1.74109 14.8764Z" fill="white"/>
<path d="M38.1083 247.185C37.0443 247.508 35.9804 247.992 34.8842 248.121C32.4662 248.412 30.3383 246.411 30.4028 244.055C30.435 241.7 32.8208 239.376 35.1422 239.441C37.528 239.505 39.3657 241.603 39.011 244.088C38.8498 245.185 38.334 246.25 37.9793 247.347L38.1083 247.185ZM37.4635 243.184C37.399 241.99 36.4318 241.054 35.2389 241.087C33.5624 241.151 31.9826 242.861 32.0793 244.507C32.176 245.895 33.111 246.508 34.3684 246.572C36.0127 246.669 37.5602 244.927 37.4635 243.184Z" fill="white"/>
<path d="M15.7333 209.689C12.477 212.819 12.0902 212.722 9.25299 208.559C8.31801 208.495 7.41528 208.462 5.73877 208.365C8.47922 206.3 10.994 205.687 13.8956 204.88C14.5404 206.494 15.1208 208.043 15.7333 209.689Z" fill="white"/>
<path d="M11.3166 75.8661C8.3182 78.5768 5.35207 79.3835 1.96681 80.3516C4.57829 76.0597 4.57829 76.0597 1.93457 72.2842C5.31983 72.9296 7.96355 74.2204 11.3166 75.8661Z" fill="white"/>
<path d="M10.3814 167.899C7.28629 168.254 4.1912 168.609 0.161133 169.093C3.06278 166.899 1.57972 164.22 2.38573 161.8C5.06169 161.316 7.73766 161.219 10.4459 162.252C8.54367 163.575 6.28684 162.671 3.96552 163.414C3.86879 164.156 3.73983 165.059 3.57863 166.286C5.99667 166.544 8.22127 166.802 10.4459 167.028C10.4136 167.35 10.3814 167.609 10.3814 167.899Z" fill="white"/>
<path d="M105.04 268.774C102.686 266.612 100.01 268.451 97.5599 267.709C96.9151 265.16 96.1091 262.546 96.9151 259.351C98.4304 260.513 98.108 261.836 98.3014 262.998C98.4626 264.095 98.6561 265.192 98.8817 266.612C100.139 266.386 101.171 266.192 102.267 265.967C102.396 263.643 101.074 261.481 102.557 258.448C103.524 262.481 104.266 265.644 105.04 268.774Z" fill="white"/>
<path d="M107.587 262.74C108.489 260.578 109.231 258.835 110.23 256.544C112.358 259.448 112.681 262.159 112.068 265.16C111.617 263.934 111.133 262.707 110.52 261.062C109.521 263.127 108.618 264.934 107.522 267.193C105.491 264.321 105.426 261.481 104.62 258.319C107.103 259.093 106.361 261.126 107.587 262.74Z" fill="white"/>
<path d="M1.93448 52.7933C4.61044 48.6627 4.86837 49.8245 1.87 44.5322C5.19077 45.8876 7.96346 46.9847 10.7684 48.1464C9.31756 50.6312 7.73777 51.4379 1.93448 52.7933Z" fill="white"/>
<path d="M176.001 118.075C173.357 118.075 170.714 118.075 167.844 118.075C167.844 116.235 167.844 114.59 167.844 113.009C171.391 111.008 172.197 111.492 173.164 116.139C174.164 116.558 175.195 116.978 176.195 117.397C176.13 117.623 176.066 117.849 176.001 118.075Z" fill="white"/>
<path d="M139.763 241.926C142.954 244.636 142.954 244.798 139.924 248.509C140.343 249.348 140.762 250.219 141.278 251.252C140.698 251.284 140.214 251.478 139.956 251.316C139.505 251.026 139.118 250.574 138.763 250.122C137.57 248.573 136.41 246.992 135.023 245.153C136.732 243.991 138.312 242.926 139.763 241.926Z" fill="white"/>
<path d="M48.7799 258.835C47.3291 254.93 46.8777 254.64 42.3318 255.059C44.4919 252.381 47.0067 250.8 49.4892 249.089C50.7788 251.284 50.5531 254.543 48.7799 258.835Z" fill="white"/>
<path d="M11.3163 147.182C8.51138 150.216 5.31957 150.474 2.06327 152.023C2.86929 150.248 3.8365 148.989 3.86874 147.699C3.86874 146.505 2.83705 145.311 1.96655 143.471C5.25509 144.568 7.99553 145.666 11.3163 147.182Z" fill="white"/>
<path d="M176.001 127.788C172.036 127.078 170.166 126.304 167.78 124.335C169.263 122.27 171.745 121.076 175.969 120.495C173.583 124.013 173.583 124.013 176.001 127.788Z" fill="white"/>
<path d="M11.6388 28.4943C8.02785 29.9788 5.31965 31.1082 2.09559 32.4313C2.86937 30.6564 3.86882 29.3979 3.86882 28.1394C3.86882 26.9454 2.83713 25.7514 2.06335 24.1379C5.38413 24.8801 8.25354 25.816 11.6388 28.4943Z" fill="white"/>
<path d="M175.969 1.45196C174.582 1.61331 173.164 1.74238 171.133 1.96827C172.422 2.93636 173.293 3.54949 174.131 4.25942C174.905 4.90481 175.614 5.64701 176.904 6.87326C173.293 7.35731 170.649 7.55092 167.909 6.09879C169.327 5.90517 170.714 5.71155 172.584 5.48567C170.778 4.09807 169.231 2.90409 167.328 1.45196C170.456 -0.322875 173.196 0.806563 175.872 0.548406C175.904 0.806563 175.937 1.12926 175.969 1.45196Z" fill="white"/>
<path d="M2.3214 133.209C3.77223 133.015 5.19081 132.789 7.15749 132.499C5.25529 131.111 3.70775 129.982 1.77332 128.53C4.86841 126.884 7.57661 127.626 10.3493 128.498C8.89847 128.691 7.47989 128.885 5.99683 129.078C6.96404 131.144 9.99465 131.144 10.8329 133.854C7.8023 134.693 5.12633 134.371 2.45037 134.113C2.38589 133.822 2.35365 133.532 2.3214 133.209Z" fill="white"/>
<path d="M2.57912 125.723C4.32011 121.398 5.12613 122.528 1.96655 117.429C5.31957 118.591 8.38242 119.075 11.2518 121.947C8.02777 123.367 5.31957 124.561 2.57912 125.723Z" fill="white"/>
<path d="M175.582 17.1031C172.906 16.0382 170.262 15.0055 167.586 13.9406C167.78 13.1016 167.715 12.5208 167.973 12.3272C170.069 10.8427 173.486 9.71331 176.033 9.58423C173.003 13.6502 173.519 13.1339 175.582 17.1031Z" fill="white"/>
<path d="M148.145 234.31C148.855 232.019 149.886 230.018 152.466 230.115C155.206 230.212 156.753 232.051 157.302 234.762C156.657 236.956 155.593 238.731 153.014 238.731C150.08 238.731 148.855 236.698 148.145 234.31ZM149.725 233.697C151.144 236.44 151.821 237.15 153.207 237.118C154.722 237.085 155.496 236.246 155.657 234.762C153.272 230.986 152.498 230.793 149.725 233.697Z" fill="white"/>
<path d="M113.487 258.739C113.551 256.383 115.163 254.898 117.646 254.898C119.999 254.898 122.095 257.286 121.901 259.739C121.708 261.965 119.903 263.611 117.613 263.611C115.195 263.611 113.422 261.514 113.487 258.739ZM115.389 257.319C114.97 259.448 115.066 261.288 117.291 261.901C118 262.095 119.226 261.578 119.741 260.997C120.87 259.707 120.064 258.287 119.226 257.19C118.194 255.802 116.872 256.028 115.389 257.319Z" fill="white"/>
<path d="M175.937 55.4072C173.003 59.4087 173.357 59.1828 176.388 62.8615C172.841 62.6034 170.262 60.9899 166.812 59.6023C169.779 56.6335 173.003 56.3108 175.937 55.4072Z" fill="white"/>
<path d="M7.12516 3.87384C4.64264 4.19653 3.28853 7.32669 0 5.77775C2.06339 4.51923 3.7399 3.4866 6.06122 2.06673C4.28799 1.61496 3.28853 1.38907 2.09563 1.09864C2.45028 0.614599 2.64372 0.066015 2.90165 0.0337453C5.38417 -0.030794 7.86669 0.00147562 10.3492 0.00147562C10.3815 0.291903 10.4137 0.614599 10.4782 0.905026C9.57544 1.19545 8.64046 1.48588 7.60877 1.84085C7.76997 2.16354 7.83445 2.67986 8.09237 2.84121C9.25303 3.55114 10.8328 3.84157 10.4782 5.87456C9.22079 5.13235 8.06013 4.45469 7.12516 3.87384Z" fill="white"/>
<path d="M167.232 86.6119C169.972 84.0626 173.035 83.6108 176.388 82.1909C175.389 83.998 174.196 85.2243 174.196 86.4183C174.196 87.6768 175.356 88.9353 176.388 90.9683C173.099 89.4516 170.101 88.9676 167.232 86.6119Z" fill="white"/>
<path d="M84.3089 259.674C86.3723 262.417 86.7269 265.451 87.9843 269C86.0821 267.806 84.9537 266.612 83.664 266.451C82.5356 266.29 81.246 267.258 79.2148 268.064C81.2138 265.031 81.4072 261.804 84.3089 259.674Z" fill="white"/>
<path d="M176.646 111.621C172.874 110.362 170.036 109.491 167.103 107.684C169.907 104.844 173.067 104.489 176.452 102.973C173.099 108.2 173.389 107.103 176.646 111.621Z" fill="white"/>
<path d="M171.487 153.442C168.844 153.184 167.361 151.442 167.554 148.86C167.748 146.407 169.714 144.826 172.261 145.052C174.711 145.278 176.485 147.343 176.259 149.667C176.066 152.087 174.002 153.7 171.487 153.442ZM168.65 149.602C169.843 151.732 171.455 152.345 173.39 151.377C174.067 151.022 174.615 149.86 174.679 149.021C174.808 147.698 173.744 147.021 172.519 146.827C170.552 146.504 169.198 147.279 168.65 149.602Z" fill="white"/>
<path d="M138.022 252.478C136.99 254.705 135.056 255.479 133.024 256.544C131.541 254.221 130.123 251.962 128.511 249.477C130.348 248.315 131.96 247.315 133.605 246.282C133.798 246.476 133.992 246.669 134.185 246.863C133.089 247.896 132.025 248.896 130.897 249.993C131.283 250.413 131.541 250.735 131.896 251.123C133.121 250.542 134.346 249.993 135.539 249.445C135.668 249.638 135.797 249.832 135.926 250.026C134.959 250.897 133.959 251.736 132.734 252.801C133.089 253.285 133.444 253.801 133.83 254.35C135.313 253.672 136.668 253.059 138.022 252.478Z" fill="white"/>
<path d="M19.0864 216.949C14.6694 219.724 13.8634 220.047 10.7039 220.144C12.4126 218.079 14.9919 218.079 16.7006 216.336C16.6039 215.852 16.5072 215.207 16.3782 214.529C15.7656 214.529 15.3143 214.4 14.9596 214.561C13.6377 215.078 12.3481 215.755 10.994 216.175C9.67216 216.53 8.80167 216.046 8.86615 214.852C11.5421 213.948 13.9924 213.109 16.7006 212.206C17.4421 213.69 18.1837 215.207 19.0864 216.949Z" fill="white"/>
<path d="M161.106 213.529C162.46 209.818 163.653 208.753 166.007 209.108C168.102 209.398 169.972 211.076 170.166 212.851C170.391 214.723 168.876 216.982 167.071 217.433C164.717 217.982 162.879 216.853 161.106 213.529ZM164.878 210.56C163.427 211.109 162.396 211.883 162.75 213.432C163.169 215.271 164.749 215.659 166.877 216.11C167.393 215.271 168.521 214.271 168.489 213.303C168.425 211.205 166.522 210.883 164.878 210.56Z" fill="white"/>
<path d="M167.812 187.39C167.748 185.97 167.651 184.873 167.651 183.744C167.651 183.066 167.715 182.389 167.78 181.291C169.585 182.614 167.715 185.293 170.359 185.97C170.778 184.647 171.165 183.389 171.552 182.13C172.906 183.066 171.165 185.841 174.292 185.938C174.55 184.422 174.808 182.84 175.163 180.646C176.872 183.163 176.098 185.261 176.033 187.423C173.164 187.39 170.553 187.39 167.812 187.39Z" fill="white"/>
<path d="M150.982 242.765C150.144 242.12 149.306 241.442 148.274 240.635C147.597 241.152 146.823 241.732 145.921 242.442C146.63 243.636 147.275 244.669 147.887 245.702C147.533 245.895 147.21 246.218 147.114 246.153C144.728 244.669 142.89 242.668 141.762 239.796C142.793 240.28 143.825 240.797 145.276 241.506C145.727 240.926 146.243 240.28 146.888 239.441C146.372 238.538 145.888 237.602 145.34 236.666C145.792 236.505 146.146 236.279 146.243 236.343C148.113 238.15 149.983 240.022 151.853 241.861C151.498 242.152 151.24 242.442 150.982 242.765Z" fill="white"/>
<path d="M177.001 19.943C174.937 20.3302 173.841 20.5238 172.551 20.782C172.455 21.6532 172.358 22.4277 172.229 23.4603C173.551 23.8799 174.776 24.2671 176.485 24.8157C172.809 25.9128 171.423 25.9451 167.554 24.9448C168.296 24.5575 168.682 24.2671 169.102 24.1057C169.617 23.9121 170.166 23.8476 170.875 23.654C170.875 22.7504 170.875 21.9759 170.875 21.0079C170.359 20.8142 169.843 20.6206 169.327 20.4593C168.844 20.2979 168.36 20.1366 167.876 19.9752C168.263 18.4585 172.551 18.3617 177.001 19.943Z" fill="white"/>
<path d="M30.4672 233.891C29.9514 234.794 29.4678 235.698 28.9519 236.601C30.2738 237.892 32.2405 234.956 33.5301 237.376C32.2405 237.731 31.0153 238.086 30.0159 238.376C28.3394 240.28 29.3388 243.313 26.1792 244.475C26.7596 242.184 27.2432 240.183 27.8235 237.86C26.4372 238.57 25.4055 239.086 24.406 239.635C25.5989 236.795 27.5333 234.859 30.4672 233.891Z" fill="white"/>
<path d="M159.526 232.18C157.431 230.761 155.303 229.341 152.852 227.663C154.045 225.823 155.109 224.178 156.205 222.5C156.496 222.661 156.754 222.79 157.044 222.951C156.399 224.242 155.786 225.533 155.077 226.985C155.464 227.275 155.883 227.598 156.399 227.985C157.366 226.856 158.237 225.823 159.075 224.791C159.301 224.92 159.494 225.049 159.72 225.178C159.172 226.34 158.623 227.501 157.979 228.889C158.333 229.212 158.817 229.663 159.526 230.277C160.622 228.889 161.525 227.727 162.815 226.146C162.234 229.276 162.234 229.276 159.526 232.18Z" fill="white"/>
<path d="M3.2564 195.587C4.25586 195.199 5.28755 194.844 6.44821 194.393C6.38373 193.521 6.31925 192.715 6.25477 191.65C4.96515 191.488 3.74001 191.327 2.28918 191.166C2.74055 190.617 2.96624 190.198 3.28864 190.036C3.64329 189.843 4.09465 189.81 4.54602 189.778C6.48045 189.552 8.44713 189.359 10.704 189.778C9.89795 190.262 9.12418 190.746 8.12472 191.327C8.12472 192.166 8.12472 193.102 8.12472 194.263C9.31762 194.328 10.3493 194.393 11.4133 194.425C11.2843 194.973 11.2843 195.393 11.1553 195.457C8.60833 196.555 5.96461 196.748 3.28864 196.426C3.2564 196.135 3.2564 195.845 3.2564 195.587Z" fill="white"/>
<path d="M6.51265 188.003C3.61101 188.035 2.12794 186.712 2.06346 184.066C1.99898 181.42 3.4498 180 6.31921 179.968C9.22086 179.903 10.7362 181.259 10.7362 183.873C10.7684 186.519 9.28534 187.971 6.51265 188.003ZM9.57551 184.195C9.38206 182.356 8.28588 181.549 6.7061 181.517C5.80336 181.485 4.86839 182.001 3.54653 182.356C3.70773 183.647 3.83669 184.808 3.96565 185.873C6.57714 186.454 8.67277 186.938 9.57551 184.195Z" fill="white"/>
<path d="M10.4137 61.3128C7.70554 61.3128 4.99734 61.3128 2.28913 61.3128C2.22465 61.0546 2.19241 60.8287 2.12793 60.5706C3.32083 60.2156 4.51373 59.8606 5.86783 59.4411C5.86783 58.6666 5.86783 57.8599 5.86783 56.8595C4.61045 56.5368 3.38531 56.2464 2.16017 55.9237C4.9651 54.407 7.70554 54.6329 10.6072 55.7301C10.0913 55.956 9.57549 56.2141 9.0274 56.3755C8.51156 56.5368 7.99571 56.6659 7.38314 56.795C7.31866 57.634 7.28642 58.3117 7.22193 59.2475C8.31811 59.667 9.41429 60.0542 10.5105 60.4415C10.4782 60.7642 10.446 61.0223 10.4137 61.3128Z" fill="white"/>
<path d="M170.875 75.8338C169.811 75.5111 168.811 75.1884 167.909 74.898C168.005 73.349 172.326 73.22 176.807 74.6398C175.066 75.0916 173.97 75.382 172.551 75.737C172.487 76.4792 172.39 77.3828 172.261 78.5445C173.68 78.8026 174.84 79.0608 176.291 79.3189C173.873 80.8679 171.81 80.9647 167.49 79.7384C168.844 79.1899 169.779 78.8026 170.875 78.3508C170.875 77.5764 170.875 76.7696 170.875 75.8338Z" fill="white"/>
<path d="M2.2245 114.428C3.38516 114.202 4.54582 113.944 5.86768 113.686C5.86768 112.815 5.86768 112.008 5.86768 110.975C4.67478 110.685 3.4174 110.395 2.19226 110.072C4.96495 108.491 7.70539 108.749 10.5748 109.878C9.63982 110.201 8.70485 110.556 7.47971 110.975C7.41523 111.589 7.31851 112.395 7.22178 113.46C8.38244 113.815 9.44638 114.17 10.5426 114.525C7.76987 116.106 5.06167 115.816 2.32122 115.396C2.28898 115.074 2.25674 114.751 2.2245 114.428Z" fill="white"/>
<path d="M127.221 255.544C126.383 256.028 125.77 256.351 125.029 256.802C125.287 258.029 125.545 259.19 125.77 260.223C125.448 260.481 125.287 260.61 125.255 260.61C123.159 258.642 122.256 256.125 122.063 253.124C122.804 253.834 123.546 254.543 124.416 255.35C125.222 254.931 126.061 254.479 126.963 253.995C126.641 252.865 126.351 251.865 126.061 250.897C128.865 252.543 129.607 255.286 130.187 258.287C129.188 257.383 128.188 256.48 127.221 255.544Z" fill="white"/>
<path d="M12.0902 197.167C12.3481 199.555 13.6055 201.137 12.7672 203.621C11.9934 201.879 11.4454 200.653 10.6393 198.813C10.0913 199.781 9.57541 200.33 9.51093 200.943C9.4142 201.879 9.63989 202.847 9.22076 203.912C8.64043 202.686 8.0601 201.492 7.44753 200.136C6.93168 200.233 6.38359 200.33 5.6743 200.459C5.8355 202.072 5.96447 203.492 6.19015 205.816C4.3202 203.46 4.38468 201.459 3.73987 199.362C6.51255 198.652 9.05956 197.974 12.0902 197.167Z" fill="white"/>
<path d="M1.9989 158.767C3.09508 157.863 4.15902 156.992 5.67432 155.766C4.32022 155.411 3.25628 155.12 2.19234 154.83C2.35355 154.346 2.41803 153.894 2.48251 153.894C5.12623 153.862 7.73772 153.862 10.5426 153.862C10.2202 156.121 8.22133 154.636 7.35083 155.83C7.99564 156.282 8.73717 156.669 9.3175 157.186C9.86559 157.702 10.2202 158.38 10.317 159.283C9.1563 158.638 7.99564 157.992 6.89946 157.379C5.31968 158.121 3.90109 158.831 2.45027 159.509C2.32131 159.283 2.1601 159.025 1.9989 158.767Z" fill="white"/>
<path d="M167.941 129.563C169.134 130.337 170.165 131.015 171.229 131.693C172.809 130.918 174.26 130.24 176.066 129.337C176.066 132.048 173.39 131.628 172.648 133.371C173.809 133.661 174.969 133.984 176.098 134.274C173.293 135.791 170.585 135.597 167.715 134.306C168.682 134.048 169.65 133.758 170.681 133.5C170.52 131.693 167.328 132.306 167.941 129.563Z" fill="white"/>
<path d="M91.6599 263.095C92.7883 262.159 92.5627 259.868 95.0129 260.158C94.3681 261.288 93.7233 262.385 93.014 263.611C93.7878 265.095 94.5616 266.58 95.4321 268.29C92.8528 268.839 93.2397 265.773 91.4342 265.483C91.1763 266.483 90.9506 267.483 90.6927 268.516C90.2091 268.322 89.79 268.258 89.7577 268.129C89.5321 265.612 89.3064 263.095 89.0807 260.287C91.3375 260.352 90.2413 262.481 91.6599 263.095Z" fill="white"/>
<path d="M3.32079 84.7728C3.90112 86.0959 4.35248 87.1608 4.86833 88.3225C2.45029 87.7094 1.96668 87.1285 2.0634 85.1923C2.16013 83.3852 3.28855 82.0945 5.1585 81.5781C7.12517 81.0618 9.57545 81.9976 10.3815 83.5789C11.2197 85.2892 10.7361 86.8058 8.09238 89.1292C8.7372 87.419 9.12408 86.3863 9.51097 85.3214C7.22189 82.5462 6.89948 82.4817 3.32079 84.7728Z" fill="white"/>
<path d="M169.908 47.275C169.488 48.2108 169.069 49.1466 168.747 49.9211C169.392 52.6318 172.261 52.8254 174.873 50.3083C174.421 49.3402 173.97 48.2753 173.228 46.6619C174.324 47.1459 175.163 47.2105 175.421 47.6622C175.904 48.469 176.259 49.4693 176.259 50.4051C176.227 52.3413 174.711 53.6321 172.616 53.8257C170.133 54.0516 168.263 53.1803 167.844 51.2764C167.618 50.2438 167.78 49.0175 168.005 47.9527C168.102 47.5009 168.908 47.2427 169.392 46.8555C169.553 47.0168 169.746 47.1459 169.908 47.275Z" fill="white"/>
<path d="M173.873 177.128C175.646 174.902 173.583 173.901 173.099 171.901C174.196 172.352 175.034 172.417 175.292 172.836C175.775 173.643 176.227 174.643 176.227 175.547C176.227 177.58 174.55 179.032 172.229 179.226C170.133 179.419 168.199 178.419 167.812 176.676C167.586 175.612 167.715 174.418 167.973 173.353C168.07 172.901 168.94 172.643 170.198 171.804C169.456 173.708 169.069 174.773 168.682 175.773C170.23 178.161 172.1 177.806 173.873 177.128Z" fill="white"/>
<path d="M11.0585 101.456C9.93012 102.521 9.15635 103.263 8.35034 104.037C9.15635 104.715 9.93012 105.36 11.123 106.361C10.2203 106.522 9.86564 106.716 9.60772 106.619C8.4793 106.102 7.38312 105.522 6.64159 106.393C5.19076 105.522 3.80442 104.715 2.45032 103.908C3.7077 103.101 4.9006 101.972 6.28694 101.52C7.57656 101.133 9.09187 101.456 11.0585 101.456Z" fill="white"/>
<path d="M18.9898 224.629C21.6335 226.146 23.7614 224.694 24.7608 226.92C23.3422 226.92 22.0204 226.92 20.763 226.92C19.6668 228.179 18.6029 229.373 17.5389 230.599C17.3777 230.47 17.1843 230.341 17.0231 230.244C17.5067 229.05 17.9903 227.888 18.7318 226.114C17.2165 226.694 16.2493 227.049 15.0242 227.533C16.4105 224.791 18.1515 223.532 22.5362 222.209C21.8914 223.08 21.6657 223.661 21.2466 223.919C20.763 224.177 20.1182 224.274 18.9898 224.629Z" fill="white"/>
<path d="M175.808 33.2053C175.195 32.7213 174.615 32.2049 173.841 31.5918C172.003 32.3986 170.133 33.2376 167.812 34.2379C167.973 31.8177 170.198 32.1081 171.004 30.7851C169.908 29.9783 168.779 29.1393 167.651 28.3003C167.812 28.0422 167.973 27.8163 168.134 27.5581C170.939 29.0425 174.325 29.4943 176.388 32.3018C176.195 32.5922 176.001 32.9149 175.808 33.2053Z" fill="white"/>
<path d="M37.9793 247.347C39.3334 246.411 40.7198 245.508 42.2996 244.443C43.4602 245.282 44.7499 246.25 46.0395 247.218C45.8783 247.476 45.7171 247.734 45.5559 247.993C44.4919 247.508 43.4602 246.992 42.0094 246.315C41.816 247.347 41.687 248.186 41.4936 249.283C41.1067 249.412 40.1717 249.477 39.6236 249.993C39.0433 250.51 38.8176 251.478 38.4307 252.252C38.1083 251.994 37.8181 251.736 37.4957 251.478C37.6892 250.058 37.9149 248.67 38.1083 247.25L37.9793 247.347Z" fill="white"/>
<path d="M169.489 166.254C171.649 166.383 173.809 166.479 176.485 166.641C175.292 168.609 173.906 167.899 172.809 167.996C171.713 168.125 170.553 168.028 169.392 168.028C168.941 168.867 168.554 169.577 167.844 170.868C167.844 168.383 167.844 166.512 167.844 163.995C168.586 164.963 169.005 165.576 169.489 166.254Z" fill="white"/>
<path d="M89.2739 17.2319C91.3051 22.5564 93.0461 26.9128 94.6258 31.3338C98.5914 42.4668 102.428 53.6644 106.426 64.8297C110.617 76.5113 114.97 88.1607 119.161 99.81C123.707 112.427 128.188 125.045 132.734 137.662C135.636 145.73 138.344 153.862 141.568 161.8C146.759 174.45 146.049 187.067 141.084 199.33C134.475 215.69 122.804 226.985 105.62 232.213C92.24 236.279 79.0859 235.794 66.4154 230.018C47.0711 221.176 36.1738 205.88 33.659 184.776C32.8207 177.774 33.4978 170.932 36.0126 164.22C41.8159 148.699 47.329 133.112 52.9066 117.526C56.9367 106.232 60.8378 94.9373 64.9001 83.6429C70.9613 66.7014 77.1192 49.8243 83.2127 32.8827C84.7602 28.5909 86.2755 24.2667 87.8231 19.9749C88.081 19.3295 88.4679 18.7486 89.2739 17.2319ZM65.4159 125.561C69.0591 124.367 70.381 124.4 72.6378 126.562C74.1531 128.014 75.5717 129.724 76.5711 131.563C78.7313 135.565 80.6012 139.76 82.6324 143.858C84.3734 147.44 86.1466 150.99 88.0488 154.894C89.1449 154.443 90.1444 154.281 90.757 153.668C91.434 152.99 91.7564 151.958 92.1756 151.054C95.2384 144.762 98.3335 138.501 101.332 132.144C102.589 129.466 104.459 127.336 106.781 125.658C108.683 124.27 111.455 124.27 112.777 125.594C114.293 127.11 114.841 129.014 114.002 131.112C113.744 131.725 113.229 132.241 112.584 133.145C111.004 132.693 109.456 132.241 107.458 131.66C107.554 133.177 107.425 134.726 107.844 136.113C108.135 137.082 109.07 138.082 109.972 138.663C112.423 140.276 115.518 139.728 117.71 137.307C118.645 136.275 119.387 134.984 119.87 133.693C122.353 127.046 120.096 119.301 114.486 114.751C109.36 110.588 104.846 110.298 99.204 113.718C97.7209 114.622 96.2701 115.622 94.4324 114.364C92.9171 112.169 92.6914 108.716 89.4351 108.491C84.8247 108.846 85.663 114.299 81.8908 115.461C80.8591 114.848 79.7307 114.235 78.699 113.525C74.8946 110.814 70.9613 110.879 66.9635 112.912C61.805 115.558 58.6776 119.753 57.6782 125.529C57.0011 129.498 57.6137 133.241 59.8383 136.597C61.5793 139.244 65.1258 140.179 67.7695 138.985C70.6389 137.695 71.3482 135.629 70.381 131.918C68.8012 132.306 67.2214 132.725 65.7706 133.08C63.4492 129.595 63.4493 129.595 65.4159 125.561ZM86.5979 156.572C85.8564 155.023 85.2116 153.733 84.599 152.442C82.3744 147.666 80.1498 142.89 77.9252 138.082C77.3449 136.856 76.8291 135.662 75.346 136.307C74.9591 136.662 74.6045 136.823 74.54 137.049C71.4449 149.957 70.7356 163.026 72.5733 176.16C72.8957 178.354 73.2181 180.742 75.1526 182.259C77.6351 182.259 80.0209 182.259 82.7936 182.259C82.7936 180.323 82.6646 178.645 82.8258 176.967C83.1805 173.449 85.6307 171.287 89.145 171.32C92.7559 171.352 95.1095 173.643 95.4963 177.483C95.6575 179.129 94.9805 180.904 96.1734 182.356C98.5592 182.356 100.816 182.356 103.008 182.356C105.136 180.323 105.491 177.709 105.813 175.192C107.425 162.736 106.652 150.377 104.008 138.146C103.847 137.404 103.234 136.759 102.589 135.629C101.687 136.565 100.848 137.114 100.461 137.888C99.2685 140.179 98.269 142.535 97.1728 144.859C95.3029 148.828 93.4007 152.797 91.5952 156.572C89.7575 156.572 88.3712 156.572 86.5979 156.572ZM57.2268 213.432C78.6668 213.432 99.7198 213.432 120.805 213.432C120.805 209.688 120.805 206.203 120.805 202.75C112.165 201.911 60.2252 202.266 57.2268 203.17C57.2268 206.397 57.2268 209.688 57.2268 213.432ZM65.2547 198.91C81.3427 198.943 97.0116 198.943 112.745 198.91C112.745 194.844 112.745 191.327 112.745 187.809C100.59 186.906 68.1241 187.325 65.2547 188.39C65.2547 191.682 65.2547 194.941 65.2547 198.91Z" fill="white"/>
</g>
<defs>
<clipPath id="clip0">
<path d="M0 0H178V269H0V0Z" fill="white"/>
</clipPath>
</defs>
</svg>
