<svg width="432" height="96" viewBox="0 0 432 96" fill="none" xmlns="http://www.w3.org/2000/svg">
<g clip-path="url(#clip0)">
<path d="M1.38588 58.7796C5.3717 47.2459 8.93374 36.9492 12.6218 26.286C8.38398 25.5759 4.56995 24.9345 0 24.1671C8.80776 19.2306 17.1001 14.592 26.1942 9.49515C23.0903 19.2994 20.2498 28.2446 17.1116 38.1404C23.9837 35.1396 29.069 30.8216 34.5782 27.2596C40.3049 23.5601 45.963 19.7346 51.6325 15.9435C57.279 12.1753 62.9256 8.38416 69.603 3.91729C67.7246 12.8625 64.3 20.2156 62.6507 29.1494C77.38 20.1698 90.2995 10.0793 105.361 0.366699C95.4536 29.3097 86.0503 56.8096 76.2346 85.5121C72.2259 77.2656 68.7784 70.1644 65.0331 62.4448C47.8757 73.1882 32.1729 84.9051 14.8896 95.8432C16.768 84.4584 21.796 74.6886 23.8806 63.5443C20.4331 63.384 17.3979 63.2465 13.4121 63.0633C22.4947 57.0502 30.8214 51.541 40.1331 45.379C37.6363 55.7445 34.2231 64.7011 31.4399 74.6771C32.9518 73.8754 33.9711 73.4516 34.8874 72.8446C43.9701 66.7169 53.0183 60.532 62.1239 54.4388C64.1512 53.0872 66.3502 51.9992 68.7326 50.6362C70.4277 54.5189 71.9624 58.0352 73.9897 62.6967C79.1896 49.3534 82.8089 36.6973 86.5313 23.6402C73.8294 31.8639 61.1274 40.076 47.9788 48.5975C49.2272 40.6144 52.8809 33.8224 53.843 25.3239C44.1189 30.4207 36.1015 36.4224 27.7175 41.8513C19.2419 47.3032 10.7549 52.7436 1.38588 58.7796Z" fill="white"/>
<path d="M273.441 66.7054C270.67 66.7054 268.631 66.7054 266.088 66.7054C267.13 61.5513 268.15 56.4889 269.261 51.0026C265.046 51.0026 261.209 51.0026 256.776 51.0026C255.482 56.0994 254.154 61.391 252.802 66.7169C250.362 66.7169 248.347 66.7169 245.792 66.7169C248.392 54.3356 250.935 42.2063 253.535 29.8594C255.711 29.8594 257.716 29.8594 260.041 29.8594C261.461 34.6699 258.036 38.8963 258.265 43.8785C261.942 45.1842 265.813 44.2909 269.811 44.4741C272.662 40.1791 272.284 34.9906 273.957 29.8709C276.156 29.7564 278.343 29.6418 281.195 29.4929C278.595 42.0002 276.076 54.1065 273.441 66.7054Z" fill="white"/>
<path d="M405.844 29.7107C408.043 29.7107 409.887 29.7107 412.052 29.7107C413.346 35.1511 408.925 39.9616 410.425 45.9518C414.824 40.3968 418.878 35.2886 423.173 29.8825C425.555 29.8825 428.167 29.8825 431.339 29.8825C426.483 36.0674 421.902 41.8743 417.16 47.9103C419.6 54.1181 422.016 60.2229 424.525 66.6025C422.016 66.6025 419.6 66.6025 416.599 66.6025C414.388 61.1964 412.063 55.5155 409.291 48.735C408.169 52.5605 407.241 55.3666 406.531 58.23C405.844 60.9788 405.386 63.7964 404.802 66.6826C402.396 66.6826 400.381 66.6826 398.376 66.6826C398.273 62.5937 403.416 37.1669 405.844 29.7107Z" fill="white"/>
<path d="M227.536 29.6189C230.468 29.6189 233.148 29.6189 236.263 29.6189C238.668 41.7024 238.634 54.0378 240.627 66.545C238.004 66.545 235.851 66.545 233.343 66.545C233.194 64.0024 233.056 61.5742 232.896 58.8597C228.681 57.2906 224.397 58.2985 219.999 58.2069C218.51 61.0015 217.056 63.7046 215.498 66.6252C213.276 66.6252 211.054 66.6252 208.832 66.6252C209.714 62.1469 221.385 38.9993 227.536 29.6189ZM231.613 36.3307C227.937 40.6944 225.68 45.608 223.309 50.6705C226.322 52.4801 228.979 52.2052 231.613 51.3233C231.613 46.112 231.613 41.2213 231.613 36.3307Z" fill="white"/>
<path d="M133.124 30.0083C136.572 30.0083 139.596 30.0083 142.94 30.0083C143.169 42.3781 145.929 54.2668 145.826 66.6595C144.681 66.8314 143.913 67.0261 143.135 67.049C142.127 67.0719 141.119 66.9688 139.721 66.9001C139.137 64.1627 138.576 61.6086 137.935 58.6192C134.327 57.7144 130.433 58.539 126.183 58.1381C124.58 61.0588 123.022 63.8993 121.499 66.6825C119.162 66.6825 117.009 66.6825 114.031 66.6825C120.64 53.992 126.905 41.9658 133.124 30.0083ZM138.336 51.8387C137.855 46.4555 137.454 41.794 137.007 37.1324C136.984 36.9262 136.572 36.7659 136.343 36.5941C134.029 41.542 131.738 46.4326 129.207 51.8387C132.563 51.8387 135.129 51.8387 138.336 51.8387Z" fill="white"/>
<path d="M297.998 29.6189C301.468 29.6189 304.16 29.6189 307.229 29.6189C309.577 41.7024 309.611 54.0263 311.581 66.5336C309.085 66.5336 306.943 66.5336 304.389 66.5336C304.24 64.0367 304.079 61.6086 303.919 58.9055C299.75 57.2219 295.443 58.3787 290.793 58.1382C289.247 60.9672 287.689 63.8306 286.109 66.7397C283.933 66.7397 281.905 66.7397 279.076 66.7397C284.757 53.7629 292.053 42.172 297.998 29.6189ZM302.716 36.617C302.27 36.4681 301.835 36.3192 301.388 36.1703C299.017 40.9922 296.646 45.8256 293.897 51.4378C297.402 51.4378 299.922 51.4378 302.716 51.4378C302.716 46.3868 302.716 41.4962 302.716 36.617Z" fill="white"/>
<path d="M364.313 65.1822C364.313 63.2007 364.313 61.5858 364.313 59.9708C368.975 60.3831 373.408 60.7611 377.107 61.0818C381.379 58.4933 383.945 55.6986 385.113 51.3349C380.681 50.1322 376.294 51.3005 371.506 50.4758C371.93 48.5631 372.308 46.8794 372.789 44.7262C377.256 44.7262 381.54 44.7262 385.812 44.7262C387.129 41.3474 385.674 39.091 384.632 37.2356C380.154 32.7 375.778 35.6893 371.243 36.5942C370.601 34.796 370.006 33.1238 369.319 31.211C374.725 29.115 379.879 27.4428 385.606 29.5732C389.901 31.1767 392.879 34.2806 393.463 38.4382C394.723 47.5437 393.405 56.2713 386.087 62.9029C384.46 64.3804 382.376 65.5029 380.303 66.2932C376.191 67.8394 368.952 67.2094 364.313 65.1822Z" fill="white"/>
<path d="M362.446 35.6551C363.202 48.7121 359.698 52.2054 344.293 53.6142C343.273 57.7718 342.22 62.0898 341.109 66.6025C338.806 66.6025 336.642 66.6025 333.927 66.6025C336.596 54.0838 339.173 41.9545 341.796 29.5962C345.335 29.5962 348.416 29.6878 351.485 29.5733C356.273 29.4015 359.881 31.234 362.446 35.6551ZM353.146 36.0101C351.863 36.0101 350.1 36.0101 347.958 36.0101C347.19 39.5836 346.446 43.0999 345.679 46.6963C350.294 48.128 352.974 45.9747 355.219 42.4356C355.277 40.3052 355.929 37.9801 353.146 36.0101Z" fill="white"/>
<path d="M182.203 31.8524C181.882 32.9749 181.767 33.7995 181.424 34.5211C181 35.4259 180.404 36.2506 180.095 36.766C175.903 36.2964 172.055 35.8726 168.825 35.5061C159.605 42.1835 157.142 50.9111 161.449 59.5356C165.801 63.7848 170.371 60.9902 175.262 60.1312C175.262 61.9981 175.262 63.8765 175.262 65.9839C170.245 67.5531 165.526 68.9389 160.189 67.1064C155.424 65.4685 152.973 62.1012 152.309 57.703C151.347 51.3005 151.931 44.9438 155.413 39.1369C159.089 33.0207 164.163 29.4472 171.562 29.5388C177.312 29.619 177.312 29.5045 182.203 31.8524Z" fill="white"/>
<path d="M194.905 35.7809C191.239 35.7809 188.811 35.7809 185.868 35.7809C186.406 33.6276 186.83 31.944 187.311 30.0198C195.798 30.0198 204.182 30.0198 212.932 30.0198C212.36 32.047 211.879 33.7536 211.352 35.6435C208.385 35.7809 205.556 35.9069 202.407 36.0558C200.162 46.3067 197.951 56.4545 195.695 66.7741C193.118 66.7741 190.953 66.7741 188.491 66.7741C190.598 56.5118 192.66 46.593 194.905 35.7809Z" fill="white"/>
<path d="M330.262 49.9717C330.045 51.8271 329.873 53.3505 329.655 55.2861C325.371 55.2861 321.386 55.2861 317.377 55.2861C317.148 52.7205 317.148 52.7205 318.465 49.9717C322.256 49.9717 326.082 49.9717 330.262 49.9717Z" fill="white"/>
</g>
<defs>
<clipPath id="clip0">
<path d="M0 0.366699H431.328V95.8432H0V0.366699Z" fill="white"/>
</clipPath>
</defs>
</svg>
