<svg width="470" height="238" viewBox="0 0 470 238" fill="none" xmlns="http://www.w3.org/2000/svg">
<path d="M127.851 0.0510679C147.14 -0.257706 163.477 5.57469 177.56 17.1194C191.012 28.1495 199.701 42.3359 202.534 59.7817C203.183 63.7442 203.644 67.8098 203.61 71.8238C203.473 86.7651 198.95 100.317 190.141 112.376C180.77 125.207 168.325 133.836 153.474 138.999C143.419 142.499 132.955 143.597 122.405 142.705C105.813 141.298 90.9783 135.277 78.3461 124.247C71.0058 117.831 65.1676 110.232 60.8829 101.398C58.0151 95.4793 56.0007 89.3382 54.9253 82.9054C53.8328 76.3697 53.7304 69.7997 54.4985 63.1782C55.4886 54.7383 57.998 46.8303 61.8901 39.334C66.9771 29.539 74.1468 21.5452 82.904 14.9237C89.5615 9.89752 96.8847 6.15793 104.805 3.63628C112.59 1.11462 120.579 -0.292014 127.851 0.0510679ZM106.017 64.5676C109.039 64.9279 111.565 65.2023 114.058 65.5454C115.082 65.6827 115.765 66.3174 116.311 67.2437C117.677 69.5252 119.094 71.7724 120.596 73.9509C122.183 76.2324 122.354 76.2324 125.239 75.3576C125.734 72.4071 124.966 69.3193 125.666 66.4031C128.175 66.2831 130.445 66.163 133.057 66.0429C133.057 69.4394 133.057 72.5443 133.057 75.5291C135.515 76.4383 136.83 75.632 137.905 73.6765C139.134 71.4293 140.756 69.4223 141.985 67.1751C142.856 65.5797 144.153 64.9793 145.775 64.7906C147.294 64.6191 148.848 64.5505 150.589 64.4133C149.582 66.3517 148.574 68.1185 147.755 69.9712C146.919 71.8753 145.194 73.3505 144.836 75.7007C148.045 75.7007 151.033 75.7007 154.327 75.7007C154.327 71.6008 154.327 67.7068 154.327 63.7443C156.7 63.4526 158.766 63.1953 160.66 62.9552C160.916 67.3809 161.138 71.4808 161.377 75.512C163.904 75.9237 163.887 75.9065 164.86 74.2254C167.045 70.3829 169.298 66.5575 171.449 62.6807C172.166 61.377 172.985 60.6394 174.573 60.4335C177.577 60.0561 180.548 59.3528 183.518 58.7524C184.132 58.6323 184.696 58.3236 185.379 58.0834C184.986 57.2085 184.747 56.5567 184.406 55.9734C180.684 49.5407 176.195 43.794 170.442 38.9566C164.023 33.553 156.854 29.5733 148.984 26.9315C138.486 23.3978 127.612 22.7459 116.738 24.5128C105.727 26.2968 95.7069 30.654 86.9155 37.6872C78.1071 44.7203 71.6544 53.4861 67.8819 64.1731C66.5845 67.8441 65.5261 71.618 65.3554 75.7521C70.2034 75.7521 74.8808 75.7521 79.7971 75.7521C81.3847 71.3435 82.9893 66.9349 84.6793 62.269C87.4106 62.5606 90.0053 62.8179 92.6171 63.161C93.4706 63.2639 93.8633 63.8815 94.1022 64.7735C94.9046 67.7068 95.8264 70.623 96.714 73.5392C97.4139 75.8379 97.4481 75.8894 99.7355 75.9065C103.474 75.9408 107.212 75.9237 110.934 75.8894C111.565 75.8894 112.197 75.7007 112.726 75.632C112.829 75.3233 112.914 75.186 112.88 75.1346C110.695 71.7552 108.51 68.393 106.017 64.5676ZM95.2289 93.7639C90.8076 94.0212 86.7278 94.2442 82.5455 94.4844C81.5724 97.1433 80.6165 99.7164 79.6947 102.307C79.2167 103.662 78.4656 104.365 76.9293 104.434C74.6418 104.554 72.3885 104.983 69.8962 105.309C70.2547 106.132 70.4424 106.681 70.6985 107.196C75.3417 115.961 81.6237 123.252 89.7322 128.981C97.909 134.762 106.922 138.45 116.772 139.96C120.545 140.543 124.368 141.006 128.158 141.023C131.657 141.041 135.174 140.457 138.656 139.994C145.826 139.034 152.586 136.666 158.987 133.356C169.281 128.038 177.321 120.233 183.33 110.318C184.167 108.928 184.815 107.419 185.737 105.566C183.074 105.154 180.855 104.434 178.704 104.554C173.873 104.828 171.466 102.015 169.503 98.2583C168.086 95.5651 166.55 92.9405 165.065 90.2988C163.904 90.2988 162.862 90.2988 161.736 90.2988C161.736 94.3643 161.736 98.2755 161.736 102.272C159.483 102.084 157.366 101.912 155.01 101.723C154.891 97.778 154.771 94.0899 154.652 90.1959C151.476 90.1273 148.626 90.0929 145.365 90.1787C147.67 94.0727 149.701 97.5207 151.869 101.174C148.933 101.844 146.287 100.849 143.641 100.951C141.695 98.001 139.783 95.1363 137.905 92.2372C136.318 89.8013 136.164 89.7327 132.887 90.7448C132.887 93.9526 132.887 97.2634 132.887 100.729C130.565 100.729 128.534 100.729 126.314 100.729C126.127 97.2462 125.922 93.7639 125.734 90.4189C123.464 89.7499 122.183 90.3674 121.176 92.2887C119.811 94.8961 118.121 97.3491 116.499 99.8193C116.106 100.437 115.423 101.243 114.843 101.277C112.163 101.432 109.466 101.346 106.41 101.346C108.834 97.4692 111.019 93.9869 113.426 90.1444C109.415 90.2302 105.761 90.0758 101.886 90.2473C103.047 94.107 104.089 97.5721 105.181 101.192C103.815 101.432 102.586 101.723 101.34 101.826C100.094 101.929 98.8479 101.844 97.4993 101.844C96.7652 99.1503 96.0312 96.6115 95.2289 93.7639ZM185.686 58.8039C184.764 59.7988 183.962 60.5193 183.33 61.377C181.111 64.379 178.909 67.3981 176.758 70.4515C175.665 72.0297 174.709 73.6936 173.617 75.4262C177.151 76.2153 188.588 76.0266 190.534 75.2032C189.766 69.6281 188.281 64.276 185.686 58.8039ZM190.056 90.4017C185.805 89.8871 177.646 90.0243 175.529 90.6762C178.584 95.7195 181.964 100.437 185.788 104.948C188.024 101.175 189.988 94.5016 190.056 90.4017ZM169.861 81.5331C173.122 82.0991 188.605 81.9791 190.841 81.3272C190.79 80.4352 190.739 79.4917 190.688 78.2738C184.61 78.2738 178.755 78.2395 172.883 78.3081C172.32 78.3081 171.62 78.7884 171.227 79.2344C170.664 79.9034 170.322 80.7268 169.861 81.5331ZM190.705 84.3978C184.235 84.3978 178.021 84.3978 171.773 84.3978C172.49 87.0052 174.027 87.9315 176.604 87.7943C180.513 87.6056 184.44 87.76 188.349 87.7257C189.1 87.7257 189.851 87.5713 190.705 87.4855C190.705 86.4391 190.705 85.5814 190.705 84.3978ZM69.1621 103.422C71.2618 98.9445 72.5421 94.7074 74.2833 90.1444C71.8081 90.1444 69.862 90.1444 67.916 90.1444C67.1478 90.1444 66.3967 90.1444 65.6285 90.1444C65.8505 93.9698 67.199 99.2018 69.1621 103.422ZM98.4552 78.2738C99.0356 81.8247 99.0356 81.8418 102.023 81.8418C105.949 81.859 109.893 81.859 113.819 81.859C114.962 81.859 116.106 81.859 117.352 81.859C116.516 79.0457 115.014 77.9822 112.282 78.2052C109.363 78.4625 106.393 78.2566 103.44 78.2566C101.801 78.2738 100.162 78.2738 98.4552 78.2738ZM117.062 84.3806C111.258 84.3806 105.83 84.3806 100.401 84.3806C100.811 87.7428 100.948 87.8286 103.901 87.7085C106.82 87.5885 109.773 87.2282 112.641 87.6228C115.27 88.0002 116.089 86.6621 117.062 84.3806ZM64.5531 81.6874C69.0939 81.6874 73.242 81.6874 77.4243 81.6874C77.8852 80.5896 78.2778 79.629 78.8412 78.2909C76.3318 78.2909 74.198 78.2909 72.0812 78.2909C69.845 78.2909 67.6258 78.2909 65.2188 78.2909C64.9799 79.5089 64.775 80.4867 64.5531 81.6874ZM141.08 81.6531C145.416 81.6531 149.752 81.6531 154.327 81.6531C154.242 80.4009 154.174 79.3888 154.105 78.2909C151.033 78.2909 148.301 78.2909 145.57 78.2909C142.395 78.2909 142.292 78.3767 141.08 81.6531ZM142.036 84.2606C143.095 87.091 143.402 87.6399 144.699 87.6914C147.533 87.7943 150.367 87.7428 153.183 87.7257C154.259 87.7085 154.771 87.091 154.737 86.0274C154.703 85.0153 154.276 84.2949 153.183 84.2949C149.513 84.2434 145.826 84.2606 142.036 84.2606ZM64.8604 84.3635C65.0481 85.5814 65.1847 86.5764 65.3554 87.7257C68.0526 87.7257 70.4766 87.7428 72.9006 87.7257C75.6148 87.6914 75.7343 87.5541 75.9904 84.3635C72.4226 84.3635 68.8549 84.3635 64.8604 84.3635ZM93.6072 86.9881C93.1975 85.8902 92.9073 85.1183 92.6512 84.4321C90.1248 84.4321 87.8373 84.4321 85.4304 84.4321C85.1743 85.3584 84.9695 86.1475 84.6964 87.1596C87.752 87.1768 90.5174 87.3826 93.6072 86.9881ZM86.2669 81.6188C88.2812 81.6188 89.937 81.6188 91.5758 81.6188C91.5758 78.1537 91.3539 78.0165 87.2057 78.5654C86.9326 79.4574 86.6424 80.4352 86.2669 81.6188Z" fill="white"/>
<path d="M58.7147 217.301C56.9735 224.128 59.7901 230.424 56.9906 236.256C56.9394 236.359 56.4102 236.205 55.7957 236.153C55.7957 228.606 55.7957 221.041 55.7957 213.15C57.2808 213.081 58.6464 213.013 60.2852 212.927C62.8287 219.171 65.321 225.295 68.1888 232.328C70.5787 226.444 72.576 221.452 74.6415 216.478C75.9388 213.356 76.0925 212.258 80.8039 213.424C80.8039 216.083 80.8039 218.914 80.8039 221.744C80.8039 225.895 80.7698 230.047 80.8039 234.198C80.821 236.222 79.8309 236.72 77.7483 236.102C77.7483 229.909 77.7483 223.631 77.7483 217.335C73.9245 223.391 72.0809 230.372 68.3254 237.406C63.631 231.041 62.8287 223.802 58.7147 217.301Z" fill="white"/>
<path d="M180.718 213.39C180.718 221.058 180.718 228.503 180.718 235.982C178.635 236.806 177.526 236.394 177.543 234.13C177.56 230.63 177.543 227.114 177.543 223.614C177.543 221.882 177.543 220.166 176.758 218.142C175.904 219.36 174.999 220.561 174.197 221.813C171.5 225.93 168.769 230.03 166.157 234.198C165.115 235.879 163.972 236.909 161.633 236.102C161.479 235.365 161.155 234.473 161.155 233.581C161.104 227.68 161.104 221.796 161.155 215.895C161.172 214.557 160.814 212.756 163.767 213.253C163.767 219.12 163.767 225.09 163.767 231.042C164.057 231.128 164.347 231.213 164.637 231.299C165.252 230.527 165.935 229.79 166.481 228.966C169.434 224.438 172.387 219.909 175.272 215.329C176.519 213.322 178.004 212.293 180.718 213.39Z" fill="white"/>
<path d="M28.5509 224.455C27.9876 217.764 32.9722 211.589 41.7977 212.893C42.1049 212.944 42.4293 212.927 42.7365 212.996C47.6699 214.111 50.5548 218.965 50.3159 225.793C50.1281 231.419 46.7652 235.776 42.0025 236.514C32.1528 238.006 28.0046 231.848 28.5509 224.455ZM46.8505 225.021C46.8505 224.077 46.9359 223.117 46.8335 222.173C46.4921 218.674 44.2217 215.98 41.2002 215.397C37.6154 214.711 34.1159 216.444 32.6478 219.84C30.9749 223.717 31.2139 227.594 33.3989 231.213C35.1914 234.198 38.8274 235.244 42.0879 233.906C46.0994 232.26 47.0724 228.949 46.8505 225.021Z" fill="white"/>
<path d="M201.647 236.222C200.605 236.222 199.854 236.222 198.728 236.222C198.591 233.014 198.454 229.909 198.318 226.753C195.501 225.621 193.709 226.547 192.497 228.726C191.49 230.527 190.568 232.397 189.868 234.335C189.168 236.239 187.939 236.668 185.532 236.222C187.29 232.637 188.963 229.223 190.824 225.449C190.551 225.226 189.953 224.575 189.219 224.094C185.139 221.435 187.324 214.848 191.148 213.699C194.596 212.67 197.942 212.91 201.647 213.133C201.647 220.835 201.647 228.263 201.647 236.222ZM198.198 215.826C195.348 215.054 192.924 214.986 191.029 217.216C190.004 218.416 190.261 221.35 191.404 222.55C193.402 224.678 195.723 224.763 198.198 223.528C198.198 220.904 198.198 218.433 198.198 215.826Z" fill="white"/>
<path d="M138.946 223.099C143.436 223.099 147.021 223.099 150.52 223.099C153.234 220.183 149.649 215.603 153.303 212.756C154.549 216.187 154.788 230.424 153.815 236.05C152.398 236.702 151.698 236.085 151.664 234.678C151.596 232.019 151.647 229.343 151.647 226.53C147.345 225.501 143.624 225.947 139.305 226.153C139.202 228.88 139.032 231.505 139.015 234.129C138.997 236.05 138.178 236.737 135.771 236.102C135.72 232.534 135.652 228.794 135.635 225.038C135.617 221.23 135.635 217.422 135.635 213.288C136.727 213.202 137.564 213.133 138.98 213.013C138.946 216.341 138.946 219.446 138.946 223.099Z" fill="white"/>
<path d="M151.579 183.353C151.579 178.978 151.579 175.719 151.579 172.185C152.825 172.014 153.678 171.894 154.976 171.705C154.976 179.51 154.976 187.058 154.976 194.88C153.952 194.88 153.098 194.88 151.784 194.88C151.784 191.329 151.784 187.881 151.784 183.233C150.025 185.085 149.018 186.012 148.182 187.058C146.509 189.168 144.938 191.364 143.282 193.491C142.053 195.052 142.002 195.035 138.417 194.812C141.609 190.832 144.648 187.024 147.891 182.975C145.126 179.407 142.446 175.925 139.646 172.305C141.49 171.208 142.668 171.842 143.692 173.215C145.126 175.119 146.577 177.006 148.028 178.893C148.967 180.059 149.923 181.26 151.579 183.353Z" fill="white"/>
<path d="M192.258 194.589C190.363 195.739 188.758 195.224 188.434 193.389C187.632 188.706 184.61 188.174 180.803 188.62C179.557 188.757 178.311 188.774 177.56 188.808C174.539 190.369 176.433 195.601 171.278 195.104C173.634 187.162 176.98 179.751 179.728 172.152C182.101 171.226 183.74 171.534 184.678 174.107C187.154 180.952 189.714 187.762 192.258 194.589ZM182.186 175.84C181.845 175.806 181.503 175.771 181.162 175.737C180.001 179.082 178.823 182.41 177.662 185.755C181.742 187.213 182.272 187.179 185.703 185.429C184.542 182.256 183.364 179.048 182.186 175.84Z" fill="white"/>
<path d="M131.333 235.844C129.182 236.977 128.226 236.325 127.509 234.421C126.912 232.877 126.041 230.578 124.897 230.304C122.371 229.703 119.52 229.823 116.959 230.39C115.935 230.613 115.133 232.722 114.604 234.112C113.955 235.827 113.272 237.011 110.677 235.844C111.121 234.506 111.548 233.083 112.077 231.693C114.126 226.204 116.243 220.732 118.257 215.208C118.735 213.888 119.247 212.961 120.835 212.927C122.388 212.875 123.122 213.75 123.6 215.037C124.675 217.85 125.768 220.663 126.809 223.477C128.346 227.593 129.831 231.728 131.333 235.844ZM116.84 227.491C119.93 228.297 122.286 228.64 124.863 227.285C123.549 223.648 123.173 219.926 120.425 216.581C119.162 220.423 118.086 223.7 116.84 227.491Z" fill="white"/>
<path d="M69.3837 194.606C66.9596 195.807 66.1232 194.76 65.4575 193.028C64.86 191.467 64.9795 189.1 62.8627 188.859C60.2168 188.551 57.4343 188.499 54.8737 189.082C53.8154 189.323 52.9448 191.398 52.4156 192.788C51.784 194.503 51.1524 195.687 48.7966 194.726C48.9844 193.851 49.0698 192.942 49.377 192.101C51.4938 186.286 53.6447 180.488 55.7955 174.673C55.9663 174.227 56.0687 173.661 56.4101 173.404C57.1953 172.769 58.1001 171.843 58.9536 171.843C59.8071 171.86 61.002 172.683 61.4117 173.472C62.4872 175.582 63.2724 177.847 64.0918 180.094C65.8672 184.845 67.5742 189.614 69.3837 194.606ZM59.295 175.668C58.9195 175.702 58.5268 175.72 58.1513 175.754C57.0758 179.099 55.9833 182.444 54.7201 186.389C57.8611 186.698 60.3192 187.453 63.0505 185.84C61.7532 182.289 60.5241 178.979 59.295 175.668Z" fill="white"/>
<path d="M90.2952 235.999C87.8371 236.737 87.7005 235.382 87.7005 234.027C87.6664 229.241 87.6835 224.472 87.6835 219.686C87.6835 217.644 87.6835 215.603 87.6835 213.236C93.6923 213.236 99.3255 213.236 105.266 213.236C105.42 213.836 105.761 214.574 105.761 215.294C105.812 221.35 105.829 227.405 105.778 233.443C105.761 234.764 106.154 236.583 103.218 236.119C103.218 229.584 103.218 222.979 103.218 215.946C98.8988 215.157 95.0579 215.311 90.5855 215.826C90.483 222.671 90.3977 229.412 90.2952 235.999Z" fill="white"/>
<path d="M106.035 195.257C105.164 194.879 104.072 194.708 103.474 194.073C102.86 193.438 102.655 192.375 102.399 191.449C101.784 189.201 100.299 188.447 98.114 188.618C97.0044 188.704 95.8777 188.738 94.7852 188.618C92.1222 188.327 90.6541 189.373 90.0737 192.083C89.6982 193.833 89.1519 195.994 85.9255 194.708C88.0423 189.03 90.1079 183.438 92.2075 177.846C92.6514 176.662 93.1123 175.461 93.6073 174.295C94.6486 171.79 94.6657 171.807 98.5578 172.116C101.272 179.441 104.037 186.868 106.786 194.279C106.53 194.588 106.291 194.914 106.035 195.257ZM92.8221 186.371C95.0754 186.371 97.4311 186.371 100.162 186.371C99.3431 182.323 98.4212 178.755 95.9801 174.912C94.6315 178.858 93.5561 181.962 92.5319 185.084C92.4465 185.325 92.6514 185.668 92.8221 186.371Z" fill="white"/>
<path d="M20.6815 194.677C19.1793 195.431 18.1038 195.277 17.438 193.802C17.0454 192.927 16.7381 192.035 16.4479 191.126C15.8846 189.376 14.7238 188.553 12.8972 188.621C11.7876 188.673 10.678 188.621 9.56845 188.621C5.6934 188.673 5.67633 188.673 4.19118 192.429C3.54249 194.042 3.1328 195.963 0.0771484 194.625C0.691694 192.995 1.34038 191.297 1.972 189.616C3.86684 184.556 5.74461 179.512 7.65653 174.452C8.15158 173.131 8.57836 171.776 10.4561 171.673C12.59 171.57 13.1021 173.08 13.6654 174.555C15.9529 180.645 18.2233 186.734 20.4766 192.841C20.6473 193.407 20.6132 194.059 20.6815 194.677ZM11.0195 175.584C10.661 175.601 10.3196 175.636 9.96108 175.653C8.69785 179.084 7.04199 182.394 6.75178 186.134C11.1048 187.026 11.1048 187.026 14.4336 185.619C13.3069 182.291 12.1632 178.946 11.0195 175.584Z" fill="white"/>
<path d="M23.9932 193.526C28.7729 192.428 28.9949 188.277 29.6606 184.417C30.3776 180.369 30.9921 176.286 31.692 171.963C35.6353 171.963 39.3567 171.963 43.3854 171.963C43.3854 179.648 43.3854 187.196 43.3854 194.727C41.4223 195.516 40.9614 194.521 40.9443 193.011C40.9272 188.706 40.9272 184.4 40.9272 180.094C40.9272 178.379 40.9272 176.663 40.9272 174.433C38.6398 174.33 36.8303 174.244 34.9184 174.159C32.6821 178.036 33.2284 182.341 32.1529 186.27C31.5213 188.551 30.9921 190.901 30.0191 193.028C29.5753 194.006 28.2096 194.795 27.1 195.138C26.0758 195.447 24.4882 195.859 23.9932 193.526Z" fill="white"/>
<path d="M216.891 171.877C217.949 171.877 218.7 171.877 219.793 171.877C219.947 174.81 220.083 177.624 220.237 180.883C221.961 181.054 223.651 181.14 225.29 181.415C230.138 182.221 231.896 184.331 231.691 188.722C231.555 191.656 230.069 193.405 227.389 194.366C223.992 195.584 220.578 195.241 216.891 194.966C216.891 187.264 216.891 179.819 216.891 171.877ZM220.254 192.479C223.531 192.873 226.194 193.148 228.021 190.42C229.131 188.756 228.96 186.938 227.714 185.532C225.665 183.216 223.053 183.37 220.254 184.331C220.254 187.041 220.254 189.528 220.254 192.479Z" fill="white"/>
<path d="M196.935 171.723C199.94 171.723 202.62 171.534 205.266 171.757C209.209 172.083 211.667 174.862 211.684 178.585C211.701 182.993 209.619 185.309 205.18 185.755C203.661 185.91 202.125 185.995 200.213 186.133C200.213 189.117 200.213 191.759 200.213 194.675C199.001 194.847 198.147 194.984 196.935 195.156C196.935 187.419 196.935 179.888 196.935 171.723ZM200.384 174.365C200.384 177.796 200.384 180.712 200.384 183.645C203.644 184.434 206.119 183.868 207.843 181.329C209.038 179.562 208.714 177.538 207.639 175.909C205.897 173.267 203.217 174.176 200.384 174.365Z" fill="white"/>
<path d="M12.3852 236.788C11.5659 235.982 10.5587 235.433 10.5416 234.884C10.4392 228.023 10.4563 221.178 10.5758 214.317C10.5928 213.819 11.7195 213.339 13.0851 212.241C13.0851 216.633 13.0851 220.08 13.0851 224.043C18.6672 221.23 19.3159 213.716 26.6221 212.481C23.225 216.838 20.4596 220.389 17.4722 224.232C20.5449 228.177 23.4299 231.899 26.4343 235.759C23.8396 237.268 22.5081 235.793 21.2278 234.095C19.0427 231.196 16.8236 228.314 14.2289 224.935C12.0438 228.915 14.1606 232.894 12.3852 236.788Z" fill="white"/>
<path d="M229.915 236.428C229.915 229.206 229.898 222.567 229.932 215.929C229.932 215.02 230.137 214.11 230.342 212.515C231.383 213.356 232.408 213.785 232.493 214.351C232.749 216.22 232.681 218.142 232.681 220.046C232.681 222.224 233.756 223.236 235.89 223.219C237 223.219 238.109 223.202 239.202 223.305C242.206 223.562 244.374 225.089 244.784 227.525C245.245 230.27 245.159 233.048 242.479 234.747C241.199 235.553 239.646 236.205 238.16 236.359C235.685 236.616 233.159 236.428 229.915 236.428ZM233.039 233.958C234.917 233.958 236.505 234.198 237.99 233.872C239.099 233.632 240.516 232.911 240.994 231.985C241.899 230.27 241.831 228.262 240.482 226.616C239.338 225.226 236.027 224.506 234.303 225.261C232.442 226.067 232.647 227.799 232.664 229.36C232.681 230.733 232.886 232.122 233.039 233.958Z" fill="white"/>
<path d="M109.841 172.186C111.975 171.328 112.879 171.877 113.596 173.541C115.15 177.161 116.925 180.712 118.974 185.051C120.442 181.569 121.654 178.705 122.866 175.84C123.293 174.811 123.549 173.627 124.249 172.804C124.812 172.135 125.904 171.929 127.475 172.203C125.99 175.617 124.539 179.048 122.985 182.444C121.654 185.343 120.391 188.294 118.786 191.021C117.096 193.903 114.774 196.064 111.002 195.086C110.541 194.966 110.199 194.349 109.278 193.474C110.712 193.131 111.514 192.925 112.316 192.754C116.106 191.999 117.676 189.34 116.157 185.806C114.45 181.861 112.47 178.036 110.609 174.142C110.353 173.61 110.165 173.009 109.841 172.186Z" fill="white"/>
<path d="M224.76 215.929C219.059 215.003 214.415 214.454 211.804 219.223C209.721 223.014 209.482 227.268 212.026 231.008C214.91 235.245 219.161 234.953 224.538 233.169C223.531 234.73 223.156 236.068 222.541 236.171C216.003 237.337 211.479 236.926 208.236 230.956C206.187 227.182 206.631 220.921 209.362 217.439C212.606 213.287 217.83 211.52 222.49 213.15C223.173 213.373 223.565 214.419 224.76 215.929Z" fill="white"/>
<path d="M85.4298 173.729C83.5008 174.003 81.5719 174.261 79.1308 174.604C79.0284 181.465 78.9259 188.207 78.8406 194.794C76.4166 195.498 76.263 194.228 76.263 192.839C76.2459 188.55 76.2459 184.244 76.2459 179.956C76.2459 178.24 76.2459 176.542 76.2459 174.672C73.6683 174.278 71.654 173.952 69.0081 173.54C72.3368 171.156 82.579 171.087 85.4298 173.729Z" fill="white"/>
<path d="M261.035 172.152C258.15 175.771 255.402 179.202 252.398 182.976C256.46 186.99 258.662 192.308 263.886 195.515C263.818 196.733 263.732 198.209 263.664 199.684C263.391 199.718 263.101 199.752 262.828 199.787C262.486 198.517 262.145 197.265 261.803 195.996C261.564 195.807 261.325 195.447 261.069 195.447C259.004 195.395 257.655 194.503 256.529 192.668C255.026 190.249 253.132 188.071 251.288 185.892C249.717 184.039 249.427 182.375 251.1 180.403C253.149 177.984 254.992 175.394 256.989 172.924C257.809 171.912 257.877 171.963 261.035 172.152Z" fill="white"/>
<path d="M248.42 194.984C247.259 194.984 246.508 194.984 245.501 194.984C245.501 187.248 245.501 179.683 245.501 171.912C246.491 171.861 247.242 171.826 248.42 171.775C248.42 179.614 248.42 187.282 248.42 194.984Z" fill="white"/>
<path d="M158.919 182.872C162.231 187.109 165.218 190.951 168.223 194.794C168.086 195.034 167.949 195.257 167.83 195.497C166.498 194.931 164.774 194.725 163.887 193.748C161.463 191.054 159.38 188.035 157.178 185.136C156.051 183.661 156.154 182.237 157.28 180.796C159.209 178.292 161.121 175.753 163.033 173.232C164.108 171.808 165.457 171.31 167.335 172.065C164.586 175.599 161.872 179.081 158.919 182.872Z" fill="white"/>
<path d="M235.89 194.778C235.89 187.23 235.89 179.665 235.89 172.203C237.512 171.414 238.297 172.032 238.314 173.421C238.382 180.094 238.382 186.784 238.28 193.457C238.263 194.075 237.375 194.692 236.88 195.292C236.556 195.138 236.232 194.949 235.89 194.778Z" fill="white"/>
<path d="M250.929 237.218C249.905 235.931 249 235.331 248.983 234.713C248.881 228.04 248.864 221.35 248.966 214.66C248.983 214.043 249.871 213.442 250.52 212.602C251.817 216.152 252.073 230.133 250.929 237.218Z" fill="white"/>
</svg>
