<svg width="182" height="96" viewBox="0 0 182 96" fill="none" xmlns="http://www.w3.org/2000/svg">
<g clip-path="url(#clip0)">
<path d="M40.03 90.2195C40.03 85.7182 40.03 80.3007 39.9499 77.7924C39.9499 77.7924 60.4631 77.7122 60.5433 77.7924V72.959C60.5433 72.959 40.03 73.1308 39.8582 72.959V61.872L61.8719 61.9522V57.199C61.8719 57.199 34.9332 57.1188 34.9332 57.199L35.0134 94.6405C44.348 94.6405 62.6966 94.6405 62.7767 94.7207C62.6966 94.6405 62.6966 90.1278 62.7767 90.1278C62.708 90.1393 40.03 90.1393 40.03 90.2195Z" fill="white"/>
<path d="M29.7677 57.2905H23.2621C20.9256 59.6156 5.08536 75.2153 5.08536 75.2153L5.00519 57.2905H0.171803L0 89.7269L0.0801746 94.6405C0.0801746 94.7206 4.99373 94.6405 4.99373 94.6405L4.91356 81.7209C4.99373 81.7209 10.835 76.0514 10.9152 76.0514C15.4164 82.053 19.6657 88.4785 24.1784 94.5603C25.2665 94.5603 29.0118 94.4801 30.8443 94.4801C29.0919 92.0634 16.0006 74.2188 14.672 72.2946C18.1767 68.7899 26.5951 61.0358 29.7677 57.2905Z" fill="white"/>
<path d="M86.7261 75.4671V79.9683L97.5726 80.0485C97.5726 82.3049 97.5726 85.1339 97.3206 87.0581C93.5638 89.6466 89.3948 91.2271 84.8134 90.5628C80.3121 90.1505 75.5589 87.2299 74.1387 82.3965C72.0541 76.475 72.8902 68.8928 77.2197 64.1281C80.8046 61.0471 86.0618 60.211 90.7234 61.5396C94.1365 62.5361 96.3929 65.7889 97.3893 68.8813L101.81 67.7131C100.894 63.8761 98.1452 59.3749 94.5603 58.1265C92.304 57.0384 88.719 56.5459 85.7182 56.5459C82.5456 56.5459 79.3844 57.3018 76.2919 59.2146C68.7899 63.8074 66.9573 73.0619 68.5379 81.652C69.626 87.3215 74.5396 92.6588 80.0487 94.1592C87.6309 96.7477 96.2211 94.3196 102.234 89.5778C102.406 84.8246 102.154 80.3234 102.154 75.5702C98.1453 75.4671 86.5543 75.6275 86.7261 75.4671Z" fill="white"/>
<path d="M176.533 81.973L175.365 84.8936C172.204 92.7278 161.025 92.6476 156.604 87.1499C152.515 81.1483 152.515 71.3899 156.856 65.0447C160.029 61.2077 165.366 60.2914 170.027 61.9637C173.028 63.2121 174.861 66.1327 175.777 68.8816C177.449 68.6296 179.202 68.2975 180.53 67.6331H180.702L178.95 63.716C178.033 61.6315 175.113 59.2148 173.532 58.5505C169.111 56.3056 162.858 56.3858 158.528 58.2985C155.447 59.295 152.859 62.0553 151.186 64.8041C146.846 73.1423 147.773 84.069 153.775 91.2389C158.688 95.9921 167.37 96.496 173.04 93.9877C177.461 91.9031 180.462 87.5623 181.298 82.9007C179.454 82.5571 178.366 82.1333 176.533 81.973Z" fill="white"/>
<path d="M125.496 56.5347H125.416C123.835 56.5347 121.659 56.947 120.331 57.3708C117.25 58.2069 113.493 61.1161 111.237 64.3689C106.987 71.2868 106.987 81.1254 111.408 87.9631C114.661 92.6362 119.918 95.3048 125.416 95.4652C131.441 95.4652 138.484 92.2811 141.336 86.3825C142.688 83.4848 143.432 80.3236 143.501 77.1281V75.2955C143.158 65.8922 137.82 57.3021 125.496 56.5347ZM136.251 84.7218C134.258 87.86 130.112 90.586 125.416 90.9754C121.476 90.9525 118.246 89.3375 115.749 86.142C113.917 82.8892 112.909 79.3043 112.909 75.3872C112.909 75.307 112.909 73.2224 113.241 71.8022C113.825 67.9653 116.574 62.8799 121.075 61.5399C122.495 60.9557 123.996 60.7037 125.416 60.7037C130.009 60.6236 134.51 63.2006 136.503 67.6217C138.336 72.7185 138.668 79.6364 136.251 84.7218Z" fill="white"/>
<path d="M20.5132 32.7685C33.0204 34.1888 45.3673 46.7762 47.2801 56.1222C49.3646 46.7876 61.3679 34.1888 75.0549 32.7685L180.29 32.5967L180.37 30.5923H52.9954C58.2067 24.27 66.3158 18.7494 75.0434 17.8331L180.359 17.6613V15.657H52.3998C57.5768 9.03683 65.9722 3.11536 75.0434 2.16471L180.359 1.99291V0H0.503906V2.16471C0.584081 2.33652 16.6877 1.75239 20.6048 2.16471C28.8972 3.11536 37.1437 9.03683 42.3207 15.6684H0.503906V17.8331C0.584081 18.0049 16.6877 17.4208 20.6048 17.8331C28.5879 18.738 36.5252 24.2585 41.7137 30.5923H0.503906V32.7571C0.503906 32.9403 16.5961 32.276 20.5132 32.7685Z" fill="white"/>
</g>
<defs>
<clipPath id="clip0">
<path d="M0 0H181.286V95.4765H0V0Z" fill="white"/>
</clipPath>
</defs>
</svg>
