<svg width="258" height="236" viewBox="0 0 258 236" fill="none" xmlns="http://www.w3.org/2000/svg">
<g clip-path="url(#clip0)">
<path d="M130.596 106.449C129.325 105.572 128.138 104.609 126.81 103.845C123.307 101.835 119.52 100.787 115.508 100.815C108.303 100.872 101.126 100.787 93.9492 101.212C88.6937 101.495 83.5229 100.815 78.2957 100.787C77.4763 100.787 76.6852 100.504 75.8657 100.391C75.1876 100.306 74.4812 100.278 73.8031 100.193C73.7466 100.306 73.7183 100.419 73.6618 100.532C74.6508 101.212 75.5832 102.005 76.6286 102.599C79.3412 104.156 82.0254 105.798 84.851 107.1C89.4848 109.224 94.2317 108.827 98.9787 107.299C100.222 106.902 101.465 106.478 102.765 106.053C101.578 107.95 100.278 109.648 99.4307 111.517C97.2551 116.302 97.2833 120.973 100.646 125.304C102.765 128.022 105.703 129.268 109.066 129.523C111.326 129.693 113.615 129.608 115.678 128.532C118.899 126.862 121.724 123.408 121.329 119.359C121.018 116.273 118.616 113.584 115.565 113.244C114.434 113.102 113.361 113.442 112.23 114.15C112.57 114.348 112.796 114.461 112.993 114.546C115.084 115.622 115.819 117.179 115.423 119.501C115.141 121.171 113.417 122.558 111.383 122.756C107.201 123.153 104.488 120.378 104.941 116.188C105.449 111.545 109.49 108.261 113.841 108.148C118.051 108.035 121.583 109.422 124.55 112.281C126.584 114.263 127.714 116.726 127.827 119.557C128.025 124.427 126.556 128.787 123.194 132.41C121.103 134.675 118.475 136.034 115.452 136.544C112.824 136.997 110.196 137.167 107.484 136.77C100.985 135.836 94.486 135.128 87.9873 134.166C82.2232 133.316 76.4308 132.439 70.7233 131.278C62.1619 129.551 53.7418 127.286 45.915 123.181C45.3782 122.898 44.8131 122.615 44.3045 122.275C43.1742 121.511 43.1742 120.548 44.361 119.869C45.2369 119.359 46.2258 118.991 47.2148 118.765C49.8425 118.142 52.5268 117.66 55.4371 117.066C55.0133 116.839 54.759 116.641 54.4764 116.556C48.5145 114.829 42.5244 113.159 36.5907 111.347C33.7934 110.498 31.1092 109.309 28.3967 108.261C28.1706 108.176 27.9446 108.035 27.7185 107.893C26.8426 107.412 25.8254 106.817 26.0797 105.742C26.3058 104.751 27.5208 104.892 28.3119 104.864C30.4593 104.751 32.6067 104.836 34.7541 104.807C37.3536 104.779 39.8401 104.071 42.1853 103.052C42.5809 102.882 42.9482 102.571 43.6263 102.118C42.8069 101.835 42.3266 101.608 41.818 101.467C38.3708 100.504 34.8672 99.6547 31.4483 98.5789C27.4642 97.3615 23.5367 96.0026 19.8353 94.0774C16.6707 92.4354 13.6756 90.5669 11.4717 87.6509C10.5393 86.4335 9.94589 85.0746 10.1154 83.5175C10.1719 82.838 10.4545 82.1585 10.6805 81.2526C12.2628 82.0736 13.6191 82.7531 14.9471 83.4608C21.5589 86.9714 28.5097 89.576 35.8561 91.1048C37.1841 91.3879 38.5969 91.2747 39.9531 91.2747C40.2639 91.2747 40.5747 91.0199 41.2246 90.7084C40.2639 89.9724 39.5858 89.2363 38.7381 88.8682C35.4605 87.4244 32.1829 85.8673 28.7922 84.7631C21.9262 82.4983 16.0208 78.7046 10.6523 73.9484C7.03559 70.7209 3.75796 67.1537 1.29974 62.9637C0.678123 61.8879 0.226037 60.6139 0.0282488 59.3682C-0.197794 57.7545 0.8194 57.1033 2.31694 57.7828C3.44715 58.2924 4.4926 58.9436 5.56631 59.5664C10.1437 62.2276 15.1449 63.813 20.1178 65.4551C24.9495 67.0405 29.8659 68.5127 34.076 71.457C37.834 74.0616 41.4224 76.921 44.9826 79.7804C48.232 82.385 51.4248 85.1029 55.4088 86.575C58.2344 87.6225 61.1729 88.4436 64.1115 89.0664C67.1631 89.7175 70.2712 90.0573 73.3793 90.5103C74.2269 90.6235 75.1311 90.6235 76.007 90.6518C79.9628 90.7651 83.9185 90.9066 87.8743 90.9349C93.5254 90.9915 99.0917 91.6144 104.658 92.6619C109.235 93.5395 113.643 94.8135 117.882 96.6537C121.979 98.4373 126.047 100.391 129.014 103.93C129.664 104.694 130.257 105.515 130.879 106.308C130.766 106.308 130.681 106.364 130.596 106.449Z" fill="white"/>
<path d="M138.225 149.963C138.282 149.312 138.282 148.717 138.395 148.151C140.146 139.771 143.678 132.297 149.414 125.899C152.833 122.077 156.732 118.821 161.592 116.953C163.683 116.16 165.859 115.565 168.204 116.216C170.154 116.754 171.595 117.83 172.499 119.67C172.64 119.982 172.866 120.237 173.064 120.548C175.72 117.207 175.918 112.734 171.962 110.016C170.182 108.799 168.204 108.176 166.17 107.638C165.548 107.468 164.87 107.242 164.418 106.846C162.186 104.892 159.501 104.099 156.619 103.986C153.229 103.845 149.866 103.986 146.476 104.439C145.006 104.637 143.424 104.298 141.927 104.071C141.503 104.014 140.966 103.59 140.74 103.193C139.892 101.721 141.361 98.8618 143.029 98.5787C148.341 97.7011 153.624 96.7102 158.936 95.9175C161.621 95.5211 164.333 95.2947 167.046 95.2097C170.38 95.0965 173.742 95.1531 177.076 95.1814C178.037 95.1814 178.998 95.4079 179.987 95.4079C181.06 95.4079 182.134 95.238 183.179 95.1814C184.875 95.0965 186.57 95.0399 188.265 94.9549C191.713 94.7567 195.047 93.964 198.353 92.9732C201.687 91.9823 204.343 89.859 207.112 87.8772C210.192 85.6689 213.187 83.2908 216.464 81.394C218.64 80.12 221.211 79.5255 223.641 78.7044C225.732 78.025 227.908 77.5437 229.999 76.8359C233.757 75.5619 236.865 73.1272 240.058 70.9189C244.833 67.6065 249.495 64.1526 254.214 60.7553C254.496 60.5571 254.779 60.3306 255.118 60.1608C256.785 59.3681 258.226 60.2457 258.028 62.0576C257.915 63.1051 257.548 64.1809 257.039 65.0869C254.637 69.3901 251.077 72.6742 247.263 75.6752C242.996 79.0725 238.249 81.5355 233.05 83.2625C231.496 83.7721 230.055 84.6214 228.614 85.3858C228.247 85.584 228.077 86.1785 227.851 86.5749C228.247 86.7731 228.586 87.1128 229.01 87.1694C229.801 87.311 230.649 87.4525 231.44 87.3393C236.836 86.6598 241.979 85.216 246.754 82.5264C246.924 82.4415 247.15 82.3849 247.404 82.2999C248.93 83.7438 249.099 85.5274 248.591 87.3959C247.828 90.2553 245.765 92.1238 243.533 93.8225C239.747 96.6819 235.339 98.239 230.79 99.4847C226.58 100.645 222.426 101.891 218.216 103.137C217.905 103.222 217.595 103.42 217.312 103.646C222.37 104.213 227.512 103.278 232.626 104.467C232.598 105.996 231.977 107.072 231.129 108.063C229.66 109.762 227.823 111.007 225.845 112.026C221.042 114.546 215.984 116.301 210.615 117.236C209.598 117.406 208.609 117.66 207.677 117.858C208.722 118.198 209.853 118.481 210.898 118.906C212.876 119.727 213.187 121.199 211.548 122.53C209.881 123.86 208.044 125.049 206.123 126.012C201.743 128.192 197.053 129.268 192.193 129.466C186.655 129.692 181.089 129.608 175.55 129.862C168.232 130.202 161.055 131.221 154.472 134.817C150.601 136.94 147.126 139.573 144.215 142.857C142.266 145.037 140.57 147.415 138.734 149.708C138.649 149.85 138.536 149.85 138.225 149.963Z" fill="white"/>
<path d="M128.025 73.0705C126.273 74.7975 124.691 76.3829 123.024 78.025C121.865 76.8642 120.594 75.6185 119.351 74.3445C119.096 74.0614 118.87 73.6085 118.899 73.2404C118.983 72.0514 118.277 71.3436 117.542 70.6075C114.547 67.6348 111.552 64.6622 108.614 61.6329C107.964 60.9818 107.286 60.5854 106.325 60.5288C105.76 60.5005 105.166 60.1608 104.714 59.821C104.008 59.2548 103.386 58.5187 102.736 57.8676C102.284 57.4146 101.832 57.4712 101.38 57.8959C100.843 58.4055 101.098 58.8018 101.522 59.1982C101.889 59.5662 102.228 59.9343 102.623 60.274C103.415 61.0101 104.121 61.7745 104.178 62.9918C104.206 63.5581 104.573 64.1809 104.969 64.6056C108.303 67.9746 111.665 71.287 115.028 74.5993C115.31 74.8825 115.847 75.1089 116.243 75.1089C117.203 75.0806 117.881 75.5053 118.531 76.1847C119.379 77.0907 120.255 77.94 121.131 78.8177C121.583 79.299 121.724 79.7802 121.216 80.2898C119.803 81.7054 118.418 83.1209 116.864 84.678C115.423 83.3191 114.067 82.0734 112.767 80.7711C112.513 80.5163 112.428 80.035 112.428 79.6387C112.428 78.6195 111.891 77.9683 111.185 77.2889C109.009 75.1939 106.89 73.0139 104.771 70.8623C103.754 69.8431 102.793 68.7956 101.748 67.8047C101.38 67.465 100.843 67.0686 100.42 67.0969C98.8938 67.2102 98.1026 66.1627 97.2267 65.2567C96.7746 64.7754 96.3508 64.2658 95.9552 63.7846C94.4859 64.5773 94.4012 64.917 95.3618 65.9362C95.7857 66.3892 96.3225 66.7572 96.6616 67.2668C97.1419 67.9746 97.6505 68.739 97.8201 69.5317C97.9896 70.4093 98.3569 71.0322 98.9503 71.6267C101.974 74.6276 104.997 77.6569 107.992 80.6862C108.642 81.3373 109.292 81.7903 110.252 81.8753C110.789 81.9319 111.383 82.1584 111.778 82.4981C112.824 83.404 113.784 84.4232 114.773 85.3858C115.254 85.8671 115.31 86.3767 114.802 86.858C113.361 88.2452 111.92 89.6325 110.365 91.1612C108.981 89.8306 107.653 88.5566 106.381 87.2543C106.099 86.9712 105.986 86.405 105.986 85.9803C105.986 85.1593 105.703 84.5082 105.11 83.9419C101.974 80.8277 98.8373 77.6852 95.7292 74.5427C95.0793 73.8916 94.4294 73.4669 93.4405 73.4669C92.9884 73.4669 92.508 73.1272 92.1125 72.8724C91.5191 72.476 91.0105 71.9947 90.3041 71.4285C89.7955 72.476 89.3434 73.3537 88.9196 74.2879C87.3373 77.8834 86.0941 81.5921 85.5572 85.4991C85.3877 86.6598 85.1616 86.8297 84.0314 86.5182C82.7882 86.1785 81.5732 85.7255 80.3582 85.3575C79.6236 85.131 79.4541 84.7063 79.5953 83.9419C80.9798 76.9491 83.4946 70.4376 87.4786 64.464C94.0056 54.6967 102.878 47.9871 113.926 44.1934C119.012 42.4381 124.267 41.6737 129.664 41.6454C136.615 41.5888 143.255 42.8345 149.64 45.4674C154.839 47.619 159.558 50.5917 163.825 54.357C169.363 59.2265 173.629 65.0302 176.681 71.6833C178.404 75.4204 179.732 79.3273 180.326 83.4324C180.58 85.0461 180.863 86.6881 181.089 88.3018C181.286 89.774 181.117 89.9722 179.676 90.2553C178.659 90.4535 177.67 90.6799 176.653 90.8781C176.229 90.9631 175.777 90.9914 175.183 91.0763C174.731 84.0835 173.177 77.572 169.758 71.4002C169.25 71.8532 168.854 72.1363 168.572 72.4477C167.95 73.1272 167.3 73.5518 166.311 73.5801C165.831 73.5801 165.237 73.9482 164.87 74.3162C161.564 77.572 158.315 80.8561 155.065 84.1401C154.726 84.4799 154.416 84.9895 154.387 85.4707C154.303 86.5466 153.794 87.3109 153.088 87.9904C152.014 89.0096 150.968 90.0571 150.036 90.9914C148.341 89.321 146.73 87.7356 144.95 86.0086C146.08 84.7063 147.465 83.3757 148.906 82.0734C148.991 82.0168 149.104 81.9602 149.188 81.9602C151.166 82.0734 152.183 80.5729 153.37 79.4122C155.97 76.8359 158.541 74.2313 161.112 71.655C161.734 71.0322 162.271 70.4376 162.299 69.4184C162.299 68.8805 162.723 68.286 163.09 67.8047C163.57 67.2102 164.164 66.7006 164.701 66.1627C165.69 65.1435 165.661 64.917 164.305 63.7846C163.514 64.5773 162.779 65.3983 161.932 66.1344C161.451 66.5307 160.83 66.9271 160.236 66.9837C159.417 67.0686 158.795 67.4084 158.23 67.9746C155.065 71.1454 151.901 74.2879 148.765 77.5154C148.312 77.9967 148.143 78.7327 147.86 79.3839C147.691 79.8086 147.719 80.3748 147.437 80.6579C146.137 82.0168 144.752 83.3191 143.255 84.7913C141.672 83.1776 140.175 81.7054 138.734 80.2049C138.254 79.7236 138.564 79.214 138.932 78.846C139.977 77.7702 141.023 76.7227 142.125 75.7035C142.464 75.392 143.029 75.1656 143.481 75.1656C144.385 75.1656 145.007 74.7409 145.628 74.1464C148.623 71.1171 151.675 68.0878 154.67 65.0585C155.065 64.6622 155.602 64.1809 155.631 63.7279C155.828 61.7462 157.269 60.6137 158.428 59.2548C158.767 58.8585 159.191 58.4904 158.71 57.9242C158.258 57.4146 157.75 57.358 157.241 57.8393C156.62 58.4621 156.026 59.1133 155.376 59.6795C154.952 60.0192 154.444 60.4156 153.964 60.4439C152.89 60.5005 152.155 61.0101 151.449 61.7462C148.369 64.8604 145.289 67.9463 142.181 71.0322C141.559 71.6267 141.107 72.2495 141.136 73.1838C141.136 73.5518 140.994 74.0331 140.74 74.3162C139.525 75.6185 138.225 76.8642 137.095 78.025C135.4 76.298 133.817 74.7126 132.094 72.9856C132.376 72.6742 132.828 72.1363 133.309 71.6267C133.817 71.0605 134.439 70.5509 134.863 69.928C135.484 69.0787 136.163 68.5691 137.293 68.5691C137.83 68.5691 138.48 68.2294 138.875 67.833C142.125 64.6056 145.346 61.3498 148.538 58.0941C148.906 57.6977 149.386 57.1598 149.358 56.7068C149.301 55.263 150.093 54.4136 151.11 53.6492C151.223 53.5643 151.279 53.3944 151.449 53.1113C144.696 49.2327 137.406 47.5624 129.777 47.619C122.346 47.6756 115.282 49.3743 108.614 53.1113C108.981 53.536 109.15 53.8474 109.405 54.0739C110.252 54.7817 110.931 55.5461 110.874 56.7918C110.846 57.2164 111.27 57.726 111.609 58.0657C114.858 61.3781 118.107 64.6622 121.385 67.918C121.781 68.3143 122.459 68.5125 123.024 68.5974C123.815 68.6824 124.324 68.9655 124.832 69.5883C125.793 70.834 126.923 71.9381 128.025 73.0705Z" fill="white"/>
<path d="M71.3164 182.945C71.3164 176.122 71.3164 169.328 71.3164 162.392C74.9614 162.392 78.4368 162.392 82.0252 162.392C82.0252 175.641 82.0252 188.777 82.0252 202.055C81.5166 202.112 81.0645 202.168 80.6407 202.168C77.9565 202.168 75.3004 202.14 72.6162 202.197C71.599 202.225 71.0056 201.829 70.4688 201.064C66.0327 194.949 61.5683 188.834 57.104 182.719C56.7932 182.323 56.4824 181.898 55.889 181.558C55.889 188.353 55.889 195.147 55.889 202.055C52.0463 202.055 48.4296 202.055 44.7846 202.055C44.3608 201.008 44.276 164.232 44.7281 162.392C45.1802 162.363 45.6888 162.307 46.1691 162.307C48.8817 162.307 51.6224 162.335 54.3349 162.278C55.3521 162.25 56.0303 162.561 56.6519 163.411C61.0032 169.469 65.4111 175.5 69.7906 181.53C70.158 182.039 70.5818 182.549 70.9774 183.059C71.0904 183.03 71.2034 183.002 71.3164 182.945Z" fill="white"/>
<path d="M174.675 182.152C174.788 186.173 173.94 189.938 171.765 193.335C168.967 197.752 164.983 200.611 160.01 202.027C153.003 204.037 146.08 203.782 139.497 200.441C134.835 198.092 131.331 194.496 129.805 189.372C127.714 182.407 128.223 175.669 132.716 169.724C136.219 165.109 141.023 162.561 146.759 161.57C150.517 160.919 154.246 160.948 157.919 161.797C167.894 164.09 174.816 171.536 174.675 182.152ZM151.732 170.658C147.521 170.375 142.436 172.895 140.881 179.067C139.214 185.663 143.029 193.137 150.517 193.732C153.794 193.986 156.874 193.477 159.389 191.07C163.147 187.475 163.486 183.002 162.299 178.387C161.084 173.688 156.987 170.488 151.732 170.658Z" fill="white"/>
<path d="M186.401 88.6417C184.395 70.2396 176.116 55.7444 160.858 45.5525C151.336 39.1542 140.655 36.1532 129.24 36.2665C120.396 36.3514 111.919 38.503 104.036 42.5798C96.2095 46.6566 89.6542 52.3188 84.427 59.4248C79.1715 66.5592 75.8373 74.5995 74.1985 83.5457C72.7857 83.0645 71.5708 82.6964 70.384 82.2718C69.5929 81.9886 69.7059 81.2809 69.8472 80.7147C70.6101 77.9402 71.3165 75.1374 72.2206 72.4195C74.5658 65.4551 78.239 59.2267 82.9012 53.5928C87.6198 47.9306 93.1861 43.2593 99.6001 39.6072C103.612 37.3423 107.766 35.5021 112.174 34.1715C115.875 33.039 119.633 32.2463 123.476 31.9349C125.934 31.7367 128.392 31.5952 130.851 31.6235C141.983 31.765 152.325 34.766 161.847 40.5697C166.791 43.599 171.284 47.1945 175.155 51.4978C180.495 57.4431 184.677 64.1244 187.418 71.6835C189.141 76.4114 190.187 81.2526 190.865 86.207C190.95 86.8298 190.922 87.3677 190.215 87.5659C189.057 87.9056 187.813 88.2454 186.401 88.6417Z" fill="white"/>
<path d="M123.307 202.112C122.628 202.14 122.092 202.197 121.555 202.197C117.486 202.197 113.417 202.14 109.377 202.225C98.8939 202.423 91.3497 194.694 89.7957 185.776C87.8178 174.452 95.2207 165.393 104.573 162.76C105.647 162.448 106.805 162.335 107.936 162.335C112.711 162.278 117.486 162.307 122.289 162.307C122.6 162.307 122.883 162.392 123.307 162.448C123.307 165.449 123.307 168.393 123.307 171.508C122.713 171.536 122.176 171.621 121.64 171.621C118.503 171.621 115.367 171.593 112.23 171.649C108.218 171.706 105.11 173.574 102.934 176.858C100.533 180.511 100.844 184.276 103.132 187.9C105.251 191.297 108.501 192.741 112.343 192.882C115.367 192.996 118.418 192.911 121.442 192.911C123.448 192.911 123.448 192.911 123.448 194.977C123.448 196.846 123.448 198.686 123.448 200.555C123.42 201.008 123.363 201.489 123.307 202.112Z" fill="white"/>
<path d="M213.159 162.42C213.159 165.534 213.159 168.45 213.159 171.508C212.537 171.536 211.972 171.593 211.435 171.621C208.243 171.621 205.05 171.536 201.885 171.649C197.59 171.819 194.397 173.914 192.278 177.623C190.696 180.369 190.978 186.003 193.776 189.061C196.093 191.58 198.89 192.798 202.224 192.854C205.247 192.911 208.299 192.854 211.322 192.854C211.887 192.854 212.424 192.854 213.131 192.854C213.131 195.997 213.131 198.941 213.131 202.084C212.594 202.112 212.057 202.197 211.52 202.197C207.254 202.197 202.987 202.197 198.72 202.197C189.142 202.169 182.276 195.629 180.185 187.985C179.055 183.88 178.942 179.746 180.354 175.698C182.784 168.79 190.018 162.25 198.41 162.278C202.817 162.307 207.254 162.278 211.661 162.278C212.114 162.307 212.566 162.363 213.159 162.42Z" fill="white"/>
<path d="M129.749 0C130.144 1.16075 130.512 2.3215 130.907 3.45393C132.235 7.44578 133.62 11.4376 134.863 15.4578C135.767 18.4021 134.552 21.7711 132.263 23.6396C130.37 25.1684 127.46 24.9702 125.652 22.9035C123.759 20.7519 123.363 18.2322 123.956 15.5427C124.324 13.844 124.945 12.202 125.51 10.56C126.556 7.5024 127.686 4.47313 128.76 1.41555C128.929 0.934261 129.155 0.481286 129.353 0.0283109C129.494 0 129.607 0 129.749 0Z" fill="white"/>
<path d="M93.2993 10.1353C94.1753 10.928 95.0512 11.6924 95.8988 12.4851C98.2723 14.665 100.702 16.8166 103.019 19.0532C104.856 20.8085 106.466 22.7902 106.608 25.4798C106.777 28.5374 105.619 30.9721 102.539 31.3968C100.391 31.7082 98.6679 30.689 97.2551 29.1319C95.588 27.32 95.1642 25.0551 94.7969 22.7619C94.3448 20.0724 93.9775 17.3829 93.5819 14.6933C93.3558 13.2211 93.1863 11.7773 92.9885 10.3051C93.1015 10.2768 93.1863 10.1919 93.2993 10.1353Z" fill="white"/>
<path d="M166.792 10.0786C166.848 10.7864 166.933 11.0978 166.876 11.3809C166.085 16.1372 165.407 20.9217 164.446 25.6779C163.881 28.4807 162.186 30.4908 159.276 31.2552C156.535 31.9913 153.766 30.1511 153.399 27.32C153.059 24.7154 153.766 22.3656 155.602 20.5253C157.891 18.2322 160.293 16.0522 162.638 13.8157C163.542 12.9663 164.446 12.1453 165.351 11.296C165.746 10.9846 166.142 10.6731 166.792 10.0786Z" fill="white"/>
<path d="M70.3838 27.4331C71.3728 27.9144 72.39 28.3957 73.3789 28.877C75.9501 30.1226 78.5496 31.3683 81.1209 32.6423C83.2683 33.6898 84.6528 35.3602 85.2179 37.7383C85.783 40.0598 84.0594 42.5228 81.6577 42.6361C79.9341 42.721 78.3801 42.1831 77.1934 40.9657C76.4587 40.2013 75.7241 39.352 75.272 38.3894C73.5202 34.8506 71.8814 31.2551 70.186 27.6879C70.2425 27.603 70.3273 27.518 70.3838 27.4331Z" fill="white"/>
<path d="M189.763 27.4899C189.735 27.6314 189.763 27.8013 189.707 27.9145C187.983 31.5383 186.231 35.1338 184.479 38.7293C183.519 40.6827 182.021 41.985 179.874 42.4946C178.207 42.891 176.681 42.5796 175.551 41.1923C174.42 39.8334 174.449 38.3046 175.014 36.6909C175.72 34.7091 177.161 33.4351 178.941 32.5575C182.417 30.8022 185.949 29.1602 189.452 27.4615C189.537 27.4332 189.65 27.4899 189.763 27.4899Z" fill="white"/>
<path d="M54.1091 53.8474C54.9003 53.8474 55.7197 53.7908 56.5108 53.8474C59.2799 54.0173 62.0206 54.2155 64.7614 54.442C67.1914 54.6401 69.3953 55.3196 70.8081 57.5278C72.4469 60.1325 71.2884 62.9352 68.2933 63.5581C66.6545 63.8978 64.9874 63.7563 63.6312 62.6238C61.3708 60.6987 59.1386 58.7452 56.9064 56.7918C55.9175 55.9424 54.9568 55.0648 53.9961 54.1872C54.0243 54.0739 54.0526 53.9607 54.1091 53.8474Z" fill="white"/>
<path d="M206.123 53.9606C204.23 55.7159 202.591 57.273 200.924 58.7735C199.54 60.0192 198.183 61.2649 196.714 62.369C195.132 63.5864 193.323 63.9827 191.346 63.4448C188.718 62.7087 187.701 60.0758 189.085 57.6977C190.3 55.6027 192.25 54.7534 194.454 54.5269C198.014 54.1588 201.602 54.0173 205.191 53.8191C205.36 53.8191 205.558 53.8757 206.123 53.9606Z" fill="white"/>
<path d="M162.158 226.77C162.384 226.685 162.44 226.657 162.497 226.657C164.983 226.402 165.04 226.431 165.661 228.809C165.803 229.403 165.972 229.998 166.142 230.592C166.283 231.187 166.452 231.781 166.82 232.404C167.159 231.187 167.526 229.941 167.865 228.724C168.459 226.402 168.572 226.317 171.199 226.742C171.199 229.686 171.199 232.631 171.199 235.575C169.73 236.113 169.448 235.971 169.419 234.527C169.391 233.282 169.419 232.064 169.165 230.762C168.741 232.149 168.289 233.508 167.922 234.924C167.752 235.547 167.47 235.886 166.763 235.915C165.972 235.943 165.69 235.518 165.492 234.839C165.181 233.65 164.842 232.489 164.503 231.328C164.39 231.328 164.277 231.357 164.164 231.357C164.164 232.432 164.164 233.537 164.164 234.612C164.164 235.348 164.051 235.915 163.09 235.915C162.129 235.915 162.016 235.377 162.016 234.612C162.045 232.291 162.016 229.969 162.045 227.648C162.016 227.393 162.101 227.082 162.158 226.77Z" fill="white"/>
<path d="M134.806 79.4689C133.026 81.2808 131.444 82.8662 129.72 84.5932C128.336 83.206 126.81 81.7621 125.397 80.2333C125.199 80.0068 125.199 79.2707 125.397 79.0442C126.584 77.7419 127.827 76.5246 129.099 75.3072C129.494 74.9109 129.974 74.7693 130.455 75.2223C131.952 76.6661 133.393 78.11 134.806 79.4689Z" fill="white"/>
<path d="M118.503 231.64C118.503 230.055 118.503 228.469 118.503 226.686C119.153 226.658 119.746 226.629 120.453 226.601C120.453 229.743 120.453 232.716 120.453 235.689C118.673 236.085 118.673 236.085 117.825 234.811C117.034 233.565 116.243 232.32 115.141 231.102C115.141 232.631 115.141 234.188 115.141 235.66C113.191 236.113 113.022 236 113.022 234.302C112.993 232.235 113.022 230.168 113.022 228.13C113.022 227.677 113.106 227.224 113.135 226.827C114.886 226.431 114.943 226.431 115.762 227.733C116.61 229.064 117.401 230.423 118.221 231.782C118.305 231.725 118.418 231.697 118.503 231.64Z" fill="white"/>
<path d="M50.3226 214.484C50.3226 212.927 50.3226 211.369 50.3226 209.699C51.0855 209.699 51.6507 209.699 52.4701 209.699C52.4701 210.775 52.4701 211.794 52.4701 212.813C52.4701 214.342 52.4983 215.899 52.4701 217.428C52.4701 217.966 52.6396 218.674 51.8484 218.815C51.1421 218.957 50.4074 218.985 49.9271 218.221C49.3055 217.201 48.6838 216.211 48.0622 215.22C47.8079 214.795 47.5254 214.399 46.9603 214.002C46.9603 215.531 46.9603 217.088 46.9603 218.56C45.0672 219.07 44.8411 218.928 44.8129 217.258C44.7846 215.191 44.8129 213.153 44.8129 211.086C44.8129 210.633 44.8976 210.18 44.9541 209.784C46.819 209.473 46.8472 209.473 47.6949 210.86C48.4578 212.106 49.2207 213.351 49.9836 214.597C50.0966 214.54 50.2096 214.512 50.3226 214.484Z" fill="white"/>
<path d="M211.068 214.512C211.068 212.955 211.068 211.398 211.068 209.699C211.774 209.671 212.311 209.642 212.933 209.586C213.046 210.01 213.159 210.35 213.187 210.69C213.215 212.955 213.215 215.22 213.187 217.485C213.187 218.051 213.244 218.702 212.452 218.815C211.774 218.9 211.124 218.928 210.701 218.221C210.022 217.06 209.288 215.956 208.581 214.795C208.412 214.512 208.186 214.229 207.705 214.002C207.705 215.22 207.677 216.409 207.705 217.626C207.734 218.447 207.451 218.872 206.575 218.843C205.756 218.815 205.53 218.419 205.53 217.683C205.558 215.078 205.53 212.445 205.53 209.897C207.395 209.331 207.536 209.388 208.44 210.831C209.203 212.077 209.966 213.351 210.729 214.597C210.842 214.569 210.955 214.54 211.068 214.512Z" fill="white"/>
<path d="M122.911 81.3374C124.776 83.2059 126.414 84.8197 127.94 86.3201C126.528 87.7923 125.002 89.3494 123.363 91.0198C123.222 90.9065 122.854 90.7366 122.6 90.4535C121.413 89.3211 120.283 88.132 119.068 86.9996C118.503 86.4617 118.475 85.9804 119.012 85.4142C120.283 84.0553 121.611 82.6963 122.911 81.3374Z" fill="white"/>
<path d="M141.277 86.405C140.062 87.6507 138.847 88.8681 137.604 90.1138C137.237 90.4818 136.869 90.7932 136.643 90.9914C134.948 89.4626 133.337 87.9904 131.698 86.5183C133.45 84.8762 135.089 83.3474 136.558 81.9602C137.943 83.2342 139.525 84.7347 141.277 86.405Z" fill="white"/>
<path d="M132.348 229.602C131.359 229.828 130.653 229.913 129.947 229.064C129.071 228.016 127.262 228.299 126.443 229.432C125.68 230.508 125.821 232.489 126.725 233.452C127.686 234.471 128.901 234.358 130.088 233.027C129.805 232.914 129.551 232.744 129.297 232.716C128.703 232.603 128.59 232.235 128.59 231.697C128.619 231.13 128.901 230.847 129.466 230.847C130.031 230.847 130.596 230.819 131.162 230.847C131.501 230.847 131.84 230.932 132.32 231.017C132.32 232.574 132.32 234.103 132.32 235.575C132.179 235.66 132.094 235.802 132.037 235.773C130.851 235.377 129.721 235.83 128.562 235.943C124.974 236.311 123.872 233.99 123.759 231.329C123.589 227.705 127.404 225.355 130.653 226.94C131.698 227.45 132.405 228.186 132.348 229.602Z" fill="white"/>
<path d="M195.443 226.799C197.251 226.402 197.307 226.431 198.127 227.761C198.946 229.092 199.766 230.451 200.896 231.725C200.896 230.083 200.896 228.412 200.896 226.685C201.574 226.685 202.054 226.685 202.704 226.685C202.732 227.45 202.817 228.158 202.817 228.837C202.845 230.677 202.845 232.546 202.817 234.386C202.817 234.952 203.043 235.688 202.139 235.858C201.376 236 200.755 235.802 200.331 235.065C199.653 233.905 198.946 232.801 198.24 231.64C198.099 231.413 197.957 231.215 197.534 231.017C197.534 232.546 197.534 234.075 197.534 235.745C196.742 235.802 196.149 235.83 195.443 235.858C195.443 232.772 195.443 229.771 195.443 226.799Z" fill="white"/>
<path d="M107.794 214.993C106.551 214.993 105.703 214.993 104.686 214.993C104.686 216.239 104.686 217.4 104.686 218.73C103.923 218.758 103.33 218.787 102.793 218.815C102.369 217.626 102.284 211.936 102.624 209.699C103.217 209.699 103.839 209.699 104.573 209.699C104.63 210.775 104.686 211.766 104.771 212.87C105.732 212.87 106.579 212.87 107.625 212.87C107.738 211.851 107.823 210.803 107.964 209.671C108.67 209.671 109.32 209.671 110.083 209.671C110.111 210.322 110.168 210.86 110.196 211.426C110.196 213.493 110.196 215.559 110.196 217.598C110.196 218.39 109.942 218.843 109.037 218.843C108.19 218.843 107.823 218.475 107.823 217.654C107.794 216.833 107.794 215.956 107.794 214.993Z" fill="white"/>
<path d="M76.9397 226.601C78.4937 226.601 79.8782 226.516 81.2627 226.629C83.6644 226.799 84.7099 228.781 83.5797 230.904C83.4949 231.074 83.3819 231.244 83.5514 231.414C83.7492 232.858 83.9753 234.273 84.173 235.717C82.3647 236.113 82.0256 235.972 81.8844 234.839C81.5735 232.461 81.404 232.32 78.8328 232.744C78.7763 233.707 78.7197 234.698 78.635 235.689C76.9397 236.142 76.7701 236.057 76.7701 234.528C76.7419 232.376 76.7701 230.196 76.7701 228.045C76.7984 227.592 76.8831 227.195 76.9397 226.601ZM78.8328 230.593C79.6239 230.593 80.2738 230.706 80.8389 230.564C81.2062 230.479 81.7431 229.998 81.6866 229.743C81.6301 229.347 81.2627 228.753 80.8954 228.639C80.2455 228.469 79.5392 228.583 78.8045 228.583C78.8328 229.319 78.8328 229.857 78.8328 230.593Z" fill="white"/>
<path d="M77.0243 215.758C76.9961 216.267 76.9678 216.834 76.9396 217.372C76.8831 218.9 76.7983 218.985 75.0747 218.617C75.0747 215.701 75.0747 212.757 75.0747 209.671C76.8548 209.671 78.5501 209.501 80.2172 209.728C81.9408 209.926 82.7037 211.766 81.9408 213.606C81.6865 214.201 81.6865 214.597 81.9408 215.163C82.1668 215.701 82.1103 216.381 82.1668 216.975C82.2233 217.541 82.2798 218.079 82.3363 218.646C80.641 219.127 80.3867 218.985 80.1889 217.23C80.0194 215.531 79.4543 215.248 77.0243 215.758ZM78.3523 213.578C79.5108 213.606 80.1607 213.238 80.1042 212.53C80.0194 211.596 79.2848 211.455 78.4936 211.483C77.7872 211.511 76.9678 211.313 76.9678 212.445C76.9396 213.351 77.1939 213.578 78.3523 213.578Z" fill="white"/>
<path d="M154.416 235.972C151.873 236.226 150.093 233.933 150.064 231.272C150.036 228.611 152.127 226.374 154.585 226.431C157.015 226.487 158.993 228.611 158.908 231.3C158.824 233.735 157.411 236.255 154.416 235.972ZM156.789 231.385C156.733 230.932 156.733 230.677 156.676 230.451C156.45 229.205 155.659 228.497 154.501 228.497C153.37 228.497 152.636 229.092 152.438 230.366C152.325 231.045 152.353 231.782 152.466 232.461C152.636 233.452 153.455 234.16 154.359 234.16C155.32 234.188 156.055 233.735 156.422 232.857C156.648 232.319 156.704 231.753 156.789 231.385Z" fill="white"/>
<path d="M48.9385 235.972C46.3107 236.283 44.5872 233.877 44.6719 231.272C44.785 228.356 46.3673 226.488 48.9668 226.459C51.4815 226.431 53.3463 228.441 53.3463 231.244C53.3746 234.188 51.7075 235.972 48.9385 235.972ZM51.1989 231.187C51.1989 229.602 50.3795 228.526 49.0798 228.498C47.78 228.441 46.8193 229.432 46.6781 230.989C46.5368 232.631 47.4975 234.103 48.8537 234.216C50.1817 234.301 51.1989 232.999 51.1989 231.187Z" fill="white"/>
<path d="M63.5745 218.957C60.7772 219.155 59.2514 216.862 59.3079 214.2C59.3644 211.143 61.2293 209.473 63.7157 209.416C66.3152 209.359 68.0388 211.483 68.0388 214.399C68.0671 216.777 66.4565 219.24 63.5745 218.957ZM61.3706 214.257C61.5118 214.795 61.5683 215.361 61.8226 215.842C62.2182 216.692 62.9246 217.201 63.9135 217.088C64.8742 217.003 65.5806 216.437 65.7219 215.474C65.8632 214.653 65.9197 213.747 65.7219 212.926C65.3828 211.483 63.744 210.945 62.5573 211.766C61.7096 212.389 61.4271 213.238 61.3706 214.257Z" fill="white"/>
<path d="M161.366 212.304C160.406 212.643 159.728 212.615 159.191 211.822C158.993 211.539 158.484 211.228 158.174 211.284C157.693 211.369 157.043 211.681 156.902 212.049C156.648 212.672 157.326 212.842 157.835 212.983C158.541 213.153 159.219 213.408 159.897 213.578C161.112 213.861 161.762 214.625 161.903 215.814C162.016 216.947 161.508 217.881 160.547 218.39C158.965 219.24 157.269 219.24 155.687 218.39C154.783 217.909 154.246 217.116 154.444 215.927C155.32 215.644 156.055 215.503 156.733 216.465C157.241 217.173 158.089 217.4 158.937 217.003C159.247 216.862 159.586 216.522 159.699 216.182C159.756 216.041 159.304 215.588 159.021 215.503C158.315 215.22 157.552 215.078 156.817 214.852C155.207 214.342 154.472 213.493 154.529 212.162C154.585 210.831 155.546 209.784 157.043 209.444C158.117 209.189 159.191 209.274 160.18 209.812C161.084 210.379 161.536 211.143 161.366 212.304Z" fill="white"/>
<path d="M66.6543 226.657C68.943 226.657 70.9209 226.657 72.8988 226.657C73.4356 228.243 73.2943 228.469 71.8251 228.497C71.26 228.526 70.6948 228.469 70.1297 228.497C69.5929 228.526 68.8865 228.356 68.8583 229.205C68.83 230.196 69.6494 229.941 70.2145 229.998C70.7231 230.026 71.2317 230.026 71.7686 229.998C72.3902 229.998 72.8705 230.139 72.8988 230.932C72.927 231.782 72.4184 231.98 71.712 231.951C71.26 231.951 70.7796 231.951 70.3275 231.951C69.932 231.98 69.5364 232.008 68.943 232.065C68.9148 232.631 68.8865 233.169 68.83 233.99C70.2145 233.99 71.486 233.99 72.7575 233.99C73.2378 233.99 73.6899 234.018 73.7747 234.669C73.8594 235.377 73.7182 235.915 72.8423 235.915C70.8926 235.915 68.943 235.915 66.8239 235.915C66.4848 232.801 66.6826 229.828 66.6543 226.657Z" fill="white"/>
<path d="M142.86 217.088C141.786 219.07 141.786 219.07 139.836 218.617C140.09 217.853 140.373 217.088 140.627 216.324C141.305 214.399 142.012 212.474 142.662 210.52C142.888 209.841 143.283 209.529 144.018 209.558C144.696 209.586 145.205 209.699 145.459 210.407C146.42 213.097 147.409 215.786 148.369 218.476C146.702 219.127 146.448 219.014 145.657 217.683C145.487 217.4 145.092 217.117 144.753 217.06C144.103 217.003 143.453 217.088 142.86 217.088Z" fill="white"/>
<path d="M190.667 218.617C191.091 217.4 191.458 216.296 191.854 215.192C192.419 213.606 193.012 212.021 193.578 210.407C193.804 209.756 194.199 209.558 194.849 209.558C195.442 209.558 195.951 209.614 196.205 210.294C197.194 213.04 198.211 215.786 199.229 218.504C197.477 219.07 197.194 219.042 196.573 217.711C196.205 216.947 195.612 217.06 195.019 217.06C194.397 217.089 193.691 216.834 193.267 217.655C192.56 219.014 192.532 218.985 190.667 218.617Z" fill="white"/>
<path d="M192.702 235.632C190.752 236.085 190.752 236.085 189.933 234.669C189.424 233.792 187.305 233.792 186.768 234.669C185.92 236.057 185.92 236.057 184.225 235.717C184.225 235.519 184.169 235.32 184.225 235.122C185.129 232.546 186.09 229.998 186.994 227.422C187.22 226.771 187.587 226.516 188.237 226.544C188.831 226.572 189.339 226.572 189.594 227.28C190.583 230.055 191.628 232.773 192.702 235.632Z" fill="white"/>
<path d="M95.3337 235.632C93.6949 236.17 93.5536 236.142 92.8472 234.726C92.4516 233.905 91.7453 234.132 91.1236 234.103C90.5303 234.075 89.9369 233.962 89.5696 234.754C88.948 236.113 88.8915 236.085 87.1396 235.745C87.1396 235.519 87.0831 235.264 87.1396 235.066C88.0155 232.603 88.9197 230.14 89.7956 227.705C89.8804 227.479 89.9934 227.224 90.1347 227.026C90.6715 226.346 92.0843 226.488 92.4234 227.309C93.4123 229.885 94.373 232.49 95.3054 235.094C95.3902 235.207 95.3337 235.434 95.3337 235.632Z" fill="white"/>
<path d="M146.956 232.575C147.069 234.047 146.363 235.236 144.978 235.689C142.859 236.397 139.893 236.029 139.101 232.716C138.48 230.112 139.695 227.479 141.899 226.771C143.877 226.148 146.024 226.771 146.759 228.271C146.956 228.696 147.013 229.376 146.815 229.772C146.561 230.225 145.346 230.027 144.978 229.432C144.385 228.498 143.537 228.243 142.605 228.583C141.277 229.064 141.277 230.253 141.305 231.414C141.334 232.829 141.729 233.65 142.662 233.905C143.481 234.132 144.385 234.16 144.809 233.226C145.318 232.15 146.109 232.433 146.956 232.575Z" fill="white"/>
<path d="M170.775 215.899C170.691 216.918 170.634 217.768 170.549 218.589C168.741 219.098 168.515 218.957 168.515 217.315C168.487 215.248 168.515 213.21 168.515 211.143C168.515 210.69 168.6 210.237 168.656 209.671C170.267 209.671 171.821 209.558 173.318 209.699C174.646 209.812 175.466 211.001 175.551 212.445C175.635 213.776 174.844 215.078 173.657 215.503C173.234 215.673 172.753 215.729 172.301 215.786C171.849 215.843 171.397 215.843 170.775 215.899ZM170.747 213.521C171.708 213.719 172.556 213.974 173.149 213.153C173.318 212.898 173.347 212.275 173.149 212.049C172.527 211.228 171.651 211.398 170.747 211.681C170.747 212.304 170.747 212.842 170.747 213.521Z" fill="white"/>
<path d="M133.648 215.531C133.789 216.72 133.224 217.485 132.461 218.107C130.257 219.919 126.753 218.928 125.906 216.239C125.341 214.512 125.482 212.785 126.471 211.2C127.318 209.841 129.155 209.218 131.133 209.614C132.602 209.897 133.506 210.803 133.732 212.275C133.761 212.417 133.704 212.558 133.676 212.785C132.744 213.04 132.009 213.153 131.331 212.105C130.624 211.001 128.901 211.256 128.251 212.389C127.629 213.436 127.686 215.305 128.364 216.211C129.127 217.23 130.511 217.343 131.274 216.465C132.15 215.418 132.15 215.418 133.648 215.531Z" fill="white"/>
<path d="M176.964 232.914C176.907 233.877 176.822 234.754 176.766 235.802C176.229 235.83 175.72 235.859 175.042 235.887C175.042 232.773 175.042 229.828 175.042 226.714C176.625 226.516 178.179 226.431 179.733 226.742C181.174 227.054 181.993 228.384 181.88 229.885C181.767 231.414 180.693 232.574 179.139 232.773C178.489 232.858 177.755 232.858 176.964 232.914ZM176.992 231.074C178.009 230.763 178.772 230.621 179.45 230.281C179.62 230.196 179.648 229.319 179.45 229.036C178.828 228.186 177.924 228.526 177.02 228.639C176.992 229.347 176.992 229.998 176.992 231.074Z" fill="white"/>
<path d="M56.8782 226.657C58.404 226.657 59.9015 226.516 61.3426 226.686C62.8118 226.856 63.6595 228.13 63.6312 229.687C63.603 231.329 62.614 232.518 60.9752 232.744C60.2688 232.857 59.5625 232.829 58.7996 232.886C58.7431 233.452 58.7148 233.877 58.6865 234.33C58.6583 234.783 58.6018 235.236 58.5735 235.632C56.9065 236 56.7652 235.915 56.7369 234.556C56.7087 232.291 56.7369 230.055 56.7369 227.79C56.7369 227.478 56.8217 227.139 56.8782 226.657ZM58.7713 230.791C59.7602 230.819 60.6927 231.102 61.2578 230.196C61.4273 229.941 61.3991 229.319 61.2013 229.064C60.5514 228.271 59.7037 228.441 58.7713 228.696C58.7713 229.375 58.7713 229.97 58.7713 230.791Z" fill="white"/>
<path d="M143.029 88.1318C144.668 89.7739 146.137 91.2461 147.691 92.7748C147.437 93.5959 146.787 93.9356 145.883 93.9356C144.046 93.9356 142.181 93.9073 140.345 93.9356C139.582 93.9356 138.932 93.6242 138.819 92.9447C138.762 92.5484 139.158 91.9538 139.525 91.5858C140.599 90.425 141.814 89.2926 143.029 88.1318Z" fill="white"/>
<path d="M205.671 226.77C207.847 226.402 207.847 226.402 208.694 228.101C208.949 228.639 209.259 229.177 209.655 229.941C210.05 229.177 210.361 228.611 210.644 228.044C211.463 226.431 211.463 226.431 213.611 226.77C213.102 227.818 212.678 228.837 212.113 229.771C211.209 231.3 210.559 232.829 210.729 234.697C210.813 235.773 210.333 236.141 209.344 235.887C209.033 235.802 208.581 235.377 208.609 235.15C209.005 232.234 207.225 230.111 206.095 227.733C205.925 227.45 205.84 227.167 205.671 226.77Z" fill="white"/>
<path d="M125.256 92.7465C126.697 91.1894 128.223 89.7172 129.89 88.0752C130.483 88.6131 131.048 89.0944 131.585 89.604C132.433 90.425 133.281 91.246 134.072 92.1237C134.778 92.8881 134.552 93.5958 133.563 93.5675C130.879 93.5392 128.195 93.3694 125.482 93.2561C125.426 93.1146 125.341 92.9447 125.256 92.7465Z" fill="white"/>
<path d="M93.5253 211.709C93.5253 214.059 93.5253 216.352 93.5253 218.758C92.7624 218.758 92.169 218.758 91.4062 218.758C91.4062 216.38 91.4062 214.087 91.4062 211.681C90.5585 211.567 89.8521 211.483 89.0327 211.369C89.0327 210.831 89.0327 210.322 89.0327 209.699C91.3779 209.699 93.6666 209.699 95.927 209.699C96.3508 211.199 96.3508 211.199 93.5253 211.709Z" fill="white"/>
<path d="M97.481 226.686C99.9957 226.686 102.228 226.686 104.545 226.686C104.545 227.28 104.545 227.761 104.545 228.356C103.782 228.441 103.104 228.526 102.171 228.667C102.171 231.017 102.171 233.339 102.171 235.802C101.352 235.802 100.787 235.802 99.9957 235.802C99.9957 233.395 99.9957 231.074 99.9957 228.809C99.0633 228.582 98.3004 228.469 97.6505 228.158C97.4245 228.016 97.5375 227.28 97.481 226.686Z" fill="white"/>
<path d="M112.824 91.6993C114.123 90.5102 115.451 89.3212 116.695 88.1887C118.023 89.576 119.52 91.1614 120.99 92.7185C118.447 92.9166 115.734 92.3221 112.993 92.039C112.937 91.9258 112.88 91.8125 112.824 91.6993Z" fill="white"/>
<path d="M107.483 235.773C107.483 232.744 107.483 229.771 107.483 226.714C108.133 226.714 108.67 226.714 109.348 226.714C109.405 227.139 109.518 227.592 109.518 228.016C109.546 230.139 109.546 232.234 109.518 234.358C109.489 235.943 109.405 236 107.483 235.773Z" fill="white"/>
<path d="M182.191 209.671C182.925 209.671 183.491 209.671 184.14 209.671C184.14 212.7 184.14 215.644 184.14 218.589C182.276 219.098 182.078 218.957 182.05 217.201C182.05 215.191 182.05 213.181 182.05 211.171C182.078 210.718 182.134 210.265 182.191 209.671Z" fill="white"/>
</g>
<defs>
<clipPath id="clip0">
<path d="M0 0H258V236H0V0Z" fill="white"/>
</clipPath>
</defs>
</svg>
