<svg width="276" height="96" viewBox="0 0 276 96" fill="none" xmlns="http://www.w3.org/2000/svg">
<g clip-path="url(#clip0)">
<path d="M31.062 95.4761C31.1765 95.247 31.291 95.0179 31.4628 94.6629C30.1457 94.5025 28.9431 94.388 27.7404 94.2047C26.5951 94.0329 25.4497 93.8268 24.3273 93.5633C20.708 92.7043 17.5468 90.8259 14.4086 88.9361C13.9504 88.6612 13.5152 88.3291 13.1601 87.9511C11.0183 85.7291 8.8536 83.5186 6.78051 81.2164C6.04749 80.4032 5.47481 79.3953 4.97086 78.4103C3.82551 76.1311 2.73742 73.8175 1.70661 71.4809C1.40882 70.8167 1.37445 70.0264 1.27137 69.2933C1.11102 68.148 1.20265 66.9568 0.263464 66.0176C0.02294 65.7771 0.0343935 65.2159 0.0343935 64.8036C3.29065e-05 61.9745 -0.0228741 59.1455 0.0343935 56.3165C0.045847 55.8125 0.400906 55.3086 0.607069 54.8046C0.721604 54.5183 0.881954 54.2434 0.939221 53.9571C1.72951 49.914 3.06958 46.1 5.58935 42.7555C6.32237 41.7934 6.84924 40.671 7.47918 39.6287C9.05976 37.0288 11.3619 35.0817 13.7557 33.3407C17.1001 30.924 20.6507 28.9311 24.8313 27.969C28.5307 27.11 32.1501 26.7779 35.8954 27.0871C37.5218 27.2246 39.194 26.9153 40.8433 26.9039C44.8978 26.8695 48.9638 26.8695 53.0184 26.9039C55.9505 26.9382 58.8826 27.0871 61.8147 27.1215C62.6966 27.1329 63.59 26.9268 64.5177 26.8122C64.7124 26.1708 64.9987 25.6669 64.9873 25.1744C64.9644 23.3304 65.4569 21.6123 65.9265 19.8485C66.4533 17.8899 66.8313 15.9543 67.7934 14.1103C69.5687 10.72 71.6876 7.57033 74.7342 5.29108C76.2919 4.12282 77.7809 2.65677 79.8425 2.12991C80.8275 1.87793 81.6636 1.06473 82.5913 0.560777C83.038 0.320253 83.5305 0.0110078 84.0001 -0.000445705C88.9137 -0.0462598 93.8272 -0.0233527 98.6835 0.171357C99.5884 0.560777 100.493 0.938743 101.409 1.31671C101.707 1.4427 102.062 1.47706 102.303 1.64886C104.044 2.9202 105.659 4.42061 107.526 5.45143C109.209 6.37916 110.297 7.71922 111.237 9.23109C112.6 11.4302 113.905 13.6751 115.085 15.9772C115.738 17.2371 116.139 18.6459 116.528 20.0203C116.792 20.9824 116.906 22.0132 116.963 23.0097C117.032 24.1665 116.975 25.3347 116.975 26.6862C118.842 26.8466 120.514 27.0757 122.186 27.0986C124.317 27.1215 126.447 26.9268 128.577 26.9153C130.169 26.9039 131.773 27.0642 133.365 27.0528C135.335 27.0413 137.305 26.8924 139.263 26.8695C142.505 26.8351 145.757 26.8237 148.999 26.8695C150.385 26.881 151.759 27.1215 153.145 27.1215C155.172 27.11 157.188 26.8695 159.204 26.8924C163.843 26.9268 168.481 27.0871 173.12 27.1329C174.666 27.1444 176.201 26.881 177.747 26.881C200.276 26.9611 222.794 27.0299 245.323 27.2246C247.614 27.2475 249.904 28.095 252.195 28.5875C255.196 29.2289 258.036 30.3628 260.568 32.0465C262.583 33.3866 264.313 35.1848 266.145 36.7882C266.581 37.1662 267.004 37.5785 267.371 38.0252C268.596 39.5485 269.719 41.1749 271.025 42.6295C272.651 44.4507 273.086 46.7986 274.083 48.8946C274.415 49.6047 274.575 50.4065 274.827 51.2197C275.125 51.2082 275.377 51.1968 275.64 51.1853C275.64 57.3817 275.64 63.578 275.64 69.7744C274.793 69.7515 274.552 70.3585 274.461 71.0228C274.232 72.7294 273.705 74.2985 272.811 75.7875C271.975 77.1848 271.425 78.7768 270.498 80.1055C269.318 81.7891 267.886 83.2781 266.569 84.8587C264.427 87.4357 261.736 89.3713 258.815 90.8717C255.551 92.544 252.264 94.3422 248.392 94.6285C248.392 94.9034 248.392 95.1554 248.392 95.4188C187.803 95.4188 127.214 95.4188 66.6251 95.4188C67.3696 95.121 68.1141 94.8232 68.7669 94.5598C63.7159 94.5598 58.5504 94.5598 53.3963 94.5598C53.6712 94.8805 53.9003 95.1554 54.1179 95.4188C48.9867 95.4188 43.8555 95.4188 38.7244 95.4188C38.7244 95.1668 38.7244 94.9148 38.7244 94.5598C37.8539 94.5598 37.0407 94.5598 36.1588 94.5598C36.1588 94.9148 36.1588 95.1668 36.1588 95.4188C34.4866 95.4761 32.7685 95.4761 31.062 95.4761ZM117.456 30.5232C116.86 32.035 115.978 33.4209 115.795 34.887C115.371 38.1741 113.046 40.4305 111.649 43.1679C110.893 44.6339 109.587 45.8365 108.465 47.0964C107.182 48.5396 105.693 49.7078 103.849 50.4523C102.44 51.025 101.249 52.1016 99.6685 52.2734C99.5196 52.2849 99.4051 52.4567 99.2562 52.5025C98.2139 52.8461 97.1831 53.2699 96.1065 53.4646C94.9611 53.6707 93.77 53.728 92.6017 53.7395C88.948 53.7624 85.3173 54.0372 81.824 52.2505C79.5104 51.0708 77.1967 49.914 75.1695 48.3105C73.921 47.3255 72.6955 46.2374 71.7105 45.0004C70.5422 43.5229 69.5114 41.8851 68.6524 40.2014C67.4498 37.8763 65.9723 35.6314 65.9837 32.8253C65.9952 31.4738 65.056 30.5232 63.8648 30.3972C62.5935 30.2597 61.3222 30.1108 60.0394 30.0879C56.7064 30.0421 53.362 30.0307 50.029 30.0765C46.0317 30.1338 42.0344 30.2597 38.0372 30.3399C37.7737 30.3399 37.4874 30.3399 37.2469 30.2368C35.3799 29.4007 33.4901 29.71 31.6003 30.0765C30.3519 30.317 29.092 30.5919 27.8206 30.7179C24.5335 31.0615 21.5212 32.1152 18.7838 33.9821C18.1653 34.4059 17.501 34.7495 16.8825 35.1618C15.7028 35.9636 14.3971 36.6508 13.4236 37.6473C11.9919 39.1248 10.9496 40.9802 9.48354 42.4005C7.53645 44.2903 6.62017 46.7299 5.48627 49.0435C4.89068 50.2461 4.87923 51.7236 3.96295 52.8346C3.87132 52.9377 3.88278 53.1439 3.88278 53.3042C3.77969 56.4883 2.70306 59.638 3.53917 62.845C4.16911 65.2961 3.39027 67.8616 4.67307 70.3356C6.27656 73.4166 7.42191 76.7152 9.58663 79.5328C11.087 81.4799 12.6905 83.3124 14.6033 84.8472C15.6226 85.6719 16.9512 86.1529 17.9248 87.0348C19.9864 88.8903 22.4604 89.7264 25.0718 90.2533C28.1986 90.8832 31.291 91.662 34.5438 91.6506C94.1594 91.6162 153.764 91.6391 213.379 91.662C216.689 91.662 219.988 91.8797 223.298 91.914C228.521 91.9598 233.743 91.9369 238.966 91.9255C239.608 91.9255 240.249 91.8338 240.879 91.8224C242.208 91.788 243.536 91.8109 244.865 91.7537C246.342 91.685 247.911 91.8109 249.286 91.3757C252.527 90.3792 255.78 89.3255 258.586 87.2983C259.869 86.3705 261.255 85.5688 262.492 84.5952C263.362 83.908 264.084 83.0261 264.828 82.19C265.607 81.3195 266.432 80.472 267.05 79.4984C267.978 78.0209 268.757 76.4632 269.547 74.9056C270.337 73.3479 271.288 71.836 271.792 70.1867C272.983 66.3269 272.766 62.2723 273.109 58.298C273.132 58.0918 273.063 57.8742 273.029 57.668C272.743 56.0989 272.468 54.5412 272.17 52.9835C272.055 52.3536 271.975 51.7007 271.712 51.1395C271.002 49.5933 270.234 48.0814 269.433 46.581C268.791 45.3784 268.127 44.1758 267.348 43.0419C266.455 41.7362 265.55 40.3961 264.439 39.2966C263.087 37.9565 261.564 36.7768 260.006 35.6773C258.849 34.8526 257.578 34.1539 256.284 33.5698C254.257 32.665 252.218 31.6571 250.076 31.176C247.969 30.7064 245.735 30.7293 243.548 30.7293C222.404 30.695 201.261 30.7064 180.118 30.695C178.583 30.695 177.049 30.6263 175.514 30.5919C173.131 30.5346 170.738 30.4774 168.355 30.443C166.717 30.4201 165.068 30.4315 163.43 30.4315C160.452 30.4315 157.474 30.4315 154.497 30.4315C153.386 30.4315 152.286 30.4086 151.175 30.3857C150.385 30.3743 149.594 30.317 148.804 30.3514C146.891 30.443 144.979 30.6263 143.054 30.6721C140.832 30.7293 138.599 30.7179 136.366 30.6721C135.094 30.6492 133.823 30.4086 132.54 30.3972C128.108 30.3628 123.675 30.3743 119.243 30.3857C118.647 30.3972 118.074 30.4774 117.456 30.5232ZM89.6582 2.97747C89.3375 2.21008 88.4784 2.16427 87.5278 2.15282C86.0503 2.14136 84.7561 2.32462 83.29 2.9202C81.0108 3.85939 78.9835 5.05056 77.1051 6.56242C76.0056 7.44434 76.2346 8.92184 77.5174 9.44871C79.2355 10.1588 80.335 9.92975 81.6292 8.50952C81.9843 8.1201 82.2248 7.6276 82.5684 7.22672C83.3931 6.29899 84.2521 5.40561 85.2486 4.34044C85.4547 4.91311 85.7182 5.27963 85.6265 5.47434C84.779 7.20382 83.8627 8.89894 82.9235 10.6971C83.9658 12.6213 87.7683 13.4689 89.8071 11.8769C89.8071 9.62051 89.8071 7.20382 89.8071 4.40916C90.7348 4.85584 91.3304 5.14218 91.9947 5.47434C91.6167 6.29899 91.3418 6.87166 91.0211 7.58178C92.2925 8.97911 91.3304 10.4108 90.8035 11.8081C92.8766 13.2169 95.0413 12.8046 97.1373 12.6213C98.0078 12.5526 98.2827 11.7509 97.9963 11.0407C97.6069 10.0672 96.977 9.19673 96.4845 8.26899C95.7514 6.87166 95.0413 5.47434 94.3427 4.0541C94.2968 3.96247 94.4457 3.77921 94.6061 3.40125C95.3735 4.04265 96.2096 4.52369 96.7364 5.23381C97.6298 6.43643 98.9355 7.34126 99.1875 9.07074C99.2906 9.79231 100.218 10.5597 100.951 10.9949C101.742 11.4645 102.257 10.5711 102.807 10.113C103.838 9.254 104.788 9.34562 105.762 10.5024C105.349 10.8002 104.983 11.2469 104.536 11.35C103.15 11.6707 102.406 12.6671 101.558 13.7896C102.532 15.794 102.52 18.0388 103.368 20.1692C104.158 22.1507 103.952 24.5215 104.193 26.7092C104.8 26.8924 105.201 27.1215 105.601 27.1215C107.823 27.1558 110.057 27.1673 112.29 27.1215C113.092 27.11 113.63 26.6633 114.008 25.9074C114.753 24.4528 114.318 23.0784 113.871 21.7154C113.149 19.5507 112.302 17.4204 111.569 15.2556C110.79 12.942 109.427 11.0178 107.858 9.15091C106.701 9.33417 106.208 8.63551 105.831 7.71922C105.647 7.28399 105.407 6.8373 105.075 6.52806C103.379 4.94747 101.318 3.99683 99.2104 3.11491C97.1831 2.2559 95.236 1.33962 92.9453 2.40479C92.0749 2.81712 90.9753 2.77131 89.6582 2.97747ZM80.2434 30.317C78.743 32.2412 79.5905 37.9221 81.7438 40.3732C82.8433 40.2587 83.9314 40.1327 84.653 40.0525C85.7182 39.6173 86.4626 39.2737 87.2186 38.9988C87.9172 38.7468 88.6273 38.5292 89.3489 38.3688C90.0132 38.2199 90.7348 38.0023 91.3762 38.1169C93.4035 38.4948 95.4422 38.9072 97.4236 39.5027C99.5884 40.1556 100.069 39.9036 100.321 37.7045C100.493 36.1927 100.539 34.6693 101.558 33.3178C102.394 32.2068 101.81 30.9928 100.424 30.6721C98.5575 30.2368 96.6906 30.1338 94.7321 30.3056C92.8079 30.4774 91.6053 31.1302 91.1357 33.1002C92.1321 34.7724 91.1357 35.998 89.8872 37.5785C89.6696 36.6623 89.452 36.0896 89.4176 35.5169C89.3604 34.4517 89.3947 33.3866 89.4062 32.3214C89.4176 31.3936 89.1313 30.6492 88.3639 30.317C85.5693 30.317 82.912 30.317 80.2434 30.317ZM76.1659 9.89539C76.1316 9.73504 76.1087 9.58615 76.0743 9.4258C75.3298 9.5976 74.2761 9.52888 73.8867 9.99847C72.5237 11.6707 71.0806 13.4116 70.2445 15.3587C69.4083 17.3058 68.2973 19.2529 68.263 21.5093C68.263 21.6123 68.2172 21.7154 68.1714 21.8185C67.2894 23.5365 67.9079 25.1057 68.6524 26.7779C69.3167 26.8924 69.9925 27.0986 70.6682 27.0986C71.9968 27.0986 73.3254 26.9726 74.6541 26.9268C76.2461 26.8695 77.0135 26.0563 77.0707 24.4299C77.0937 23.8114 77.2311 23.1815 77.3456 22.563C77.506 21.6811 77.7121 20.8106 77.8381 19.9287C78.113 18.0503 78.2734 16.149 79.1667 14.4195C79.8081 13.194 79.3156 11.8654 78.0787 11.1896C77.4144 10.8117 76.8073 10.3306 76.1659 9.89539ZM79.9685 26.9726C82.5684 26.9726 84.9966 27.0528 87.4133 26.9497C89.3718 26.8695 89.933 25.9647 89.6467 23.9603C89.5436 23.2273 89.4978 22.4828 89.5093 21.7498C89.5436 20.3181 89.7269 18.8864 89.6925 17.4547C89.6582 15.6222 88.7304 14.7517 86.8979 14.7288C85.6494 14.7173 84.4926 14.557 83.416 13.7896C82.9808 13.4803 82.2821 13.5262 81.6407 13.4002C80.461 17.8899 78.5941 22.0476 79.9685 26.9726ZM90.5744 24.9224C90.9982 25.2546 91.5136 25.4607 91.7198 25.8387C92.3497 27.0413 93.392 27.2017 94.5717 27.1787C96.2668 27.1329 97.962 27.1444 99.6685 27.0871C100.883 27.0528 101.604 26.5144 101.787 25.3118C101.936 24.3268 102.005 23.2616 101.787 22.2995C101.329 20.2837 100.688 18.3137 100.069 16.3437C99.6227 14.8891 98.6606 14.4424 97.1144 14.7402C96.5532 14.8433 95.9576 14.8204 95.3849 14.7631C92.4986 14.4539 91.6969 15.1526 91.6625 18.0388C91.6625 18.1419 91.6625 18.2565 91.6625 18.3595C91.6282 20.467 92.0061 22.6317 90.6317 24.5101C90.5515 24.5788 90.5859 24.7048 90.5744 24.9224ZM108.568 30.4086V30.3972C107.72 30.3972 106.861 30.3857 106.014 30.3972C104.204 30.4201 103.861 30.7179 103.849 32.5619C103.849 33.8103 103.46 34.887 102.979 36.0438C102.452 37.3037 102.44 38.8155 102.406 40.2358C102.383 41.1291 103.013 41.7591 103.941 42.0683C104.525 42.263 105.12 42.5837 105.579 42.9846C106.953 44.2216 107.801 44.233 108.843 42.7326C109.862 41.2666 110.778 39.7089 111.637 38.1512C112.6 36.4217 113.264 34.5663 113.436 32.5734C113.562 31.05 113.126 30.5003 111.603 30.4315C110.595 30.3743 109.576 30.4086 108.568 30.4086ZM75.3413 44.6912C76.5782 43.6947 77.7122 42.8357 78.7544 41.8851C79.2927 41.3926 79.1095 40.7626 78.7773 40.1212C78.3994 39.3767 78.0558 38.5635 77.9412 37.7503C77.7236 36.1125 77.5862 34.4632 77.5747 32.8139C77.5633 31.68 77.1051 31.0271 76.143 30.569C73.9783 29.5496 71.7792 29.8703 69.6145 30.4774C69.1105 30.6148 68.4233 31.302 68.4119 31.7372C68.389 32.8253 68.5264 33.9936 68.9387 35.0015C69.6145 36.6508 70.6568 38.1398 71.344 39.7891C72.2145 41.8507 73.8752 43.145 75.3413 44.6912ZM99.176 42.9273C98.3743 42.2401 97.7787 41.7247 97.1717 41.2208C96.4043 40.6023 93.4035 40.3847 92.5788 40.9001C92.3727 41.0375 92.1321 41.2551 92.0749 41.4727C91.5022 43.7863 90.5515 46.0198 90.689 48.4937C90.7462 49.6047 91.2158 50.4179 92.029 51.0937C92.5903 51.5633 93.1629 51.632 93.77 51.1853C94.6748 50.521 95.5567 49.8682 95.9576 48.7228C96.1638 48.1387 96.599 47.6347 96.9082 47.085C97.6642 45.7334 98.3972 44.359 99.176 42.9273ZM82.6028 42.4692C82.2019 43.8894 82.3852 44.8973 83.1984 45.8365C83.6794 46.3978 84.3208 47.0048 84.4239 47.6691C84.6415 49.0664 85.5807 49.7422 86.5543 50.4981C87.3102 51.0937 88.0432 51.9069 89.0855 51.3342C90.1736 50.7386 89.6467 49.6391 89.6582 48.7343C89.6696 47.1995 89.5551 45.6647 89.6925 44.1529C89.8185 42.767 89.4749 41.7591 88.0432 41.0604C86.3137 41.4956 84.4697 41.9767 82.6028 42.4692ZM101.135 42.7441C100.379 44.004 99.6227 45.2524 98.8782 46.5008C98.7981 46.6268 98.8324 46.8215 98.7523 46.959C98.4201 47.5202 98.1567 48.173 97.6985 48.6083C97.1831 49.1008 96.977 49.4902 97.5496 50.2232C98.0765 50.1889 98.7064 50.1889 99.3135 50.1087C101.387 49.8338 102.761 48.3563 104.307 47.1766C105.796 46.0427 105.705 44.9317 104.044 44.0383C103.116 43.5573 102.12 43.1793 101.135 42.7441ZM76.6928 46.2718C78.2505 47.4629 79.5562 48.5281 80.942 49.4787C81.5147 49.8682 82.2363 49.9598 82.8891 49.1924C82.7173 48.5968 82.7402 47.7035 82.305 47.3369C81.3658 46.5466 80.9879 45.6075 80.9191 44.3934C80.0258 44.1185 79.1896 43.8665 78.1588 43.5458C77.6778 44.4507 77.2426 45.2639 76.6928 46.2718Z" fill="white"/>
<path d="M107.732 67.1977C106.827 68.0224 106.151 68.9845 106.06 70.3017C105.968 71.6875 105.831 73.0619 105.727 74.4478C105.624 75.7421 105.361 76.9561 104.559 78.0442C103.299 79.7623 101.742 80.0142 99.7831 78.6284C99.9434 77.0249 100.035 75.3297 100.287 73.6575C100.539 72.0311 100.951 70.4391 101.341 68.6294C101.318 68.6065 101.215 68.3431 101.031 68.1713C100.447 67.5872 99.9663 66.774 98.8897 67.1634C97.8016 67.5528 97.6183 68.4576 97.4236 69.4312C97.2404 70.3475 96.8853 71.2294 96.6563 72.1457C96.4615 72.9131 96.2668 73.6919 96.1867 74.4707C96.095 75.4786 96.2096 76.5095 96.0378 77.5059C95.6827 79.6019 92.8651 80.5526 91.2846 79.1094C90.9409 78.8002 90.6775 78.1588 90.7119 77.7121C90.9066 75.6619 91.2158 73.6232 91.4907 71.573C91.6282 70.6224 91.8458 69.6832 91.9489 68.7325C92.1207 67.1405 92.1779 65.5484 92.3612 63.9564C92.6017 61.849 93.5867 60.9212 95.7171 60.8754C98.8668 60.8067 102.016 60.841 105.166 60.8296C107.193 60.8296 109.221 60.841 111.248 60.8525C114.066 60.8754 115.784 62.4789 115.726 65.4454C115.658 68.9959 115.245 72.4435 114.237 75.8452C114.1 76.3033 114.134 76.7958 114.043 77.2654C113.619 79.3843 110.95 80.4495 109.267 79.1209C108.946 78.8689 108.671 78.2962 108.705 77.8953C108.831 76.7385 109.129 75.6161 109.347 74.4707C109.45 73.9553 109.553 73.4285 109.576 72.9016C109.633 71.8364 109.599 70.7598 109.667 69.7061C109.793 67.9995 109.622 67.7361 107.732 67.1977Z" fill="white"/>
<path d="M170.749 78.8918C169.134 79.2239 167.954 79.5446 166.763 79.6592C166.305 79.705 165.618 79.453 165.343 79.0979C164.53 78.0671 163.843 76.9447 163.167 75.8222C162.548 74.7914 162.033 73.7033 161.426 72.6496C160.888 71.699 160.292 70.7827 159.525 69.4999C159.307 70.3589 158.986 70.9889 159.044 71.5844C159.227 73.795 158.207 75.7421 157.841 77.8266C157.669 78.7773 156.959 79.2698 156.043 79.4072C155.516 79.4874 154.978 79.4874 154.439 79.453C152.401 79.3499 151.633 78.3191 152.607 76.498C153.431 74.9403 153.431 73.3597 153.557 71.7219C153.741 69.3396 153.775 66.9343 154.749 64.6551C155.069 63.8991 155.081 62.9943 155.149 62.1467C155.287 60.4974 155.333 58.8481 155.482 57.1988C155.676 55.1715 158.494 53.7742 160.281 54.7821C160.968 55.1601 161.266 55.7557 161.185 56.5116C160.945 58.9512 160.67 61.3794 160.407 63.922C160.922 64.1969 161.266 63.9679 161.735 63.441C163.785 61.0701 165.984 58.8367 167.966 56.4085C169.02 55.1028 170.291 54.6447 171.826 54.5187C172.811 54.4385 173.83 54.7134 174.059 55.6526C174.231 56.3513 173.968 57.4393 173.475 57.9777C171.711 59.9362 169.73 61.6886 167.932 63.6242C167.073 64.552 166.362 65.6515 165.801 66.774C165.343 67.6788 165.801 68.5951 166.282 69.477C167.244 71.2294 168.092 73.0505 168.985 74.8372C169.226 75.3068 169.512 75.7535 169.718 76.2346C170.028 76.979 170.302 77.7464 170.749 78.8918Z" fill="white"/>
<path d="M21.7044 74.9515C23.2392 75.3409 24.6136 75.4784 26.0224 74.7911C26.6638 74.4819 27.477 74.4361 28.21 74.3788C31.5544 74.1383 31.795 73.5198 33.1808 70.5075C32.6883 69.6829 31.8866 69.5111 31.0047 69.5225C28.4505 69.5225 25.9079 69.5225 23.033 69.5225C22.5062 68.904 21.7502 68.045 21.0172 67.1975C22.1969 65.1587 23.8806 64.2539 26.114 64.4143C27.2823 64.4944 28.4505 64.5631 29.6188 64.6433C31.0619 64.7464 32.4936 64.8266 33.7306 63.9103C34.0513 62.0777 32.9289 60.6117 31.0963 60.543C29.2866 60.4742 27.4655 60.5086 25.6559 60.5659C24.6136 60.5888 23.9378 60.0848 23.4224 59.2716C22.6321 58.0232 23.3995 56.099 24.8541 56.099C28.4276 56.0875 32.0011 56.1906 35.5517 56.4655C37.2125 56.5915 39.1023 58.8937 39.3428 60.5659C39.5719 62.1923 40.0186 63.8187 39.9728 65.4336C39.9041 67.5869 39.7437 69.8203 39.1023 71.859C38.186 74.8026 36.4222 77.1506 33.3641 78.4792C29.5959 80.117 25.7819 79.8651 21.8991 79.4871C20.9599 79.3955 20.2498 79.006 19.952 78.0898C19.6313 77.1048 19.9749 76.3259 20.811 75.7303C21.1088 75.5127 21.3723 75.2378 21.7044 74.9515Z" fill="white"/>
<path d="M133.823 67.255C133.766 68.5148 133.674 69.7862 133.674 71.0461C133.674 73.4513 132.552 75.3068 130.857 76.853C129.929 77.7006 128.955 78.6512 127.821 79.0864C126.573 79.5675 125.118 79.682 123.767 79.6362C121.854 79.5675 121.304 79.934 121.121 81.8467C121.041 82.6256 120.823 83.393 120.594 84.1374C120.239 85.3171 119.311 85.8326 118.178 85.9242C115.704 86.1189 115.085 85.0079 115.417 83.0379C115.635 81.7895 115.956 80.5639 116.127 79.3155C116.459 76.8415 116.711 74.3561 116.998 71.8707C117.021 71.7104 116.975 71.5271 117.044 71.3897C118.315 68.7439 117.777 65.8233 118.315 63.0744C118.429 62.4788 118.888 61.7802 119.392 61.4824C120.044 61.093 120.892 60.9097 121.671 60.8753C123.435 60.7952 125.199 60.841 126.951 60.8868C128.142 60.9212 129.242 61.2075 130.158 62.1009C130.822 62.7537 131.819 63.1202 132.357 63.8418C133.101 64.8383 133.56 66.0523 134.144 67.1748C134.052 67.2091 133.938 67.232 133.823 67.255ZM122.152 73.8751C126.241 75.5817 130.238 72.2143 128.898 68.6637C128.531 68.4347 128.096 68.1369 127.638 67.8734C127.226 67.6329 126.791 67.4153 126.355 67.232C125.13 66.7281 123.996 67.1862 123.492 68.4003C123.091 69.3853 122.667 70.3703 122.404 71.4011C122.209 72.2029 122.232 73.0619 122.152 73.8751Z" fill="white"/>
<path d="M182.237 68.7208C182.5 68.2398 182.764 67.7358 183.119 67.083C182.592 67.0257 182.191 66.9455 181.79 66.9455C180.026 66.9341 178.263 66.9341 176.51 66.9685C175.445 66.9799 174.769 66.4874 174.506 65.4909C173.91 63.1888 175.514 60.9897 177.907 60.8981C180.095 60.8179 182.283 60.8408 184.47 60.8981C186.532 60.9439 188.147 62.2152 189.017 63.7729C189.647 64.9068 189.327 66.6478 189.212 68.1023C189.098 69.5684 188.697 71.0115 188.456 72.4776C188.193 74.0467 188.044 75.6502 187.712 77.2079C187.357 78.8228 186.314 79.7162 184.631 79.7162C182.077 79.7162 179.499 79.6589 176.968 79.3841C173.933 79.0519 171.803 76.6467 171.768 73.8635C171.734 71.4811 173.292 69.5455 175.697 69.2248C177.816 68.9385 179.946 68.8812 182.237 68.7208ZM183.107 73.5886C180.977 73.1304 179.305 72.6952 177.518 73.5771C178.709 75.0546 180.267 74.6309 181.699 74.5621C182.088 74.5507 182.443 74.0696 183.107 73.5886Z" fill="white"/>
<path d="M198.077 67.2091C198.18 67.6902 198.295 68.1941 198.432 68.7783C200.253 68.8813 202.052 69.0761 203.861 69.0646C205.533 69.0646 207.446 70.3245 207.629 72.0082C207.778 73.3711 207.71 74.8143 206.599 75.8909C205.659 76.7957 204.984 77.9067 203.701 78.571C202.155 79.3728 200.54 79.5904 198.925 79.6706C196.863 79.7736 194.779 79.6133 192.717 79.4529C191.251 79.3384 190.804 78.7199 190.735 77.2653C190.598 74.2989 191.056 71.424 192.11 68.6523C192.224 68.3545 192.282 68.0223 192.282 67.7131C192.202 63.9449 195.706 60.3828 199.852 60.8295C201.33 60.9899 202.842 60.841 204.331 60.9097C205.121 60.9441 205.946 61.0242 206.69 61.2648C207.503 61.5167 207.962 62.0894 207.881 63.0859C207.572 66.6594 207.24 66.9801 203.552 66.9572C201.845 66.9457 200.139 66.9915 198.432 67.0259C198.341 67.0144 198.26 67.106 198.077 67.2091ZM202.143 73.4857C200.036 73.1306 198.249 72.9588 196.382 73.4055C197.207 75.0204 199.497 75.0548 202.143 73.4857Z" fill="white"/>
<path d="M178.973 47.8869C178.4 48.4825 177.793 49.2384 177.071 49.8455C176.682 50.1776 175.915 50.5899 175.628 50.4181C175.182 50.1662 174.849 49.4789 174.735 48.9177C174.609 48.3107 174.781 47.6349 174.849 46.5812C173.338 47.4173 172.204 48.0473 171.161 48.6314C170.016 48.1962 169.008 47.864 168.023 47.4402C167.599 47.257 167.187 46.9821 166.878 46.6385C166.271 45.9513 165.744 45.1953 165.022 44.531C164.896 42.9848 164.129 41.221 166.087 40.0527C166.339 39.9038 166.374 39.3999 166.523 39.0677C167.256 37.4642 168.355 36.2272 170.005 35.5171C172.696 34.3603 177.564 36.9717 177.255 40.7972C177.186 41.6676 177.243 42.5496 177.243 43.5346C177.552 43.3857 177.724 43.3399 177.713 43.3055C177.598 41.2095 178.652 39.4342 179.236 37.5329C179.648 36.1814 180.347 35.6087 181.767 35.54C183.039 35.4828 184.321 35.3911 185.593 35.3453C187.643 35.2651 189.212 37.0862 188.239 38.8043C186.681 41.5531 186.864 44.4394 186.853 47.3715C186.853 47.9556 186.864 48.5512 186.773 49.1239C186.521 50.6128 185.249 51.0824 184.035 50.1547C183.955 50.086 183.875 50.0058 183.795 49.9371C183.142 49.33 182.592 48.5054 181.825 48.1847C181.069 47.8296 180.072 47.9671 178.973 47.8869ZM169.432 44.5997C170.955 45.2182 172.089 44.531 172.731 43.5117C173.498 42.2747 173.727 40.7628 173.005 39.0104C171.768 39.1593 170.566 39.3082 169.478 39.4342C168.939 41.3584 168.63 42.9504 169.432 44.5997ZM182.936 44.6914C182.695 42.6068 184.734 41.3355 184.253 39.1364C183.531 39.1822 182.89 39.228 182.443 39.2624C181.756 41.1866 181.16 42.8588 180.507 44.6914C181.401 44.6914 182.008 44.6914 182.936 44.6914Z" fill="white"/>
<path d="M135.598 68.0336C135.369 66.0064 136.732 64.8839 137.877 63.7386C139.435 62.1809 141.222 61.0241 143.581 60.8408C146.72 60.6003 148.976 62.0893 150.66 64.4029C151.416 65.4451 151.828 67.0143 151.759 68.32C151.622 70.8512 151.381 73.4626 149.686 75.5815C148.312 77.2995 146.777 79.0176 144.532 79.3841C139.618 80.1858 137.122 78.9832 134.728 74.5392C133.96 73.1076 133.823 71.5957 133.995 70.0495C134.098 69.1446 134.338 68.2627 135.598 68.0336ZM139.985 71.2177C139.893 73.1992 140.512 74.0926 141.989 74.2987C143.707 74.5392 145.368 73.5084 145.735 71.8248C145.929 70.9199 145.883 69.9349 145.838 68.9957C145.746 66.9341 143.066 66.4645 141.943 67.5641C140.855 68.6063 139.79 69.683 139.985 71.2177Z" fill="white"/>
<path d="M51.1285 67.2663C49.548 66.8883 47.8872 67.7244 47.4405 69.0759C47.2458 69.683 47.2 70.3244 47.074 70.9543C46.6159 73.2908 46.2035 75.6503 45.6652 77.9753C45.3331 79.407 44.3137 79.911 42.6987 79.6819C40.7975 79.4185 40.2821 79.0061 40.408 77.3225C40.5455 75.4212 40.9464 73.5428 41.2212 71.653C41.3701 70.6565 41.6336 69.6601 41.6565 68.6636C41.7023 66.35 43.0195 64.6663 44.371 63.0514C45.8599 61.2875 47.8528 60.5889 50.2237 60.8065C51.9074 60.9554 53.6254 60.7836 55.332 60.7263C56.5461 60.6805 57.2218 61.2188 57.3249 62.4673C57.3936 63.2575 57.4051 64.0707 57.3249 64.861C57.1302 67.083 57.05 69.3394 56.6033 71.5155C56.1566 73.6917 55.458 75.8221 55.2976 78.067C55.2633 78.4793 54.702 79.1436 54.3126 79.1894C53.1787 79.3268 51.9876 79.3268 50.8651 79.1436C50.51 79.0863 50.0519 78.296 50.0061 77.815C49.8572 75.9481 50.1092 74.1269 50.8766 72.3516C51.6096 70.7138 51.3691 68.9499 51.1285 67.2663Z" fill="white"/>
<path d="M235.977 67.0257C234.809 67.4037 233.778 67.7473 232.564 68.1482C232.403 68.8239 232.22 69.534 232.071 70.2441C231.899 71.0803 231.831 71.9393 231.567 72.741C231.098 74.2185 230.651 75.6846 230.731 77.2537C230.777 78.3189 230.181 78.9259 229.185 79.2008C227.753 79.5902 226.356 79.7849 224.958 78.3532C225.371 76.2916 225.817 74.1154 226.218 71.9393C226.516 70.3129 226.711 68.675 227.009 67.0486C227.627 63.7615 230.731 60.9324 234.362 60.8981C236.286 60.8866 238.21 60.8179 240.123 60.8637C241.99 60.8981 242.837 62.1465 242.517 63.9791C242.07 66.5447 241.749 69.1332 241.371 71.7102C241.314 72.134 241.245 72.5463 241.154 72.9586C240.902 74.1498 240.547 75.3181 240.398 76.5207C240.169 78.4792 238.909 79.7162 236.927 79.7391C235.736 79.7506 235.015 79.2581 234.98 78.1013C234.9 75.9251 234.705 73.7375 235.736 71.6644C236.435 70.2785 236.378 68.7896 235.977 67.0257Z" fill="white"/>
<path d="M65.4111 66.957C65.1362 67.587 64.93 68.068 64.6093 68.8354C65.8005 68.8469 66.8313 68.8698 67.8507 68.8812C68.389 68.8812 68.9158 68.8698 69.4542 68.8812C70.9889 68.9156 71.6647 69.4081 71.7334 70.5305C71.8021 71.905 71.0347 73.0618 69.7519 73.2336C68.7555 73.371 67.7247 73.3137 66.7168 73.3252C65.8348 73.3366 64.9529 73.3252 64.0595 73.4855C64.6437 74.3675 65.434 74.6309 66.3617 74.6194C67.4269 74.608 68.5035 74.5736 69.5687 74.6538C71.218 74.7683 71.7678 75.4326 71.7907 77.1507C71.8136 78.8687 71.4814 79.3726 69.6832 79.4643C67.5185 79.5788 65.2965 79.659 63.1776 79.3383C61.5398 79.0863 59.9592 78.2273 58.9055 76.7727C58.6878 76.4749 58.4588 76.1427 58.4015 75.7877C57.7601 72.1798 57.8976 68.6178 59.6843 65.365C60.4059 64.0478 61.6199 62.9827 62.7195 61.906C63.5441 61.0928 64.6322 60.8294 65.8234 60.8638C67.7476 60.9096 69.6718 60.8523 71.596 60.8638C73.8867 60.8752 74.7915 62.2611 73.8638 64.3227C73.7492 64.5633 73.6576 64.8152 73.5545 65.0558C72.8558 66.7509 72.5695 66.957 70.6797 66.957C68.9502 66.957 67.2436 66.957 65.4111 66.957Z" fill="white"/>
<path d="M225.886 62.3987C225.692 63.3493 225.531 64.3458 225.268 65.3193C224.97 66.4303 224.226 66.9915 223.023 66.9457C221.534 66.8999 220.034 66.9114 218.533 66.9228C217.903 66.9228 217.273 66.9915 216.529 67.0374C216.426 67.6215 216.346 68.1254 216.22 68.8241C218.041 68.7783 219.724 69.3739 221.351 68.1369C221.717 68.469 222.13 68.7897 222.473 69.1792C223.034 69.832 223.55 70.4963 223.126 71.4813C222.679 72.4892 222.004 73.2223 220.881 73.2795C219.713 73.3368 218.533 73.2223 217.365 73.2108C216.815 73.2108 216.265 73.3024 215.601 73.3711C215.979 74.2645 216.426 74.5509 217.193 74.4478C217.983 74.3447 218.785 74.3447 219.587 74.3103C221.213 74.2416 222.668 75.1235 223.263 76.5323C223.699 77.5517 222.656 79.3843 221.419 79.4072C218.144 79.4644 214.765 80.0256 211.73 78.1702C211.375 77.9526 210.917 77.712 210.791 77.3799C210 75.3068 208.947 73.2566 210.069 70.9316C210.332 70.3932 210.298 69.6717 210.264 69.0417C210.023 64.403 214.49 60.5661 218.648 60.8525C219.976 60.9441 221.316 60.8181 222.656 60.8983C223.802 60.967 225.027 61.0014 225.886 62.3987Z" fill="white"/>
<path d="M88.5931 78.4564C86.6002 80.4493 83.3245 80.0141 82.0188 77.6661C81.4575 76.6467 80.839 75.6503 80.1289 74.4362C79.8655 74.9058 79.6593 75.2379 79.499 75.593C78.995 76.6353 78.5942 77.7463 77.9986 78.7313C77.4373 79.6475 76.3493 79.8995 75.2955 79.5674C73.9784 79.155 73.4057 78.5366 73.4172 77.3225C73.4286 76.5436 73.6577 75.7648 73.7722 74.986C73.9669 73.623 74.2304 72.26 74.2991 70.8856C74.3564 69.6372 74.4709 68.4689 75.0779 67.335C75.3872 66.7509 75.4903 66.0293 75.5933 65.3535C75.7308 64.5174 75.7193 63.647 75.8568 62.8109C76.1087 61.2646 76.5096 60.9439 78.0673 60.8638C80.4496 60.7378 81.5148 61.8373 81.3201 64.2426C81.2743 64.8496 80.8849 65.5139 81.6981 65.9606C82.8778 64.5862 84.0231 63.1888 85.2258 61.8488C86.4856 60.4514 88.1464 60.7263 89.7155 60.9898C90.5287 61.1272 91.0212 61.8717 90.7349 62.6963C90.46 63.4752 90.082 64.3914 89.4521 64.8152C87.7455 65.9835 86.7949 67.8161 85.283 69.1332C84.3209 69.9693 84.3209 71.4926 85.1341 72.6609C85.8557 73.7032 86.7147 74.6653 87.379 75.7419C87.883 76.5551 88.1693 77.4828 88.5931 78.4564Z" fill="white"/>
<path d="M250.465 68.8926C252.218 68.8926 253.753 68.8468 255.287 68.904C256.135 68.9384 256.971 69.1102 257.807 69.2591C259.078 69.4882 259.72 70.3243 259.892 71.5727C259.995 72.3172 260.201 73.0502 260.178 73.7947C260.121 75.4898 259.731 77.0131 258.059 77.9981C256.559 78.8686 255.07 79.6245 253.294 79.6016C250.42 79.5673 247.545 79.6245 244.681 79.4756C243.284 79.4069 242.918 78.8915 243.021 77.4598C243.124 75.9823 243.456 74.5163 243.674 73.0388C243.971 71.0573 244.2 69.0529 244.578 67.0829C244.911 65.3764 245.311 63.6583 245.873 62.0205C246.285 60.8293 247.522 60.3483 248.759 60.6002C249.824 60.8064 250.339 61.5623 250.351 63.0284C250.362 64.2539 250.294 65.4794 250.294 66.705C250.317 67.312 250.397 67.9419 250.465 68.8926ZM249.778 73.6229C251.027 75.0202 253.1 74.8828 254.062 73.3824C252.619 72.7868 251.302 73.1189 249.778 73.6229Z" fill="white"/>
<path d="M141.737 42.6987C142.425 43.3744 142.986 43.9128 143.455 44.3709C144.498 42.6872 145.597 40.9578 146.662 39.2054C146.903 38.8045 146.983 38.3005 147.201 37.8768C147.464 37.3614 147.705 36.7887 148.117 36.4222C149.56 35.1394 150.648 35.2883 151.667 36.9261C152.057 37.5446 152.378 38.2776 152.446 38.9878C152.675 41.3243 152.801 43.6608 152.916 46.0088C152.962 46.8334 152.824 47.6352 151.828 47.9329C150.66 47.8299 150.66 46.6845 150.007 45.8713C148.541 45.837 146.926 45.1841 145.643 46.9365C145.242 47.4748 144.234 47.5664 143.41 47.8986C142.917 47.2686 142.47 46.696 142.012 46.1004C140.741 47.3946 139.344 48.4598 137.465 48.3109C135.793 48.1735 134.419 47.3832 133.525 45.8026C133.548 45.5964 133.548 45.3215 133.617 45.0696C134.018 43.5806 135.026 43.2141 136.182 44.2335C136.996 44.955 137.751 44.9665 138.805 44.5198C138.473 43.237 136.755 42.3551 137.797 40.6943C138.187 40.4194 138.702 40.0758 139.355 39.6177C137.729 38.7243 135.404 40.4767 134.441 37.8424C135.85 36.9032 136.973 35.5631 138.92 35.483C140.855 35.4028 142.127 36.5482 142.963 37.8768C143.753 39.1252 143.352 40.6714 142.31 41.8855C142.104 42.126 141.943 42.4009 141.737 42.6987Z" fill="white"/>
<path d="M165.102 38.2204C164.106 39.8582 164.335 41.5877 164.461 43.2714C164.564 44.6572 164.095 45.8026 163.316 46.822C162.995 47.2343 162.377 47.5779 161.861 47.6466C160.773 47.7955 159.651 47.7382 158.54 47.7841C158.219 47.7955 157.852 47.7382 157.6 47.8757C156.604 48.4598 155.745 48.036 154.886 47.5893C153.546 46.8792 153.03 45.5964 153.89 44.4053C155.138 42.6987 155.275 40.7745 155.459 38.816C155.63 36.9834 156.719 35.8724 158.528 35.4601C161.334 34.8072 163.43 35.7464 165.102 38.2204ZM158.104 44.2449C158.127 44.3709 158.15 44.5084 158.162 44.6343C159.181 44.6343 160.2 44.6343 161.208 44.6343C161.22 44.5542 161.231 44.474 161.243 44.3938C160.773 44.0731 160.292 43.7639 159.8 43.4317C159.215 43.7066 158.666 43.97 158.104 44.2449Z" fill="white"/>
</g>
<defs>
<clipPath id="clip0">
<path d="M0 0H275.675V95.4765H0V0Z" fill="white"/>
</clipPath>
</defs>
</svg>
