<svg width="235" height="235" viewBox="0 0 235 235" fill="none" xmlns="http://www.w3.org/2000/svg">
<path d="M234.887 235C156.601 235 78.2863 235 0 235C0 156.714 0 78.3991 0 0.112764C1.80422 0.0845729 3.58025 0 5.38448 0C60.3287 0 115.273 0 170.217 0C189.951 0 209.684 0 229.39 0C231.11 0 232.829 0.169146 235 0.28191C235 2.70633 235 4.65151 235 6.5685C235 78.4837 235 150.371 235 222.286C235 226.543 234.915 230.771 234.887 235ZM6.08925 229.108C8.4291 229.108 10.3461 229.108 12.2631 229.108C80.9081 229.108 149.553 229.108 218.198 229.108C220.651 229.108 223.103 229.164 225.528 229.08C226.599 229.052 227.642 228.713 228.967 228.46C228.967 226.233 228.967 224.287 228.967 222.342C228.967 162.183 228.967 101.995 228.967 41.8354C228.967 31.7149 228.967 21.6225 228.939 11.5019C228.939 9.78227 228.77 8.06262 228.657 6.45573C227.614 6.23021 227.163 6.03287 226.684 6.03287C154.176 6.00468 81.6129 5.97649 9.0493 5.97649C8.40091 5.97649 7.75252 6.11744 7.13232 6.20202C6.99136 6.23021 6.82222 6.31478 6.70945 6.39935C6.5685 6.51212 6.45573 6.62488 6.08925 7.01955C6.08925 80.5698 6.08925 154.374 6.08925 229.108Z" fill="white"/>
<path d="M78.9067 200.917C57.7353 200.917 36.2256 200.917 14.4058 200.917C14.6031 188.71 14.4903 176.447 14.5185 164.156C14.5467 151.921 14.5185 139.686 14.5185 127.451C14.5185 115.047 14.5185 102.672 14.5185 90.2675C14.5185 78.089 14.5185 65.9105 14.5185 53.7884C17.535 53.7884 20.4386 53.7884 23.3141 53.7884C41.9202 53.7884 60.498 53.8448 79.104 53.732C82.8253 53.7038 85.7289 54.7469 88.2379 57.425C90.5778 59.9058 92.9458 62.3021 94.4963 65.4595C96.7516 70.0546 96.2724 74.2268 93.6506 78.3991C90.8033 82.9379 86.6874 86.1516 82.3742 89.0835C76.4259 93.0866 70.2803 96.7514 64.2756 100.67C57.3124 105.209 50.3493 109.719 44.9648 116.203C40.2005 121.926 39.8058 128.974 44.0627 135.119C46.9945 139.348 50.9977 142.449 55.3109 145.127C63.3171 150.117 71.5489 154.769 79.5269 159.843C84.4321 162.972 89.1682 166.383 92.7203 171.288C96.7798 176.842 96.1314 184.2 92.2692 189.021C88.6044 193.531 84.5449 197.844 78.9067 200.917Z" fill="white"/>
<path d="M219.805 69.2373C220.679 73.184 220.707 181.212 219.777 185.638C216.535 186.624 213.067 186.314 209.769 186.004C193.813 184.482 178.759 180.225 165.34 171.091C155.248 164.213 147.439 155.389 142.928 144.028C138.107 131.906 138.756 119.84 144.14 107.972C149.75 95.5676 159.166 86.772 170.724 80.2035C184.594 72.3383 199.62 68.5043 215.576 68.5607C216.704 68.5607 217.86 68.6734 218.987 68.7862C219.269 68.8144 219.523 69.0963 219.805 69.2373Z" fill="white"/>
<path d="M108.451 53.7881C145.635 53.7881 181.86 53.7881 218.114 53.7881C218.142 54.1264 218.142 54.4647 218.17 54.803C216.732 54.8312 215.266 54.9157 213.829 54.8875C200.466 54.6902 187.724 57.6221 175.404 62.5555C161.901 67.9681 150.145 76.059 140.701 87.1098C134.076 94.8623 129.453 103.883 127.423 113.948C125.422 123.786 125.506 133.625 128.1 143.407C130.214 151.413 134.048 158.518 139.038 165.03C147.834 176.532 159.11 184.566 172.219 190.712C182.903 195.758 194.151 197.703 205.484 199.564C209.6 200.24 213.913 199.676 218.114 199.874C214.449 200.945 111.072 201.03 105.998 200.071C106.787 198.351 108.169 197.365 109.466 196.237C113.525 192.657 117.246 188.851 118.825 183.41C120.122 179.012 119.671 174.812 116.739 171.429C114.004 168.272 110.847 165.283 107.379 162.972C97.6536 156.516 87.6176 150.483 77.8071 144.197C74.537 142.11 71.7179 139.545 69.1525 136.5C63.6834 129.932 64.5292 120.995 70.0264 114.624C73.663 110.424 78.0044 107.041 82.656 103.996C91.4515 98.2171 100.896 93.3682 109.015 86.5742C111.242 84.6854 113.469 82.7966 115.555 80.7387C121.926 74.4521 120.094 63.4294 113.525 58.8061C112.454 58.0731 111.495 57.171 110.565 56.2971C110.001 55.7615 109.55 55.1131 108.451 53.7881Z" fill="white"/>
<path d="M87.8996 205.569C89.2246 205.653 90.324 205.71 91.5926 205.794C91.79 206.725 92.1001 207.486 92.1283 208.247C92.5229 217.127 92.4102 217.973 90.5778 220.284C88.3789 219.326 89.14 217.324 89.0273 215.689C88.9145 213.913 88.9991 212.165 88.9991 209.544C86.0954 213.688 83.6992 217.071 81.162 220.707C77.187 217.832 75.8903 213.378 72.7047 209.995C72.5355 213.603 72.3946 216.789 72.2536 219.777C69.7728 220.566 69.4345 219.298 69.4063 217.888C69.35 213.829 69.3781 209.797 69.3781 205.343C71.0978 205.456 72.451 205.569 74.0015 205.653C76.2004 209.149 78.3429 212.532 80.8519 216.535C82.1205 214.223 83.0508 212.363 84.1784 210.643C85.2215 209.036 86.4619 207.514 87.8996 205.569Z" fill="white"/>
<path d="M15.8997 29.4597C15.8997 24.1034 15.8997 19.5082 15.8997 14.9413C22.3554 14.011 27.6553 14.3775 31.01 16.0126C31.4611 18.9726 32.0813 22.1018 32.335 25.2874C32.5041 27.5709 30.9255 29.2905 28.4728 29.4315C24.4415 29.6006 20.4102 29.4597 15.8997 29.4597ZM19.0852 20.2412C22.2426 20.4385 25.2027 20.946 28.1627 19.7902C26.8941 16.6328 26.8941 16.6328 19.0852 17.8168C19.0852 18.4934 19.0852 19.2263 19.0852 20.2412ZM19.0289 25.964C21.9043 26.7533 24.808 26.556 27.6553 26.1331C28.2191 26.0486 28.642 25.1746 29.4595 24.3007C25.5974 23.2576 22.3272 23.314 19.0289 24.1316C19.0289 24.8363 19.0289 25.2874 19.0289 25.964Z" fill="white"/>
<path d="M219.918 46.7404C214.477 48.5728 209.374 49.1084 204.018 46.3175C203.229 42.0889 202.721 38.0012 204.582 34.1672C208.275 31.9119 212.053 32.222 215.774 32.5603C218.931 32.8422 219.664 33.7725 220.792 37.6065C218.367 39.3544 217.606 36.3661 215.238 35.7177C213.011 35.5486 209.938 34.7874 206.978 36.8172C206.978 39.298 206.978 41.807 206.978 44.175C211.348 45.3309 212.842 45.3309 216.789 44.316C216.084 40.8767 211.601 44.5979 210.728 40.9612C213.716 38.9597 217.099 40.7639 219.918 39.5517C222.032 42.0889 220.594 44.1468 219.918 46.7404Z" fill="white"/>
<path d="M17.5068 33.9416C22.4403 31.7427 27.5428 31.7427 32.6172 33.6315C34.7315 37.4373 34.9571 40.4819 33.6039 46.3456C28.4731 49.2211 23.0887 48.5727 17.8169 46.9658C15.0542 41.5814 14.9979 39.7489 17.5068 33.9416ZM30.9539 36.7325C27.1764 35.0411 23.6807 35.0129 20.185 36.2815C19.2829 40.8766 19.2829 40.8766 20.4669 44.7387C23.878 45.0207 27.3737 45.6972 30.9539 44.0622C30.9539 41.5814 30.9539 39.2133 30.9539 36.7325Z" fill="white"/>
<path d="M217.381 220.144C212.165 220.144 207.317 220.144 202.524 220.144C201.312 216.789 201.143 211.376 202.186 205.738C207.176 205.287 212.306 205.343 217.691 205.738C220.143 210.53 220.143 215.041 217.381 220.144ZM204.949 216.704C208.501 217.719 212.024 217.663 215.633 216.62C216.366 213.885 216.845 211.404 215.154 208.98C211.799 208.388 208.501 208.331 204.949 208.923C204.949 211.63 204.949 214.026 204.949 216.704Z" fill="white"/>
<path d="M167.595 220.228C167.595 215.097 167.595 210.756 167.595 205.907C172.219 205.174 176.673 205.259 181.127 205.851C181.493 205.907 181.747 206.781 182.198 207.486C178.815 209.966 174.389 207.147 170.724 210.079C174.502 212.56 178.392 210.361 181.522 211.996C181.86 214.026 180.507 214.336 179.21 214.421C176.504 214.59 173.769 214.59 171.063 214.646C171.006 216.789 172.078 217.268 173.544 217.296C175.489 217.324 177.462 217.212 179.379 217.409C180.309 217.493 181.211 218.114 182.706 218.734C181.578 219.551 181.099 220.2 180.619 220.228C176.419 220.284 172.247 220.228 167.595 220.228Z" fill="white"/>
<path d="M105.096 48.4322C104.335 46.5434 103.743 45.1056 103.094 43.4988C100.191 41.6663 97.0052 42.6812 93.8478 42.653C93.2276 44.6264 92.7483 46.2333 92.0717 48.404C91.1414 47.5864 90.183 47.1636 90.1548 46.6561C89.7037 42.1456 89.7883 37.6632 90.042 32.9835C94.5807 32.025 98.7812 32.2787 102.925 32.6734C105.068 32.8707 105.632 33.6883 107.408 36.9866C107.098 38.3398 106.703 39.8903 106.308 41.5536C106.534 43.6115 108.986 45.895 105.096 48.4322ZM93.7068 35.8308C92.8893 37.4377 92.7201 38.7345 94.327 40.0313C97.1743 39.6648 100.275 40.7078 103.489 39.101C103.348 38.0579 103.207 37.043 103.01 35.8308C99.6833 35.8308 96.6669 35.8308 93.7068 35.8308Z" fill="white"/>
<path d="M128.748 45.2184C125.872 45.2184 123.279 45.2184 120.657 45.2184C119.219 46.1487 117.81 47.0508 116.203 48.0939C115.893 45.1338 117.528 41.1871 121.362 35.1542C122.32 33.6601 122.32 33.6601 125.647 32.4761C128.41 35.4925 129.763 39.552 131.68 43.1886C132.328 44.4009 132.554 45.8668 132.892 47.22C132.92 47.3327 132.441 47.6146 131.849 48.0657C130.919 47.22 129.932 46.3178 128.748 45.2184Z" fill="white"/>
<path d="M179.746 36.8177C178.59 40.5671 180.394 44.3165 178.449 47.5866C178.336 47.784 177.857 47.7558 177.575 47.8403C175.799 45.1904 175.574 37.5506 177.181 32.9555C179.323 32.3071 180.817 33.4911 182.199 34.9007C185.018 37.8044 187.837 40.7362 191.332 44.3729C191.586 39.8905 191.783 36.3384 192.037 31.7715C193.447 33.181 194.518 33.7449 194.574 34.3932C194.969 38.7347 194.941 43.0761 194.603 47.2201C192.263 48.6015 190.825 47.643 189.5 46.318C187.076 43.9218 184.679 41.4692 182.255 39.0729C181.466 38.3682 180.648 37.6634 179.746 36.8177Z" fill="white"/>
<path d="M66.5871 32.9273C74.8471 31.8842 77.9199 32.1379 80.4853 34.1677C77.4407 37.015 73.5785 34.6187 70.0546 36.0283C69.97 36.7049 69.8855 37.5506 69.7163 38.7628C73.3248 38.9601 76.6231 39.1575 79.9497 39.3266C80.0342 39.6085 80.1188 39.9186 80.2316 40.2005C79.6396 40.708 79.0475 41.5819 78.4273 41.6101C75.721 41.7792 72.9865 41.6665 69.9982 41.6665C69.9982 42.7659 69.9982 43.6398 69.9982 44.5138C73.5785 45.8106 77.497 44.0063 81.0491 46.0361C78.4555 48.4323 75.8056 48.7142 66.9254 47.6994C65.9387 42.9351 66.4744 38.0298 66.5871 32.9273Z" fill="white"/>
<path d="M161.252 26.2743C162.211 25.2594 163.057 24.3573 164.494 22.835C164.889 24.5546 165.566 25.795 165.199 26.4152C164.522 27.571 163.338 29.0652 162.211 29.2061C158.236 29.7418 154.148 30.3056 150.483 28.3886C148.059 23.7653 148.031 21.3408 150.314 15.7308C155.671 13.3628 157.475 13.3064 164.466 15.4207C165.566 17.0558 166.158 18.7191 164.156 20.7206C163.479 20.1004 162.916 19.6494 162.436 19.1138C162.013 18.6345 161.732 18.0707 161.421 17.5633C158.574 16.7457 155.642 15.9846 153.331 17.7888C150.793 19.7621 151.893 22.7786 152.372 25.5977C155.36 27.0918 158.405 26.4434 161.252 26.2743Z" fill="white"/>
<path d="M88.2377 25.8229C91.7616 27.3452 95.3136 25.09 98.2455 28.05C97.3998 28.642 96.8359 29.2904 96.1594 29.4314C92.5791 30.108 84.7138 29.4878 82.0921 28.3037C83.699 23.5113 89.4217 22.5528 91.5361 18.0704C89.0834 15.4205 85.0239 18.747 81.782 15.7869C82.6841 15.3077 83.0788 14.9412 83.5298 14.8848C88.3505 14.4056 93.1711 14.4056 98.1609 14.8848C98.2173 18.155 95.6519 19.0007 93.9041 20.523C92.0999 22.1299 90.3802 23.8214 88.2377 25.8229Z" fill="white"/>
<path d="M46.7125 42.4556C44.4009 44.429 46.1769 47.3327 43.3296 47.9529C42.9631 47.6146 42.3711 47.3327 42.3147 46.9944C41.7227 42.4838 41.9201 38.0015 42.2302 33.209C46.487 31.9968 50.5183 32.1941 54.4651 32.8707C57.5097 33.4063 59.0038 35.7744 58.6655 38.5089C58.3554 41.0179 56.6921 42.3147 53.422 42.4275C50.9976 42.512 48.5731 42.4556 46.7125 42.4556ZM55.6209 36.5355C51.9279 35.0132 48.7705 35.577 45.162 35.8871C45.3876 37.3813 45.5849 38.5371 45.754 39.7493C48.8832 39.7493 51.5896 39.7493 54.4369 39.7493C54.8315 38.7062 55.1416 37.8323 55.6209 36.5355Z" fill="white"/>
<path d="M197.027 29.3185C196.773 27.0069 196.604 25.2872 196.435 23.7367C193.024 23.7367 189.838 23.7367 186.54 23.7367C186.117 25.7383 185.779 27.4297 185.356 29.5441C184.425 29.0648 183.241 28.7829 183.241 28.4728C183.185 23.9622 183.298 19.4799 183.439 14.9693C183.439 14.8002 183.946 14.631 184.425 14.3491C186.934 15.3922 185.412 18.0703 186.624 20.1001C189.5 20.1001 192.657 20.1001 196.153 20.1001C196.435 18.6623 196.745 17.1118 197.111 15.2512C197.816 15.0821 198.662 14.8847 199.62 14.6592C199.62 19.5926 199.62 24.1878 199.62 29.0084C198.69 29.1212 198.098 29.1776 197.027 29.3185Z" fill="white"/>
<path d="M131.426 29.5439C130.017 28.5573 128.72 27.6833 127.085 26.5839C125.985 26.5839 124.52 26.5839 123.082 26.5839C121.785 26.5839 120.488 26.5839 119.473 26.5839C118.12 27.7397 117.049 28.6418 116.062 29.4876C113.976 28.6418 114.54 27.3732 115.16 26.2174C117.134 22.4962 119.191 18.8314 121.362 14.8564C122.603 14.8564 124.012 14.8564 125.281 14.8564C129.509 20.7766 131.934 26.3584 131.426 29.5439ZM120.263 23.1728C122.772 23.4547 124.435 23.8776 126.408 22.4116C125.478 20.8611 124.604 19.4234 123.392 17.3936C122.236 19.508 121.419 20.9739 120.263 23.1728Z" fill="white"/>
<path d="M64.8112 29.0086C60.5262 29.8825 56.3539 29.7134 52.1816 29.3469C50.3774 29.1777 49.1652 27.8528 49.0806 26.0767C48.9115 22.4119 48.404 18.6907 49.6444 14.4902C50.6029 15.1668 51.6742 15.5333 51.8151 16.0971C52.1252 17.5067 52.0125 19.0008 52.0689 20.4385C52.1534 22.1864 52.238 23.9342 52.3226 25.7102C55.7055 26.9225 58.7219 26.5278 62.3304 26.1613C62.415 24.1034 62.4431 22.0454 62.6405 20.0157C62.8096 18.1551 61.7948 15.8152 64.3883 14.6312C66.0516 17.704 66.2489 23.4268 64.8112 29.0086Z" fill="white"/>
<path d="M149.948 207.965C147.862 208.36 146.311 208.642 144.592 208.98C142.646 212.391 145.071 216.591 143.097 220.087C139.827 219.185 139.827 219.185 140.137 209.487C138.671 207.627 135.373 209.713 134.217 206.471C135.035 206.133 135.824 205.541 136.642 205.541C140.814 205.625 144.986 205.851 149.159 206.104C149.328 206.104 149.497 206.865 149.948 207.965Z" fill="white"/>
<path d="M156.77 34.9005C154.712 35.2952 153.021 35.6335 151.244 35.9999C149.807 39.8339 151.893 44.0907 150.004 47.6992C148.087 48.0375 147.692 46.9944 147.664 45.754C147.608 42.6812 147.636 39.5802 147.636 36.0845C145.381 35.859 143.52 35.6898 141.208 35.4643C141.547 34.5058 141.716 33.1526 142.111 33.0963C146.734 32.2505 151.414 31.8277 156.009 33.35C156.178 33.4064 156.262 33.8574 156.77 34.9005Z" fill="white"/>
<path d="M14.9975 205.625C16.2379 205.794 16.9709 205.879 17.873 205.991C18.0703 209.684 18.2395 213.18 18.4086 216.309C21.8761 218.762 26.3021 215.464 29.1494 219.044C26.2739 220.679 22.2708 220.933 15.4768 219.861C14.0108 215.351 14.772 210.643 14.9975 205.625Z" fill="white"/>
<path d="M166.383 48.0657C165.65 47.5019 164.974 47.22 164.974 46.9099C164.861 42.5967 164.663 38.2835 164.833 33.9984C164.889 32.8144 166.158 32.2224 167.398 33.2091C167.398 37.6915 167.426 42.1456 167.37 46.5998C167.37 46.9663 166.891 47.3328 166.383 48.0657Z" fill="white"/>
<path d="M48.6296 220.284C46.2616 219.495 46.7972 217.606 46.9382 216.168C47.2483 212.503 45.8387 208.585 48.4041 204.3C51.054 208.416 49.6445 212.193 49.9828 215.661C50.1237 217.268 50.5748 219.241 48.6296 220.284Z" fill="white"/>
<path d="M113.807 205.033C115.668 207.542 115.921 209.685 115.499 217.127C115.414 218.368 115.696 219.805 113.666 220.2C111.439 218.847 112.313 216.507 112.426 214.646C112.623 211.489 111.214 208.021 113.807 205.033Z" fill="white"/>
<path d="M220.171 14.3774C220.171 19.5082 220.171 24.2443 220.171 28.8676C218.113 29.4878 217.521 28.4166 217.465 27.2607C217.324 23.7087 217.324 20.1284 217.38 16.5763C217.38 15.4487 217.55 15.4487 220.171 14.3774Z" fill="white"/>
</svg>
