<svg width="429" height="96" viewBox="0 0 429 96" fill="none" xmlns="http://www.w3.org/2000/svg">
<g clip-path="url(#clip0)">
<path d="M0.818413 47.6695C0.818413 35.483 0.84132 23.285 0.795506 11.0985C0.784052 7.90293 1.80341 5.1999 4.07121 2.97791C6.01831 1.07663 8.40064 0.125989 11.1266 0.022907C11.6305 0 12.1345 0.0114535 12.6499 0.0114535C34.8812 0.0114535 57.1239 0.0114535 79.3666 0C82.5393 0 85.2995 0.973549 87.4986 3.26425C89.3655 5.21135 90.4307 7.55932 90.4651 10.3082C90.4765 12.0835 90.4765 13.8588 90.4765 15.6455C90.4765 38.4609 90.4651 61.2878 90.4995 84.1032C90.4995 86.8177 89.8924 89.2687 88.2087 91.4105C86.2044 93.9532 83.5243 95.2131 80.3287 95.4651C80.1455 95.4765 79.9622 95.4765 79.7904 95.4765C57.0437 95.4765 34.297 95.488 11.5504 95.4651C7.90814 95.4651 4.95313 93.9647 2.78842 90.9982C1.31091 88.9938 0.795506 86.7146 0.795506 84.2406C0.829866 72.0541 0.818413 59.8561 0.818413 47.6695ZM31.0786 45.2185C26.6346 47.3603 22.4083 49.3647 18.2163 51.4377C14.0587 53.4994 9.82088 55.4121 5.70906 57.5768C5.73197 57.7028 5.76633 57.8174 5.78924 57.9433C8.0914 57.9433 10.3821 57.9433 12.6843 57.9433C15.0437 57.9433 17.4031 57.9433 19.7625 57.9433C22.0876 57.9433 24.4012 57.9433 26.7263 57.9433C29.0628 57.9433 31.3993 57.9548 33.9076 57.9663C33.6671 59.1345 33.4724 60.0852 33.2662 61.0243C31.468 68.9731 29.6698 76.9333 27.8716 84.882C27.8029 85.1569 27.8029 85.4547 27.78 85.741C27.8602 85.7639 27.9518 85.7983 28.032 85.8212C33.9191 78.5024 39.6573 71.0691 45.6589 63.6357C51.6262 71.1722 57.4331 78.5139 63.2515 85.8556C63.3661 85.8098 63.4806 85.7525 63.5951 85.7067C61.5564 76.4866 59.4031 67.3009 57.3873 58.1266C57.5362 58.0235 57.5706 57.9777 57.5935 57.9777C66.6647 57.9663 75.7359 57.9433 84.807 57.9319C84.9101 57.9319 85.0247 57.9319 85.1277 57.9204C85.1965 57.9204 85.2766 57.8975 85.3454 57.8861C85.3797 57.8746 85.4141 57.8517 85.437 57.8288C85.4599 57.8059 85.4828 57.7715 85.4943 57.7486C85.5057 57.7143 85.5057 57.6799 85.5286 57.4967C77.179 53.4421 68.7836 49.3647 60.2164 45.207C66.1607 37.6821 72.002 30.2946 77.8433 22.907C77.7631 22.8154 77.6944 22.7238 77.6142 22.6322C69.1615 26.7325 60.7089 30.8214 52.1302 34.979C50.0113 25.6444 47.9267 16.4587 45.8422 7.27298C45.7047 7.27298 45.5788 7.27298 45.4413 7.27298C43.3568 16.4587 41.2722 25.633 39.1648 34.8874C38.7868 34.75 38.5463 34.6813 38.3287 34.5782C36.8855 33.891 35.4424 33.2152 34.0107 32.5165C27.5853 29.3897 21.1599 26.2629 14.7344 23.1361C14.3679 22.9643 13.9785 22.8498 13.6005 22.7123C13.5547 22.7925 13.4975 22.8612 13.4516 22.9414C19.2929 30.306 25.1228 37.6821 31.0786 45.2185Z" fill="white"/>
<path d="M155.968 57.9434C156.197 57.4853 156.357 57.176 156.495 56.8553C160.767 47.1771 165.05 37.4989 169.277 27.7978C169.689 26.8586 170.17 26.5035 171.201 26.5264C173.881 26.5951 176.573 26.5493 179.253 26.5493C179.676 26.5493 180.1 26.6066 180.558 26.641C180.558 40.7288 180.558 54.7135 180.558 68.767C177.454 68.767 174.431 68.767 171.293 68.767C171.293 60.7954 171.293 52.8695 171.293 44.9437C171.235 44.9322 171.167 44.9208 171.109 44.9093C170.823 45.5622 170.525 46.2036 170.25 46.8564C167.261 53.8202 164.272 60.7725 161.328 67.7476C160.973 68.5838 160.549 68.8815 159.644 68.8586C157.147 68.8014 154.639 68.7899 152.131 68.8586C151.18 68.8815 150.745 68.5494 150.378 67.6904C147.274 60.5434 144.125 53.4193 140.987 46.2952C140.838 45.963 140.689 45.6424 140.334 45.3331C140.334 53.1215 140.334 60.8984 140.334 68.767C137.035 68.767 133.897 68.767 130.678 68.767C130.655 68.3318 130.61 67.9424 130.61 67.5529C130.61 54.3127 130.61 41.0724 130.61 27.8207C130.61 26.5608 130.621 26.5608 131.881 26.5493C134.859 26.5493 137.837 26.5722 140.803 26.5264C141.605 26.515 142.029 26.767 142.361 27.5229C146.69 37.2584 151.054 46.9824 155.406 56.695C155.555 57.073 155.727 57.4166 155.968 57.9434Z" fill="white"/>
<path d="M375.658 38.4381C372.473 38.4381 369.358 38.4381 366.128 38.4381C366.128 37.3844 366.128 36.3879 366.128 35.4373C365.212 35.1166 346.84 35.0593 345.569 35.3342C345.569 37.9112 345.569 40.5112 345.569 43.2256C346.039 43.2486 346.497 43.2944 346.955 43.2944C354.033 43.2944 361.1 43.2829 368.178 43.3058C369.083 43.3058 369.999 43.3631 370.87 43.5693C373.733 44.2565 375.692 46.6388 375.749 49.6282C375.829 54.0492 375.829 58.4817 375.749 62.9028C375.68 66.5908 373.287 68.8128 369.427 68.9388C367.972 68.9846 366.529 68.9503 365.074 68.9503C357.641 68.9503 350.196 68.9617 342.763 68.9388C341.938 68.9388 341.091 68.8701 340.278 68.7326C337.872 68.3318 336.212 66.6137 335.742 64.071C335.65 63.6129 335.65 63.1319 335.65 62.6623C335.639 60.8641 335.65 59.0544 335.65 57.1875C338.949 57.1875 342.133 57.1875 345.443 57.1875C345.443 58.1839 345.443 59.1804 345.443 60.2685C352.373 60.2685 359.164 60.2685 366.025 60.2685C366.025 57.4624 366.025 54.6906 366.025 51.7814C365.567 51.7814 365.143 51.7814 364.719 51.7814C357.286 51.7814 349.841 51.7814 342.408 51.7814C340.873 51.7814 339.464 51.4035 338.227 50.4872C336.738 49.3876 335.902 47.8758 335.879 46.0318C335.834 41.6107 335.834 37.1782 335.879 32.7571C335.914 29.6418 338.365 27.0075 341.469 26.6524C342.19 26.5722 342.912 26.5264 343.633 26.5264C351.903 26.515 360.184 26.515 368.453 26.5264C368.82 26.5264 369.175 26.5264 369.541 26.5493C373 26.7898 375.142 28.5193 375.612 31.9325C375.898 34.0514 375.658 36.2161 375.658 38.4381Z" fill="white"/>
<path d="M287.339 26.5607C287.843 26.5607 288.233 26.5607 288.622 26.5607C299.079 26.5607 309.525 26.5493 319.982 26.5722C320.921 26.5722 321.883 26.618 322.799 26.8127C325.858 27.4656 327.759 29.7104 327.828 33.0549C327.931 38.0944 327.919 43.1454 327.828 48.185C327.782 50.4986 326.384 52.0677 324.38 53.0985C322.971 53.8316 321.425 54.0721 319.867 54.1637C319.512 54.1866 319.146 54.1637 318.539 54.1637C321.78 59.0773 324.918 63.8305 328.16 68.7326C327.69 68.7899 327.392 68.8471 327.095 68.8471C324.151 68.8586 321.219 68.8242 318.275 68.87C317.554 68.8815 317.164 68.5951 316.798 68.0225C314.106 63.7961 311.38 59.6041 308.7 55.3778C308.276 54.7135 307.818 54.4615 307.039 54.473C304.142 54.5188 301.232 54.4844 298.335 54.4959C297.98 54.4959 297.625 54.5302 297.155 54.5531C297.155 59.3407 297.155 64.0366 297.155 68.7899C293.834 68.7899 290.627 68.7899 287.339 68.7899C287.339 54.7249 287.339 40.7402 287.339 26.5607ZM317.932 45.837C317.932 42.252 317.932 38.7702 317.932 35.2883C310.979 35.2883 304.119 35.2883 297.235 35.2883C297.235 38.8504 297.235 42.3208 297.235 45.837C304.153 45.837 310.991 45.837 317.932 45.837Z" fill="white"/>
<path d="M275.13 43.4202C275.13 46.2721 275.13 48.9408 275.13 51.7354C266.528 51.7354 257.984 51.7354 249.279 51.7354C249.176 54.6103 249.234 57.3706 249.234 60.2569C259.393 60.2569 269.426 60.2569 279.563 60.2569C279.563 63.1546 279.563 65.9263 279.563 68.7783C266.219 68.7783 252.922 68.7783 239.532 68.7783C239.532 54.7592 239.532 40.7744 239.532 26.7897C240.3 26.5033 277.982 26.4117 279.471 26.7095C279.471 29.4698 279.471 32.2416 279.471 35.1737C269.426 35.1737 259.404 35.1737 249.302 35.1737C249.302 37.9912 249.302 40.6599 249.302 43.4202C257.915 43.4202 266.471 43.4202 275.13 43.4202Z" fill="white"/>
<path d="M235.18 68.7783C234.802 68.8127 234.527 68.8585 234.252 68.8585C231.309 68.8585 228.377 68.8356 225.433 68.8814C224.677 68.8929 224.357 68.5836 224.082 67.9422C223.131 65.7088 222.1 63.5097 221.138 61.2763C220.909 60.7494 220.646 60.4974 220.027 60.4974C213.167 60.5204 206.317 60.5204 199.457 60.5204C199.354 60.5204 199.239 60.5433 199.01 60.5662C198.735 61.1961 198.426 61.8833 198.14 62.582C197.372 64.4146 196.593 66.2586 195.837 68.1026C195.643 68.5836 195.402 68.87 194.818 68.87C191.588 68.8471 188.358 68.8585 185.128 68.8471C185.025 68.8471 184.922 68.8012 184.705 68.744C184.808 68.4347 184.876 68.1255 185.002 67.8506C190.924 54.3813 196.857 40.9234 202.767 27.454C203.065 26.7783 203.431 26.5378 204.153 26.5492C207.967 26.5721 211.769 26.5836 215.583 26.5492C216.316 26.5378 216.683 26.7897 216.969 27.454C222.925 40.9463 228.915 54.4271 234.882 67.9079C234.997 68.1599 235.066 68.4233 235.18 68.7783ZM202.4 52.3196C207.463 52.3196 212.365 52.3196 217.381 52.3196C214.85 46.4554 212.365 40.7172 209.788 34.7499C207.268 40.7516 204.863 46.4783 202.4 52.3196Z" fill="white"/>
<path d="M395.071 50.2121C395.071 56.4199 395.071 62.6277 395.071 68.9043C391.658 68.9043 388.405 68.9043 385.061 68.9043C385.061 54.8164 385.061 40.7744 385.061 26.6408C385.428 26.6064 385.748 26.5606 386.057 26.5606C388.669 26.5492 391.28 26.5492 393.892 26.5606C395.071 26.5606 395.083 26.5721 395.083 27.7976C395.083 32.4821 395.083 37.1551 395.083 41.8396C395.083 42.2405 395.083 42.6299 395.083 43.3286C395.633 42.859 395.999 42.5612 396.343 42.2405C401.886 37.2925 407.441 32.3446 412.973 27.3738C413.603 26.8011 414.233 26.5262 415.104 26.5377C418.7 26.5835 422.285 26.5492 425.881 26.5606C426.271 26.5606 426.649 26.595 427.038 26.6179C427.073 26.698 427.118 26.7782 427.153 26.8584C419.777 33.3067 412.389 39.7551 404.91 46.2836C412.641 53.7742 420.338 61.2189 428.035 68.6637C428.012 68.7439 427.977 68.8241 427.954 68.9043C427.576 68.9272 427.21 68.9615 426.832 68.9615C423.018 68.9615 419.215 68.9501 415.401 68.9844C414.611 68.9959 414.05 68.7668 413.489 68.2056C407.728 62.4216 401.932 56.6719 396.159 50.9108C395.885 50.6359 395.598 50.3839 395.312 50.1319C395.22 50.1548 395.14 50.1892 395.071 50.2121Z" fill="white"/>
</g>
<defs>
<clipPath id="clip0">
<path d="M0.79541 0H428.023V95.4765H0.79541V0Z" fill="white"/>
</clipPath>
</defs>
</svg>
