<svg width="152" height="31" viewBox="0 0 152 31" fill="none" xmlns="http://www.w3.org/2000/svg">
<g clip-path="url(#clip0)">
<path d="M127.484 3.28044C127.581 3.27601 127.673 3.26273 127.766 3.26273C129.322 3.26273 130.878 3.26715 132.434 3.2583C132.658 3.2583 132.791 3.33798 132.918 3.51063C135.043 6.36598 137.172 9.22133 139.301 12.0723C139.371 12.1696 139.446 12.2626 139.543 12.3821C139.649 12.2449 139.741 12.1298 139.83 12.0147C141.628 9.63746 143.426 7.26021 145.229 4.88297C145.586 4.41372 145.938 3.94447 146.291 3.47079C146.384 3.34241 146.485 3.2583 146.657 3.2583C148.279 3.26273 149.901 3.26273 151.523 3.26273C151.558 3.26273 151.593 3.27601 151.651 3.28486C151.651 11.24 151.651 19.1907 151.651 27.168C149.672 27.168 147.684 27.168 145.656 27.168C145.656 22.3471 145.656 17.5218 145.656 12.6964C145.626 12.6787 145.599 12.661 145.568 12.6433C145.537 12.7009 145.511 12.7584 145.476 12.8115C143.704 15.2463 141.932 17.6767 140.165 20.1115C140.05 20.2709 139.922 20.3196 139.728 20.3417C139.274 20.3992 139.019 20.2089 138.754 19.8415C137.066 17.4863 135.351 15.1534 133.641 12.8115C133.606 12.7628 133.562 12.7186 133.474 12.6876C133.474 17.5129 133.474 22.3426 133.474 27.1812C131.46 27.1812 129.476 27.1812 127.484 27.1812C127.484 19.204 127.484 11.2533 127.484 3.28044Z" fill="black"/>
<path d="M100.202 16.765C99.9328 16.765 99.686 16.765 99.3995 16.765C99.3642 16.4596 99.3069 16.1497 99.2893 15.8354C99.2188 14.5206 99.4039 13.2368 99.8667 12.0061C100.775 9.58018 102.322 7.67662 104.565 6.38397C105.795 5.67124 107.135 5.25953 108.55 5.09131C110.15 4.90538 111.71 5.06032 113.239 5.55614C114.592 5.9944 115.813 6.68499 116.876 7.6412C116.915 7.67662 116.968 7.70318 117.039 7.74745C116.748 8.05733 116.492 8.32737 116.219 8.61955C116.281 8.69038 116.333 8.76563 116.395 8.82761C118.163 10.5497 119.348 12.6038 119.855 15.0297C120.569 18.4517 119.956 21.6346 118.004 24.5342C116.682 26.4953 114.914 27.9429 112.768 28.9213C111.556 29.4746 110.286 29.8111 108.96 29.966C107.196 30.1697 105.464 30.0324 103.763 29.5278C102.013 29.0054 100.475 28.0935 99.0998 26.8893C99.0204 26.8229 98.9455 26.7565 98.8662 26.6901C98.8441 26.6724 98.8177 26.6636 98.7824 26.6459C98.4034 27.031 98.0287 27.4161 97.6188 27.8323C97.2265 27.4161 96.8431 27.0354 96.4861 26.6326C94.7583 24.6626 93.5859 22.4049 92.9908 19.8462C92.5677 18.0223 92.4796 16.1807 92.722 14.3214C93.1451 11.0632 94.485 8.23441 96.6756 5.80847C98.2315 4.08641 100.087 2.77162 102.216 1.85525C103.794 1.17794 105.433 0.757381 107.144 0.60244C110.396 0.310265 113.46 0.934457 116.329 2.51043C116.386 2.54142 116.444 2.57241 116.496 2.60782C116.51 2.61668 116.519 2.63881 116.549 2.67865C116.461 2.77605 116.373 2.87786 116.281 2.97968C116.188 3.0815 116.095 3.18775 115.99 3.30285C115.818 3.22759 115.65 3.15233 115.483 3.0815C113.623 2.29794 111.679 1.94379 109.669 2.08102C105.865 2.34221 102.705 3.92704 100.285 6.91962C98.875 8.66382 97.9935 10.6648 97.6981 12.8959C97.2045 16.6411 98.2006 19.9568 100.651 22.8255C100.907 23.1221 101.193 23.3921 101.467 23.6754C101.493 23.702 101.528 23.7153 101.572 23.7462C101.938 23.3478 102.304 22.9538 102.674 22.5554C102.926 22.7591 103.097 22.9096 103.283 23.0512C104.918 24.2908 106.765 24.8618 108.801 24.7246C112.349 24.49 115.227 22.0685 116.069 18.8014C116.646 16.5703 116.307 14.4586 115.033 12.5462C113.601 10.3947 111.56 9.17291 108.986 8.98698C105.689 8.74793 103.111 10.0539 101.321 12.8561C100.594 13.9982 100.255 15.2776 100.206 16.6322C100.215 16.6544 100.206 16.6942 100.202 16.765Z" fill="black"/>
<path d="M16.325 20.55C15.7035 20.6651 15.1041 20.7492 14.5178 20.8908C12.2435 21.4531 10.2028 22.4668 8.51031 24.1225C7.66846 24.9503 7.00291 25.9021 6.63708 27.0442C6.61945 27.0973 6.59301 27.146 6.56216 27.208C4.69334 27.208 2.82453 27.208 0.907227 27.208C3.94846 19.2175 6.97647 11.2491 10.0133 3.26294C12.2347 3.26294 14.4473 3.26294 16.704 3.26294C19.9656 11.2092 23.2316 19.1776 26.5153 27.177C24.6112 27.177 22.7424 27.177 20.8339 27.177C18.3657 21.1565 15.8886 15.1182 13.4115 9.07545C13.3895 9.07103 13.3719 9.0666 13.3498 9.06217C12.0804 12.4089 10.8155 15.7512 9.52846 19.1422C9.62102 19.1201 9.6695 19.1112 9.71798 19.0935C10.9565 18.6154 12.2479 18.4118 13.5658 18.3675C14.0771 18.3498 14.5884 18.3764 15.0996 18.3764C15.3597 18.3764 15.5095 18.4693 15.6065 18.7438C15.8225 19.3503 16.0825 19.9391 16.325 20.55Z" fill="black"/>
<path d="M65.9722 8.19041C65.2052 7.96464 64.4736 7.73001 63.7243 7.53966C62.3403 7.18108 60.9343 6.97302 59.5018 7.004C58.4264 7.02614 57.3641 7.15895 56.3768 7.62377C56.0595 7.76986 55.7554 7.96464 55.4777 8.18156C54.5786 8.89871 54.7152 9.97888 55.3102 10.6606C55.7995 11.2184 56.4386 11.5549 57.1217 11.7806C58.2148 12.1481 59.3211 12.4712 60.4274 12.8032C61.7673 13.2017 63.1028 13.6001 64.3413 14.2685C65.3286 14.8042 66.2014 15.4727 66.8316 16.4289C67.3605 17.2257 67.647 18.1022 67.7352 19.0496C67.8498 20.2847 67.744 21.4977 67.3561 22.6796C66.7303 24.5788 65.4521 25.8803 63.6846 26.7347C62.3447 27.381 60.9211 27.7263 59.4445 27.8591C58.5718 27.9388 57.6991 28.0096 56.8264 28.0008C54.464 27.9742 52.1323 27.6953 49.858 27.0136C49.7963 26.9959 49.739 26.9693 49.6421 26.9339C49.8272 25.2384 50.0123 23.5429 50.2018 21.8341C50.6073 21.989 50.9864 22.1484 51.3698 22.2768C52.5995 22.6973 53.8645 22.9497 55.1604 23.0426C55.8391 23.0913 56.5179 23.1489 57.1967 23.1356C58.3691 23.1135 59.5415 23.0294 60.6478 22.5867C60.9872 22.4494 61.3222 22.2591 61.6131 22.0333C62.4858 21.356 62.4769 20.1784 61.9524 19.4082C61.688 19.023 61.3222 18.7486 60.9211 18.5228C60.0572 18.0403 59.114 17.7835 58.1795 17.509C57.0732 17.1859 55.9581 16.8893 54.8606 16.5395C53.6882 16.1632 52.5687 15.6542 51.5946 14.8706C50.4398 13.9409 49.7346 12.7501 49.5054 11.276C49.2895 9.89034 49.3908 8.53128 49.8977 7.22092C50.5059 5.65823 51.6167 4.55593 53.0579 3.75466C54.1775 3.13047 55.3807 2.75861 56.6325 2.52399C57.8358 2.29821 59.0478 2.1964 60.2732 2.23624C61.6836 2.28051 63.0676 2.52399 64.4295 2.87814C65.0113 3.02865 65.5843 3.23672 66.1617 3.41379C66.3292 3.46249 66.3821 3.54217 66.3644 3.73695C66.2807 4.53822 66.2322 5.33949 66.1617 6.14519C66.0956 6.82693 66.0339 7.50424 65.9722 8.19041Z" fill="black"/>
<path d="M83.1968 27.1725C81.1781 27.1725 79.1991 27.1725 77.1761 27.1725C77.1761 27.0529 77.1761 26.9423 77.1761 26.836C77.1761 20.6693 77.1761 14.5027 77.1761 8.33602C77.1761 7.88447 77.2289 7.91104 76.7573 7.91104C74.3905 7.91104 72.0236 7.91104 69.6523 7.91104C69.5509 7.91104 69.454 7.91104 69.335 7.91104C69.335 6.36162 69.335 4.84762 69.335 3.31592C76.5678 3.31592 83.783 3.31592 91.0291 3.31592C91.0291 4.83434 91.0291 6.3572 91.0291 7.91104C88.4242 7.91104 85.8281 7.91104 83.1968 7.91104C83.1968 14.3477 83.1968 20.7535 83.1968 27.1725Z" fill="black"/>
<path d="M30.3806 27.1684C30.3806 19.1867 30.3806 11.236 30.3806 3.26758C32.3288 3.26758 34.2637 3.26758 36.2207 3.26758C36.2207 9.68215 36.2207 16.0834 36.2207 22.5246C39.8305 22.5246 43.4094 22.5246 47.006 22.5246C47.006 24.0917 47.006 25.6234 47.006 27.1684C41.4657 27.1684 35.9386 27.1684 30.3806 27.1684Z" fill="black"/>
<path d="M121.842 22.0553C124.015 17.686 123.737 13.445 121.304 9.29258C121.384 9.19961 121.463 9.10665 121.547 9.02254C121.944 8.60198 122.345 8.18585 122.763 7.74316C122.821 7.81842 122.878 7.8804 122.913 7.9468C123.795 9.50064 124.363 11.1696 124.584 12.9448C124.976 16.1011 124.337 19.0495 122.755 21.7986C122.649 21.9801 122.534 22.0863 122.314 22.0642C122.168 22.0465 122.018 22.0553 121.842 22.0553Z" fill="black"/>
</g>
<defs>
<clipPath id="clip0">
<path d="M0.907227 0.522949H151.647V30.0459H0.907227V0.522949Z" fill="white"/>
</clipPath>
</defs>
</svg>
