<svg width="105" height="40" viewBox="0 0 105 40" fill="none" xmlns="http://www.w3.org/2000/svg">
<g clip-path="url(#clip0)">
<path d="M88.5212 20.4852C88.7087 20.4763 88.8569 20.4644 89.0051 20.4644C93.0793 20.4644 97.1505 20.4674 101.225 20.4585C101.545 20.4585 101.751 20.5565 101.942 20.8089C103.194 22.4809 104.01 24.3281 104.304 26.3892C104.679 29.0293 104.113 31.5031 102.885 33.8463C102.256 35.0431 101.445 36.1152 100.435 37.0358C99.4794 37.906 98.4027 38.5682 97.1626 38.987C95.8106 39.4473 94.4253 39.7294 93.0037 39.8571C91.7969 39.964 90.587 40.0175 89.3771 39.9967C89.1049 39.9908 88.8357 39.967 88.5938 39.9551C88.5575 39.9106 88.5484 39.9017 88.5393 39.8898C88.5302 39.8779 88.5181 39.8631 88.5181 39.8512C88.5121 33.5048 88.5061 27.1554 88.503 20.8089C88.5 20.7198 88.5091 20.6307 88.5212 20.4852Z" fill="black"/>
<path d="M56.8171 39.9283C56.8171 33.4423 56.8171 26.9979 56.8171 20.5208C56.917 20.5 57.0137 20.4732 57.1136 20.4643C57.2194 20.4554 57.3253 20.4614 57.4311 20.4614C61.4267 20.4614 65.4253 20.4614 69.4208 20.4614C69.5116 20.4614 69.6023 20.4673 69.6931 20.4614C69.8927 20.4436 70.0318 20.5267 70.1619 20.6722C70.6519 21.2216 71.0814 21.8156 71.4292 22.46C72.1249 23.7489 72.5393 25.121 72.6965 26.5702C72.8901 28.3402 72.7207 30.0686 72.137 31.7555C71.3536 34.0244 70.0016 35.9042 68.093 37.401C66.9981 38.2593 65.7429 38.7998 64.4181 39.2007C63.2717 39.5482 62.0951 39.765 60.9004 39.8362C59.7389 39.9045 58.5714 39.9283 57.4069 39.9669C57.2164 39.9788 57.0258 39.9461 56.8171 39.9283Z" fill="black"/>
<path d="M20.7601 31.8387C19.9858 31.8744 19.2478 31.8506 18.5068 31.8566C17.7809 31.8595 17.0519 31.8566 16.326 31.8566C15.585 31.8566 14.8469 31.8566 14.0817 31.8566C13.0533 34.5531 12.0371 37.223 11.0117 39.9225C10.8816 39.9344 10.7486 39.9522 10.6185 39.9552C7.51521 39.9581 4.4089 39.9581 1.30561 39.9552C1.20278 39.9552 1.09691 39.9433 0.978951 39.9373C0.939631 39.7295 1.04247 39.575 1.09994 39.4147C2.15251 36.534 3.20811 33.6563 4.26372 30.7756C5.46752 27.491 6.67133 24.2064 7.87817 20.9218C7.92958 20.7822 7.98403 20.6486 8.03242 20.5239C8.40143 20.4496 20.2369 20.4378 20.7117 20.5061C20.7208 20.5179 20.7329 20.5269 20.742 20.5387C20.7511 20.5506 20.7632 20.5625 20.7632 20.5773C20.7692 24.2183 20.7753 27.8622 20.7813 31.5032C20.7813 31.5893 20.7722 31.6754 20.7601 31.8387Z" fill="black"/>
<path d="M41.5425 39.9373C38.046 39.9373 34.6433 39.9373 31.1952 39.9373C30.2878 37.2616 29.3834 34.5888 28.4851 31.9308C28.2915 31.818 28.104 31.8595 27.9286 31.8566C26.0351 31.8536 24.1447 31.8536 22.2513 31.8536C22.0577 31.8536 21.8611 31.8536 21.6918 31.8536C21.5405 31.6546 21.5889 31.4705 21.5889 31.2982C21.5859 29.7064 21.5859 28.1176 21.5859 26.5258C21.5859 24.6964 21.5859 22.87 21.5859 21.0406C21.5859 20.8654 21.598 20.6902 21.604 20.5268C21.9882 20.4467 33.7117 20.4288 34.244 20.5061C36.6668 26.9535 39.0925 33.4127 41.5425 39.9373Z" fill="black"/>
<path d="M44.2951 0.139113C44.6853 0.0648681 55.5135 0.0529889 56.0217 0.124264C56.0368 0.213357 56.058 0.31136 56.064 0.409363C56.0731 0.528154 56.067 0.646945 56.067 0.765737C56.067 6.81518 56.067 12.8676 56.067 18.917C56.067 19.1249 56.067 19.3298 56.067 19.5585C55.94 19.5852 55.8432 19.6149 55.7464 19.6239C55.6254 19.6357 55.5045 19.6298 55.3835 19.6298C51.9021 19.6298 48.4177 19.6298 44.9363 19.6298C44.7428 19.6298 44.5492 19.6179 44.3344 19.612C44.3102 19.4872 44.286 19.3892 44.277 19.2912C44.2679 19.1873 44.2739 19.0834 44.2739 18.9794C44.2739 12.8854 44.2739 6.78846 44.2739 0.694462C44.2739 0.504396 44.2891 0.3173 44.2951 0.139113Z" fill="black"/>
<path d="M56.0701 39.8961C55.6224 39.9704 44.7549 39.9763 44.3223 39.908C44.3072 39.8159 44.286 39.7179 44.277 39.6199C44.2679 39.516 44.2739 39.412 44.2739 39.3081C44.2739 33.2438 44.2739 27.1795 44.2739 21.1182C44.2739 20.9281 44.2739 20.7351 44.2739 20.5213C44.4101 20.4975 44.5099 20.4708 44.6067 20.4678C44.8033 20.4589 44.9999 20.4648 45.1965 20.4648C48.6022 20.4648 52.008 20.4648 55.4137 20.4648C55.6073 20.4648 55.8009 20.4648 56.0156 20.4648C56.0368 20.6044 56.058 20.7024 56.064 20.8004C56.0731 20.9044 56.067 21.0083 56.067 21.1122C56.067 27.1765 56.067 33.2408 56.067 39.3022C56.0701 39.4952 56.0701 39.6853 56.0701 39.8961Z" fill="black"/>
<path d="M87.7227 19.5645C87.3022 19.6506 76.4801 19.6536 76.0475 19.5704C76.0324 19.4813 76.0052 19.3833 75.9991 19.2853C75.9901 19.1666 75.9961 19.0478 75.9961 18.929C75.9961 12.8647 75.9961 6.80038 75.9961 0.736085C75.9961 0.53414 76.0143 0.329225 76.0233 0.139159C76.4286 0.064914 87.2569 0.0589744 87.6743 0.12431C87.6864 0.133219 87.6985 0.142128 87.7075 0.154007C87.7166 0.165887 87.7227 0.180736 87.7227 0.195584C87.7287 6.57171 87.7347 12.9478 87.7408 19.324C87.7438 19.3952 87.7317 19.4665 87.7227 19.5645Z" fill="black"/>
<path d="M76.0538 39.9314C76.0327 39.8423 76.0054 39.7859 76.0054 39.7295C76.0024 33.3801 76.0024 27.0307 76.0054 20.6813C76.0054 20.6249 76.0327 20.5714 76.0448 20.5239C76.4107 20.4467 87.1936 20.4318 87.6745 20.5031C87.6836 20.515 87.6926 20.5269 87.7017 20.5388C87.7108 20.5506 87.7229 20.5625 87.7259 20.5744C87.7319 20.6486 87.741 20.7229 87.741 20.7971C87.738 27.1317 87.735 33.4662 87.7319 39.8008C87.7319 39.8275 87.7108 39.8542 87.6805 39.9285C87.5293 39.9374 87.3539 39.9522 87.1754 39.9522C84.6015 39.9552 82.0275 39.9522 79.4505 39.9522C78.4826 39.9522 77.5117 39.9522 76.5438 39.9522C76.3835 39.9522 76.2232 39.9403 76.0538 39.9314Z" fill="black"/>
<path d="M56.8292 0.109574C56.9139 0.0947254 56.9713 0.0769067 57.0318 0.0709671C58.4837 -0.0181264 59.9355 -0.0567335 61.3813 0.145212C62.5095 0.30261 63.6104 0.560981 64.6509 1.02427C66.1542 1.69247 67.3307 2.72001 68.2412 4.07126C69.0578 5.28591 69.575 6.60449 69.7353 8.04483C70.1225 11.5432 68.9792 14.4507 66.1844 16.6928C65.9757 16.8621 65.7549 17.0165 65.5099 17.2007C65.6218 17.2838 65.7035 17.364 65.8033 17.4175C66.0543 17.5541 66.3024 17.7026 66.5685 17.8065C67.5062 18.1777 68.1958 18.8727 68.9338 19.5052C68.9399 19.5112 68.9338 19.532 68.9338 19.5498C68.9278 19.5587 68.9247 19.5735 68.9157 19.5824C68.9066 19.5914 68.8915 19.6062 68.8763 19.6062C65.0169 19.6121 61.1544 19.6181 57.295 19.624C57.1891 19.624 57.0832 19.621 56.9774 19.6121C56.935 19.6092 56.8927 19.5854 56.8594 19.5735C56.8443 19.5557 56.8352 19.5438 56.8292 19.529C56.8231 19.5171 56.811 19.5023 56.811 19.4904C56.805 19.4161 56.7959 19.3419 56.7959 19.2676C56.7959 12.9361 56.7989 6.60152 56.7989 0.269943C56.7989 0.234305 56.814 0.189758 56.8292 0.109574Z" fill="black"/>
<path d="M88.5394 0.0861047C89.0597 0.0623464 89.5557 0.026709 90.0517 0.0177997C91.5701 -0.00892836 93.0794 0.0742255 94.5615 0.430599C96.2886 0.846369 97.8402 1.58584 99.0501 2.89552C100.32 4.2735 101.137 5.87421 101.4 7.73032C101.582 9.0103 101.551 10.2784 101.24 11.5376C100.844 13.1383 100.009 14.5014 98.8686 15.6893C98.4542 16.1229 97.9914 16.506 97.5498 16.9129C97.453 17.002 97.3502 17.0881 97.2081 17.2069C97.3502 17.2811 97.4591 17.3465 97.574 17.397C98.5661 17.8513 99.5007 18.3978 100.305 19.1373C100.435 19.2561 100.559 19.3837 100.732 19.553C100.602 19.5887 100.526 19.6184 100.447 19.6273C100.342 19.6392 100.236 19.6302 100.13 19.6302C96.464 19.6302 92.8011 19.6302 89.1353 19.6302C88.9417 19.6302 88.7481 19.6184 88.5848 19.6124C88.5485 19.5619 88.5364 19.553 88.5303 19.5382C88.5243 19.5263 88.5122 19.5115 88.5122 19.4996C88.5061 19.4253 88.4971 19.3511 88.4971 19.2768C88.4971 12.9423 88.5001 6.60775 88.5001 0.276171C88.5031 0.231624 88.5182 0.187077 88.5394 0.0861047Z" fill="black"/>
<path d="M20.763 0.100586C20.763 6.61926 20.763 13.0845 20.763 19.5764C20.6481 19.5972 20.5483 19.6239 20.4485 19.6269C20.1914 19.6328 19.9343 19.6299 19.6772 19.6299C16.0416 19.6299 12.406 19.6299 8.77336 19.6299C8.57978 19.6299 8.3862 19.615 8.19263 19.6091C8.23195 19.2408 14.6563 0.549023 14.8922 0.100586C16.828 0.100586 18.7759 0.100586 20.763 0.100586Z" fill="black"/>
<path d="M21.6374 0.0976562C23.5974 0.0976562 25.5301 0.0976562 27.5022 0.0976562C29.68 6.50348 31.8577 12.9093 34.0354 19.3181C34.0627 19.3983 34.0657 19.4874 34.0808 19.5675C33.6967 19.6507 26.8368 19.6834 22.0851 19.6299C21.9369 19.6269 21.7917 19.6121 21.6556 19.6002C21.5709 19.226 21.5558 0.617368 21.6374 0.0976562Z" fill="black"/>
</g>
<defs>
<clipPath id="clip0">
<path d="M0.973145 0H104.416V40H0.973145V0Z" fill="white"/>
</clipPath>
</defs>
</svg>
