<svg width="152" height="51" viewBox="0 0 152 51" fill="none" xmlns="http://www.w3.org/2000/svg">
<g clip-path="url(#clip0)">
<path d="M86.7754 50.0418C85.9556 49.9334 85.1402 49.812 84.3204 49.7253C82.1518 49.4955 80.0626 48.9882 78.2423 47.7526C76.4837 46.5603 75.4435 44.8867 75.06 42.8186C75.016 42.5888 75.0556 42.3504 75.0556 42.0512C75.3113 42.0122 75.5228 41.9558 75.73 41.9558C77.7134 41.9472 79.7012 41.9602 81.6846 41.9472C82.1298 41.9428 82.4251 42.0599 82.5529 42.5281C82.8438 43.56 83.5843 44.2364 84.5672 44.5832C85.4134 44.8824 86.3038 45.1208 87.1941 45.2206C88.8514 45.4026 90.5218 45.4026 92.1526 44.9431C94.7619 44.2104 95.3305 42.7189 95.5773 40.6942C95.6831 39.814 95.6126 38.9122 95.5861 38.0191C95.5817 37.7806 95.4495 37.5465 95.3437 37.2127C94.8941 37.4901 94.5459 37.6982 94.2066 37.9194C92.6154 38.9642 90.9009 39.749 88.9924 39.9528C85.0168 40.3777 81.3012 39.7317 78.2864 36.9135C75.6815 34.4769 74.2182 31.4853 73.989 27.9127C73.8435 25.6799 73.9802 23.4904 74.5311 21.3226C75.157 18.8556 76.5101 16.8612 78.4406 15.1747C81.883 12.1658 85.9027 11.6758 90.2045 12.4996C91.9058 12.8248 93.4176 13.6529 94.7531 14.7585C94.8809 14.8625 95.0308 14.9362 95.1939 15.0403C95.9123 14.3162 95.3922 13.3841 95.714 12.5473C97.7106 12.5473 99.7293 12.5473 101.836 12.5473C101.858 12.8811 101.902 13.2063 101.902 13.5315C101.907 22.5713 101.827 31.6154 101.942 40.6551C101.99 44.3968 100.267 46.8117 97.023 48.4072C95.379 49.2137 93.6204 49.6082 91.7912 49.7253C91.0596 49.773 90.3235 49.8206 89.5918 49.8857C89.4287 49.8987 89.2745 49.9897 89.1202 50.0461C88.3445 50.0418 87.5599 50.0418 86.7754 50.0418ZM95.498 26.0614C95.4319 25.5282 95.3085 24.648 95.2247 23.7679C94.9338 20.6809 92.6948 18.6215 89.9048 17.9495C86.8547 17.2124 82.4339 18.5868 81.2086 22.671C80.6929 24.3966 80.5563 26.1221 80.856 27.8781C81.5965 32.1747 84.7259 35.1923 89.3847 34.4509C91.7339 34.078 93.5631 32.864 94.6473 30.7136C95.3349 29.3565 95.4275 27.8911 95.498 26.0614Z" fill="black"/>
<path d="M151.042 19.372C147.944 18.5048 143.88 19.2029 141.733 22.0297C140.949 23.0616 140.698 24.2452 140.698 25.5025C140.693 30.5145 140.693 35.5308 140.693 40.5428C140.693 40.8506 140.693 41.1628 140.693 41.553C138.366 41.553 136.114 41.553 133.795 41.553C133.795 31.8759 133.795 22.2291 133.795 12.5173C136.078 12.5173 138.317 12.5173 140.702 12.5173C140.702 13.9091 140.702 15.2791 140.702 16.6492C140.764 16.6579 140.825 16.6709 140.887 16.6795C140.984 16.5885 141.099 16.5104 141.174 16.4064C143.188 13.4842 146.079 12.2529 149.57 12.1575C150.059 12.1445 150.549 12.1445 151.038 12.1401C151.042 14.5507 151.042 16.9613 151.042 19.372Z" fill="black"/>
<path d="M44.3 41.5831C41.9023 41.5831 39.6588 41.5831 37.336 41.5831C37.314 41.2363 37.2743 40.9328 37.2743 40.6293C37.2699 34.8933 37.2875 29.1529 37.2523 23.4169C37.2479 22.5368 37.0627 21.6479 36.86 20.7895C36.5426 19.4324 35.5509 18.6434 34.2419 18.3139C32.545 17.889 30.8392 17.9367 29.2084 18.6564C27.1104 19.5799 25.9821 21.2491 25.5766 23.4212C25.462 24.0325 25.4179 24.6655 25.4179 25.2899C25.4047 30.3755 25.4091 35.4656 25.4091 40.5512C25.4091 40.8591 25.4091 41.1669 25.4091 41.5528C23.0202 41.5528 20.715 41.5528 18.3525 41.5528C18.3525 27.9736 18.3525 14.4421 18.3525 0.841309C20.6665 0.841309 22.9541 0.841309 25.387 0.841309C25.4443 5.52811 25.3694 10.2236 25.4267 14.9191C25.4884 14.9451 25.5501 14.9711 25.6118 14.9971C25.7925 14.8584 25.9821 14.737 26.1496 14.5852C28.6178 12.3177 31.5929 11.689 34.8589 11.9405C37.0275 12.1052 38.9536 12.8857 40.6902 14.1213C42.4885 15.4003 43.6785 17.1129 44.0708 19.272C44.2647 20.3343 44.3573 21.4225 44.3617 22.5021C44.3881 28.5546 44.3749 34.6028 44.3705 40.6553C44.3705 40.9545 44.3264 41.2536 44.3 41.5831Z" fill="black"/>
<path d="M74.1609 41.5831C71.3841 41.5831 68.7219 41.5831 65.9584 41.5831C65.9143 40.7724 65.8746 40.0006 65.8217 39.0511C65.425 39.2679 65.1606 39.3633 64.949 39.528C62.5425 41.4184 59.7393 42.1858 56.7245 42.1467C53.9785 42.1077 51.4089 41.3837 49.1522 39.7491C45.1546 36.8486 44.4009 30.4622 48.6189 26.9591C50.2189 25.6324 52.0965 25.0948 54.0182 24.6612C57.2358 23.9328 60.4885 23.3518 63.7281 22.7058C63.7502 22.7015 63.7766 22.6972 63.7986 22.6928C65.9319 22.2723 66.6195 20.2649 65.2223 18.6087C64.4554 17.7025 63.4593 17.2473 62.3089 17.0869C60.4224 16.8267 58.558 16.9091 56.7201 17.438C55.0452 17.9236 54.146 19.0205 53.9741 20.7201C53.9521 20.9586 53.9168 21.197 53.8816 21.4355C53.8772 21.4572 53.8595 21.4788 53.8155 21.5699C51.6425 21.5699 49.4343 21.5699 47.2261 21.5699C47.1512 17.7936 48.3897 15.0881 51.5456 13.2889C53.2601 12.309 55.1554 11.8798 57.0947 11.7757C59.0913 11.6673 61.11 11.637 63.1022 11.7887C65.0284 11.9361 66.928 12.3914 68.6866 13.2455C71.3709 14.5505 72.7725 16.6403 72.7549 19.6449C72.724 25.4069 72.7725 31.169 72.7284 36.931C72.7152 38.4398 73.103 39.7795 73.8788 41.0455C73.9625 41.1886 74.0331 41.3403 74.1609 41.5831ZM65.7203 27.1325C64.7198 27.3406 63.8119 27.527 62.9083 27.7178C61.1144 28.095 59.3029 28.4115 57.5311 28.8797C56.4997 29.1486 55.4992 29.5908 54.5471 30.072C53.3174 30.6964 52.7092 32.1185 52.9824 33.4495C53.3615 35.3225 54.4061 36.2676 56.4424 36.7446C58.439 37.2085 60.3872 36.8269 62.2295 35.9641C64.4333 34.9323 65.5969 33.1547 65.857 30.8178C65.9672 29.8162 65.8878 28.7974 65.879 27.7828C65.879 27.6051 65.7953 27.423 65.7203 27.1325Z" fill="black"/>
<path d="M132.086 28.5764C124.839 28.5764 117.642 28.5764 110.374 28.5764C110.343 28.8799 110.272 29.114 110.303 29.3351C110.537 31.1084 111.061 32.7689 112.229 34.1823C114.9 37.421 120.621 38.1017 123.641 34.2387C124.148 33.5884 124.421 32.7516 124.747 31.9798C124.879 31.659 124.976 31.4119 125.377 31.4162C127.533 31.4249 129.692 31.4249 131.848 31.4336C131.918 31.4336 131.984 31.4769 132.121 31.5203C132.31 32.24 132.037 32.9337 131.777 33.5797C129.833 38.4399 126.144 41.2407 120.978 42.1382C118.55 42.5588 116.086 42.485 113.693 41.826C109.497 40.6728 106.478 38.1321 104.75 34.1867C103.467 31.2601 103.317 28.1732 103.529 25.0385C103.652 23.2176 103.961 21.44 104.662 19.7577C106.156 16.1808 108.765 13.6662 112.472 12.3742C117.065 10.77 121.556 11.1082 125.765 13.5795C128.537 15.2097 130.367 17.6506 131.376 20.6769C132.183 23.0962 132.288 25.5935 132.191 28.1081C132.178 28.2209 132.138 28.3336 132.086 28.5764ZM125.016 23.2219C124.981 20.8807 123.852 19.2635 122.063 17.9758C119.621 16.2199 116.544 16.1418 113.931 17.7243C111.899 18.9513 110.885 20.807 110.665 23.2219C115.478 23.2219 120.198 23.2219 125.016 23.2219Z" fill="black"/>
<path d="M0.311773 36.3676C0.311773 35.5005 0.307366 34.6333 0.311773 33.7662C0.324996 32.2097 1.36078 31.0608 2.92106 31.0131C4.82955 30.9567 6.74244 30.9524 8.65092 31.0174C10.1363 31.0651 11.1897 32.097 11.2426 33.5668C11.3087 35.4441 11.3131 37.3257 11.2426 39.2031C11.1853 40.7639 10.0525 41.7654 8.45699 41.7828C6.67192 41.8001 4.88244 41.8001 3.09296 41.7828C1.44893 41.7654 0.329404 40.6512 0.316181 39.047C0.307366 38.1495 0.311773 37.2607 0.311773 36.3676Z" fill="black"/>
<path d="M5.84342 25.3074C4.88698 25.3074 3.93494 25.3204 2.97849 25.3031C1.4711 25.2814 0.333943 24.1802 0.316313 22.693C0.294275 20.8634 0.298682 19.0338 0.316313 17.2042C0.329536 15.7387 1.39617 14.6245 2.88593 14.5854C4.74593 14.5377 6.60594 14.5464 8.46593 14.5724C10.11 14.5941 11.1722 15.6086 11.2515 17.2258C11.3 18.236 11.2692 19.2462 11.2692 20.2608C11.2692 21.0065 11.2868 21.7522 11.2648 22.4979C11.2119 24.2755 10.1364 25.3031 8.34252 25.3118C7.50949 25.3118 6.67646 25.3074 5.84342 25.3074Z" fill="black"/>
</g>
<defs>
<clipPath id="clip0">
<path d="M0.302979 0.837402H151.042V50.0424H0.302979V0.837402Z" fill="white"/>
</clipPath>
</defs>
</svg>
