<svg width="151" height="24" viewBox="0 0 151 24" fill="none" xmlns="http://www.w3.org/2000/svg">
<g clip-path="url(#clip0)">
<path d="M143.066 0C143.247 0.0173633 143.432 0.0347265 143.613 0.0607714C144.49 0.173633 145.371 0.26479 146.244 0.403696C147.099 0.538261 147.945 0.720575 148.8 0.881185C148.915 0.902889 148.946 0.963661 148.946 1.07218C148.946 2.48295 148.946 3.89805 148.946 5.30882C148.946 5.34788 148.937 5.39129 148.928 5.4564C148.849 5.42602 148.783 5.40431 148.717 5.37827C147.425 4.85303 146.09 4.4884 144.71 4.2757C143.886 4.14982 143.057 4.08037 142.229 4.12377C141.448 4.16718 140.686 4.30175 140.007 4.71846C139.677 4.92248 139.399 5.17859 139.271 5.5519C139.086 6.09016 139.201 6.81942 139.875 7.20575C140.139 7.35768 140.413 7.49659 140.695 7.62247C141.382 7.93067 142.083 8.21716 142.771 8.53404C143.899 9.0506 145.027 9.56281 146.143 10.1054C147.192 10.6133 148.161 11.247 148.981 12.0805C149.871 12.9877 150.444 14.0512 150.647 15.297C150.85 16.5298 150.77 17.7366 150.264 18.8956C149.964 19.5814 149.55 20.1935 149.021 20.7317C148.077 21.6997 146.927 22.3552 145.658 22.811C144.635 23.1799 143.577 23.397 142.497 23.5098C141.603 23.6053 140.704 23.6488 139.804 23.601C138.861 23.5533 137.914 23.4838 136.97 23.397C135.688 23.2841 134.427 23.041 133.175 22.7372C132.981 22.6894 132.981 22.6894 132.981 22.4941C132.981 21.0312 132.981 19.5727 132.981 18.1099C132.981 18.0578 132.99 18.0057 132.995 17.9319C133.065 17.9493 133.118 17.9579 133.167 17.971C134.608 18.4528 136.08 18.8174 137.583 19.0518C138.35 19.169 139.121 19.2428 139.897 19.2602C140.651 19.2776 141.396 19.2298 142.127 19.0258C142.581 18.8999 143 18.7089 143.366 18.4007C144.141 17.7452 143.943 16.7512 143.467 16.1999C143.145 15.8309 142.722 15.6096 142.281 15.4186C140.862 14.8195 139.447 14.2118 138.024 13.6171C137.138 13.2482 136.27 12.8401 135.476 12.3062C134.524 11.6638 133.722 10.8824 133.193 9.85365C132.845 9.17214 132.638 8.45591 132.576 7.7006C132.541 7.26652 132.519 6.8281 132.545 6.39402C132.611 5.30013 132.951 4.29307 133.594 3.39018C134.308 2.38745 135.265 1.67121 136.375 1.14597C137.495 0.616396 138.68 0.308198 139.91 0.151928C140.32 0.0998387 140.73 0.0781347 141.14 0.0390673C141.18 0.0347265 141.224 0.0217041 141.263 0.00868163C141.858 0 142.462 0 143.066 0Z" fill="black"/>
<path d="M10.4634 -0.000161149C10.6838 0.0215429 10.8997 0.0475878 11.1201 0.0649511C12.244 0.151767 13.3548 0.321059 14.4611 0.525078C15.0296 0.629257 15.5938 0.755141 16.158 0.868002C16.3431 0.907069 16.3475 0.907069 16.3475 1.09372C16.3475 2.48713 16.3475 3.88053 16.3475 5.27827C16.3475 5.33036 16.3387 5.38245 16.3343 5.45624C16.1536 5.38679 15.9993 5.32168 15.8406 5.26091C14.7476 4.83985 13.6236 4.52731 12.4688 4.32763C11.5565 4.17136 10.6397 4.0802 9.7141 4.11493C8.96481 4.14532 8.23315 4.26686 7.5632 4.62715C7.22381 4.80946 6.9241 5.03953 6.74779 5.39113C6.47452 5.93373 6.58471 6.55447 7.06514 6.93646C7.33841 7.15784 7.64253 7.34884 7.95988 7.50511C8.70476 7.8654 9.46727 8.19096 10.2166 8.54256C11.4992 9.14594 12.7906 9.73195 14.0556 10.37C15.0869 10.8909 16.0037 11.5768 16.7574 12.458C17.564 13.3999 18.018 14.4808 18.1238 15.7092C18.234 16.9811 18.0136 18.1835 17.4097 19.3165C16.9425 20.1977 16.2814 20.9139 15.4836 21.5129C14.3024 22.3984 12.9537 22.9237 11.5124 23.2449C10.6529 23.4359 9.78021 23.5314 8.89869 23.5791C7.98192 23.6269 7.06514 23.6009 6.14836 23.5357C5.50926 23.4923 4.87016 23.4533 4.23547 23.3795C3.16002 23.2579 2.09338 23.0756 1.03997 22.8325C0.859259 22.7935 0.682956 22.7414 0.502245 22.7066C0.414093 22.6893 0.378833 22.6415 0.378833 22.5547C0.378833 22.5113 0.378833 22.4679 0.378833 22.4288C0.378833 21.005 0.378833 19.5813 0.378833 18.1531C0.378833 18.0837 0.387648 18.0142 0.392056 17.9187C0.480207 17.9404 0.541913 17.9534 0.60362 17.9752C1.96116 18.4092 3.34073 18.7652 4.75116 18.9996C5.57537 19.1385 6.40841 19.2253 7.24585 19.247C7.92021 19.2644 8.58575 19.2296 9.24248 19.0821C9.81106 18.9562 10.3356 18.7435 10.7587 18.3398C11.3802 17.7538 11.5477 16.6816 10.6926 15.9871C10.5515 15.8742 10.4017 15.7527 10.2386 15.6745C9.82429 15.4748 9.40116 15.2925 8.97803 15.1102C7.58964 14.5155 6.19244 13.9339 4.80845 13.3348C3.79471 12.8964 2.8559 12.3321 2.04049 11.5811C0.960634 10.5871 0.290681 9.37166 0.0747095 7.92617C-0.0971863 6.76283 -0.00903461 5.61685 0.427316 4.51429C0.775515 3.64178 1.31765 2.8995 2.03168 2.27877C3.19087 1.26302 4.57045 0.69871 6.0558 0.351445C6.8668 0.16479 7.68661 0.0519286 8.51964 0.0172021C8.55931 0.0172021 8.60338 -0.000161149 8.64305 -0.0131836C9.25571 -0.000161149 9.85955 -0.000161149 10.4634 -0.000161149Z" fill="black"/>
<path d="M68.5683 14.034C68.7093 13.7171 68.8504 13.4046 68.987 13.0877C69.9479 10.8999 70.9043 8.71214 71.8608 6.52871C72.491 5.0919 73.1213 3.65943 73.7516 2.22262C73.9896 1.67568 74.232 1.13308 74.4656 0.586133C74.5141 0.473272 74.5758 0.434205 74.6992 0.434205C77.2865 0.438546 79.8737 0.434205 82.461 0.434205C82.6593 0.434205 82.6681 0.442886 82.6726 0.638223C82.6726 0.681631 82.6726 0.725039 82.6726 0.764107C82.6726 8.12613 82.6726 15.4838 82.6726 22.8458C82.6726 23.141 82.6725 23.141 82.3684 23.141C80.3409 23.141 78.3135 23.141 76.2904 23.141C76.2551 23.141 76.2154 23.1367 76.1802 23.141C76.0788 23.1497 76.0303 23.1019 76.0347 23.0021C76.0347 22.9587 76.0347 22.9153 76.0347 22.8762C76.0347 18.2315 76.0347 13.5869 76.0347 8.9422C76.0347 8.85104 76.0347 8.76423 76.0347 8.67307C76.0259 8.66873 76.0127 8.66439 76.0039 8.66005C75.9686 8.7295 75.9378 8.79895 75.9025 8.87275C75.0518 10.8001 74.2056 12.7317 73.3549 14.6591C72.4514 16.7123 71.5522 18.7611 70.6487 20.8143C70.2961 21.6217 69.9347 22.4248 69.5865 23.2322C69.538 23.345 69.4719 23.3841 69.3529 23.3841C68.0967 23.3797 66.8405 23.3797 65.5844 23.3841C65.4169 23.3841 65.364 23.3016 65.3111 23.1801C64.8307 22.0515 64.3502 20.9228 63.8654 19.7942C63.1514 18.123 62.4374 16.4562 61.7233 14.7849C61.1239 13.3785 60.5245 11.9677 59.925 10.5613C59.6606 9.94059 59.3961 9.31985 59.1273 8.70346C59.1185 8.68175 59.1052 8.66439 59.07 8.64703C59.07 8.82066 59.07 8.99429 59.07 9.16358C59.07 13.7214 59.07 18.2836 59.07 22.8415C59.07 23.1627 59.1008 23.141 58.7747 23.141C57.3598 23.141 55.9406 23.141 54.5258 23.141C54.4685 23.141 54.4156 23.1367 54.3583 23.141C54.2745 23.141 54.2349 23.0976 54.2349 23.0195C54.2349 22.963 54.2349 22.9109 54.2349 22.8545C54.2349 15.4882 54.2349 8.12179 54.2349 0.755425C54.2349 0.373433 54.2393 0.434205 54.5654 0.434205C57.2364 0.434205 59.9118 0.434205 62.5828 0.434205C62.8693 0.434205 62.8208 0.412501 62.9266 0.664268C63.742 2.60027 64.553 4.54062 65.364 6.47662C66.2764 8.65137 67.1843 10.8218 68.0967 12.9965C68.2421 13.3438 68.3876 13.6911 68.533 14.034C68.5419 14.034 68.5551 14.034 68.5683 14.034Z" fill="black"/>
<path d="M124.289 14.3375C124.289 14.0944 124.289 13.8513 124.289 13.6126C124.289 9.31949 124.289 5.02642 124.289 0.733354C124.289 0.702968 124.289 0.672583 124.289 0.642197C124.289 0.433838 124.289 0.433838 124.509 0.433838C125.977 0.433838 127.44 0.433838 128.908 0.433838C129.133 0.433838 129.133 0.433838 129.133 0.655219C129.133 8.06933 129.133 15.4834 129.133 22.8976C129.133 22.9323 129.128 22.9713 129.133 23.0061C129.137 23.0972 129.098 23.145 129.005 23.1406C128.961 23.1406 128.917 23.1406 128.877 23.1406C126.541 23.1406 124.21 23.1406 121.874 23.145C121.702 23.145 121.613 23.0886 121.53 22.9453C120.692 21.4607 119.846 19.9849 119.004 18.5047C117.827 16.4384 116.655 14.3679 115.478 12.3016C114.865 11.2208 114.253 10.1442 113.636 9.06772C113.623 9.04601 113.609 9.02865 113.574 8.98524C113.57 9.05904 113.565 9.10679 113.565 9.1502C113.565 13.7341 113.565 18.318 113.565 22.9019C113.565 22.9453 113.565 22.9887 113.565 23.0278C113.565 23.1103 113.521 23.1493 113.442 23.1493C113.398 23.1493 113.354 23.1493 113.314 23.1493C111.877 23.1493 110.445 23.1493 109.008 23.1493C108.77 23.1493 108.77 23.1493 108.77 22.9062C108.77 16.2995 108.77 9.68846 108.77 3.08174C108.77 2.27434 108.77 1.46695 108.77 0.663901C108.77 0.44252 108.77 0.44252 108.999 0.44252C111.428 0.44252 113.852 0.44252 116.28 0.438179C116.435 0.438179 116.51 0.494609 116.58 0.616152C117.871 2.92547 119.163 5.23478 120.454 7.54409C121.459 9.34553 122.469 11.1426 123.474 12.9441C123.703 13.3564 123.932 13.7732 124.165 14.1899C124.196 14.2463 124.232 14.3027 124.267 14.3592C124.267 14.3462 124.28 14.3418 124.289 14.3375Z" fill="black"/>
<path d="M105.151 18.583C105.151 18.6872 105.151 18.7523 105.151 18.8174C105.151 20.1804 105.151 21.5434 105.151 22.9108C105.151 23.1408 105.151 23.1408 104.918 23.1408C99.2894 23.1408 93.6609 23.1408 88.028 23.1408C87.8076 23.1408 87.8076 23.1408 87.8076 22.8977C87.8076 15.4967 87.8076 8.09123 87.8076 0.690136C87.8076 0.672773 87.8076 0.65541 87.8076 0.633706C87.8076 0.434028 87.8076 0.429688 88.0148 0.429688C93.5816 0.429688 99.1527 0.429688 104.72 0.429688C104.927 0.429688 104.927 0.429688 104.927 0.646728C104.927 1.93595 104.927 3.22951 104.927 4.51873C104.927 4.7488 104.927 4.7488 104.689 4.7488C101.462 4.7488 98.236 4.7488 95.0052 4.7488C94.9435 4.7488 94.8818 4.7488 94.8201 4.7488C94.657 4.75314 94.6438 4.76616 94.6438 4.93111C94.6438 6.42869 94.6438 7.92627 94.6394 9.42385C94.6394 9.55408 94.6923 9.59749 94.8157 9.58881C94.8686 9.58447 94.9259 9.58881 94.9832 9.58881C97.7555 9.58881 100.528 9.58881 103.296 9.58881C103.38 9.58881 103.468 9.58881 103.569 9.58881C103.578 9.67996 103.587 9.74942 103.587 9.82321C103.587 10.9648 103.587 12.1021 103.587 13.2438C103.587 13.4869 103.587 13.4869 103.34 13.4869C100.554 13.4869 97.7732 13.4869 94.9876 13.4869C94.5997 13.4869 94.6438 13.4608 94.6438 13.8341C94.6438 15.3187 94.6438 16.8032 94.6438 18.2921C94.6438 18.3399 94.6482 18.3876 94.6438 18.4354C94.635 18.5482 94.6879 18.5917 94.798 18.583C94.8465 18.5786 94.895 18.583 94.9479 18.583C98.2624 18.583 101.577 18.583 104.887 18.583C104.966 18.583 105.046 18.583 105.151 18.583Z" fill="black"/>
<path d="M50.3833 4.74438C50.2731 4.74872 50.1849 4.76174 50.0924 4.76174C46.888 4.76174 43.6881 4.76174 40.4838 4.76174C40.1444 4.76174 40.1797 4.74438 40.1797 5.05258C40.1797 6.48505 40.1797 7.91318 40.1797 9.34565C40.1797 9.42378 40.1797 9.49757 40.1797 9.59741C43.1548 9.59741 46.0991 9.59741 49.0654 9.59741C49.0654 10.8997 49.0654 12.1802 49.0654 13.4781C48.9728 13.4824 48.8847 13.4911 48.7921 13.4911C46.0197 13.4911 43.2474 13.4911 40.475 13.4911C40.1356 13.4911 40.1753 13.4781 40.1753 13.782C40.1753 15.3056 40.1753 16.8249 40.1753 18.3485C40.1753 18.4179 40.1797 18.4917 40.1841 18.5786C43.6529 18.5786 47.104 18.5786 50.5772 18.5786C50.586 18.661 50.5948 18.7218 50.5948 18.7869C50.5948 20.163 50.5948 21.539 50.5948 22.915C50.5948 23.1408 50.5948 23.1408 50.3568 23.1408C48.4087 23.1408 46.4649 23.1408 44.5168 23.1408C40.8805 23.1408 37.2487 23.1408 33.6124 23.1408C33.3347 23.1408 33.3347 23.1408 33.3347 22.8586C33.3347 15.4792 33.3347 8.09983 33.3347 0.724786C33.3347 0.433952 33.3347 0.433952 33.6212 0.433952C39.1175 0.433952 44.6093 0.433952 50.1056 0.433952C50.1497 0.433952 50.1937 0.433952 50.2334 0.433952C50.326 0.429611 50.3744 0.464338 50.37 0.559835C50.37 0.594562 50.37 0.633629 50.37 0.668356C50.37 1.95324 50.37 3.23812 50.37 4.523C50.3833 4.59245 50.3833 4.65757 50.3833 4.74438Z" fill="black"/>
<path d="M28.1689 11.785C28.1689 15.4833 28.1689 19.1817 28.1689 22.8801C28.1689 23.1449 28.1689 23.1449 27.8957 23.1449C25.7448 23.1449 23.5983 23.1449 21.4474 23.1449C21.3901 23.1449 21.3372 23.1405 21.2799 23.1449C21.1653 23.1536 21.1036 23.1058 21.1124 22.9886C21.1168 22.9409 21.1124 22.8931 21.1124 22.841C21.1124 15.4877 21.1124 8.13434 21.1124 0.780993C21.1124 0.377297 21.1036 0.438069 21.4562 0.438069C23.5983 0.438069 25.7448 0.438069 27.8869 0.438069C27.9442 0.438069 27.997 0.438069 28.0543 0.438069C28.1293 0.438069 28.1689 0.472795 28.1689 0.546589C28.1689 0.60302 28.1689 0.655109 28.1689 0.71154C28.1689 4.40123 28.1689 8.09527 28.1689 11.785Z" fill="black"/>
</g>
<defs>
<clipPath id="clip0">
<path d="M0 0H150.739V23.6184H0V0Z" fill="white"/>
</clipPath>
</defs>
</svg>
