<svg width="223" height="29" viewBox="0 0 223 29" fill="none" xmlns="http://www.w3.org/2000/svg">
<g clip-path="url(#clip0)">
<path d="M164.079 9.3234C164.32 9.28715 164.503 9.24365 164.692 9.24365C170.138 9.2654 175.584 9.27265 181.03 9.33065C181.78 9.3379 182.548 9.53365 183.278 9.76565C184.959 10.3022 185.845 11.6289 186.092 13.5212C186.327 15.3554 185.695 16.7837 184.392 17.8567C183.962 18.2119 183.473 18.4729 182.965 18.7992C183.109 18.8644 183.213 18.9079 183.324 18.9587C185.473 19.8649 186.405 21.5469 186.131 24.0917C185.975 25.5344 185.363 26.6944 184.105 27.1874C183.096 27.5789 182.014 27.9414 180.959 27.9559C175.415 28.0429 169.871 28.0212 164.333 28.0284C164.275 28.0284 164.21 27.9922 164.079 27.9559C164.079 21.8007 164.079 15.6164 164.079 9.3234ZM172.633 16.8997C173.929 16.8562 175.18 17.0592 176.431 16.6749C176.972 16.5082 177.239 16.1094 177.252 15.5367C177.265 14.9349 176.946 14.5724 176.418 14.4202C175.174 14.0722 173.929 14.2099 172.633 14.2462C172.633 15.1524 172.633 15.9499 172.633 16.8997ZM172.62 20.9089C172.62 21.8369 172.62 22.6634 172.62 23.6639C173.877 23.5697 175.063 23.4972 176.249 23.3812C176.835 23.3232 177.148 22.8954 177.193 22.2574C177.232 21.6847 176.933 21.2642 176.301 21.0902C175.096 20.7639 173.871 20.8654 172.62 20.9089Z" fill="black"/>
<path d="M56.0538 28.0062C53.2655 28.0062 50.5619 28.0062 47.7607 28.0062C47.7607 26.2372 47.7607 24.5117 47.7607 22.6267C46.2884 22.5397 44.9138 22.5687 43.4545 22.605C43.4545 24.4175 43.4545 26.143 43.4545 28.0497C40.4968 28.057 37.6174 28.0497 34.6663 28.0497C34.6663 21.7712 34.6663 15.587 34.6663 9.32297C37.5718 9.32297 40.4512 9.32297 43.4219 9.32297C43.4219 11.5342 43.4219 13.6802 43.4219 15.8842C44.8747 15.8842 46.2297 15.8842 47.702 15.8842C47.702 13.7165 47.702 11.5777 47.702 9.47522C48.4838 9.19247 54.7639 9.12722 56.0473 9.35922C56.0538 15.5362 56.0538 21.7205 56.0538 28.0062Z" fill="black"/>
<path d="M116.438 9.29474C119.193 9.29474 121.89 9.29474 124.698 9.29474C124.698 11.6002 124.698 13.884 124.698 16.1677C124.757 16.1967 124.822 16.2185 124.88 16.2475C125.03 16.059 125.206 15.885 125.33 15.6747C126.477 13.7535 127.617 11.8322 128.744 9.90374C128.985 9.49049 129.232 9.22949 129.727 9.22949C132.626 9.25124 135.525 9.24399 138.424 9.25124C138.542 9.25124 138.659 9.30199 138.913 9.35274C136.841 12.5137 134.822 15.595 132.763 18.7415C134.789 21.801 136.802 24.8387 138.893 27.9925C138.542 28.0215 138.333 28.0505 138.125 28.0577C135.291 28.0577 132.45 28.0432 129.617 28.0722C129.076 28.0795 128.75 27.8765 128.444 27.3907C127.31 25.5927 126.138 23.831 124.809 22.0837C124.809 24.0267 124.809 25.9625 124.809 27.978C121.962 27.978 119.239 27.978 116.438 27.978C116.438 21.8082 116.438 15.624 116.438 9.29474Z" fill="black"/>
<path d="M57.4214 28.007C57.4214 21.7067 57.4214 15.508 57.4214 9.22949C63.9099 9.22949 70.3269 9.22949 76.861 9.22949C76.9848 10.201 76.9001 11.216 76.9196 12.2237C76.9327 13.246 76.9262 14.2755 76.9262 15.421C73.4213 15.421 69.962 15.421 66.4246 15.421C66.4246 16.001 66.4246 16.4722 66.4246 17.1247C69.8383 17.1537 73.2649 17.1247 76.7698 17.1392C76.7698 18.6472 76.7698 20.0755 76.7698 21.6487C73.3496 21.6487 69.9295 21.6487 66.4246 21.6487C66.4246 22.178 66.4246 22.5767 66.4246 23.0987C69.8773 23.0987 73.304 23.0987 76.7894 23.0987C76.7894 24.8025 76.7894 26.3757 76.7894 27.9997C70.3203 28.007 63.923 28.007 57.4214 28.007Z" fill="black"/>
<path d="M94.8028 9.30131C97.6822 9.30131 100.536 9.30131 103.5 9.30131C103.5 9.74356 103.5 10.1206 103.5 10.5048C103.5 13.5208 103.493 16.5368 103.506 19.5456C103.506 20.0676 103.571 20.6041 103.682 21.1188C103.819 21.7786 104.158 22.2716 104.835 22.3441C105.604 22.4238 106.242 22.1483 106.49 21.3943C106.705 20.7491 106.809 20.0241 106.816 19.3281C106.848 16.4208 106.829 13.5136 106.829 10.6063C106.829 10.2221 106.829 9.83781 106.829 9.48256C107.552 9.20706 113.402 9.12006 114.92 9.34481C114.952 9.56231 115.011 9.79431 115.011 10.0336C115.011 13.4701 115.005 16.9138 114.985 20.3503C114.985 20.7418 114.959 21.1333 114.9 21.5176C114.314 25.6066 112.477 27.7961 108.757 28.5863C106.014 29.1663 103.226 29.1808 100.51 28.4051C99.4216 28.0933 98.3141 27.5858 97.3891 26.8971C95.591 25.5558 94.8418 23.4171 94.7702 21.1261C94.6399 17.2981 94.7116 13.4701 94.705 9.64206C94.705 9.55506 94.7441 9.48981 94.8028 9.30131Z" fill="black"/>
<path d="M163.395 28.0071C160.424 28.0071 157.532 28.0071 154.594 28.0071C154.385 27.2458 154.19 26.5063 153.981 25.7306C152.242 25.7306 150.535 25.7306 148.789 25.7306C148.594 26.5063 148.405 27.2458 148.203 28.0143C145.206 28.0143 142.255 28.0143 139.239 28.0143C139.297 27.7316 139.323 27.4923 139.395 27.2748C141.161 21.5836 142.926 15.8923 144.692 10.2011C144.867 9.63559 145.024 9.22234 145.714 9.22959C149.636 9.27309 153.558 9.25134 157.473 9.25134C157.662 9.25134 157.845 9.29484 158.118 9.33109C159.871 15.5226 161.623 21.7286 163.395 28.0071ZM152.985 20.2351C152.483 18.3863 152.007 16.6536 151.538 14.9208C151.48 14.9208 151.421 14.9208 151.362 14.9136C150.854 16.6608 150.346 18.4081 149.812 20.2351C150.913 20.2351 151.871 20.2351 152.985 20.2351Z" fill="black"/>
<path d="M205.635 15.0943C202.137 15.0943 198.736 15.0943 195.27 15.0943C195.27 15.8048 195.27 16.4211 195.27 17.1606C198.73 17.1606 202.156 17.1606 205.642 17.1606C205.642 18.6106 205.642 19.9373 205.642 21.3801C202.222 21.3801 198.821 21.3801 195.355 21.3801C195.355 21.9311 195.355 22.3733 195.355 22.9896C196.463 22.9968 197.596 23.0113 198.723 23.0186C199.87 23.0258 201.016 23.0186 202.163 23.0186C203.303 23.0186 204.443 23.0186 205.642 23.0186C205.642 24.7223 205.642 26.3028 205.642 27.9703C199.433 27.9703 193.238 27.9703 186.964 27.9703C186.964 21.7861 186.964 15.6018 186.964 9.33057C193.173 9.33057 199.368 9.33057 205.629 9.33057C205.635 11.2156 205.635 13.0716 205.635 15.0943Z" fill="black"/>
<path d="M0.229736 9.44675C0.229736 6.2785 0.229736 3.1755 0.229736 0C8.84858 0 17.4283 0 26.0667 0C26.0667 3.132 26.0667 6.235 26.0667 9.34525C25.4022 9.57725 2.3535 9.686 0.229736 9.44675Z" fill="black"/>
<path d="M26.1131 18.4658C26.1131 21.6776 26.1131 24.7806 26.1131 27.9561C17.5204 27.9561 8.97318 27.9561 0.341309 27.9561C0.341309 24.8096 0.341309 21.6848 0.341309 18.4658C8.92758 18.4658 17.4748 18.4658 26.1131 18.4658Z" fill="black"/>
<path d="M93.9555 21.4452C93.9555 23.7144 93.9555 25.7952 93.9555 27.9702C88.6916 27.9702 83.4604 27.9702 78.2096 27.9702C77.9946 27.2597 77.936 10.6354 78.1705 9.31592C80.9718 9.31592 83.7861 9.31592 86.7373 9.31592C86.7373 11.3749 86.7373 13.3832 86.7373 15.3914C86.7373 17.3707 86.7373 19.3499 86.7373 21.4524C89.1672 21.4452 91.4995 21.4452 93.9555 21.4452Z" fill="black"/>
<path d="M207.433 27.9489C207.433 21.7284 207.433 15.5731 207.433 9.35986C210.15 9.35986 212.814 9.35986 215.596 9.35986C215.596 13.3691 215.596 17.3494 215.596 21.4311C218.117 21.4311 220.528 21.4311 223.003 21.4311C223.003 23.6351 223.003 25.7521 223.003 27.8691C222.365 28.0939 208.951 28.1809 207.433 27.9489Z" fill="black"/>
<path d="M13.1423 10.3169C13.1227 10.6431 13.1097 10.8751 13.0902 11.1361C8.784 11.1361 4.52995 11.1361 0.236816 11.1361C0.236816 10.8534 0.236816 10.6214 0.236816 10.3169C4.52995 10.3169 8.77748 10.3169 13.1423 10.3169Z" fill="black"/>
<path d="M13.1416 11.9551C13.1221 12.2668 13.1091 12.4988 13.0895 12.7671C8.78986 12.7671 4.54233 12.7671 0.242676 12.7671C0.242676 12.4698 0.242676 12.2451 0.242676 11.9551C4.52278 11.9551 8.77032 11.9551 13.1416 11.9551Z" fill="black"/>
<path d="M0.28833 15.986C0.040774 15.2755 0.327417 15.116 0.855102 15.1233C2.56845 15.1378 4.28831 15.1305 6.00165 15.1305C8.03421 15.1305 10.0668 15.1305 12.1059 15.1305C12.4186 15.1305 12.7313 15.1305 13.0896 15.1305C13.1026 15.4568 13.1156 15.6888 13.1286 15.9933C8.84203 15.986 4.59449 15.986 0.28833 15.986Z" fill="black"/>
<path d="M13.0763 14.3697C8.78966 14.3697 4.56167 14.3697 0.294591 14.3697C0.144755 13.8984 0.105667 13.5359 0.705012 13.5214C0.802732 13.5214 0.893936 13.5142 0.991656 13.5142C4.77665 13.5142 8.56816 13.5142 12.3532 13.5142C12.7961 13.5214 13.3108 13.4489 13.0763 14.3697Z" fill="black"/>
<path d="M13.1024 16.7548C13.1024 17.1028 13.1024 17.3058 13.1024 17.5596C8.80927 17.5596 4.56174 17.5596 0.294667 17.5596C0.0340827 16.8926 0.314211 16.7476 0.835381 16.7476C2.45752 16.7621 4.07966 16.7476 5.7018 16.7476C7.83208 16.7476 9.96236 16.7476 12.0926 16.7476C12.4053 16.7548 12.718 16.7548 13.1024 16.7548Z" fill="black"/>
</g>
<defs>
<clipPath id="clip0">
<path d="M0.196533 0H222.997V29H0.196533V0Z" fill="white"/>
</clipPath>
</defs>
</svg>
