<svg width="153" height="33" viewBox="0 0 153 33" fill="none" xmlns="http://www.w3.org/2000/svg">
<g clip-path="url(#clip0)">
<path d="M153 0.559079C153 2.40349 153 4.08981 153 5.87275C152.576 5.91666 152.228 5.98693 151.884 5.98253C150.736 5.95619 149.589 5.85518 148.441 5.86397C146.276 5.87714 144.111 5.95179 141.95 5.98693C140.963 6.00449 139.976 6.02645 138.989 5.98253C136.038 5.85079 133.091 6.03962 130.14 6.0001C127.149 5.96058 124.153 5.99132 121.161 5.99132C118.201 5.99132 115.241 5.99132 112.281 5.99132C94.6269 5.99132 76.973 5.99132 59.3146 5.99132C46.5318 5.99132 33.749 5.99132 20.9662 5.99132C16.4031 5.99132 11.8401 5.99132 7.27704 5.99132C5.37055 5.99132 3.46854 5.99571 1.56206 5.98693C1.2138 5.98693 0.861082 5.93423 0.503896 5.90349C-0.0318834 4.16008 0.90573 2.49132 0.302979 0.818175C0.624446 0.708389 0.825363 0.602994 1.03521 0.576645C1.32989 0.541513 1.62903 0.559079 1.92371 0.559079C51.8137 0.559079 101.704 0.559079 151.594 0.559079C152.018 0.559079 152.442 0.559079 153 0.559079Z" fill="black"/>
<path d="M0.780488 10.5495C1.28055 10.5144 1.63327 10.4705 1.98599 10.4705C7.27681 10.4661 12.5721 10.4705 17.8629 10.4661C19.0997 10.4661 20.1846 10.8789 21.1312 11.6342C21.9973 12.328 22.3813 13.2898 22.4349 14.3569C22.4885 15.4855 22.4394 16.6185 22.4527 17.7515C22.4706 19.0953 22.2652 20.3425 20.9168 21.1417C21.0642 21.3525 21.149 21.5282 21.2785 21.6467C22.1224 22.4196 22.5376 23.4253 22.5867 24.4968C22.6492 25.845 22.5644 27.2063 22.4304 28.5501C22.234 30.5087 19.948 32.0764 18.2067 32.0457C12.7819 31.9535 7.35718 32.0106 1.93241 32.0106C1.73596 32.0106 1.53504 32.0194 1.34306 32.0062C0.776024 31.9579 0.588501 31.7427 0.588501 31.2113C0.62422 24.7822 0.659938 18.3487 0.704586 11.9196C0.704586 11.5068 0.749235 11.0984 0.780488 10.5495ZM6.33027 23.377C6.33027 24.9315 6.33027 26.3588 6.33027 27.8694C6.75442 27.8914 7.10715 27.9265 7.4554 27.9265C9.52262 27.9309 11.5854 27.9309 13.6526 27.9309C14.2777 27.9309 14.8983 27.9221 15.5233 27.9265C16.0725 27.9309 16.5369 27.7069 16.7065 27.2195C17.0682 26.1963 17.0503 25.116 16.7333 24.1016C16.6262 23.7678 16.0591 23.5526 15.6751 23.3374C15.5233 23.2496 15.2912 23.2979 15.0947 23.2979C12.5051 23.2979 9.91552 23.2935 7.32146 23.2979C7.03571 23.2979 6.74996 23.3418 6.33027 23.377ZM6.29455 19.0909C6.57137 19.1436 6.69638 19.1919 6.82586 19.1919C9.75032 19.1963 12.6792 19.2051 15.6037 19.1963C16.3627 19.1919 16.8405 18.7044 16.894 17.8964C16.9342 17.286 16.9342 16.6668 16.894 16.052C16.836 15.1605 16.3583 14.7521 15.4251 14.7214C15.1304 14.7126 14.8358 14.6906 14.5411 14.6819C13.2641 14.6467 11.9827 14.6028 10.7058 14.5896C9.49583 14.5765 8.28586 14.594 7.07589 14.6072C6.85712 14.6116 6.63834 14.6511 6.34366 14.6819C6.174 16.1662 6.24543 17.5978 6.29455 19.0909Z" fill="black"/>
<path d="M88.7738 23.8426C88.7738 19.4599 88.7738 15.0772 88.7738 10.7428C89.5775 10.4179 92.9618 10.3608 94.1495 10.6331C94.1897 10.9273 94.2745 11.2654 94.279 11.6036C94.2879 17.5891 94.2656 23.5703 94.3013 29.5559C94.3102 30.9084 93.3369 32.1995 91.8055 32.0239C91.2875 31.9624 90.7518 31.9931 90.2294 32.0195C89.0551 32.0722 88.2649 31.532 87.6219 30.601C86.9075 29.5602 86.0994 28.581 85.3136 27.5885C83.9652 25.8846 82.599 24.1939 81.2461 22.4944C80.2594 21.256 79.2816 20.0176 78.0895 18.8143C78.0895 19.1481 78.0895 19.4818 78.0895 19.82C78.0895 23.4429 78.0895 27.0659 78.0851 30.6889C78.0851 31.0665 78.0315 31.4442 77.9958 31.9492C76.1384 32.0766 74.3614 32.0195 72.4951 31.9931C72.446 31.5188 72.3745 31.1807 72.3745 30.8382C72.3701 24.9492 72.3656 19.0647 72.3745 13.1757C72.3745 11.4543 73.3702 10.4925 75.1249 10.475C75.2901 10.475 75.4553 10.4881 75.616 10.4706C77.1742 10.3125 78.2994 10.9141 79.2057 12.192C80.1969 13.5929 81.3667 14.8664 82.4338 16.2146C84.2867 18.5552 86.1173 20.9091 87.9568 23.2541C88.1309 23.4781 88.3274 23.6889 88.5104 23.9084C88.5952 23.8821 88.6845 23.8645 88.7738 23.8426Z" fill="black"/>
<path d="M148.669 27.7906C148.669 26.337 148.669 24.9274 148.669 23.4167C148.241 23.3728 147.866 23.3025 147.486 23.2981C145.481 23.285 143.472 23.2938 141.467 23.2894C141.115 23.2894 140.762 23.2542 140.284 23.2279C140.213 21.9104 140.226 20.6721 140.289 19.3414C140.717 19.2887 141.061 19.2053 141.405 19.2053C144.856 19.1965 148.312 19.1965 151.763 19.2053C152.08 19.2053 152.397 19.2668 152.67 19.2931C152.969 20.189 152.969 30.9964 152.674 31.9186C152.371 31.9493 152.022 32.0108 151.674 32.0108C146.048 32.0152 140.427 32.0152 134.801 32.0152C133.431 32.0152 132.44 31.4048 131.743 30.2498C131.225 29.3935 130.957 28.5152 130.966 27.5008C130.997 23.263 130.966 19.0253 130.988 14.7875C130.997 13.1583 131.658 11.8145 133.141 11.0108C133.694 10.7122 134.373 10.497 134.998 10.4926C140.588 10.4531 146.178 10.4707 151.772 10.4707C152.062 10.4707 152.353 10.5102 152.728 10.541C153.049 11.8452 152.853 13.1187 152.857 14.3176C152.406 14.8182 151.888 14.7172 151.406 14.7172C147.031 14.7216 142.66 14.726 138.284 14.7172C137.735 14.7172 137.195 14.7348 136.9 15.2574C136.717 15.5823 136.547 15.9688 136.547 16.3333C136.52 19.6664 136.52 22.9951 136.538 26.3283C136.543 27.3076 137.074 27.9092 138.021 27.9136C141.441 27.9399 144.861 27.918 148.281 27.9092C148.37 27.9048 148.464 27.8521 148.669 27.7906Z" fill="black"/>
<path d="M111.866 18.6607C111.767 23.1488 111.915 27.4875 111.785 31.7692C110.946 32.059 107.62 32.1117 106.383 31.8834C106.352 31.6067 106.293 31.2993 106.293 30.9919C106.289 24.9449 106.285 18.8934 106.293 12.8464C106.293 11.3797 107.182 10.5101 108.678 10.475C109.071 10.4662 109.468 10.5058 109.861 10.4662C111.115 10.3477 111.991 10.9405 112.727 11.8539C113.986 13.4217 115.277 14.9631 116.518 16.544C117.84 18.2259 119.108 19.9474 120.425 21.6337C121.023 22.3978 121.679 23.1136 122.452 24.0183C122.474 23.544 122.501 23.2146 122.501 22.8853C122.501 19.2931 122.501 15.7052 122.496 12.113C122.496 11.8539 122.487 11.5948 122.501 11.3357C122.537 10.6243 122.657 10.4882 123.385 10.475C124.599 10.4531 125.818 10.4574 127.037 10.4706C127.921 10.4794 128.037 10.598 128.037 11.5114C128.046 15.3934 128.042 19.2755 128.042 23.1576C128.042 25.3225 128.051 27.4919 128.037 29.6569C128.028 31.1851 127.202 31.9932 125.671 32.0107C125.113 32.0151 124.55 31.9668 123.997 32.0239C122.987 32.1249 122.295 31.6506 121.719 30.9304C120.907 29.916 120.112 28.8928 119.304 27.8696C116.969 24.9141 114.634 21.9587 112.294 19.0032C112.209 18.911 112.102 18.8495 111.866 18.6607Z" fill="black"/>
<path d="M47.6747 31.7473C47.6747 31.3872 47.6747 31.0666 47.6747 30.746C47.6747 24.8614 47.6747 18.9769 47.6747 13.0923C47.6747 11.3445 48.523 10.5058 50.3223 10.475C50.6527 10.4706 50.9787 10.4838 51.309 10.4706C52.4922 10.4267 53.3897 10.9273 54.0951 11.8408C55.7426 13.9662 57.3946 16.0961 59.0689 18.1996C60.5869 20.1011 62.1407 21.9763 63.8195 24.0358C63.8463 23.5528 63.8775 23.2278 63.8775 22.9028C63.8775 19.2184 63.8731 15.5296 63.8775 11.8452C63.8775 11.4631 63.9177 11.0854 63.9356 10.7429C64.6946 10.4223 68.1548 10.3564 69.3469 10.6331C69.3737 10.9449 69.4228 11.2874 69.4228 11.63C69.4273 17.6463 69.4273 23.6582 69.4228 29.6745C69.4228 31.1895 68.5968 31.9976 67.0654 32.0151C66.4091 32.0239 65.7483 32.002 65.092 32.0195C64.4579 32.0371 63.9222 31.8351 63.5159 31.3608C62.7792 30.4957 62.0425 29.6306 61.3326 28.7435C59.7699 26.7937 58.2161 24.8395 56.6713 22.8765C55.689 21.6293 54.7246 20.3646 53.7468 19.113C53.6531 18.9901 53.5325 18.8847 53.2602 18.5948C53.2423 19.1218 53.22 19.4512 53.2155 19.7849C53.2111 23.4079 53.2155 27.0264 53.2111 30.6494C53.2111 30.9085 53.2155 31.1676 53.1932 31.4267C53.1664 31.7604 52.9744 31.9932 52.6351 31.9932C51.0903 31.9976 49.5499 31.98 48.0051 31.958C47.9292 31.9537 47.8488 31.8614 47.6747 31.7473Z" fill="black"/>
<path d="M43.8886 10.5936C44.0002 11.9461 43.9734 13.2153 43.9109 14.6205C43.4198 14.6469 43.0135 14.682 42.6027 14.682C41.6562 14.6908 40.7096 14.682 39.7631 14.6864C39.3032 14.6864 38.8433 14.7084 38.3834 14.704C36.4502 14.6776 34.5124 14.6293 32.5792 14.6293C31.7755 14.6293 31.07 15.1783 30.9986 15.9424C30.9049 16.9568 30.9763 17.9844 30.9763 19.0954C31.4853 19.1394 31.8648 19.1965 32.2443 19.2008C35.6956 19.2096 39.1469 19.2008 42.6027 19.2096C42.9867 19.2096 43.3706 19.2579 43.7144 19.2843C44.0047 20.044 44.0627 21.9016 43.8439 23.2015C43.4957 23.2322 43.1206 23.2937 42.7456 23.2937C39.2585 23.3025 35.776 23.2981 32.2889 23.3025C31.905 23.3025 31.521 23.342 31.0522 23.3727C30.887 24.598 30.8647 25.7529 31.0388 26.8947C31.1281 27.4788 31.6282 27.8169 32.2354 27.9047C32.5568 27.953 32.8917 27.9355 33.2176 27.9355C36.3743 27.9355 39.5309 27.9355 42.6875 27.9355C43.0447 27.9355 43.3974 27.9355 43.7144 27.9355C44.0136 28.704 44.0582 30.8207 43.8127 31.9405C43.4644 31.9668 43.0849 32.0195 42.7009 32.0195C38.2941 32.0239 33.8874 32.0239 29.485 32.0239C27.0651 32.0239 25.431 30.4298 25.4042 28.0189C25.3863 26.337 25.3997 24.655 25.3997 22.9731C25.3997 20.1933 25.3953 17.4091 25.3997 14.6293C25.4042 12.2711 27.0606 10.5189 29.4404 10.497C33.9767 10.453 38.5174 10.4838 43.0536 10.4882C43.268 10.475 43.4912 10.5365 43.8886 10.5936Z" fill="black"/>
<path d="M102.699 31.9404C100.873 32.0677 99.1853 32.015 97.3905 31.9887C97.328 31.5759 97.2342 31.2421 97.2342 30.9084C97.2253 24.4749 97.2253 18.0458 97.2297 11.6123C97.2297 11.3005 97.2789 10.9887 97.3101 10.6681C97.5378 10.5891 97.6852 10.4969 97.837 10.4969C99.2166 10.4837 100.596 10.4837 101.976 10.4793C102.503 10.4749 102.766 10.7252 102.762 11.2478C102.762 11.441 102.766 11.6343 102.766 11.8275C102.766 18.0985 102.766 24.3695 102.762 30.6405C102.762 31.0138 102.726 31.3958 102.699 31.9404Z" fill="black"/>
</g>
<defs>
<clipPath id="clip0">
<path d="M0.302979 0.554688H153V32.0459H0.302979V0.554688Z" fill="white"/>
</clipPath>
</defs>
</svg>
