<svg width="342" height="40" viewBox="0 0 342 40" fill="none" xmlns="http://www.w3.org/2000/svg">
<g clip-path="url(#clip0)">
<path d="M251.56 12.86C251.93 12.81 252.21 12.75 252.5 12.75C260.86 12.78 269.22 12.79 277.58 12.87C278.73 12.88 279.91 13.15 281.03 13.47C283.61 14.21 284.97 16.04 285.35 18.65C285.71 21.18 284.74 23.15 282.74 24.63C282.08 25.12 281.33 25.48 280.55 25.93C280.77 26.02 280.93 26.08 281.1 26.15C284.4 27.4 285.83 29.72 285.41 33.23C285.17 35.22 284.23 36.82 282.3 37.5C280.75 38.04 279.09 38.54 277.47 38.56C268.96 38.68 260.45 38.65 251.95 38.66C251.86 38.66 251.76 38.61 251.56 38.56C251.56 30.07 251.56 21.54 251.56 12.86ZM264.69 23.31C266.68 23.25 268.6 23.53 270.52 23C271.35 22.77 271.76 22.22 271.78 21.43C271.8 20.6 271.31 20.1 270.5 19.89C268.59 19.41 266.68 19.6 264.69 19.65C264.69 20.9 264.69 22 264.69 23.31ZM264.67 28.84C264.67 30.12 264.67 31.26 264.67 32.64C266.6 32.51 268.42 32.41 270.24 32.25C271.14 32.17 271.62 31.58 271.69 30.7C271.75 29.91 271.29 29.33 270.32 29.09C268.47 28.64 266.59 28.78 264.67 28.84Z" fill="white"/>
<path d="M85.7402 38.63C81.4602 38.63 77.3102 38.63 73.0102 38.63C73.0102 36.19 73.0102 33.81 73.0102 31.21C70.7502 31.09 68.6402 31.13 66.4002 31.18C66.4002 33.68 66.4002 36.06 66.4002 38.69C61.8602 38.7 57.4402 38.69 52.9102 38.69C52.9102 30.03 52.9102 21.5 52.9102 12.86C57.3702 12.86 61.7902 12.86 66.3502 12.86C66.3502 15.91 66.3502 18.87 66.3502 21.91C68.5802 21.91 70.6602 21.91 72.9202 21.91C72.9202 18.92 72.9202 15.97 72.9202 13.07C74.1202 12.68 83.7602 12.59 85.7302 12.91C85.7402 21.43 85.7402 29.96 85.7402 38.63Z" fill="white"/>
<path d="M178.43 12.82C182.66 12.82 186.8 12.82 191.11 12.82C191.11 16 191.11 19.15 191.11 22.3C191.2 22.34 191.3 22.37 191.39 22.41C191.62 22.15 191.89 21.91 192.08 21.62C193.84 18.97 195.59 16.32 197.32 13.66C197.69 13.09 198.07 12.73 198.83 12.73C203.28 12.76 207.73 12.75 212.18 12.76C212.36 12.76 212.54 12.83 212.93 12.9C209.75 17.26 206.65 21.51 203.49 25.85C206.6 30.07 209.69 34.26 212.9 38.61C212.36 38.65 212.04 38.69 211.72 38.7C207.37 38.7 203.01 38.68 198.66 38.72C197.83 38.73 197.33 38.45 196.86 37.78C195.12 35.3 193.32 32.87 191.28 30.46C191.28 33.14 191.28 35.81 191.28 38.59C186.91 38.59 182.73 38.59 178.43 38.59C178.43 30.08 178.43 21.55 178.43 12.82Z" fill="white"/>
<path d="M87.8398 38.63C87.8398 29.94 87.8398 21.39 87.8398 12.73C97.7998 12.73 107.65 12.73 117.68 12.73C117.87 14.07 117.74 15.47 117.77 16.86C117.79 18.27 117.78 19.69 117.78 21.27C112.4 21.27 107.09 21.27 101.66 21.27C101.66 22.07 101.66 22.72 101.66 23.62C106.9 23.66 112.16 23.62 117.54 23.64C117.54 25.72 117.54 27.69 117.54 29.86C112.29 29.86 107.04 29.86 101.66 29.86C101.66 30.59 101.66 31.14 101.66 31.86C106.96 31.86 112.22 31.86 117.57 31.86C117.57 34.21 117.57 36.38 117.57 38.62C107.64 38.63 97.8198 38.63 87.8398 38.63Z" fill="white"/>
<path d="M145.22 12.83C149.64 12.83 154.02 12.83 158.57 12.83C158.57 13.44 158.57 13.96 158.57 14.49C158.57 18.65 158.56 22.81 158.58 26.96C158.58 27.68 158.68 28.42 158.85 29.13C159.06 30.04 159.58 30.72 160.62 30.82C161.8 30.93 162.78 30.55 163.16 29.51C163.49 28.62 163.65 27.62 163.66 26.66C163.71 22.65 163.68 18.64 163.68 14.63C163.68 14.1 163.68 13.57 163.68 13.08C164.79 12.7 173.77 12.58 176.1 12.89C176.15 13.19 176.24 13.51 176.24 13.84C176.24 18.58 176.23 23.33 176.2 28.07C176.2 28.61 176.16 29.15 176.07 29.68C175.17 35.32 172.35 38.34 166.64 39.43C162.43 40.23 158.15 40.25 153.98 39.18C152.31 38.75 150.61 38.05 149.19 37.1C146.43 35.25 145.28 32.3 145.17 29.14C144.97 23.86 145.08 18.58 145.07 13.3C145.07 13.18 145.13 13.09 145.22 12.83Z" fill="white"/>
<path d="M250.51 38.6301C245.95 38.6301 241.51 38.6301 237 38.6301C236.68 37.5801 236.38 36.5601 236.06 35.4901C233.39 35.4901 230.77 35.4901 228.09 35.4901C227.79 36.5601 227.5 37.5801 227.19 38.6401C222.59 38.6401 218.06 38.6401 213.43 38.6401C213.52 38.2501 213.56 37.9201 213.67 37.6201C216.38 29.7701 219.09 21.9201 221.8 14.0701C222.07 13.2901 222.31 12.7201 223.37 12.7301C229.39 12.7901 235.41 12.7601 241.42 12.7601C241.71 12.7601 241.99 12.8201 242.41 12.8701C245.1 21.4101 247.79 29.9701 250.51 38.6301ZM234.53 27.9101C233.76 25.3601 233.03 22.9701 232.31 20.5801C232.22 20.5801 232.13 20.5801 232.04 20.5701C231.26 22.9801 230.48 25.3901 229.66 27.9101C231.35 27.9101 232.82 27.9101 234.53 27.9101Z" fill="white"/>
<path d="M315.349 20.8201C309.979 20.8201 304.759 20.8201 299.439 20.8201C299.439 21.8001 299.439 22.6501 299.439 23.6701C304.749 23.6701 310.009 23.6701 315.359 23.6701C315.359 25.6701 315.359 27.5001 315.359 29.4901C310.109 29.4901 304.889 29.4901 299.569 29.4901C299.569 30.2501 299.569 30.8601 299.569 31.7101C301.269 31.7201 303.009 31.7401 304.739 31.7501C306.499 31.7601 308.259 31.7501 310.019 31.7501C311.769 31.7501 313.519 31.7501 315.359 31.7501C315.359 34.1001 315.359 36.2801 315.359 38.5801C305.829 38.5801 296.319 38.5801 286.689 38.5801C286.689 30.0501 286.689 21.5201 286.689 12.8701C296.219 12.8701 305.729 12.8701 315.339 12.8701C315.349 15.4701 315.349 18.0301 315.349 20.8201Z" fill="white"/>
<path d="M0.0498047 13.03C0.0498047 8.66 0.0498047 4.38 0.0498047 0C13.2798 0 26.4498 0 39.7098 0C39.7098 4.32 39.7098 8.6 39.7098 12.89C38.6898 13.21 3.3098 13.36 0.0498047 13.03Z" fill="white"/>
<path d="M39.7797 25.47C39.7797 29.9 39.7797 34.18 39.7797 38.56C26.5897 38.56 13.4697 38.56 0.219727 38.56C0.219727 34.22 0.219727 29.91 0.219727 25.47C13.3997 25.47 26.5197 25.47 39.7797 25.47Z" fill="white"/>
<path d="M143.92 29.5801C143.92 32.7101 143.92 35.5801 143.92 38.5801C135.84 38.5801 127.81 38.5801 119.75 38.5801C119.42 37.6001 119.33 14.6701 119.69 12.8501C123.99 12.8501 128.31 12.8501 132.84 12.8501C132.84 15.6901 132.84 18.4601 132.84 21.2301C132.84 23.9601 132.84 26.6901 132.84 29.5901C136.57 29.5801 140.15 29.5801 143.92 29.5801Z" fill="white"/>
<path d="M318.109 38.5499C318.109 29.9699 318.109 21.4799 318.109 12.9099C322.279 12.9099 326.369 12.9099 330.639 12.9099C330.639 18.4399 330.639 23.9299 330.639 29.5599C334.509 29.5599 338.209 29.5599 342.009 29.5599C342.009 32.5999 342.009 35.5199 342.009 38.4399C341.029 38.7499 320.439 38.8699 318.109 38.5499Z" fill="white"/>
<path d="M19.8696 14.23C19.8396 14.68 19.8196 15 19.7896 15.36C13.1796 15.36 6.64957 15.36 0.0595703 15.36C0.0595703 14.97 0.0595703 14.65 0.0595703 14.23C6.64957 14.23 13.1696 14.23 19.8696 14.23Z" fill="white"/>
<path d="M19.8693 16.49C19.8393 16.92 19.8193 17.24 19.7893 17.61C13.1893 17.61 6.66934 17.61 0.0693359 17.61C0.0693359 17.2 0.0693359 16.89 0.0693359 16.49C6.63934 16.49 13.1593 16.49 19.8693 16.49Z" fill="white"/>
<path d="M0.140238 22.0499C-0.239762 21.0699 0.200238 20.8499 1.01024 20.8599C3.64024 20.8799 6.28024 20.8699 8.91024 20.8699C12.0302 20.8699 15.1502 20.8699 18.2802 20.8699C18.7602 20.8699 19.2402 20.8699 19.7902 20.8699C19.8102 21.3199 19.8302 21.6399 19.8502 22.0599C13.2702 22.0499 6.75024 22.0499 0.140238 22.0499Z" fill="white"/>
<path d="M19.7694 19.8199C13.1894 19.8199 6.69941 19.8199 0.149407 19.8199C-0.0805934 19.1699 -0.140593 18.6699 0.779407 18.6499C0.929407 18.6499 1.06941 18.6399 1.21941 18.6399C7.02941 18.6399 12.8494 18.6399 18.6594 18.6399C19.3394 18.6499 20.1294 18.5499 19.7694 19.8199Z" fill="white"/>
<path d="M19.8098 23.1101C19.8098 23.5901 19.8098 23.8701 19.8098 24.2201C13.2198 24.2201 6.69981 24.2201 0.149808 24.2201C-0.250192 23.3001 0.179808 23.1001 0.979808 23.1001C3.46981 23.1201 5.95981 23.1001 8.44981 23.1001C11.7198 23.1001 14.9898 23.1001 18.2598 23.1001C18.7398 23.1101 19.2198 23.1101 19.8098 23.1101Z" fill="white"/>
</g>
<defs>
<clipPath id="clip0">
<path d="M0 0H342V40H0V0Z" fill="white"/>
</clipPath>
</defs>
</svg>
