<svg width="342" height="114" viewBox="0 0 342 114" fill="none" xmlns="http://www.w3.org/2000/svg">
<g clip-path="url(#clip0)">
<path d="M196.19 113.49C194.33 113.24 192.48 112.96 190.62 112.76C185.7 112.23 180.96 111.06 176.83 108.21C172.84 105.46 170.48 101.6 169.61 96.83C169.51 96.3 169.6 95.75 169.6 95.06C170.18 94.97 170.66 94.84 171.13 94.84C175.63 94.82 180.14 94.85 184.64 94.82C185.65 94.81 186.32 95.08 186.61 96.16C187.27 98.54 188.95 100.1 191.18 100.9C193.1 101.59 195.12 102.14 197.14 102.37C200.9 102.79 204.69 102.79 208.39 101.73C214.31 100.04 215.6 96.6 216.16 91.93C216.4 89.9 216.24 87.82 216.18 85.76C216.17 85.21 215.87 84.67 215.63 83.9C214.61 84.54 213.82 85.02 213.05 85.53C209.44 87.94 205.55 89.75 201.22 90.22C192.2 91.2 183.77 89.71 176.93 83.21C171.02 77.59 167.7 70.69 167.18 62.45C166.85 57.3 167.16 52.25 168.41 47.25C169.83 41.56 172.9 36.96 177.28 33.07C185.09 26.13 194.21 25 203.97 26.9C207.83 27.65 211.26 29.56 214.29 32.11C214.58 32.35 214.92 32.52 215.29 32.76C216.92 31.09 215.74 28.94 216.47 27.01C221 27.01 225.58 27.01 230.36 27.01C230.41 27.78 230.51 28.53 230.51 29.28C230.52 50.13 230.34 70.99 230.6 91.84C230.71 100.47 226.8 106.04 219.44 109.72C215.71 111.58 211.72 112.49 207.57 112.76C205.91 112.87 204.24 112.98 202.58 113.13C202.21 113.16 201.86 113.37 201.51 113.5C199.75 113.49 197.97 113.49 196.19 113.49ZM215.98 58.18C215.83 56.95 215.55 54.92 215.36 52.89C214.7 45.77 209.62 41.02 203.29 39.47C196.37 37.77 186.34 40.94 183.56 50.36C182.39 54.34 182.08 58.32 182.76 62.37C184.44 72.28 191.54 79.24 202.11 77.53C207.44 76.67 211.59 73.87 214.05 68.91C215.61 65.78 215.82 62.4 215.98 58.18Z" fill="white"/>
<path d="M342 42.7501C334.97 40.7501 325.75 42.3601 320.88 48.8801C319.1 51.2601 318.53 53.9901 318.53 56.8901C318.52 68.4501 318.52 80.0201 318.52 91.5801C318.52 92.2901 318.52 93.0101 318.52 93.9101C313.24 93.9101 308.13 93.9101 302.87 93.9101C302.87 71.5901 302.87 49.3401 302.87 26.9401C308.05 26.9401 313.13 26.9401 318.54 26.9401C318.54 30.1501 318.54 33.3101 318.54 36.4701C318.68 36.4901 318.82 36.5201 318.96 36.5401C319.18 36.3301 319.44 36.1501 319.61 35.9101C324.18 29.1701 330.74 26.3301 338.66 26.1101C339.77 26.0801 340.88 26.0801 341.99 26.0701C342 31.6301 342 37.1901 342 42.7501Z" fill="white"/>
<path d="M99.8202 93.98C94.3802 93.98 89.2902 93.98 84.0202 93.98C83.9702 93.18 83.8802 92.48 83.8802 91.78C83.8702 78.55 83.9102 65.31 83.8302 52.08C83.8202 50.05 83.4002 48 82.9402 46.02C82.2202 42.89 79.9702 41.07 77.0002 40.31C73.1502 39.33 69.2802 39.44 65.5802 41.1C60.8202 43.23 58.2602 47.08 57.3402 52.09C57.0802 53.5 56.9802 54.96 56.9802 56.4C56.9502 68.13 56.9602 79.87 56.9602 91.6C56.9602 92.31 56.9602 93.02 56.9602 93.91C51.5402 93.91 46.3102 93.91 40.9502 93.91C40.9502 62.59 40.9502 31.38 40.9502 0.0100098C46.2002 0.0100098 51.3902 0.0100098 56.9102 0.0100098C57.0402 10.82 56.8702 21.65 57.0002 32.48C57.1402 32.54 57.2802 32.6 57.4202 32.66C57.8302 32.34 58.2602 32.06 58.6402 31.71C64.2402 26.48 70.9902 25.03 78.4002 25.61C83.3202 25.99 87.6902 27.79 91.6302 30.64C95.7102 33.59 98.4102 37.54 99.3002 42.52C99.7402 44.97 99.9502 47.48 99.9602 49.97C100.02 63.93 99.9902 77.88 99.9802 91.84C99.9802 92.53 99.8802 93.22 99.8202 93.98Z" fill="white"/>
<path d="M167.57 93.98C161.27 93.98 155.23 93.98 148.96 93.98C148.86 92.11 148.77 90.33 148.65 88.14C147.75 88.64 147.15 88.86 146.67 89.24C141.21 93.6 134.85 95.37 128.01 95.28C121.78 95.19 115.95 93.52 110.83 89.75C101.76 83.06 100.05 68.33 109.62 60.25C113.25 57.19 117.51 55.95 121.87 54.95C129.17 53.27 136.55 51.93 143.9 50.44C143.95 50.43 144.01 50.42 144.06 50.41C148.9 49.44 150.46 44.81 147.29 40.99C145.55 38.9 143.29 37.85 140.68 37.48C136.4 36.88 132.17 37.07 128 38.29C124.2 39.41 122.16 41.94 121.77 45.86C121.72 46.41 121.64 46.96 121.56 47.51C121.55 47.56 121.51 47.61 121.41 47.82C116.48 47.82 111.47 47.82 106.46 47.82C106.29 39.11 109.1 32.87 116.26 28.72C120.15 26.46 124.45 25.47 128.85 25.23C133.38 24.98 137.96 24.91 142.48 25.26C146.85 25.6 151.16 26.65 155.15 28.62C161.24 31.63 164.42 36.45 164.38 43.38C164.31 56.67 164.42 69.96 164.32 83.25C164.29 86.73 165.17 89.82 166.93 92.74C167.12 93.07 167.28 93.42 167.57 93.98ZM148.42 60.65C146.15 61.13 144.09 61.56 142.04 62C137.97 62.87 133.86 63.6 129.84 64.68C127.5 65.3 125.23 66.32 123.07 67.43C120.28 68.87 118.9 72.15 119.52 75.22C120.38 79.54 122.75 81.72 127.37 82.82C131.9 83.89 136.32 83.01 140.5 81.02C145.5 78.64 148.14 74.54 148.73 69.15C148.98 66.84 148.8 64.49 148.78 62.15C148.78 61.74 148.59 61.32 148.42 60.65Z" fill="white"/>
<path d="M298.99 63.9799C282.55 63.9799 266.22 63.9799 249.73 63.9799C249.66 64.6799 249.5 65.2199 249.57 65.7299C250.1 69.8199 251.29 73.6499 253.94 76.9099C260 84.3799 272.98 85.9499 279.83 77.0399C280.98 75.5399 281.6 73.6099 282.34 71.8299C282.64 71.0899 282.86 70.5199 283.77 70.5299C288.66 70.5499 293.56 70.5499 298.45 70.5699C298.61 70.5699 298.76 70.6699 299.07 70.7699C299.5 72.4299 298.88 74.0299 298.29 75.5199C293.88 86.7299 285.51 93.1899 273.79 95.2599C268.28 96.2299 262.69 96.0599 257.26 94.5399C247.74 91.8799 240.89 86.0199 236.97 76.9199C234.06 70.1699 233.72 63.0499 234.2 55.8199C234.48 51.6199 235.18 47.5199 236.77 43.6399C240.16 35.3899 246.08 29.5899 254.49 26.6099C264.91 22.9099 275.1 23.6899 284.65 29.3899C290.94 33.1499 295.09 38.7799 297.38 45.7599C299.21 51.3399 299.45 57.0999 299.23 62.8999C299.2 63.1599 299.11 63.4199 298.99 63.9799ZM282.95 51.6299C282.87 46.2299 280.31 42.4999 276.25 39.5299C270.71 35.4799 263.73 35.2999 257.8 38.9499C253.19 41.7799 250.89 46.0599 250.39 51.6299C261.31 51.6299 272.02 51.6299 282.95 51.6299Z" fill="white"/>
<path d="M0.0200694 81.95C0.0200694 79.95 0.0100694 77.95 0.0200694 75.95C0.0500694 72.36 2.40007 69.71 5.94007 69.6C10.2701 69.47 14.6101 69.46 18.9401 69.61C22.3101 69.72 24.7001 72.1 24.8201 75.49C24.9701 79.82 24.9801 84.16 24.8201 88.49C24.6901 92.09 22.1201 94.4 18.5001 94.44C14.4501 94.48 10.3901 94.48 6.33007 94.44C2.60007 94.4 0.0600694 91.83 0.0300694 88.13C0.0100694 86.06 0.0200694 84.01 0.0200694 81.95Z" fill="white"/>
<path d="M12.5699 56.4399C10.3999 56.4399 8.23995 56.4699 6.06995 56.4299C2.64995 56.3799 0.0699473 53.8399 0.0299473 50.4099C-0.0200527 46.1899 -0.0100527 41.9699 0.0299473 37.7499C0.0599473 34.3699 2.47995 31.7999 5.85995 31.7099C10.0799 31.5999 14.2999 31.6199 18.5199 31.6799C22.2499 31.7299 24.6599 34.0699 24.8399 37.7999C24.9499 40.1299 24.8799 42.4599 24.8799 44.7999C24.8799 46.5199 24.9199 48.2399 24.8699 49.9599C24.7499 54.0599 22.3099 56.4299 18.2399 56.4499C16.3499 56.4499 14.4599 56.4399 12.5699 56.4399Z" fill="white"/>
</g>
<defs>
<clipPath id="clip0">
<path d="M0 0H342V113.49H0V0Z" fill="white"/>
</clipPath>
</defs>
</svg>
