<svg width="342" height="77" viewBox="0 0 342 77" fill="none" xmlns="http://www.w3.org/2000/svg">
<g clip-path="url(#clip0)">
<path d="M260.01 76.14C173.34 76.14 86.67 76.14 0 76.14C0 50.76 0 25.38 0 0C86.67 0 173.34 0 260.01 0C259.99 0.43 259.95 0.86 259.95 1.29C259.95 25.81 259.95 50.33 259.95 74.85C259.95 75.28 259.99 75.71 260.01 76.14ZM190.18 28.02C190.15 28.11 190.12 28.2 190.09 28.29C190.44 28.53 190.78 28.79 191.13 29.01C192.76 30.05 194.38 31.1 196.03 32.1C196.67 32.49 196.95 32.91 196.93 33.7C196.87 36.46 196.88 39.21 196.93 41.97C196.94 42.69 196.72 43.11 196.11 43.48C194.32 44.55 192.56 45.69 190.8 46.81C190.53 46.98 190.29 47.2 189.85 47.53C190.42 47.56 190.73 47.58 191.05 47.58C199.38 47.58 207.71 47.63 216.04 47.55C218.19 47.53 220.37 47.22 222.47 46.77C225.27 46.18 227.88 45.04 229.95 42.96C232.38 40.51 232.72 37.21 230.85 34.33C229.52 32.29 227.61 30.92 225.51 29.77C222.64 28.2 219.48 28 216.32 27.98C208.03 27.93 199.74 27.96 191.45 27.96C191.03 27.97 190.61 28 190.18 28.02ZM170.71 48.57C173.06 48.62 175.81 48.33 178.47 47.56C181.61 46.66 184.57 45.38 186.9 43C189.2 40.66 189.58 37.56 187.85 34.78C187.26 33.83 186.46 32.96 185.62 32.21C183.86 30.65 181.78 29.61 179.58 28.8C175.57 27.31 171.4 27.12 167.21 27.48C163.11 27.84 159.22 29.01 155.86 31.47C154.67 32.34 153.55 33.42 152.72 34.63C150.85 37.35 151.24 40.58 153.57 42.92C154.26 43.61 155.05 44.23 155.87 44.76C160.27 47.55 165.14 48.62 170.71 48.57ZM128.46 48.56C130.62 48.64 133.36 48.32 136.03 47.56C139.21 46.65 142.2 45.35 144.54 42.92C146.74 40.64 147.13 37.59 145.48 34.89C144.88 33.9 144.06 32.99 143.19 32.22C141.44 30.66 139.36 29.6 137.15 28.81C132.94 27.29 128.6 27.11 124.2 27.57C120.29 27.98 116.67 29.21 113.41 31.44C112.16 32.29 111.07 33.31 110.25 34.6C108.5 37.38 108.75 40.47 111.04 42.82C111.86 43.66 112.83 44.38 113.82 44.99C118.13 47.62 122.86 48.62 128.46 48.56ZM107.7 37.85C105.06 37.36 84.22 37.49 83.35 37.83C83.8 38.11 84.2 38.36 84.6 38.59C86.44 39.66 88.3 40.71 90.12 41.8C90.55 42.06 91.37 42.17 91.13 42.88C90.99 43.3 90.41 43.62 89.96 43.88C89.56 44.11 89.09 44.25 88.63 44.36C86.41 44.87 84.16 44.91 81.94 44.39C79.39 43.79 77.77 42.22 77.37 39.58C77.26 38.85 77.27 38.08 77.31 37.34C77.49 34.45 79.36 32.07 82.2 31.56C84 31.23 85.9 31.19 87.72 31.38C92.02 31.81 95.84 33.55 99.29 36.12C99.56 36.32 99.86 36.47 100.18 36.68C100.18 33.75 100.18 30.96 100.18 28C99.16 28.54 98.28 28.98 97.44 29.47C96.95 29.75 96.54 29.78 96 29.55C89.41 26.68 82.65 26.77 75.85 28.62C73.01 29.39 70.41 30.74 68.18 32.7C64.4 36.01 64.44 40.84 68.26 44.05C70.35 45.81 72.79 46.91 75.41 47.58C81.96 49.24 88.47 48.88 94.91 47.01C95.94 46.71 96.78 46.71 97.7 47.23C98.61 47.74 99.58 48.14 100.73 48.68C100.73 46.74 100.76 45.05 100.71 43.36C100.69 42.64 100.93 42.22 101.54 41.84C103.19 40.83 104.79 39.75 106.41 38.7C106.88 38.42 107.29 38.13 107.7 37.85ZM27.74 37.33C27.82 37.38 27.9 37.44 27.98 37.49C28.29 37.27 28.61 37.06 28.9 36.82C30.82 35.3 32.72 33.77 34.64 32.26C34.91 32.05 35.23 31.76 35.54 31.74C36.91 31.68 38.28 31.72 39.64 31.72C39.7 31.95 39.75 32.06 39.75 32.17C39.76 35.52 39.74 38.87 39.78 42.21C39.79 42.79 39.5 43.05 39.08 43.32C37.18 44.52 35.29 45.73 33.4 46.95C33.2 47.08 33.04 47.27 32.77 47.51C40.93 47.51 48.92 47.51 57.18 47.51C56.66 47.14 56.36 46.91 56.04 46.7C54.31 45.6 52.59 44.48 50.84 43.41C50.27 43.06 50.04 42.67 50.05 41.99C50.09 38.88 50.06 35.77 50.07 32.65C50.07 32.35 50.13 32.05 50.18 31.68C51.52 31.68 52.78 31.64 54.04 31.7C54.39 31.72 54.77 31.96 55.07 32.19C57.06 33.74 59.03 35.32 61.01 36.88C61.27 37.08 61.55 37.24 62.05 37.57C61.82 34.22 61.6 31.15 61.38 28.05C50.32 28.05 39.41 28.05 28.42 28.05C28.18 31.23 27.96 34.28 27.74 37.33Z" fill="white"/>
<path d="M265.46 0C303.63 38.17 300.25 34.4 342 76.14C316.5 76.14 290.98 76.14 265.46 76.14C265.48 75.71 265.52 75.28 265.52 74.85C265.52 50.33 265.52 25.81 265.52 1.29C265.52 0.86 265.48 0.43 265.46 0Z" fill="white"/>
<path d="M339.77 2.17C339.77 25.06 339.77 47.95 339.77 70.84C323.67 54.75 315.66 46.83 307.21 38.47C298.48 29.84 289.48 20.93 270.7 2.17H339.77ZM342 0C316.48 0 290.96 0 265.46 0C307.2 41.74 303.83 37.97 342 76.14C341.98 75.71 341.94 75.28 341.94 74.85C341.94 50.33 341.94 25.81 341.94 1.29C341.94 0.86 341.98 0.43 342 0Z" fill="white"/>
<path d="M207.27 43.5199C207.27 39.4899 207.27 35.6799 207.27 31.7299C209.28 31.7299 211.24 31.6799 213.2 31.7499C214.13 31.7799 215.09 31.9599 215.98 32.2199C218.52 32.9699 219.92 34.7299 220.11 37.3799C220.17 38.1899 220.06 39.0299 219.96 39.8399C219.74 41.7399 218.61 42.7799 216.77 43.1399C213.65 43.7599 210.5 43.3999 207.27 43.5199Z" fill="white"/>
<path d="M163.51 37.8699C163.43 33.2799 166.96 30.9299 170.25 30.9299C173.71 30.9299 177.02 33.5199 177 37.8999C176.98 41.9099 174.36 44.5099 170.29 44.5199C166.12 44.5299 163.52 41.9799 163.51 37.8699Z" fill="white"/>
<path d="M127.81 30.98C131.4 30.74 134.6 33.69 134.57 37.88C134.54 41.9 131.81 44.56 127.75 44.55C123.64 44.54 121.04 41.56 121.06 37.76C121.09 34.03 123.92 30.75 127.81 30.98Z" fill="white"/>
</g>
<defs>
<clipPath id="clip0">
<path d="M0 0H342V76.14H0V0Z" fill="white"/>
</clipPath>
</defs>
</svg>
