<svg width="342" height="72" viewBox="0 0 342 72" fill="none" xmlns="http://www.w3.org/2000/svg">
<g clip-path="url(#clip0)">
<path d="M342 0.01C342 4.21 342 8.05 342 12.11C341.05 12.21 340.27 12.37 339.5 12.36C336.93 12.3 334.36 12.07 331.79 12.09C326.94 12.12 322.09 12.29 317.25 12.37C315.04 12.41 312.83 12.46 310.62 12.36C304.01 12.06 297.41 12.49 290.8 12.4C284.1 12.31 277.39 12.38 270.69 12.38C264.06 12.38 257.43 12.38 250.8 12.38C211.26 12.38 171.72 12.38 132.17 12.38C103.54 12.38 74.91 12.38 46.28 12.38C36.06 12.38 25.84 12.38 15.62 12.38C11.35 12.38 7.09 12.39 2.82 12.37C2.04 12.37 1.25 12.25 0.45 12.18C-0.75 8.21 1.35 4.41 0 0.6C0.72 0.35 1.17 0.11 1.64 0.05C2.3 -0.03 2.97 0.01 3.63 0.01C115.37 0.01 227.11 0.01 338.85 0.01C339.8 0.01 340.75 0.01 342 0.01Z" fill="#DADADA"/>
<path d="M1.06965 22.7601C2.18965 22.6801 2.97965 22.5801 3.76965 22.5801C15.6196 22.5701 27.4797 22.5801 39.3297 22.5701C42.0997 22.5701 44.5297 23.5101 46.6497 25.2301C48.5896 26.8101 49.4496 29.0001 49.5696 31.4301C49.6896 34.0001 49.5797 36.5801 49.6096 39.1601C49.6497 42.2201 49.1896 45.0601 46.1696 46.8801C46.4996 47.3601 46.6896 47.7601 46.9796 48.0301C48.8696 49.7901 49.7996 52.0801 49.9096 54.5201C50.0496 57.5901 49.8596 60.6901 49.5597 63.7501C49.1197 68.2101 43.9996 71.7801 40.0996 71.7101C27.9496 71.5001 15.7996 71.6301 3.64965 71.6301C3.20965 71.6301 2.75965 71.6501 2.32965 71.6201C1.05965 71.5101 0.639648 71.0201 0.639648 69.8101C0.719648 55.1701 0.799648 40.5201 0.899648 25.8801C0.899648 24.9401 0.999649 24.0101 1.06965 22.7601ZM13.4996 51.9701C13.4996 55.5101 13.4996 58.7601 13.4996 62.2001C14.4496 62.2501 15.2396 62.3301 16.0196 62.3301C20.6496 62.3401 25.2696 62.3401 29.8996 62.3401C31.2996 62.3401 32.6896 62.3201 34.0896 62.3301C35.3196 62.3401 36.3596 61.8301 36.7397 60.7201C37.5497 58.3901 37.5096 55.9301 36.7996 53.6201C36.5596 52.8601 35.2896 52.3701 34.4296 51.8801C34.0896 51.6801 33.5696 51.7901 33.1297 51.7901C27.3297 51.7901 21.5296 51.7801 15.7196 51.7901C15.0796 51.7901 14.4396 51.8901 13.4996 51.9701ZM13.4196 42.2101C14.0396 42.3301 14.3196 42.4401 14.6096 42.4401C21.1596 42.4501 27.7197 42.4701 34.2696 42.4501C35.9697 42.4401 37.0396 41.3301 37.1596 39.4901C37.2496 38.1001 37.2496 36.6901 37.1596 35.2901C37.0296 33.2601 35.9596 32.3301 33.8696 32.2601C33.2096 32.2401 32.5496 32.1901 31.8896 32.1701C29.0296 32.0901 26.1596 31.9901 23.2996 31.9601C20.5896 31.9301 17.8796 31.9701 15.1696 32.0001C14.6796 32.0101 14.1896 32.1001 13.5296 32.1701C13.1496 35.5501 13.3096 38.8101 13.4196 42.2101Z" fill="#DADADA"/>
<path d="M198.15 53.0301C198.15 43.0501 198.15 33.0701 198.15 23.2001C199.95 22.4601 207.53 22.3301 210.19 22.9501C210.28 23.6201 210.47 24.3901 210.48 25.1601C210.5 38.7901 210.45 52.4101 210.53 66.0401C210.55 69.1201 208.37 72.0601 204.94 71.6601C203.78 71.5201 202.58 71.5901 201.41 71.6501C198.78 71.7701 197.01 70.5401 195.57 68.4201C193.97 66.0501 192.16 63.8201 190.4 61.5601C187.38 57.6801 184.32 53.8301 181.29 49.9601C179.08 47.1401 176.89 44.3201 174.22 41.5801C174.22 42.3401 174.22 43.1001 174.22 43.8701C174.22 52.1201 174.22 60.3701 174.21 68.6201C174.21 69.4801 174.09 70.3401 174.01 71.4901C169.85 71.7801 165.87 71.6501 161.69 71.5901C161.58 70.5101 161.42 69.7401 161.42 68.9601C161.41 55.5501 161.4 42.1501 161.42 28.7401C161.42 24.8201 163.65 22.6301 167.58 22.5901C167.95 22.5901 168.32 22.6201 168.68 22.5801C172.17 22.2201 174.69 23.5901 176.72 26.5001C178.94 29.6901 181.56 32.5901 183.95 35.6601C188.1 40.9901 192.2 46.3501 196.32 51.6901C196.71 52.2001 197.15 52.6801 197.56 53.1801C197.75 53.1201 197.95 53.0801 198.15 53.0301Z" fill="#DADADA"/>
<path d="M332.3 62.0199C332.3 58.7099 332.3 55.4999 332.3 52.0599C331.34 51.9599 330.5 51.7999 329.65 51.7899C325.16 51.7599 320.66 51.7799 316.17 51.7699C315.38 51.7699 314.59 51.6899 313.52 51.6299C313.36 48.6299 313.39 45.8099 313.53 42.7799C314.49 42.6599 315.26 42.4699 316.03 42.4699C323.76 42.4499 331.5 42.4499 339.23 42.4699C339.94 42.4699 340.65 42.6099 341.26 42.6699C341.93 44.7099 341.93 69.3199 341.27 71.4199C340.59 71.4899 339.81 71.6299 339.03 71.6299C326.43 71.6399 313.84 71.6399 301.24 71.6399C298.17 71.6399 295.95 70.2499 294.39 67.6199C293.23 65.6699 292.63 63.6699 292.65 61.3599C292.72 51.7099 292.65 42.0599 292.7 32.4099C292.72 28.6999 294.2 25.6399 297.52 23.8099C298.76 23.1299 300.28 22.6399 301.68 22.6299C314.2 22.5399 326.72 22.5799 339.25 22.5799C339.9 22.5799 340.55 22.6699 341.39 22.7399C342.11 25.7099 341.67 28.6099 341.68 31.3399C340.67 32.4799 339.51 32.2499 338.43 32.2499C328.63 32.2599 318.84 32.2699 309.04 32.2499C307.81 32.2499 306.6 32.2899 305.94 33.4799C305.53 34.2199 305.15 35.0999 305.15 35.9299C305.09 43.5199 305.09 51.0999 305.13 58.6899C305.14 60.9199 306.33 62.2899 308.45 62.2999C316.11 62.3599 323.77 62.3099 331.43 62.2899C331.63 62.2799 331.84 62.1599 332.3 62.0199Z" fill="#DADADA"/>
<path d="M249.87 41.2299C249.65 51.4499 249.98 61.3299 249.69 71.0799C247.81 71.7399 240.36 71.8599 237.59 71.3399C237.52 70.7099 237.39 70.0099 237.39 69.3099C237.38 55.5399 237.37 41.7599 237.39 27.9899C237.39 24.6499 239.38 22.6699 242.73 22.5899C243.61 22.5699 244.5 22.6599 245.38 22.5699C248.19 22.2999 250.15 23.6499 251.8 25.7299C254.62 29.2999 257.51 32.8099 260.29 36.4099C263.25 40.2399 266.09 44.1599 269.04 47.9999C270.38 49.7399 271.85 51.3699 273.58 53.4299C273.63 52.3499 273.69 51.5999 273.69 50.8499C273.69 42.6699 273.69 34.4999 273.68 26.3199C273.68 25.7299 273.66 25.1399 273.69 24.5499C273.77 22.9299 274.04 22.6199 275.67 22.5899C278.39 22.5399 281.12 22.5499 283.85 22.5799C285.83 22.5999 286.09 22.8699 286.09 24.9499C286.11 33.7899 286.1 42.6299 286.1 51.4699C286.1 56.3999 286.12 61.3399 286.09 66.2699C286.07 69.7499 284.22 71.5899 280.79 71.6299C279.54 71.6399 278.28 71.5299 277.04 71.6599C274.78 71.8899 273.23 70.8099 271.94 69.1699C270.12 66.8599 268.34 64.5299 266.53 62.1999C261.3 55.4699 256.07 48.7399 250.83 42.0099C250.64 41.7999 250.4 41.6599 249.87 41.2299Z" fill="#DADADA"/>
<path d="M106.1 71.0299C106.1 70.2099 106.1 69.4799 106.1 68.7499C106.1 55.3499 106.1 41.9499 106.1 28.5499C106.1 24.5699 108 22.6599 112.03 22.5899C112.77 22.5799 113.5 22.6099 114.24 22.5799C116.89 22.4799 118.9 23.6199 120.48 25.6999C124.17 30.5399 127.87 35.3899 131.62 40.1799C135.02 44.5099 138.5 48.7799 142.26 53.4699C142.32 52.3699 142.39 51.6299 142.39 50.8899C142.39 42.4999 142.38 34.0999 142.39 25.7099C142.39 24.8399 142.48 23.9799 142.52 23.1999C144.22 22.4699 151.97 22.3199 154.64 22.9499C154.7 23.6599 154.81 24.4399 154.81 25.2199C154.82 38.9199 154.82 52.6099 154.81 66.3099C154.81 69.7599 152.96 71.5999 149.53 71.6399C148.06 71.6599 146.58 71.6099 145.11 71.6499C143.69 71.6899 142.49 71.2299 141.58 70.1499C139.93 68.1799 138.28 66.2099 136.69 64.1899C133.19 59.7499 129.71 55.2999 126.25 50.8299C124.05 47.9899 121.89 45.1099 119.7 42.2599C119.49 41.9799 119.22 41.7399 118.61 41.0799C118.57 42.2799 118.52 43.0299 118.51 43.7899C118.5 52.0399 118.51 60.2799 118.5 68.5299C118.5 69.1199 118.51 69.7099 118.46 70.2999C118.4 71.0599 117.97 71.5899 117.21 71.5899C113.75 71.5999 110.3 71.5599 106.84 71.5099C106.67 71.4999 106.49 71.2899 106.1 71.0299Z" fill="#DADADA"/>
<path d="M97.62 22.86C97.87 25.94 97.81 28.83 97.67 32.03C96.57 32.09 95.66 32.17 94.74 32.17C92.62 32.19 90.5 32.17 88.38 32.18C87.35 32.18 86.32 32.23 85.29 32.22C80.96 32.16 76.62 32.05 72.29 32.05C70.49 32.05 68.91 33.3 68.75 35.04C68.54 37.35 68.7 39.69 68.7 42.22C69.84 42.32 70.69 42.45 71.54 42.46C79.27 42.48 87 42.46 94.74 42.48C95.6 42.48 96.46 42.59 97.23 42.65C97.88 44.38 98.01 48.61 97.52 51.57C96.74 51.64 95.9 51.78 95.06 51.78C87.25 51.8 79.45 51.79 71.64 51.8C70.78 51.8 69.92 51.89 68.87 51.96C68.5 54.75 68.45 57.38 68.84 59.98C69.04 61.31 70.16 62.08 71.52 62.28C72.24 62.39 72.99 62.35 73.72 62.35C80.79 62.35 87.86 62.35 94.93 62.35C95.73 62.35 96.52 62.35 97.23 62.35C97.9 64.1 98 68.92 97.45 71.47C96.67 71.53 95.82 71.65 94.96 71.65C85.09 71.66 75.22 71.66 65.36 71.66C59.94 71.66 56.28 68.03 56.22 62.54C56.18 58.71 56.21 54.88 56.21 51.05C56.21 44.72 56.2 38.38 56.21 32.05C56.22 26.68 59.93 22.69 65.26 22.64C75.42 22.54 85.59 22.61 95.75 22.62C96.23 22.59 96.73 22.73 97.62 22.86Z" fill="#DADADA"/>
<path d="M229.34 71.47C225.25 71.76 221.47 71.64 217.45 71.58C217.31 70.64 217.1 69.88 217.1 69.12C217.08 54.47 217.08 39.83 217.09 25.18C217.09 24.47 217.2 23.76 217.27 23.03C217.78 22.85 218.11 22.64 218.45 22.64C221.54 22.61 224.63 22.61 227.72 22.6C228.9 22.59 229.49 23.16 229.48 24.35C229.48 24.79 229.49 25.23 229.49 25.67C229.49 39.95 229.49 54.23 229.48 68.51C229.48 69.36 229.4 70.23 229.34 71.47Z" fill="#DADADA"/>
</g>
<defs>
<clipPath id="clip0">
<path d="M0 0H342V71.71H0V0Z" fill="#DADADA"/>
</clipPath>
</defs>
</svg>
