<svg width="342" height="67" viewBox="0 0 342 67" fill="none" xmlns="http://www.w3.org/2000/svg">
<g clip-path="url(#clip0)">
<path d="M287.18 6.22993C287.4 6.21993 287.61 6.18993 287.82 6.18993C291.35 6.18993 294.88 6.19993 298.41 6.17993C298.92 6.17993 299.22 6.35993 299.51 6.74993C304.33 13.1999 309.16 19.6499 313.99 26.0899C314.15 26.3099 314.32 26.5199 314.54 26.7899C314.78 26.4799 314.99 26.2199 315.19 25.9599C319.27 20.5899 323.35 15.2199 327.44 9.84993C328.25 8.78993 329.05 7.72993 329.85 6.65993C330.06 6.36993 330.29 6.17993 330.68 6.17993C334.36 6.18993 338.04 6.18993 341.72 6.18993C341.8 6.18993 341.88 6.21993 342.01 6.23993C342.01 24.2099 342.01 42.1699 342.01 60.1899C337.52 60.1899 333.01 60.1899 328.41 60.1899C328.41 49.2999 328.41 38.3999 328.41 27.4999C328.34 27.4599 328.28 27.4199 328.21 27.3799C328.14 27.5099 328.08 27.6399 328 27.7599C323.98 33.2599 319.96 38.7499 315.95 44.2499C315.69 44.6099 315.4 44.7199 314.96 44.7699C313.93 44.8999 313.35 44.4699 312.75 43.6399C308.92 38.3199 305.03 33.0499 301.15 27.7599C301.07 27.6499 300.97 27.5499 300.77 27.4799C300.77 38.3799 300.77 49.2899 300.77 60.2199C296.2 60.2199 291.7 60.2199 287.18 60.2199C287.18 42.1999 287.18 24.2399 287.18 6.22993Z" fill="white"/>
<path d="M225.28 36.69C224.67 36.69 224.11 36.69 223.46 36.69C223.38 36 223.25 35.3 223.21 34.59C223.05 31.62 223.47 28.72 224.52 25.94C226.58 20.46 230.09 16.16 235.18 13.24C237.97 11.63 241.01 10.7 244.22 10.32C247.85 9.89996 251.39 10.25 254.86 11.37C257.93 12.36 260.7 13.92 263.11 16.08C263.2 16.16 263.32 16.22 263.48 16.32C262.82 17.02 262.24 17.63 261.62 18.29C261.76 18.45 261.88 18.62 262.02 18.76C266.03 22.65 268.72 27.29 269.87 32.77C271.49 40.5 270.1 47.69 265.67 54.24C262.67 58.67 258.66 61.94 253.79 64.15C251.04 65.4 248.16 66.16 245.15 66.51C241.15 66.97 237.22 66.66 233.36 65.52C229.39 64.34 225.9 62.28 222.78 59.56C222.6 59.41 222.43 59.26 222.25 59.11C222.2 59.07 222.14 59.05 222.06 59.01C221.2 59.88 220.35 60.75 219.42 61.69C218.53 60.75 217.66 59.89 216.85 58.98C212.93 54.53 210.27 49.43 208.92 43.65C207.96 39.53 207.76 35.37 208.31 31.17C209.27 23.81 212.31 17.42 217.28 11.94C220.81 8.04996 225.02 5.07996 229.85 3.00996C233.43 1.47996 237.15 0.529964 241.03 0.179964C248.41 -0.480036 255.36 0.929964 261.87 4.48996C262 4.55996 262.13 4.62996 262.25 4.70996C262.28 4.72996 262.3 4.77996 262.37 4.86996C262.17 5.08996 261.97 5.31996 261.76 5.54996C261.55 5.77996 261.34 6.01996 261.1 6.27996C260.71 6.10996 260.33 5.93996 259.95 5.77996C255.73 4.00996 251.32 3.20996 246.76 3.51996C238.13 4.10996 230.96 7.68996 225.47 14.45C222.27 18.39 220.27 22.91 219.6 27.95C218.48 36.41 220.74 43.9 226.3 50.38C226.88 51.05 227.53 51.66 228.15 52.3C228.21 52.36 228.29 52.39 228.39 52.46C229.22 51.56 230.05 50.67 230.89 49.77C231.46 50.23 231.85 50.57 232.27 50.89C235.98 53.69 240.17 54.98 244.79 54.67C252.84 54.14 259.37 48.67 261.28 41.29C262.59 36.25 261.82 31.48 258.93 27.16C255.68 22.3 251.05 19.54 245.21 19.12C237.73 18.58 231.88 21.53 227.82 27.86C226.17 30.44 225.4 33.33 225.29 36.39C225.31 36.44 225.29 36.53 225.28 36.69Z" fill="white"/>
<path d="M34.98 45.2399C33.57 45.4999 32.21 45.6899 30.88 46.0099C25.72 47.2799 21.09 49.5699 17.25 53.3099C15.34 55.1799 13.83 57.3299 13 59.9099C12.96 60.0299 12.9 60.1399 12.83 60.2799C8.59 60.2799 4.35 60.2799 0 60.2799C6.9 42.2299 13.77 24.2299 20.66 6.18994C25.7 6.18994 30.72 6.18994 35.84 6.18994C43.24 24.1399 50.65 42.1399 58.1 60.2099C53.78 60.2099 49.54 60.2099 45.21 60.2099C39.61 46.6099 33.99 32.9699 28.37 19.3199C28.32 19.3099 28.28 19.2999 28.23 19.2899C25.35 26.8499 22.48 34.3999 19.56 42.0599C19.77 42.0099 19.88 41.9899 19.99 41.9499C22.8 40.8699 25.73 40.4099 28.72 40.3099C29.88 40.2699 31.04 40.3299 32.2 40.3299C32.79 40.3299 33.13 40.5399 33.35 41.1599C33.84 42.5299 34.43 43.8599 34.98 45.2399Z" fill="white"/>
<path d="M147.62 17.3199C145.88 16.8099 144.22 16.2799 142.52 15.8499C139.38 15.0399 136.19 14.5699 132.94 14.6399C130.5 14.6899 128.09 14.9899 125.85 16.0399C125.13 16.3699 124.44 16.8099 123.81 17.2999C121.77 18.9199 122.08 21.3599 123.43 22.8999C124.54 24.1599 125.99 24.9199 127.54 25.4299C130.02 26.2599 132.53 26.9899 135.04 27.7399C138.08 28.6399 141.11 29.5399 143.92 31.0499C146.16 32.2599 148.14 33.7699 149.57 35.9299C150.77 37.7299 151.42 39.7099 151.62 41.8499C151.88 44.6399 151.64 47.3799 150.76 50.0499C149.34 54.3399 146.44 57.2799 142.43 59.2099C139.39 60.6699 136.16 61.4499 132.81 61.7499C130.83 61.9299 128.85 62.0899 126.87 62.0699C121.51 62.0099 116.22 61.3799 111.06 59.8399C110.92 59.7999 110.79 59.7399 110.57 59.6599C110.99 55.8299 111.41 51.9999 111.84 48.1399C112.76 48.4899 113.62 48.8499 114.49 49.1399C117.28 50.0899 120.15 50.6599 123.09 50.8699C124.63 50.9799 126.17 51.1099 127.71 51.0799C130.37 51.0299 133.03 50.8399 135.54 49.8399C136.31 49.5299 137.07 49.0999 137.73 48.5899C139.71 47.0599 139.69 44.3999 138.5 42.6599C137.9 41.7899 137.07 41.1699 136.16 40.6599C134.2 39.5699 132.06 38.9899 129.94 38.3699C127.43 37.6399 124.9 36.9699 122.41 36.1799C119.75 35.3299 117.21 34.1799 115 32.4099C112.38 30.3099 110.78 27.6199 110.26 24.2899C109.77 21.1599 110 18.0899 111.15 15.1299C112.53 11.5999 115.05 9.10993 118.32 7.29993C120.86 5.88993 123.59 5.04993 126.43 4.51993C129.16 4.00993 131.91 3.77993 134.69 3.86993C137.89 3.96993 141.03 4.51993 144.12 5.31993C145.44 5.65993 146.74 6.12993 148.05 6.52993C148.43 6.63993 148.55 6.81993 148.51 7.25993C148.32 9.06993 148.21 10.8799 148.05 12.6999C147.9 14.2399 147.76 15.7699 147.62 17.3199Z" fill="white"/>
<path d="M186.7 60.2001C182.12 60.2001 177.63 60.2001 173.04 60.2001C173.04 59.9301 173.04 59.6801 173.04 59.4401C173.04 45.5101 173.04 31.5801 173.04 17.6501C173.04 16.6301 173.16 16.6901 172.09 16.6901C166.72 16.6901 161.35 16.6901 155.97 16.6901C155.74 16.6901 155.52 16.6901 155.25 16.6901C155.25 13.1901 155.25 9.77006 155.25 6.31006C171.66 6.31006 188.03 6.31006 204.47 6.31006C204.47 9.74006 204.47 13.1801 204.47 16.6901C198.56 16.6901 192.67 16.6901 186.7 16.6901C186.7 31.2301 186.7 45.7001 186.7 60.2001Z" fill="white"/>
<path d="M66.8701 60.1899C66.8701 42.16 66.8701 24.2 66.8701 6.19995C71.2901 6.19995 75.6801 6.19995 80.1201 6.19995C80.1201 20.69 80.1201 35.15 80.1201 49.7C88.3101 49.7 96.4301 49.7 104.59 49.7C104.59 53.24 104.59 56.6999 104.59 60.1899C92.0201 60.1899 79.4801 60.1899 66.8701 60.1899Z" fill="white"/>
<path d="M274.38 48.6401C279.31 38.7701 278.68 29.1901 273.16 19.8101C273.34 19.6001 273.52 19.3901 273.71 19.2001C274.61 18.2501 275.52 17.3101 276.47 16.3101C276.6 16.4801 276.73 16.6201 276.81 16.7701C278.81 20.2801 280.1 24.0501 280.6 28.0601C281.49 35.1901 280.04 41.8501 276.45 48.0601C276.21 48.4701 275.95 48.7101 275.45 48.6601C275.12 48.6201 274.78 48.6401 274.38 48.6401Z" fill="white"/>
</g>
<defs>
<clipPath id="clip0">
<path d="M0 0H342V66.69H0V0Z" fill="white"/>
</clipPath>
</defs>
</svg>
