<svg width="342" height="84" viewBox="0 0 342 84" fill="none" xmlns="http://www.w3.org/2000/svg">
<g clip-path="url(#clip0)">
<path d="M44.7803 0.01C44.9003 0.01 45.0203 0 45.1403 0C57.6103 0 70.0903 0 82.5603 0C82.8203 0 83.0803 0 83.4103 0C83.4103 27.76 83.4103 55.43 83.4103 83.19C83.1403 83.21 82.8903 83.25 82.6303 83.25C70.2803 83.25 57.9303 83.25 45.5703 83.25C45.3503 83.25 45.1303 83.22 44.9203 83.21C45.1503 82.93 45.3603 82.63 45.6003 82.36C47.4803 80.32 49.1703 78.14 50.7203 75.84C54.4503 70.31 57.2303 64.33 59.0103 57.9C60.1603 53.73 60.8903 49.48 61.0903 45.17C61.2103 42.51 61.0903 39.84 61.0003 37.18C60.9003 34.29 60.4303 31.45 59.8103 28.63C58.2603 21.53 55.5203 14.91 51.6003 8.78C49.5903 5.66 47.3103 2.73 44.7803 0.01Z" fill="white"/>
<path d="M105.98 65.73C105.98 50.2 105.98 34.71 105.98 19.15C106.18 19.13 106.39 19.09 106.6 19.09C115.33 19.09 124.06 19.07 132.79 19.1C134.47 19.1 136.14 19.29 137.75 19.81C140.31 20.63 142.11 22.28 142.92 24.83C144.18 28.82 144.23 32.85 142.85 36.82C141.83 39.74 139.79 41.59 136.7 42.22C136.45 42.27 136.2 42.34 135.77 42.45C136.22 42.59 136.51 42.68 136.81 42.76C138.79 43.28 140.52 44.21 141.77 45.87C142.93 47.41 143.45 49.2 143.56 51.09C143.68 53.17 143.67 55.26 143.75 57.34C143.85 60.08 144.08 62.81 144.99 65.43C145.02 65.52 145.02 65.62 145.03 65.75C140.27 65.75 135.53 65.75 130.67 65.75C130.5 64.8 130.29 63.84 130.15 62.86C129.69 59.71 129.68 56.53 129.56 53.36C129.53 52.64 129.44 51.91 129.3 51.2C128.8 48.7 127.52 47.46 124.98 47.2C123.49 47.05 121.97 47.12 120.47 47.09C120.4 47.09 120.33 47.13 120.2 47.18C120.2 53.34 120.2 59.51 120.2 65.73C115.44 65.73 110.76 65.73 105.98 65.73ZM120.23 37.78C121.91 37.78 123.51 37.82 125.11 37.76C125.75 37.74 126.4 37.54 127.02 37.32C130.26 36.17 130.14 31.6 128.54 30.11C128.28 29.86 127.99 29.6 127.67 29.47C127 29.2 126.31 28.88 125.61 28.83C123.89 28.71 122.17 28.74 120.44 28.71C120.38 28.71 120.31 28.77 120.23 28.81C120.23 31.78 120.23 34.76 120.23 37.78Z" fill="white"/>
<path d="M299.58 50.9101C292.15 50.9101 284.79 50.9101 277.34 50.9101C277.4 52.5501 277.17 54.1201 277.56 55.6701C278.02 57.5001 279.3 58.4801 281.21 58.5001C283.24 58.5201 284.74 57.4801 285.24 55.7001C285.34 55.3501 285.39 54.9901 285.48 54.5801C290.15 54.5801 294.82 54.5801 299.49 54.5801C299.53 54.6301 299.58 54.6601 299.58 54.7001C299.64 56.5401 299.75 58.3901 299.37 60.2101C298.7 63.5001 296.66 65.4201 293.31 65.9101C292.35 66.0501 291.38 66.1301 290.41 66.1301C284.38 66.1501 278.35 66.1601 272.32 66.1301C271.16 66.1201 269.98 66.0301 268.85 65.8001C265.71 65.1601 263.9 63.2501 263.38 60.0701C263.21 59.0201 263.11 57.9501 263.11 56.8901C263.09 50.3901 263.08 43.9001 263.11 37.4001C263.12 36.2701 263.21 35.1201 263.42 34.0101C264.01 31.0001 265.9 29.1801 268.88 28.5701C270.23 28.3001 271.62 28.1601 273 28.1501C278.74 28.1001 284.47 28.1101 290.21 28.1501C291.49 28.1601 292.79 28.3001 294.04 28.5601C297.06 29.1801 298.8 31.1201 299.37 34.1101C299.52 34.8901 299.61 35.7001 299.61 36.4901C299.63 41.0501 299.62 45.6101 299.62 50.1601C299.62 50.3501 299.6 50.5601 299.58 50.9101ZM285.37 43.3301C285.37 42.0701 285.4 40.8801 285.36 39.7001C285.35 39.2701 285.21 38.8401 285.08 38.4301C284.48 36.6501 283.16 35.7501 281.19 35.7701C279.45 35.7901 278.13 36.7801 277.6 38.5101C277.45 38.9901 277.38 39.5001 277.36 40.0101C277.32 40.9301 277.35 41.8501 277.35 42.7701C277.35 42.9501 277.39 43.1401 277.41 43.3301C280.08 43.3301 282.7 43.3301 285.37 43.3301Z" fill="white"/>
<path d="M150.07 46.9999C150.07 43.6999 150.04 40.4099 150.09 37.1099C150.1 35.9999 150.2 34.8799 150.43 33.7999C151.07 30.7399 153.05 28.8899 156.16 28.3999C157.26 28.2299 158.38 28.1299 159.5 28.1299C165.46 28.0999 171.41 28.0999 177.37 28.1299C178.6 28.1399 179.85 28.2699 181.06 28.4999C184.05 29.0699 185.76 30.9699 186.31 33.9099C186.49 34.8799 186.59 35.8799 186.59 36.8699C186.61 43.6799 186.62 50.4999 186.58 57.3099C186.57 58.4399 186.43 59.5899 186.15 60.6799C185.43 63.4899 183.52 65.1499 180.72 65.7399C179.56 65.9799 178.36 66.0999 177.18 66.1099C171.25 66.1499 165.32 66.1399 159.38 66.1099C158.24 66.0999 157.09 66.0299 155.98 65.8099C152.64 65.1499 150.81 63.1999 150.3 59.8499C150.16 58.9199 150.1 57.9699 150.09 57.0299C150.06 55.3599 150.08 53.6799 150.08 52.0099C150.07 50.3399 150.07 48.6699 150.07 46.9999ZM164.29 47.2399C164.29 49.5899 164.28 51.9399 164.3 54.2899C164.3 54.7999 164.35 55.3099 164.46 55.7999C164.75 57.1899 165.58 58.1299 167.01 58.3399C167.88 58.4699 168.8 58.4699 169.68 58.3399C171.04 58.1399 171.89 57.2599 172.17 55.9199C172.33 55.1699 172.39 54.3799 172.39 53.6099C172.41 49.3199 172.4 45.0299 172.4 40.7399C172.4 40.2299 172.38 39.7199 172.31 39.2199C172.08 37.6699 171.44 36.3799 169.83 35.8499C168.96 35.5599 168.06 35.5499 167.17 35.7599C165.96 36.0399 165.11 36.7599 164.72 37.9199C164.49 38.6199 164.33 39.3799 164.31 40.1199C164.26 42.4899 164.29 44.8599 164.29 47.2399Z" fill="white"/>
<path d="M341.99 43.64C337.23 43.64 332.58 43.64 327.84 43.64C327.82 43.36 327.8 43.11 327.79 42.85C327.76 41.71 327.77 40.57 327.7 39.44C327.54 36.63 324.52 35.26 322.47 35.94C320.87 36.47 320.14 37.68 319.86 39.23C319.76 39.78 319.72 40.34 319.72 40.89C319.71 45.16 319.7 49.42 319.73 53.69C319.74 54.43 319.84 55.2 320.05 55.91C320.55 57.59 321.87 58.53 323.63 58.58C325.34 58.62 326.88 57.64 327.4 56.03C327.65 55.24 327.72 54.37 327.78 53.53C327.84 52.62 327.79 51.7 327.79 50.72C332.54 50.72 337.21 50.72 341.9 50.72C341.93 50.8 341.98 50.87 341.98 50.93C341.95 53.62 341.95 56.31 341.86 59C341.83 59.83 341.62 60.68 341.36 61.48C340.56 63.93 338.77 65.31 336.29 65.74C334.86 65.99 333.39 66.1 331.94 66.11C326.25 66.15 320.56 66.15 314.87 66.11C313.61 66.1 312.34 65.98 311.11 65.74C308.18 65.16 306.43 63.32 305.85 60.41C305.66 59.47 305.55 58.49 305.55 57.53C305.53 50.6 305.52 43.66 305.55 36.73C305.55 35.72 305.68 34.69 305.9 33.71C306.57 30.76 308.52 29.06 311.45 28.56C313.09 28.28 314.78 28.15 316.45 28.13C321.87 28.08 327.29 28.09 332.72 28.12C333.88 28.13 335.06 28.22 336.2 28.44C339.38 29.06 341.18 30.94 341.72 34.12C341.89 35.12 341.97 36.14 341.99 37.15C342.03 39.02 342 40.88 342 42.75C341.99 43.02 341.99 43.28 341.99 43.64Z" fill="white"/>
<path d="M231.18 28.5C230.71 29.58 230.3 30.53 229.88 31.48C227.87 36.07 225.86 40.67 223.83 45.25C223.64 45.69 223.65 46.05 223.85 46.48C226.57 52.51 229.28 58.54 231.99 64.57C232.15 64.92 232.29 65.27 232.48 65.7C227.32 65.7 222.23 65.7 217.07 65.7C215.15 61.4 213.2 57.05 211.21 52.58C209.2 57.05 207.24 61.39 205.28 65.72C200.64 65.72 196.05 65.72 191.39 65.72C191.61 65.2 191.81 64.73 192.01 64.27C194.57 58.46 197.13 52.65 199.7 46.85C199.93 46.34 199.92 45.92 199.7 45.42C197.4 40.11 195.11 34.79 192.82 29.47C192.7 29.18 192.58 28.89 192.43 28.54C197.36 28.54 202.23 28.54 207.17 28.54C208.84 32.44 210.53 36.38 212.27 40.43C212.41 40.16 212.52 39.99 212.6 39.8C214.15 36.27 215.71 32.75 217.23 29.21C217.46 28.67 217.72 28.45 218.34 28.46C222.33 28.49 226.32 28.48 230.3 28.48C230.55 28.5 230.8 28.5 231.18 28.5Z" fill="white"/>
<path d="M0 77.11C3.11 77.29 6.15 76.81 9.15 76.02C14.04 74.74 18.47 72.51 22.38 69.33C26.74 65.79 30.14 61.48 32.47 56.34C33.99 53 34.96 49.51 35.4 45.88C35.7 43.37 35.68 40.86 35.47 38.34C35.16 34.61 34.23 31.03 32.76 27.6C31.29 24.17 29.31 21.05 26.83 18.23C23.5 14.43 19.54 11.48 14.96 9.36002C11.61 7.81002 8.1 6.76002 4.42 6.38002C2.96 6.24002 1.48 6.21002 0 6.12002C0 4.10002 0 2.09002 0 0.0200195C0.89 0.0200195 1.69 0.0200195 2.49 0.0200195C2.63 0.0600195 2.76 0.12002 2.9 0.14002C4.39 0.33002 5.9 0.45002 7.37 0.71002C16.44 2.36002 24.13 6.55002 30.45 13.25C32.69 15.63 34.62 18.23 36.24 21.06C39.55 26.82 41.31 33.04 41.68 39.66C41.8 41.86 41.7 44.06 41.45 46.26C40.9 51.15 39.54 55.81 37.34 60.2C34.43 66 30.38 70.86 25.21 74.79C21.65 77.51 17.73 79.59 13.49 81.03C10.65 81.99 7.75 82.68 4.76 82.97C4.19 83.02 3.62 83.14 3.05 83.23C2.07 83.23 1.08 83.23 0 83.23C0 81.14 0 79.13 0 77.11Z" fill="white"/>
<path d="M239.75 36.1401C238.91 36.1401 238.17 36.1401 237.39 36.1401C237.36 35.8501 237.33 35.6401 237.33 35.4301C237.33 33.4701 237.34 31.5001 237.32 29.5401C237.32 29.1101 237.42 28.8501 237.83 28.6201C243 25.7301 248.16 22.8201 253.32 19.9201C253.48 19.8301 253.66 19.7601 253.94 19.6201C253.94 22.6001 253.94 25.4901 253.94 28.4801C255.03 28.4801 256.04 28.4801 257.1 28.4801C257.1 31.0501 257.1 33.5301 257.1 36.0901C256.08 36.0901 255.07 36.0901 254.01 36.0901C254.01 43.6001 254.01 51.0201 254.01 58.5101C255.09 58.5101 256.13 58.5101 257.22 58.5101C257.22 61.0501 257.22 63.5301 257.22 66.0601C257.06 66.0901 256.9 66.1401 256.74 66.1401C253.61 66.1301 250.47 66.1301 247.34 66.0901C246.07 66.0701 244.84 65.7901 243.68 65.2401C241.59 64.2501 240.52 62.5101 240.07 60.3401C239.88 59.4001 239.78 58.4201 239.78 57.4601C239.76 50.7001 239.77 43.9301 239.77 37.1701C239.75 36.8601 239.75 36.5701 239.75 36.1401Z" fill="white"/>
<path d="M35.1599 0.0100098C35.4099 0.27001 35.6399 0.56001 35.9099 0.79001C40.1599 4.52001 43.7699 8.77001 46.6799 13.61C50.3499 19.71 52.7799 26.26 53.8199 33.31C54.1299 35.44 54.2799 37.59 54.4099 39.74C54.7199 44.59 54.1299 49.37 53.0499 54.08C52.0999 58.2 50.6499 62.16 48.7399 65.95C46.4899 70.4 43.7499 74.49 40.3399 78.13C38.7799 79.79 37.0799 81.32 35.4499 82.91C35.3499 83.01 35.2499 83.12 35.1599 83.23C31.6999 83.23 28.2499 83.23 24.7899 83.23C26.1899 82.27 27.6299 81.36 28.9899 80.35C34.6199 76.15 39.1199 70.97 42.5099 64.83C45.3199 59.74 47.1099 54.31 47.9399 48.57C48.3599 45.69 48.5399 42.79 48.4099 39.87C48.1599 34.13 46.9999 28.58 44.7899 23.27C42.8599 18.62 40.2799 14.37 37.0199 10.52C33.5899 6.46001 29.5999 3.06001 25.0499 0.32001C24.8999 0.23001 24.7699 0.13001 24.6299 0.0300098C28.1499 0.0200098 31.6599 0.0100098 35.1599 0.0100098Z" fill="white"/>
</g>
<defs>
<clipPath id="clip0">
<path d="M0 0H342V83.25H0V0Z" fill="white"/>
</clipPath>
</defs>
</svg>
