<svg width="342" height="96" viewBox="0 0 342 96" fill="none" xmlns="http://www.w3.org/2000/svg">
<g clip-path="url(#clip0)">
<path d="M110.75 38.8101C110.61 49.7301 110.68 61.1101 110.21 72.4801C110.01 77.2301 109.06 82.0501 107.76 86.6401C106.4 91.4601 102.45 94.1001 97.7395 95.2401C91.6495 96.7101 85.4695 94.0601 81.9095 88.8501C78.1295 83.3201 76.2395 77.0301 74.6895 70.6501C70.9495 55.3101 67.4195 39.9201 63.6395 24.6001C62.9095 21.6501 61.7495 18.7201 60.2695 16.0701C57.2395 10.6401 51.8295 10.2301 47.7395 15.0101C44.6395 18.6401 42.3495 22.7301 41.6595 27.5701C40.9995 32.1301 40.2295 36.6701 39.6295 41.2301C38.7695 47.7201 38.2695 54.2601 37.1695 60.7001C35.9795 67.7301 35.6695 74.9501 32.6995 81.6601C29.8095 88.1901 25.0895 92.7201 18.3595 94.5701C12.7395 96.1101 6.93953 95.2701 1.46953 93.1701C0.759532 92.9001 0.0695321 91.6701 0.00953208 90.8301C-0.0704679 89.6601 0.319532 88.4001 0.729532 87.2601C1.65953 84.6601 2.15953 84.3901 4.83953 85.1501C10.7795 86.8501 16.3695 86.3301 20.8895 81.8801C22.6995 80.1001 24.1295 77.5801 24.8395 75.1401C26.2195 70.4401 27.2495 65.5901 27.9295 60.7301C29.4095 50.1701 30.5395 39.5601 31.9095 28.9901C32.5295 24.2001 33.6495 19.5401 35.6495 15.0901C37.4595 11.0501 40.1095 7.71007 43.5895 5.07007C50.1595 0.0900702 59.0095 1.16007 65.0195 7.49007C68.5895 11.2501 70.5595 15.9101 71.8395 20.7701C74.2895 30.0901 76.3195 39.5101 78.6595 48.8601C81.0395 58.4001 83.4695 67.9401 86.1295 77.4101C86.7995 79.8101 88.1295 82.1801 89.6795 84.1501C92.8795 88.2101 97.4395 87.2801 99.0295 82.3601C99.5895 80.6201 99.9995 78.7701 100.08 76.9501C100.57 66.5001 100.88 56.0501 101.37 45.6001C101.73 37.9301 101.72 30.2001 104.05 22.7601C106.59 14.6601 110.87 7.84007 118.4 3.52007C126.23 -0.97993 134.47 -0.77993 142.8 1.90007C143.48 2.12007 144.21 3.16007 144.32 3.90007C144.53 5.29007 144.46 6.78007 144.22 8.17007C143.96 9.63007 142.88 10.4701 141.33 10.3401C140.31 10.2501 139.31 10.0101 138.31 9.77007C130.74 7.97007 124.31 10.7501 119.26 15.8401C115.09 20.0401 112.69 25.6701 111.82 31.7201C111.49 33.9301 111.15 36.1301 110.75 38.8101Z" fill="white"/>
<path d="M138.219 77.4601C138.219 79.9401 138.039 81.9801 138.269 83.9701C138.529 86.3001 140.469 87.8401 143.019 87.8901C147.019 87.9801 151.019 87.9301 155.019 87.9601C155.839 87.9701 156.689 87.9101 157.459 88.1001C159.019 88.5001 159.909 89.5301 159.819 91.2201C159.729 92.8001 158.789 93.8101 157.299 93.8101C151.559 93.8001 145.789 94.0401 140.109 93.4101C136.029 92.9501 132.999 89.7601 132.699 85.7601C132.209 79.1601 132.089 72.4101 132.899 65.8601C133.739 59.1201 140.669 54.5501 147.349 55.2001C154.409 55.8801 159.739 61.6901 159.849 68.8401C159.879 70.5801 159.909 72.3301 159.849 74.0701C159.769 76.5901 159.079 77.3501 156.499 77.4001C151.779 77.4901 147.059 77.4401 142.339 77.4501C141.129 77.4701 139.919 77.4601 138.219 77.4601ZM153.869 71.3301C154.389 67.1401 153.259 64.0801 149.849 62.1101C146.989 60.4501 144.109 60.7201 141.469 62.5601C138.449 64.6501 137.629 67.6501 138.349 71.3401C143.499 71.3301 148.569 71.3301 153.869 71.3301Z" fill="white"/>
<path d="M243.329 71.3002C243.329 69.2202 243.469 67.3902 243.299 65.5902C243.039 62.9502 240.719 61.0602 237.649 60.9602C234.469 60.8602 231.289 60.9502 228.109 60.9202C225.359 60.8902 224.269 60.0402 224.329 58.0402C224.389 56.1102 225.579 55.2202 228.249 55.2002C231.639 55.1702 235.019 55.1402 238.409 55.2002C244.729 55.3202 249.129 59.8502 249.139 66.2202C249.159 74.0202 249.149 81.8102 249.129 89.6102C249.119 93.2802 248.539 93.9002 244.849 93.9402C240.029 93.9902 235.199 93.9402 230.379 93.9602C226.789 93.9802 224.339 92.2402 222.839 89.1002C220.879 84.9602 220.909 80.7202 222.779 76.6002C224.239 73.3602 226.809 71.5002 230.519 71.5102C233.699 71.5202 236.879 71.5202 240.059 71.5002C241.049 71.4802 242.039 71.3802 243.329 71.3002ZM243.209 77.5002C238.689 77.5002 234.519 77.4302 230.349 77.5602C229.589 77.5802 228.449 78.2002 228.169 78.8502C227.019 81.4602 227.009 84.2402 228.209 86.8202C228.509 87.4602 229.879 87.8602 230.779 87.9002C233.739 88.0402 236.699 87.9802 239.669 87.9602C240.839 87.9502 242.009 87.8302 243.219 87.7602C243.209 84.2402 243.209 81.1102 243.209 77.5002Z" fill="white"/>
<path d="M277.999 60.9302C277.999 62.8202 277.999 64.2402 277.999 65.6602C277.999 73.2402 277.999 80.8202 277.999 88.4002C277.999 89.2202 278.059 90.0502 277.949 90.8602C277.669 92.9202 276.469 94.0402 274.729 93.8302C272.889 93.6102 272.099 92.4302 272.079 90.6502C272.079 90.3402 272.069 90.0402 272.069 89.7302C272.069 79.6902 272.049 69.6502 272.089 59.6102C272.099 55.8202 272.799 55.1902 276.639 55.1802C279.819 55.1702 282.999 55.1402 286.169 55.1902C292.479 55.2902 296.999 59.7902 297.039 66.0702C297.089 73.9602 297.059 81.8502 297.059 89.7402C297.059 90.2502 297.079 90.7702 296.999 91.2702C296.729 92.9002 295.749 93.8802 294.079 93.8302C292.439 93.7802 291.419 92.8202 291.209 91.1802C291.099 90.3702 291.139 89.5402 291.139 88.7302C291.129 81.5602 291.159 74.3902 291.129 67.2102C291.109 63.0502 289.109 61.0602 284.899 60.9402C282.759 60.8802 280.619 60.9302 277.999 60.9302Z" fill="white"/>
<path d="M191.14 68.6102C193.32 64.8402 195.2 61.5802 197.08 58.3302C198.78 55.3902 200.5 54.4802 202.32 55.5702C203.97 56.5602 203.94 58.3902 202.25 61.2802C200.03 65.0802 197.86 68.9102 195.58 72.6702C194.73 74.0702 194.76 75.2202 195.63 76.6202C197.84 80.1802 199.92 83.8302 202.04 87.4402C202.4 88.0602 202.77 88.6802 203.08 89.3202C204 91.2602 203.67 92.8202 202.2 93.5802C200.75 94.3302 199.01 93.8202 198.02 92.2102C196.57 89.8602 195.22 87.4402 193.82 85.0602C193.01 83.6802 192.19 82.3102 191.12 80.5102C189.05 84.0402 187.25 87.1002 185.46 90.1602C184.99 90.9602 184.55 91.7602 184.06 92.5502C183.04 94.2002 181.52 94.2002 180.02 93.4902C178.44 92.7402 178.32 91.2602 178.86 89.8002C179.21 88.8502 179.79 87.9802 180.31 87.1002C182.34 83.6602 184.32 80.1902 186.46 76.8302C187.48 75.2302 187.38 73.9302 186.41 72.3602C184.15 68.7002 182.05 64.9502 179.89 61.2302C179.58 60.7002 179.23 60.1802 179 59.6202C178.34 58.0302 178.44 56.5402 180.07 55.6202C181.66 54.7202 183.13 55.1902 184.07 56.6702C185.45 58.8202 186.65 61.0902 187.95 63.3002C188.89 64.8602 189.84 66.4302 191.14 68.6102Z" fill="white"/>
<path d="M331.049 54.8601C333.539 55.5001 336.119 56.1101 338.659 56.8501C340.379 57.3501 340.729 58.7301 340.389 60.2901C340.049 61.8601 338.899 62.4801 337.389 62.2401C335.769 61.9901 334.189 61.4401 332.569 61.3001C331.189 61.1801 329.709 61.2301 328.399 61.6201C325.899 62.3701 324.099 65.1601 327.279 67.6701C330.979 70.5901 334.429 73.8301 338.099 76.7801C341.329 79.3701 342.639 82.6601 341.659 86.5701C340.629 90.6601 337.489 92.8101 333.509 93.6101C329.479 94.4201 325.569 93.5901 321.729 92.3001C320.059 91.7401 319.489 90.5801 319.829 88.9601C320.149 87.4601 321.739 86.5101 323.389 86.7601C325.809 87.1201 328.209 87.6001 330.639 87.8901C331.519 87.9901 332.509 87.8301 333.349 87.5101C336.009 86.5001 336.989 83.5601 334.399 81.5301C330.289 78.3001 326.409 74.7901 322.449 71.3801C317.989 67.5401 318.689 58.6901 325.479 56.2501C327.219 55.6201 329.049 55.3501 331.049 54.8601Z" fill="white"/>
</g>
<defs>
<clipPath id="clip0">
<path d="M0 0H342V95.65H0V0Z" fill="white"/>
</clipPath>
</defs>
</svg>
