<svg width="342" height="55" viewBox="0 0 342 55" fill="none" xmlns="http://www.w3.org/2000/svg">
<g clip-path="url(#clip0)">
<path d="M324.59 0C325 0.04 325.42 0.08 325.83 0.14C327.82 0.4 329.82 0.61 331.8 0.93C333.74 1.24 335.66 1.66 337.6 2.03C337.86 2.08 337.93 2.22 337.93 2.47C337.93 5.72 337.93 8.98 337.93 12.23C337.93 12.32 337.91 12.42 337.89 12.57C337.71 12.5 337.56 12.45 337.41 12.39C334.48 11.18 331.45 10.34 328.32 9.85C326.45 9.56 324.57 9.4 322.69 9.5C320.92 9.6 319.19 9.91 317.65 10.87C316.9 11.34 316.27 11.93 315.98 12.79C315.56 14.03 315.82 15.71 317.35 16.6C317.95 16.95 318.57 17.27 319.21 17.56C320.77 18.27 322.36 18.93 323.92 19.66C326.48 20.85 329.04 22.03 331.57 23.28C333.95 24.45 336.15 25.91 338.01 27.83C340.03 29.92 341.33 32.37 341.79 35.24C342.25 38.08 342.07 40.86 340.92 43.53C340.24 45.11 339.3 46.52 338.1 47.76C335.96 49.99 333.35 51.5 330.47 52.55C328.15 53.4 325.75 53.9 323.3 54.16C321.27 54.38 319.23 54.48 317.19 54.37C315.05 54.26 312.9 54.1 310.76 53.9C307.85 53.64 304.99 53.08 302.15 52.38C301.71 52.27 301.71 52.27 301.71 51.82C301.71 48.45 301.71 45.09 301.71 41.72C301.71 41.6 301.73 41.48 301.74 41.31C301.9 41.35 302.02 41.37 302.13 41.4C305.4 42.51 308.74 43.35 312.15 43.89C313.89 44.16 315.64 44.33 317.4 44.37C319.11 44.41 320.8 44.3 322.46 43.83C323.49 43.54 324.44 43.1 325.27 42.39C327.03 40.88 326.58 38.59 325.5 37.32C324.77 36.47 323.81 35.96 322.81 35.52C319.59 34.14 316.38 32.74 313.15 31.37C311.14 30.52 309.17 29.58 307.37 28.35C305.21 26.87 303.39 25.07 302.19 22.7C301.4 21.13 300.93 19.48 300.79 17.74C300.71 16.74 300.66 15.73 300.72 14.73C300.87 12.21 301.64 9.89 303.1 7.81C304.72 5.5 306.89 3.85 309.41 2.64C311.95 1.42 314.64 0.71 317.43 0.35C318.36 0.23 319.29 0.18 320.22 0.09C320.31 0.08 320.41 0.05 320.5 0.02C321.85 0 323.22 0 324.59 0Z" fill="white"/>
<path d="M23.7401 -2.92975e-05C24.2401 0.0499707 24.7301 0.109971 25.2301 0.149971C27.7801 0.349971 30.3001 0.739971 32.8101 1.20997C34.1001 1.44997 35.3801 1.73997 36.6601 1.99997C37.0801 2.08997 37.0901 2.08997 37.0901 2.51997C37.0901 5.72997 37.0901 8.93997 37.0901 12.16C37.0901 12.28 37.0701 12.4 37.0601 12.57C36.6501 12.41 36.3001 12.26 35.9401 12.12C33.4601 11.15 30.9101 10.43 28.2901 9.96997C26.2201 9.60997 24.1401 9.39997 22.0401 9.47997C20.3401 9.54997 18.6801 9.82997 17.1601 10.66C16.3901 11.08 15.7101 11.61 15.3101 12.42C14.6901 13.67 14.9401 15.1 16.0301 15.98C16.6501 16.49 17.3401 16.93 18.0601 17.29C19.7501 18.12 21.4801 18.87 23.1801 19.68C26.0901 21.07 29.0201 22.42 31.8901 23.89C34.2301 25.09 36.3101 26.67 38.0201 28.7C39.8501 30.87 40.8801 33.36 41.1201 36.19C41.3701 39.12 40.8701 41.89 39.5001 44.5C38.4401 46.53 36.9401 48.18 35.1301 49.56C32.4501 51.6 29.3901 52.81 26.1201 53.55C24.1701 53.99 22.1901 54.21 20.1901 54.32C18.1101 54.43 16.0301 54.37 13.9501 54.22C12.5001 54.12 11.0501 54.03 9.61007 53.86C7.17007 53.58 4.75007 53.16 2.36007 52.6C1.95007 52.51 1.55007 52.39 1.14007 52.31C0.940072 52.27 0.860072 52.16 0.860072 51.96C0.860072 51.86 0.860072 51.76 0.860072 51.67C0.860072 48.39 0.860072 45.11 0.860072 41.82C0.860072 41.66 0.880072 41.5 0.890072 41.28C1.09007 41.33 1.23007 41.36 1.37007 41.41C4.45007 42.41 7.58007 43.23 10.7801 43.77C12.6501 44.09 14.5401 44.29 16.4401 44.34C17.9701 44.38 19.4801 44.3 20.9701 43.96C22.2601 43.67 23.4501 43.18 24.4101 42.25C25.8201 40.9 26.2001 38.43 24.2601 36.83C23.9401 36.57 23.6001 36.29 23.2301 36.11C22.2901 35.65 21.3301 35.23 20.3701 34.81C17.2201 33.44 14.0501 32.1 10.9101 30.72C8.61007 29.71 6.48007 28.41 4.63007 26.68C2.18007 24.39 0.660072 21.59 0.170072 18.26C-0.219928 15.58 -0.0199282 12.94 0.970072 10.4C1.76007 8.38997 2.99007 6.67997 4.61007 5.24997C7.24007 2.90997 10.3701 1.60997 13.7401 0.809971C15.5801 0.379971 17.4401 0.119971 19.3301 0.0399707C19.4201 0.0399707 19.5201 -2.92975e-05 19.6101 -0.0300293C21.0001 -2.92975e-05 22.3701 -2.92975e-05 23.7401 -2.92975e-05Z" fill="white"/>
<path d="M155.57 32.3299C155.89 31.5999 156.21 30.8799 156.52 30.1499C158.7 25.1099 160.87 20.0699 163.04 15.0399C164.47 11.7299 165.9 8.42986 167.33 5.11986C167.87 3.85986 168.42 2.60986 168.95 1.34986C169.06 1.08986 169.2 0.999856 169.48 0.999856C175.35 1.00986 181.22 0.999856 187.09 0.999856C187.54 0.999856 187.56 1.01986 187.57 1.46986C187.57 1.56986 187.57 1.66986 187.57 1.75986C187.57 18.7199 187.57 35.6699 187.57 52.6299C187.57 53.3099 187.57 53.3099 186.88 53.3099C182.28 53.3099 177.68 53.3099 173.09 53.3099C173.01 53.3099 172.92 53.2999 172.84 53.3099C172.61 53.3299 172.5 53.2199 172.51 52.9899C172.51 52.8899 172.51 52.7899 172.51 52.6999C172.51 41.9999 172.51 31.2999 172.51 20.5999C172.51 20.3899 172.51 20.1899 172.51 19.9799C172.49 19.9699 172.46 19.9599 172.44 19.9499C172.36 20.1099 172.29 20.2699 172.21 20.4399C170.28 24.8799 168.36 29.3299 166.43 33.7699C164.38 38.4999 162.34 43.2199 160.29 47.9499C159.49 49.8099 158.67 51.6599 157.88 53.5199C157.77 53.7799 157.62 53.8699 157.35 53.8699C154.5 53.8599 151.65 53.8599 148.8 53.8699C148.42 53.8699 148.3 53.6799 148.18 53.3999C147.09 50.7999 146 48.1999 144.9 45.5999C143.28 41.7499 141.66 37.9099 140.04 34.0599C138.68 30.8199 137.32 27.5699 135.96 24.3299C135.36 22.8999 134.76 21.4699 134.15 20.0499C134.13 19.9999 134.1 19.9599 134.02 19.9199C134.02 20.3199 134.02 20.7199 134.02 21.1099C134.02 31.6099 134.02 42.1199 134.02 52.6199C134.02 53.3599 134.09 53.3099 133.35 53.3099C130.14 53.3099 126.92 53.3099 123.71 53.3099C123.58 53.3099 123.46 53.2999 123.33 53.3099C123.14 53.3099 123.05 53.2099 123.05 53.0299C123.05 52.8999 123.05 52.7799 123.05 52.6499C123.05 35.6799 123.05 18.7099 123.05 1.73986C123.05 0.859856 123.06 0.999856 123.8 0.999856C129.86 0.999856 135.93 0.999856 141.99 0.999856C142.64 0.999856 142.53 0.949856 142.77 1.52986C144.62 5.98986 146.46 10.4599 148.3 14.9199C150.37 19.9299 152.43 24.9299 154.5 29.9399C154.83 30.7399 155.16 31.5399 155.49 32.3299C155.51 32.3299 155.54 32.3299 155.57 32.3299Z" fill="white"/>
<path d="M281.99 33.03C281.99 32.47 281.99 31.91 281.99 31.36C281.99 21.47 281.99 11.58 281.99 1.69C281.99 1.62 281.99 1.55 281.99 1.48C281.99 1 281.99 1 282.49 1C285.82 1 289.14 1 292.47 1C292.98 1 292.98 1 292.98 1.51C292.98 18.59 292.98 35.67 292.98 52.75C292.98 52.83 292.97 52.92 292.98 53C292.99 53.21 292.9 53.32 292.69 53.31C292.59 53.31 292.49 53.31 292.4 53.31C287.1 53.31 281.81 53.31 276.51 53.32C276.12 53.32 275.92 53.19 275.73 52.86C273.83 49.44 271.91 46.04 270 42.63C267.33 37.87 264.67 33.1 262 28.34C260.61 25.85 259.22 23.37 257.82 20.89C257.79 20.84 257.76 20.8 257.68 20.7C257.67 20.87 257.66 20.98 257.66 21.08C257.66 31.64 257.66 42.2 257.66 52.76C257.66 52.86 257.66 52.96 257.66 53.05C257.66 53.24 257.56 53.33 257.38 53.33C257.28 53.33 257.18 53.33 257.09 53.33C253.83 53.33 250.58 53.33 247.32 53.33C246.78 53.33 246.78 53.33 246.78 52.77C246.78 37.55 246.78 22.32 246.78 7.1C246.78 5.24 246.78 3.38 246.78 1.53C246.78 1.02 246.78 1.02 247.3 1.02C252.81 1.02 258.31 1.02 263.82 1.01C264.17 1.01 264.34 1.14 264.5 1.42C267.43 6.74 270.36 12.06 273.29 17.38C275.57 21.53 277.86 25.67 280.14 29.82C280.66 30.77 281.18 31.73 281.71 32.69C281.78 32.82 281.86 32.95 281.94 33.08C281.94 33.05 281.97 33.04 281.99 33.03Z" fill="white"/>
<path d="M238.57 42.81C238.57 43.05 238.57 43.2 238.57 43.35C238.57 46.49 238.57 49.63 238.57 52.78C238.57 53.31 238.57 53.31 238.04 53.31C225.27 53.31 212.5 53.31 199.72 53.31C199.22 53.31 199.22 53.31 199.22 52.75C199.22 35.7 199.22 18.64 199.22 1.58999C199.22 1.54999 199.22 1.50999 199.22 1.45999C199.22 0.99999 199.22 0.98999 199.69 0.98999C212.32 0.98999 224.96 0.98999 237.59 0.98999C238.06 0.98999 238.06 0.98999 238.06 1.48999C238.06 4.45999 238.06 7.43999 238.06 10.41C238.06 10.94 238.06 10.94 237.52 10.94C230.2 10.94 222.88 10.94 215.55 10.94C215.41 10.94 215.27 10.94 215.13 10.94C214.76 10.95 214.73 10.98 214.73 11.36C214.73 14.81 214.73 18.26 214.72 21.71C214.72 22.01 214.84 22.11 215.12 22.09C215.24 22.08 215.37 22.09 215.5 22.09C221.79 22.09 228.08 22.09 234.36 22.09C234.55 22.09 234.75 22.09 234.98 22.09C235 22.3 235.02 22.46 235.02 22.63C235.02 25.26 235.02 27.88 235.02 30.51C235.02 31.07 235.02 31.07 234.46 31.07C228.14 31.07 221.83 31.07 215.51 31.07C214.63 31.07 214.73 31.01 214.73 31.87C214.73 35.29 214.73 38.71 214.73 42.14C214.73 42.25 214.74 42.36 214.73 42.47C214.71 42.73 214.83 42.83 215.08 42.81C215.19 42.8 215.3 42.81 215.42 42.81C222.94 42.81 230.46 42.81 237.97 42.81C238.15 42.81 238.33 42.81 238.57 42.81Z" fill="white"/>
<path d="M114.31 10.9301C114.06 10.9401 113.86 10.9701 113.65 10.9701C106.38 10.9701 99.1199 10.9701 91.8499 10.9701C91.0799 10.9701 91.1599 10.9301 91.1599 11.6401C91.1599 14.9401 91.1599 18.2301 91.1599 21.5301C91.1599 21.7101 91.1599 21.8801 91.1599 22.1101C97.9099 22.1101 104.59 22.1101 111.32 22.1101C111.32 25.1101 111.32 28.0601 111.32 31.0501C111.11 31.0601 110.91 31.0801 110.7 31.0801C104.41 31.0801 98.1199 31.0801 91.8299 31.0801C91.0599 31.0801 91.1499 31.0501 91.1499 31.7501C91.1499 35.2601 91.1499 38.7601 91.1499 42.2701C91.1499 42.4301 91.1599 42.6001 91.1699 42.8001C99.0399 42.8001 106.87 42.8001 114.75 42.8001C114.77 42.9901 114.79 43.1301 114.79 43.2801C114.79 46.4501 114.79 49.6201 114.79 52.7901C114.79 53.3101 114.79 53.3101 114.25 53.3101C109.83 53.3101 105.42 53.3101 101 53.3101C92.7499 53.3101 84.5099 53.3101 76.2599 53.3101C75.6299 53.3101 75.6299 53.3101 75.6299 52.6601C75.6299 35.6601 75.6299 18.6601 75.6299 1.67009C75.6299 1.00009 75.6299 1.00009 76.2799 1.00009C88.7499 1.00009 101.21 1.00009 113.68 1.00009C113.78 1.00009 113.88 1.00009 113.97 1.00009C114.18 0.990093 114.29 1.07009 114.28 1.29009C114.28 1.37009 114.28 1.46009 114.28 1.54009C114.28 4.50009 114.28 7.46009 114.28 10.4201C114.31 10.5801 114.31 10.7301 114.31 10.9301Z" fill="white"/>
<path d="M63.9103 27.1499C63.9103 35.6699 63.9103 44.1899 63.9103 52.7099C63.9103 53.3199 63.9103 53.3199 63.2903 53.3199C58.4103 53.3199 53.5403 53.3199 48.6603 53.3199C48.5303 53.3199 48.4103 53.3099 48.2803 53.3199C48.0203 53.3399 47.8803 53.2299 47.9003 52.9599C47.9103 52.8499 47.9003 52.7399 47.9003 52.6199C47.9003 35.6799 47.9003 18.7399 47.9003 1.79994C47.9003 0.869938 47.8803 1.00994 48.6803 1.00994C53.5403 1.00994 58.4103 1.00994 63.2703 1.00994C63.4003 1.00994 63.5203 1.00994 63.6503 1.00994C63.8203 1.00994 63.9103 1.08994 63.9103 1.25994C63.9103 1.38994 63.9103 1.50994 63.9103 1.63994C63.9103 10.1399 63.9103 18.6499 63.9103 27.1499Z" fill="white"/>
</g>
<defs>
<clipPath id="clip0">
<path d="M0 0H342V54.41H0V0Z" fill="white"/>
</clipPath>
</defs>
</svg>
