<svg width="342" height="93" viewBox="0 0 342 93" fill="none" xmlns="http://www.w3.org/2000/svg">
<g clip-path="url(#clip0)">
<path d="M253.69 0.40994C268.09 0.40994 282.29 0.40994 296.88 0.40994C300.47 9.68994 302.51 19.4999 305.53 29.0099C308.52 38.4299 311.09 47.9899 313.83 57.4199C314.15 57.4199 314.28 57.4599 314.35 57.4099C314.45 57.3399 314.55 57.2199 314.58 57.0999C314.66 56.7199 314.76 56.3299 314.76 55.9399C314.77 37.6099 314.77 19.2699 314.77 1.01994C317.33 0.00994015 336.26 -0.29006 341.32 0.50994C342.04 3.17994 342.31 86.9799 341.62 92.2299C339.14 93.0299 303.42 93.2899 298.18 92.4499C292.25 73.2699 286.84 53.6799 280.92 34.1599C280.32 53.4999 280.79 72.8799 280.51 92.1599C277.63 93.0799 257.55 93.1999 253.71 92.3499C253.69 61.8299 253.69 31.2499 253.69 0.40994Z" fill="white"/>
<path d="M0 92.7299C0 61.7899 0 31.2099 0 0.389893C26.72 0.389893 53.22 0.389893 80.28 0.389893C78.56 9.02989 75.52 17.1799 72.91 25.9699C59.18 25.9699 45.39 25.9699 31.27 25.9699C31.16 27.7099 31.05 28.9699 31.01 30.2399C30.96 31.3899 31 32.5399 31 33.9999C44.13 33.9999 57.16 33.9999 70.75 33.9999C68.17 42.4899 65.73 50.5399 63.23 58.7499C52.52 58.7499 42.11 58.7499 31.38 58.7499C31.08 61.5099 30.81 64.0299 30.49 67.0199C40.24 67.0199 50.23 67.0199 60.69 67.0199C57.97 75.9399 55.43 84.2799 52.86 92.7299C35.16 92.7299 17.8 92.7299 0 92.7299Z" fill="white"/>
<path d="M193.86 92.84C180.44 92.84 167.04 92.84 153.13 92.84C152.91 87.19 153.06 81.73 153.03 76.29C153 70.79 153.02 65.28 153.02 59.78C153.02 54.28 153.02 48.77 153.02 43.27C153.02 37.78 153.02 32.29 153.02 26.36C151.49 26.22 150.25 26.01 149.01 26C143.25 25.96 137.49 26 131.74 25.96C130.05 25.95 128.37 25.8 126.49 25.71C126.49 17.32 126.49 9.12001 126.49 0.920011C128.97 -0.0199895 168.98 -0.34999 206.18 0.45001C187.63 8.70001 178.05 23.36 175.18 43C173.35 55.54 175.44 75.31 193.86 92.84Z" fill="white"/>
<path d="M243.08 50.5001C243.87 61.4001 233.24 72.0801 220.17 68.2601C215.48 66.8901 212 63.6301 209.93 59.1601C205.14 48.7901 209.85 35.6101 220.98 31.7401C224.99 30.3501 228.9 30.5201 232.68 32.5501C239.56 36.2401 243.42 43.0501 243.08 50.5001Z" fill="white"/>
<path d="M131.41 92.6701C116.94 92.6701 102.89 92.6701 88.5 92.6701C90.96 84.6101 93.35 76.7901 95.76 68.8701C105.5 68.8701 115.01 68.8701 124.78 68.8701C126.1 73.3301 128.1 77.5701 127.96 82.3801C127.94 82.9301 128.46 83.5101 128.79 84.0401C130.43 86.6001 130.87 89.4501 131.41 92.6701Z" fill="white"/>
<path d="M118.2 46.9601C112.84 46.9601 107.95 46.9601 102.49 46.9601C104.94 37.4301 107.83 28.3301 110.68 18.3301C112.85 28.4201 116.38 37.3001 118.2 46.9601Z" fill="white"/>
</g>
<defs>
<clipPath id="clip0">
<path d="M0 0H342V92.98H0V0Z" fill="white"/>
</clipPath>
</defs>
</svg>
