<svg width="342" height="135" viewBox="0 0 342 135" fill="none" xmlns="http://www.w3.org/2000/svg">
<g clip-path="url(#clip0)">
<path d="M289.45 68.9799C290.07 68.9499 290.56 68.9099 291.05 68.9099C304.52 68.9099 317.98 68.9199 331.45 68.8899C332.51 68.8899 333.19 69.2199 333.82 70.0699C337.96 75.6999 340.66 81.9199 341.63 88.8599C342.87 97.7499 341 106.08 336.94 113.97C334.86 118 332.18 121.61 328.84 124.71C325.68 127.64 322.12 129.87 318.02 131.28C313.55 132.83 308.97 133.78 304.27 134.21C300.28 134.57 296.28 134.75 292.28 134.68C291.38 134.66 290.49 134.58 289.69 134.54C289.57 134.39 289.54 134.36 289.51 134.32C289.48 134.28 289.44 134.23 289.44 134.19C289.42 112.82 289.4 91.4399 289.39 70.0699C289.38 69.7699 289.41 69.4699 289.45 68.9799Z" fill="white"/>
<path d="M184.63 134.45C184.63 112.61 184.63 90.9099 184.63 69.0999C184.96 69.0299 185.28 68.9399 185.61 68.9099C185.96 68.8799 186.31 68.8999 186.66 68.8999C199.87 68.8999 213.09 68.8999 226.3 68.8999C226.6 68.8999 226.9 68.9199 227.2 68.8999C227.86 68.8399 228.32 69.1199 228.75 69.6099C230.37 71.4599 231.79 73.4599 232.94 75.6299C235.24 79.9699 236.61 84.5899 237.13 89.4699C237.77 95.4299 237.21 101.25 235.28 106.93C232.69 114.57 228.22 120.9 221.91 125.94C218.29 128.83 214.14 130.65 209.76 132C205.97 133.17 202.08 133.9 198.13 134.14C194.29 134.37 190.43 134.45 186.58 134.58C185.95 134.62 185.32 134.51 184.63 134.45Z" fill="white"/>
<path d="M65.4201 107.21C62.8601 107.33 60.4201 107.25 57.9701 107.27C55.5701 107.28 53.1601 107.27 50.7601 107.27C48.3101 107.27 45.8701 107.27 43.3401 107.27C39.9401 116.35 36.5801 125.34 33.1901 134.43C32.7601 134.47 32.3201 134.53 31.8901 134.54C21.6301 134.55 11.3601 134.55 1.1001 134.54C0.760096 134.54 0.410096 134.5 0.0200958 134.48C-0.109904 133.78 0.230096 133.26 0.420096 132.72C3.9001 123.02 7.3901 113.33 10.8801 103.63C14.8601 92.5699 18.8401 81.5099 22.8301 70.4499C23.0001 69.9799 23.1801 69.5299 23.3401 69.1099C24.5601 68.8599 63.6901 68.8199 65.2601 69.0499C65.2901 69.0899 65.3301 69.1199 65.3601 69.1599C65.3901 69.1999 65.4301 69.2399 65.4301 69.2899C65.4501 81.5499 65.4701 93.8199 65.4901 106.08C65.4901 106.37 65.4601 106.66 65.4201 107.21Z" fill="white"/>
<path d="M134.13 134.48C122.57 134.48 111.32 134.48 99.9201 134.48C96.9201 125.47 93.9301 116.47 90.9601 107.52C90.3201 107.14 89.7001 107.28 89.1201 107.27C82.8601 107.26 76.6101 107.26 70.3501 107.26C69.7101 107.26 69.0601 107.26 68.5001 107.26C68.0001 106.59 68.1601 105.97 68.1601 105.39C68.1501 100.03 68.1501 94.68 68.1501 89.32C68.1501 83.16 68.1501 77.01 68.1501 70.85C68.1501 70.26 68.1901 69.67 68.2101 69.12C69.4801 68.85 108.24 68.79 110 69.05C118.01 90.76 126.03 112.51 134.13 134.48Z" fill="white"/>
<path d="M143.23 0.470059C144.52 0.220059 180.32 0.180059 182 0.420059C182.05 0.720059 182.12 1.05006 182.14 1.38006C182.17 1.78006 182.15 2.18006 182.15 2.58006C182.15 22.9501 182.15 43.3301 182.15 63.7001C182.15 64.4001 182.15 65.0901 182.15 65.8601C181.73 65.9501 181.41 66.0501 181.09 66.0801C180.69 66.1201 180.29 66.1001 179.89 66.1001C168.38 66.1001 156.86 66.1001 145.35 66.1001C144.71 66.1001 144.07 66.0601 143.36 66.0401C143.28 65.6201 143.2 65.2901 143.17 64.9601C143.14 64.6101 143.16 64.2601 143.16 63.9101C143.16 43.3901 143.16 22.8601 143.16 2.34006C143.16 1.70006 143.21 1.07006 143.23 0.470059Z" fill="white"/>
<path d="M182.16 134.34C180.68 134.59 144.75 134.61 143.32 134.38C143.27 134.07 143.2 133.74 143.17 133.41C143.14 133.06 143.16 132.71 143.16 132.36C143.16 111.94 143.16 91.5201 143.16 71.1101C143.16 70.4701 143.16 69.8201 143.16 69.1001C143.61 69.0201 143.94 68.9301 144.26 68.9201C144.91 68.8901 145.56 68.9101 146.21 68.9101C157.47 68.9101 168.73 68.9101 179.99 68.9101C180.63 68.9101 181.27 68.9101 181.98 68.9101C182.05 69.3801 182.12 69.7101 182.14 70.0401C182.17 70.3901 182.15 70.7401 182.15 71.0901C182.15 91.5101 182.15 111.93 182.15 132.34C182.16 132.99 182.16 133.63 182.16 134.34Z" fill="white"/>
<path d="M286.81 65.88C285.42 66.17 249.64 66.18 248.21 65.9C248.16 65.6 248.07 65.2701 248.05 64.94C248.02 64.54 248.04 64.1401 248.04 63.7401C248.04 43.3201 248.04 22.9 248.04 2.48005C248.04 1.80005 248.1 1.11005 248.13 0.470049C249.47 0.220049 285.27 0.200049 286.65 0.420049C286.69 0.450049 286.73 0.480049 286.76 0.520049C286.79 0.560049 286.81 0.610049 286.81 0.660049C286.83 22.13 286.85 43.6 286.87 65.07C286.88 65.31 286.84 65.55 286.81 65.88Z" fill="white"/>
<path d="M248.23 134.46C248.16 134.16 248.07 133.97 248.07 133.78C248.06 112.4 248.06 91.0199 248.07 69.6399C248.07 69.4499 248.16 69.2699 248.2 69.1099C249.41 68.8499 285.06 68.7999 286.65 69.0399C286.68 69.0799 286.71 69.12 286.74 69.16C286.77 69.2 286.81 69.2399 286.82 69.2799C286.84 69.5299 286.87 69.7799 286.87 70.0299C286.86 91.3599 286.85 112.69 286.84 134.02C286.84 134.11 286.77 134.2 286.67 134.45C286.17 134.48 285.59 134.53 285 134.53C276.49 134.54 267.98 134.53 259.46 134.53C256.26 134.53 253.05 134.53 249.85 134.53C249.32 134.53 248.79 134.49 248.23 134.46Z" fill="white"/>
<path d="M184.671 0.36999C184.951 0.31999 185.141 0.25999 185.341 0.23999C190.141 -0.0600098 194.941 -0.19001 199.721 0.48999C203.451 1.01999 207.091 1.88999 210.531 3.44999C215.501 5.69999 219.391 9.15999 222.401 13.71C225.101 17.8 226.811 22.24 227.341 27.09C228.621 38.87 224.841 48.66 215.601 56.21C214.911 56.78 214.181 57.3 213.371 57.92C213.741 58.2 214.011 58.47 214.341 58.65C215.171 59.11 215.991 59.61 216.871 59.96C219.971 61.21 222.251 63.55 224.691 65.68C224.711 65.7 224.691 65.77 224.691 65.83C224.671 65.86 224.661 65.91 224.631 65.94C224.601 65.97 224.551 66.02 224.501 66.02C211.741 66.04 198.971 66.06 186.211 66.08C185.861 66.08 185.511 66.07 185.161 66.04C185.021 66.03 184.881 65.95 184.771 65.91C184.721 65.85 184.691 65.81 184.671 65.76C184.651 65.72 184.611 65.67 184.611 65.63C184.591 65.38 184.561 65.13 184.561 64.88C184.561 43.56 184.571 22.23 184.571 0.90999C184.571 0.78999 184.621 0.63999 184.671 0.36999Z" fill="white"/>
<path d="M289.51 0.289977C291.23 0.209977 292.87 0.0899771 294.51 0.0599771C299.53 -0.0300229 304.52 0.249977 309.42 1.44998C315.13 2.84998 320.26 5.33998 324.26 9.74998C328.46 14.39 331.16 19.78 332.03 26.03C332.63 30.34 332.53 34.61 331.5 38.85C330.19 44.24 327.43 48.83 323.66 52.83C322.29 54.29 320.76 55.58 319.3 56.95C318.98 57.25 318.64 57.54 318.17 57.94C318.64 58.19 319 58.41 319.38 58.58C322.66 60.11 325.75 61.95 328.41 64.44C328.84 64.84 329.25 65.27 329.82 65.84C329.39 65.96 329.14 66.06 328.88 66.09C328.53 66.13 328.18 66.1 327.83 66.1C315.71 66.1 303.6 66.1 291.48 66.1C290.84 66.1 290.2 66.06 289.66 66.04C289.54 65.87 289.5 65.84 289.48 65.79C289.46 65.75 289.42 65.7 289.42 65.66C289.4 65.41 289.37 65.16 289.37 64.91C289.37 43.58 289.38 22.25 289.38 0.929977C289.39 0.779977 289.44 0.629977 289.51 0.289977Z" fill="white"/>
<path d="M65.4301 0.340088C65.4301 22.2901 65.4301 44.0601 65.4301 65.9201C65.0501 65.9901 64.7201 66.0801 64.3901 66.0901C63.5401 66.1101 62.6901 66.1001 61.8401 66.1001C49.8201 66.1001 37.8001 66.1001 25.7901 66.1001C25.1501 66.1001 24.5101 66.0501 23.8701 66.0301C24.0001 64.7901 45.2401 1.85009 46.0201 0.340088C52.4201 0.340088 58.8601 0.340088 65.4301 0.340088Z" fill="white"/>
<path d="M68.3199 0.330078C74.7999 0.330078 81.1899 0.330078 87.7099 0.330078C94.9099 21.9001 102.11 43.4701 109.31 65.0501C109.4 65.3201 109.41 65.6201 109.46 65.8901C108.19 66.1701 85.5099 66.2801 69.7999 66.1001C69.3099 66.0901 68.8299 66.0401 68.3799 66.0001C68.0999 64.7401 68.0499 2.08008 68.3199 0.330078Z" fill="white"/>
</g>
<defs>
<clipPath id="clip0">
<path d="M0 0H342V134.69H0V0Z" fill="white"/>
</clipPath>
</defs>
</svg>
