<svg width="252" height="21" viewBox="0 0 252 21" fill="none" xmlns="http://www.w3.org/2000/svg">
    <path d="M70.8717 15.6713H63.1828L61.4994 19.6719H57.4688L65.7242 0.187317H68.5246L76.5534 19.6719H72.5552L70.8717 15.6713ZM69.7872 12.6425L67.1001 5.77516L64.3483 12.6425H69.7872Z" fill="white"/>
    <path d="M83.9346 0.607544V16.4803H89.8268V19.6872H80.2278V0.607544H83.9346Z" fill="white"/>
    <path d="M96.3988 0.251221H98.9725L104.152 12.7227L109.559 0.251221H112.133L115.338 19.671H111.566L109.85 7.91225L104.622 19.9302H103.586L98.584 7.91225L96.6416 19.671H92.8538L96.3988 0.251221Z" fill="white"/>
    <path d="M131.428 15.6705H123.739L122.056 19.6711H118.025L126.28 0.186462H129.081L137.11 19.6711H133.111L131.428 15.6705ZM130.327 12.6417L127.64 5.77431L124.888 12.6417H130.327Z" fill="white"/>
    <path d="M151.354 3.79829H144.491V8.05801H151.063V11.265H144.491V16.4641H151.354V19.671H140.768V0.607544H151.338V3.79829H151.354Z" fill="white"/>
    <path d="M156.389 19.6872V0.170227H158.962L170.569 13.4353V0.591344H174.292V20.0435H171.718L160.112 6.77847V19.671H156.389V19.6872Z" fill="white"/>
    <path d="M190.624 3.79829H183.761V8.05801H190.333V11.265H183.761V16.4641H190.624V19.671H180.054V0.607544H190.624V3.79829Z" fill="white"/>
    <path d="M201.178 0.607544C203.801 0.607544 205.144 1.28781 206.035 2.03286C207.491 3.2638 207.928 4.89966 207.928 6.32496C207.928 8.18758 207.184 9.80725 205.695 10.8114C205.209 11.1516 204.529 11.4755 203.607 11.6375L209.563 19.6872H204.934L199.851 12.0262H199.398V19.6872H195.675V0.607544H201.178ZM199.382 9.38613H200.434C201.146 9.38613 204.092 9.30515 204.092 6.50313C204.092 3.66871 201.178 3.63632 200.499 3.63632H199.382V9.38613Z" fill="white"/>
    <path d="M223.161 9.46711H231.902V9.95302C231.902 12.1234 231.562 14.3585 230.153 16.3831C227.887 19.6386 224.601 20.1083 222.578 20.1083C216.686 20.1083 212.574 16.1077 212.574 10.1474C212.574 4.21939 216.799 0.170227 222.691 0.170227C228.13 0.170227 230.267 3.60392 230.866 4.6567L227.628 6.40594C227.224 5.69329 225.799 3.53914 222.659 3.53914C218.887 3.53914 216.394 6.53551 216.394 10.196C216.394 13.1438 218.143 16.7232 222.626 16.7232C225.249 16.7232 227.661 15.5733 228.065 12.6579H223.144V9.46711H223.161Z" fill="white"/>
    <path d="M241.096 10.9572L234.556 0.607544H238.959L243.055 7.24817L247.15 0.607544H251.553L244.835 10.9572V19.6872H241.112V10.9572H241.096Z" fill="white"/>
    <path d="M39.879 5.01261H23.9141L21.0947 0.108337H42.8083L39.879 5.01261Z" fill="white"/>
    <path d="M38.2567 12.1811H28.1445L25.3223 7.27969H41.1686L38.2567 12.1811Z" fill="white"/>
    <path d="M39.9426 19.3524H8.76465L11.6766 14.4481H42.8083L39.9426 19.3524Z" fill="white"/>
    <path d="M25.6086 12.1811L19.8773 2.56047C18.7958 1.0221 17.0319 0.108337 15.1523 0.108337C13.2728 0.108337 11.5117 1.0221 10.4274 2.56047L0 19.3524H5.99732L15.0714 4.29547L19.7588 12.1839H25.6086V12.1811Z" fill="white"/>
</svg>
