<svg xmlns="http://www.w3.org/2000/svg" width="23" height="18" viewBox="0 0 23 18"><path fill="#fff" d="M4.96 12.89c0 .2-.19.4-.4.4-.1 0-.2-.04-.28-.12L.74 9.63a.4.4 0 0 1-.1-.28c0-.1.03-.2.1-.28l3.54-3.54a.41.41 0 0 1 .28-.1c.21 0 .4.18.4.38zm17.3 4.72c0 .2-.2.39-.4.39H.63a.4.4 0 0 1-.4-.4v-2.35c0-.21.2-.4.4-.4h21.23c.2 0 .4.19.4.4zm0-4.72c0 .2-.2.4-.4.4H8.49a.4.4 0 0 1-.39-.4v-2.36c0-.2.19-.4.4-.4h13.36c.2 0 .4.2.4.4zm0-4.72c0 .21-.2.4-.4.4H8.49a.4.4 0 0 1-.39-.4V5.81c0-.2.19-.39.4-.39h13.36c.2 0 .4.19.4.4zm0-7.07a.4.4 0 0 0-.4-.4H.63a.4.4 0 0 0-.4.4v2.36c0 .2.2.39.4.39h21.23c.2 0 .4-.18.4-.4z"/></svg>